<?xml version="1.0" encoding="UTF-8" standalone="no"?> <svg xmlns:dc="http://purl.org/dc/elements/1.1/" xmlns:cc="http://creativecommons.org/ns#" xmlns:rdf="http://www.w3.org/1999/02/22-rdf-syntax-ns#" xmlns:svg="http://www.w3.org/2000/svg" xmlns="http://www.w3.org/2000/svg" viewBox="0 0 1122.52 793.70667" height="793.70667" width="1122.52" xml:space="preserve" id="svg2" version="1.1"><metadata id="metadata8"><rdf:RDF><cc:Work rdf:about=""><dc:format>image/svg+xml</dc:format><dc:type rdf:resource="http://purl.org/dc/dcmitype/StillImage" /></cc:Work></rdf:RDF></metadata><defs id="defs6"><clipPath id="clipPath18" clipPathUnits="userSpaceOnUse"><path id="path16" d="M 0,595.28 H 841.89 V 0 H 0 Z" /></clipPath></defs><g transform="matrix(1.3333333,0,0,-1.3333333,0,793.70667)" id="g10"><g id="g12"><g clip-path="url(#clipPath18)" id="g14"><g transform="translate(373.9321,447.8374)" id="g20"><path id="path22" style="fill:#d9211e;fill-opacity:1;fill-rule:evenodd;stroke:none" d="m 0,0 v -6.965 h 21.767 c 7.268,0 15.693,-2.082 19.155,2.612 v 2.611 C 30.679,2.238 13.121,-1.099 0,0 m 53.111,11.319 c 3.127,-6.653 1.93,-21.593 0.872,-29.604 -18.492,-2.854 -48.558,-2.888 -67.044,0 -3.002,6.408 -1.937,20.131 -0.872,27.863 9.418,7.384 52.29,5.425 67.044,1.741" /></g><g transform="translate(380.0264,255.4121)" id="g24"><path id="path26" style="fill:#d9211e;fill-opacity:1;fill-rule:evenodd;stroke:none" d="M 0,0 C 2.793,-2.161 6.96,-8.184 11.319,-3.483 10.448,2.776 2.709,7.31 0,0 m -17.414,-4.354 c 4.449,-2.887 7.969,1.606 10.448,3.482 -1.325,8.029 -11.142,4.464 -10.448,-3.482 m 8.706,11.32 c 3.433,0.238 2.662,-3.725 6.095,-3.484 0.542,2.361 3.637,2.165 3.483,5.224 -3.224,4.856 -7.238,2.711 -9.578,-1.74 M 0,14.802 C 1.363,10.547 8.223,10.539 8.706,15.672 6.869,20.824 1.067,20.612 0,14.802 m -11.319,-4.355 c 0.901,2.292 3.452,2.932 4.353,5.225 -4.958,9.318 -15.569,-2.652 -4.353,-5.225 m 26.991,4.355 C 19.93,10.313 31.885,7.625 30.475,19.155 25.97,24.362 16.7,20.688 15.672,14.802 m -53.983,0.87 c -0.158,-7.91 12.767,-7.981 14.801,0.87 -3.645,6.097 -14.651,6.709 -14.801,-0.87 m 29.603,6.967 c 2.292,-0.902 2.934,-3.454 5.225,-4.356 0.687,1.925 3.045,2.179 4.353,3.484 -0.572,3.2 -3.21,4.335 -5.225,6.094 -0.901,-2.292 -3.452,-2.933 -4.353,-5.222 m 7.836,8.706 c 0.467,-3.308 3.396,-4.153 6.097,-5.224 2.087,3.135 5.505,4.942 6.094,9.576 -4.846,4.851 -7.953,-3.218 -12.191,-4.352 m -10.447,-5.224 c 0.542,2.36 3.637,2.165 3.483,5.224 -2.454,2.77 -4.027,6.42 -9.578,6.095 -2.504,-5.103 2.069,-9.919 6.095,-11.319 m -5.225,50.501 c 1.289,-8.691 18.816,-10.737 23.508,-3.484 -8.277,3.706 -14.451,9.03 -23.508,3.484 M 20.025,74.008 C 30.84,71.192 38.146,78.203 40.922,86.199 28.049,88.559 22.071,79.598 20.025,74.008 M 2.611,81.844 c 4.416,0.063 5.629,-3.077 9.578,-3.483 2.978,2.249 5.59,4.86 7.836,7.838 -7.307,0.053 -14.853,0.342 -17.414,-4.355 m -19.155,2.614 c -2.51,0.719 -7.577,3.401 -10.45,0.87 1.967,-3.051 8.002,-5.155 10.45,-0.87 m -13.061,-5.225 c -3.269,6.024 -13.944,9.266 -23.508,6.095 2.913,-8.047 16.035,-12.377 23.508,-6.095 m 67.044,13.932 h 6.966 c -0.489,2.314 3.581,4.434 0.87,6.094 -2.999,-1.643 -6.365,-2.92 -7.836,-6.094 m -93.164,0 c 3.503,0.559 9.258,-1.132 11.318,0.871 -4.336,3.79 -8.217,8.035 -14.801,9.577 0.517,-4.127 2.426,-6.862 3.483,-10.448 m 126.252,13.931 c -7.711,0.158 -18.003,-4.63 -19.155,-13.931 11.824,-0.796 18.256,3.801 19.155,13.931 m -148.89,4.353 c -0.32,-10.772 6.009,-19.524 15.672,-17.413 -2.169,4.217 -3.84,8.93 -5.225,13.931 -3.393,0.961 -7.689,4.678 -10.447,3.482 m 138.441,0 c 3.68,0.966 6.514,2.774 10.449,3.484 -0.559,3.504 1.131,9.258 -0.872,11.319 -3.789,-4.336 -8.034,-8.218 -9.577,-14.803 m -138.441,8.707 c 2.178,-0.722 3.419,-2.385 6.094,-2.611 -0.341,4.592 -2.18,7.687 -6.094,8.707 0.475,-3.474 0.475,-2.622 0,-6.096 m 100.13,0 h 14.802 c 1.67,2.105 0.551,6.998 0.87,10.449 -6.783,-0.252 -10.473,0.496 -14.8,0.871 -1.715,-2.35 -0.519,-7.608 -0.872,-11.32 m -30.475,0 H 6.095 c -0.56,3.505 1.131,9.259 -0.87,11.32 -6.373,1.288 -20.62,0.306 -13.933,-11.32 m 86.2,-1.74 c 9.431,1.319 13.131,15.606 6.966,22.637 -5.964,-3.902 -8.353,-11.383 -6.966,-22.637 M -84.46,123.64 c 1.892,12.921 -5.936,16.119 -12.189,20.897 -3.111,-10.895 2.875,-19.589 12.189,-20.897 m 162.823,20.026 c 0.824,2.661 4.237,2.729 4.354,6.095 -2.407,0.205 -0.313,4.912 -3.484,4.353 -0.719,-2.51 -3.401,-7.576 -0.87,-10.448 m -56.596,0.871 h 15.672 v 9.578 H 21.767 Z m -31.345,0 H 6.094 v 9.578 H -9.578 Z m -26.991,9.577 v -46.147 c -0.65,-2.835 -4.318,-2.648 -6.097,-4.354 19.115,-16.054 67.499,-12.998 83.588,3.483 -20.655,1.403 -47.126,-3.011 -63.561,2.612 -3.528,10.983 -0.961,28.063 -1.741,41.794 -2.969,-3.263 -11.236,4.679 -12.189,2.612 m -56.597,-2.612 c 3.425,-2.09 5.281,-5.747 8.706,-7.836 0.197,7.452 -0.248,14.264 -4.353,17.414 -0.846,-3.798 -3.017,-6.269 -4.353,-9.578 m 180.235,2.612 c 8.841,2.33 11.546,18.403 3.484,23.51 -3.869,-6.751 -8.341,-14.982 -3.484,-23.51 m -184.588,2.613 c 3.04,8.195 9.344,16.791 1.74,24.379 -6.455,-4.257 -10.331,-19.366 -1.74,-24.379 M 80.105,173.27 c 3.091,1.843 3.684,6.183 5.225,9.578 -2.249,2.977 -4.86,5.589 -7.838,7.836 -1.032,-7.709 1.458,-11.892 2.613,-17.414 m -169.788,12.19 c 1.26,-1.353 1.161,-4.064 2.612,-5.224 1.026,1.939 5.275,8.75 0.869,10.448 -0.54,-2.36 -3.637,-2.167 -3.481,-5.224 m 179.366,5.224 c 2.726,10.981 -3.41,18.725 -12.191,20.897 -2.36,-12.874 6.602,-18.851 12.191,-20.897 m -181.107,2.612 c 4.532,3.966 10.862,15.146 5.222,23.51 -7.163,-2.892 -12.376,-16.51 -5.222,-23.51 m 161.951,14.803 v 6.965 c -1.95,0.953 -4.362,1.442 -6.096,2.612 0.758,-4.467 2.773,-7.677 6.096,-9.577 m -125.382,13.93 c -8.452,-9.54 -20.885,-23.936 -23.508,-40.052 -3.053,-18.734 2.233,-41.188 9.577,-53.983 2.212,-3.857 6.657,-6.659 9.578,-9.578 2.949,-2.951 5.059,-7.708 8.706,-6.967 v 40.053 c -4.969,-8.384 -18.036,-9.784 -18.284,0 -0.15,5.899 10.509,14.01 14.801,20.026 6.141,8.604 9.513,16.234 12.191,22.639 -13.839,-2.741 -32.24,1.683 -21.769,14.802 3.665,1.85 10.608,0.423 15.674,0.871 -2.431,3.953 -3.442,9.328 -6.966,12.189 m -23.508,-3.482 c 0.606,-3.457 -1.52,-9.645 1.739,-10.448 3.148,4.98 7.579,8.675 9.58,14.801 -4.669,-0.556 -8.049,-2.401 -11.319,-4.353 m 148.89,3.482 c 1.412,13.022 -4.862,18.357 -14.802,20.027 1.806,-9.803 5.435,-17.783 14.802,-20.027 m -18.285,8.708 c -1.016,4.208 -2.711,7.736 -4.353,11.319 h -10.45 c 2.347,-6.361 8.983,-8.432 14.803,-11.319 m -98.391,0 c 5.471,-4.471 13.313,-10.972 10.45,-20.897 25.85,0.8 4.606,-25.517 0.869,-33.958 3.718,-3.541 8.184,-6.329 10.45,-11.319 2.654,1.686 6.97,3.751 11.319,4.354 12.909,1.787 43.608,2.787 56.597,0 16.497,-3.542 5.546,-31.167 8.706,-49.63 11.854,9.704 22.878,34.484 18.285,62.69 -1.673,10.267 -10.338,30.385 -15.672,31.345 2.213,-0.398 -7.072,-2.623 -6.966,-2.611 -19.475,-2.121 -44.501,1.569 -67.916,0 -18.681,23.137 44.566,10.865 62.691,13.931 -13.379,20.774 -65.254,22.345 -88.813,6.095 m -6.964,4.353 c 3.323,1.901 7.128,3.32 8.706,6.966 -6.656,1.993 -10.095,-3.807 -8.706,-6.966 m -25.25,-7.836 c 7.104,0.815 19.514,3.641 19.155,14.802 -11.939,0.62 -17.297,-5.342 -19.155,-14.802 m 87.941,23.51 c 2.313,-1.203 7.169,-4.396 10.447,-1.742 -2.754,3.059 -6.712,6.059 -10.447,1.742 m -36.572,-2.613 c 7.747,-0.489 13.795,0.719 17.416,4.353 -7.627,5.11 -14.137,4.197 -17.416,-4.353 m 49.633,6.965 c 3.902,-5.965 11.383,-8.351 22.636,-6.965 -0.428,9.828 -16.056,13.559 -22.636,6.965 m -70.528,-6.965 c 13.346,-2.027 15.963,6.675 21.767,12.19 -11.512,3.245 -19.803,-3.106 -21.767,-12.19 m 33.956,13.061 c 7.382,-3.24 16.701,-9.472 23.511,-1.742 -3.499,6.649 -19.163,10.482 -23.511,1.742 M -0.872,37.44 c 3.971,4.373 15.815,6.782 16.544,-2.613 0.525,-6.756 -5.61,-6.289 -7.836,-12.188 0.589,-2.025 2.893,-2.333 3.483,-4.356 5.091,7.448 21.163,13.064 23.509,0.872 C 37.332,6.146 20.213,2.277 12.189,12.188 10.654,11.401 9.494,10.242 8.706,8.706 8.541,3.846 16.573,3.015 15.672,-3.483 c -1.004,-7.232 -11.6,-7.957 -16.544,-1.742 -1.618,-6.555 2.828,-7.043 3.483,-11.319 1.34,-5.404 -3.173,-4.954 -3.483,-8.708 3.622,-65.993 3.998,-136.679 6.967,-202.005 0.158,-3.472 3.738,-12.962 -1.742,-14.803 -4.913,2.016 -2.434,9.877 -2.611,13.934 -0.675,15.329 -2.161,34.254 -1.742,50.5 -1.572,-14.335 -0.872,-33.568 -0.872,-50.5 0,-4.486 2.198,-11.898 -2.611,-13.934 -4.827,2.114 -2.611,9.639 -2.611,13.934 v 48.76 c -2.339,-15.435 -1.855,-34.629 -2.614,-53.113 -0.105,-2.548 2.077,-9.292 -2.611,-9.581 -5.392,2.614 -2.023,18.353 -1.742,24.383 2.438,52.419 2.775,110.662 5.225,164.563 0.696,15.364 4.111,27.144 -2.613,34.828 0.126,5.098 5.168,5.281 4.355,11.319 -3.704,-2.13 -13.567,-4.852 -15.675,1.742 -2.486,7.78 11.308,11.735 3.483,16.544 -5.84,0.787 -8.512,-8.027 -19.155,-5.224 -6.896,5.105 -5.71,17.438 2.611,19.155 7.86,1.62 10.335,-5.27 15.675,-6.095 1.532,0.788 1.437,3.204 3.481,3.484 -0.792,4.43 -9.584,7.262 -6.965,14.801 2.532,7.287 12.094,3.79 16.545,-0.871 -2.823,5.266 -7.345,5.677 -6.967,12.189 0.336,5.777 5.484,5.857 6.967,11.32 -6.292,4.159 -13.689,7.21 -18.286,13.06 -14.272,-7.426 -33.5,-1.727 -35.7,13.061 -17.459,0.244 -25.814,9.595 -24.38,28.734 -12.554,3.902 -25.819,18.948 -16.542,33.958 -11.996,9.486 -9.603,32.549 3.483,39.181 -7.807,13.767 -2.088,34.417 13.059,35.699 -0.398,17.813 9.404,25.426 27.863,24.38 4.669,12.034 19.316,26.103 34.828,16.543 4.794,2.754 7.647,7.447 14.803,7.836 v 52.243 H 0 v -51.372 c 7.382,-2.484 12.343,-7.391 17.414,-12.189 13.687,8.543 33.119,1.861 35.699,-13.061 17.845,0.141 25.455,-9.954 24.379,-28.733 12.534,-3.604 24.881,-17.753 16.544,-33.958 11.807,-9.319 8.425,-32.671 -3.483,-39.182 7.929,-14.336 1.119,-33.159 -13.061,-35.699 C 77.135,93.232 67.479,85.183 48.759,86.199 44.718,74.234 30.898,61.23 14.801,69.655 9.94,66.391 4.985,63.219 -0.872,60.949 -1.17,55.454 5.459,54.806 6.095,49.63 6.803,43.861 3.248,41.618 -0.872,37.44" /></g><g transform="translate(590.0352,447.8374)" id="g28"><path id="path30" style="fill:#d9211e;fill-opacity:1;fill-rule:evenodd;stroke:none" d="m 0,0 v -6.965 h 21.767 c 7.267,0 15.693,-2.082 19.155,2.612 v 2.611 C 30.679,2.238 13.12,-1.099 0,0 m 53.11,11.319 c 3.127,-6.653 1.93,-21.593 0.872,-29.604 -18.492,-2.854 -48.557,-2.888 -67.044,0 -3.001,6.408 -1.936,20.131 -0.872,27.863 9.418,7.384 52.29,5.425 67.044,1.741" /></g><g transform="translate(596.1289,255.4121)" id="g32"><path id="path34" style="fill:#d9211e;fill-opacity:1;fill-rule:evenodd;stroke:none" d="M 0,0 C 2.793,-2.161 6.96,-8.184 11.319,-3.483 10.448,2.776 2.709,7.31 0,0 m -17.414,-4.354 c 4.449,-2.887 7.969,1.606 10.447,3.482 -1.324,8.029 -11.14,4.464 -10.447,-3.482 m 8.706,11.32 c 3.433,0.238 2.662,-3.725 6.095,-3.484 0.542,2.361 3.637,2.165 3.483,5.224 -3.224,4.856 -7.237,2.711 -9.578,-1.74 M 0,14.802 C 1.363,10.547 8.223,10.539 8.706,15.672 6.869,20.824 1.067,20.612 0,14.802 m -11.319,-4.355 c 0.901,2.292 3.452,2.932 4.352,5.225 -4.957,9.318 -15.568,-2.652 -4.352,-5.225 m 26.992,4.355 C 19.93,10.313 31.885,7.625 30.476,19.155 25.97,24.362 16.7,20.688 15.673,14.802 m -53.984,0.87 c -0.158,-7.91 12.766,-7.981 14.801,0.87 -3.645,6.097 -14.65,6.709 -14.801,-0.87 m 29.603,6.967 c 2.292,-0.902 2.934,-3.454 5.226,-4.356 0.685,1.925 3.044,2.179 4.352,3.484 -0.572,3.2 -3.21,4.335 -5.225,6.094 -0.901,-2.292 -3.452,-2.933 -4.353,-5.222 m 7.836,8.706 c 0.467,-3.308 3.396,-4.153 6.098,-5.224 2.086,3.135 5.504,4.942 6.093,9.576 -4.845,4.851 -7.953,-3.218 -12.191,-4.352 m -10.447,-5.224 c 0.542,2.36 3.637,2.165 3.483,5.224 -2.453,2.77 -4.027,6.42 -9.578,6.095 -2.504,-5.103 2.069,-9.919 6.095,-11.319 m -5.225,50.501 c 1.289,-8.691 18.816,-10.737 23.508,-3.484 -8.277,3.706 -14.45,9.03 -23.508,3.484 M 20.025,74.008 C 30.84,71.192 38.146,78.203 40.923,86.199 28.049,88.559 22.071,79.598 20.025,74.008 M 2.611,81.844 c 4.415,0.063 5.629,-3.077 9.578,-3.483 2.978,2.249 5.589,4.86 7.836,7.838 -7.307,0.053 -14.852,0.342 -17.414,-4.355 m -19.155,2.614 c -2.51,0.719 -7.577,3.401 -10.45,0.87 1.967,-3.051 8.002,-5.155 10.45,-0.87 m -13.061,-5.225 c -3.268,6.024 -13.944,9.266 -23.508,6.095 2.914,-8.047 16.035,-12.377 23.508,-6.095 m 67.044,13.932 h 6.966 c -0.489,2.314 3.581,4.434 0.87,6.094 -2.999,-1.643 -6.366,-2.92 -7.836,-6.094 m -93.164,0 c 3.502,0.559 9.258,-1.132 11.318,0.871 -4.335,3.79 -8.217,8.035 -14.801,9.577 0.517,-4.127 2.427,-6.862 3.483,-10.448 m 126.252,13.931 c -7.711,0.158 -18.003,-4.63 -19.155,-13.931 11.824,-0.796 18.256,3.801 19.155,13.931 m -148.89,4.353 c -0.321,-10.772 6.009,-19.524 15.672,-17.413 -2.168,4.217 -3.84,8.93 -5.225,13.931 -3.393,0.961 -7.689,4.678 -10.447,3.482 m 138.441,0 c 3.68,0.966 6.514,2.774 10.449,3.484 -0.559,3.504 1.131,9.258 -0.872,11.319 -3.789,-4.336 -8.034,-8.218 -9.577,-14.803 m -138.441,8.707 c 2.177,-0.722 3.419,-2.385 6.094,-2.611 -0.34,4.592 -2.18,7.687 -6.094,8.707 0.475,-3.474 0.475,-2.622 0,-6.096 m 100.13,0 h 14.802 c 1.67,2.105 0.551,6.998 0.87,10.449 -6.783,-0.252 -10.473,0.496 -14.8,0.871 -1.714,-2.35 -0.519,-7.608 -0.872,-11.32 m -30.475,0 H 6.095 c -0.56,3.505 1.131,9.259 -0.869,11.32 -6.374,1.288 -20.621,0.306 -13.934,-11.32 m 86.2,-1.74 c 9.431,1.319 13.131,15.606 6.966,22.637 -5.964,-3.902 -8.353,-11.383 -6.966,-22.637 M -84.46,123.64 c 1.892,12.921 -5.936,16.119 -12.188,20.897 -3.112,-10.895 2.874,-19.589 12.188,-20.897 m 162.823,20.026 c 0.824,2.661 4.237,2.729 4.354,6.095 -2.407,0.205 -0.313,4.912 -3.484,4.353 -0.719,-2.51 -3.401,-7.576 -0.87,-10.448 m -56.596,0.871 H 37.44 v 9.578 H 21.767 Z m -31.345,0 H 6.095 v 9.578 H -9.578 Z m -26.991,9.577 v -46.147 c -0.65,-2.835 -4.318,-2.648 -6.097,-4.354 19.115,-16.054 67.499,-12.998 83.589,3.483 -20.656,1.403 -47.126,-3.011 -63.562,2.612 -3.527,10.983 -0.961,28.063 -1.741,41.794 -2.969,-3.263 -11.235,4.679 -12.189,2.612 m -56.597,-2.612 c 3.425,-2.09 5.281,-5.747 8.706,-7.836 0.197,7.452 -0.247,14.264 -4.353,17.414 -0.846,-3.798 -3.017,-6.269 -4.353,-9.578 m 180.235,2.612 c 8.841,2.33 11.546,18.403 3.484,23.51 -3.869,-6.751 -8.341,-14.982 -3.484,-23.51 m -184.589,2.613 c 3.041,8.195 9.344,16.791 1.741,24.379 -6.455,-4.257 -10.33,-19.366 -1.741,-24.379 M 80.105,173.27 c 3.091,1.843 3.684,6.183 5.225,9.578 -2.249,2.977 -4.86,5.589 -7.838,7.836 -1.032,-7.709 1.458,-11.892 2.613,-17.414 m -169.788,12.19 c 1.26,-1.353 1.161,-4.064 2.612,-5.224 1.026,1.939 5.275,8.75 0.87,10.448 -0.541,-2.36 -3.638,-2.167 -3.482,-5.224 m 179.366,5.224 c 2.726,10.981 -3.41,18.725 -12.191,20.897 -2.36,-12.874 6.602,-18.851 12.191,-20.897 m -181.107,2.612 c 4.532,3.966 10.862,15.146 5.223,23.51 -7.164,-2.892 -12.377,-16.51 -5.223,-23.51 m 161.951,14.803 v 6.965 c -1.95,0.953 -4.362,1.442 -6.096,2.612 0.758,-4.467 2.773,-7.677 6.096,-9.577 m -125.382,13.93 c -8.452,-9.54 -20.885,-23.936 -23.508,-40.052 -3.053,-18.734 2.232,-41.188 9.578,-53.983 2.211,-3.857 6.656,-6.659 9.577,-9.578 2.948,-2.951 5.06,-7.708 8.706,-6.967 v 40.053 c -4.969,-8.384 -18.036,-9.784 -18.283,0 -0.151,5.899 10.508,14.01 14.801,20.026 6.14,8.604 9.512,16.234 12.19,22.639 -13.839,-2.741 -32.239,1.683 -21.769,14.802 3.665,1.85 10.608,0.423 15.674,0.871 -2.431,3.953 -3.441,9.328 -6.966,12.189 m -23.508,-3.482 c 0.606,-3.457 -1.52,-9.645 1.74,-10.448 3.146,4.98 7.578,8.675 9.579,14.801 -4.669,-0.556 -8.049,-2.401 -11.319,-4.353 m 148.89,3.482 c 1.412,13.022 -4.862,18.357 -14.802,20.027 1.806,-9.803 5.435,-17.783 14.802,-20.027 m -18.285,8.708 c -1.016,4.208 -2.711,7.736 -4.353,11.319 h -10.45 c 2.347,-6.361 8.983,-8.432 14.803,-11.319 m -98.39,0 c 5.47,-4.471 13.312,-10.972 10.449,-20.897 25.85,0.8 4.606,-25.517 0.869,-33.958 3.718,-3.541 8.184,-6.329 10.45,-11.319 2.654,1.686 6.97,3.751 11.319,4.354 12.91,1.787 43.608,2.787 56.597,0 16.497,-3.542 5.546,-31.167 8.706,-49.63 11.854,9.704 22.878,34.484 18.285,62.69 -1.673,10.267 -10.338,30.385 -15.672,31.345 2.213,-0.398 -7.072,-2.623 -6.966,-2.611 -19.476,-2.121 -44.501,1.569 -67.916,0 -18.682,23.137 44.565,10.865 62.691,13.931 -13.379,20.774 -65.254,22.345 -88.812,6.095 m -6.965,4.353 c 3.323,1.901 7.129,3.32 8.706,6.966 -6.656,1.993 -10.095,-3.807 -8.706,-6.966 m -25.25,-7.836 c 7.104,0.815 19.513,3.641 19.155,14.802 -11.939,0.62 -17.297,-5.342 -19.155,-14.802 m 87.941,23.51 c 2.314,-1.203 7.169,-4.396 10.447,-1.742 -2.754,3.059 -6.712,6.059 -10.447,1.742 m -36.572,-2.613 c 7.747,-0.489 13.795,0.719 17.416,4.353 -7.627,5.11 -14.137,4.197 -17.416,-4.353 m 49.633,6.965 c 3.902,-5.965 11.383,-8.351 22.636,-6.965 -0.428,9.828 -16.056,13.559 -22.636,6.965 m -70.528,-6.965 c 13.346,-2.027 15.963,6.675 21.768,12.19 -11.514,3.245 -19.804,-3.106 -21.768,-12.19 m 33.956,13.061 c 7.382,-3.24 16.701,-9.472 23.511,-1.742 -3.499,6.649 -19.164,10.482 -23.511,1.742 M -0.872,37.44 c 3.971,4.373 15.814,6.782 16.545,-2.613 0.524,-6.756 -5.611,-6.289 -7.836,-12.188 0.588,-2.025 2.892,-2.333 3.482,-4.356 5.09,7.448 21.162,13.064 23.509,0.872 C 37.332,6.146 20.213,2.277 12.189,12.188 10.654,11.401 9.494,10.242 8.706,8.706 8.54,3.846 16.573,3.015 15.673,-3.483 14.668,-10.715 4.072,-11.44 -0.872,-5.225 c -1.618,-6.555 2.828,-7.043 3.483,-11.319 1.34,-5.404 -3.173,-4.954 -3.483,-8.708 3.622,-65.993 3.998,-136.679 6.967,-202.005 0.158,-3.472 3.738,-12.962 -1.742,-14.803 -4.913,2.016 -2.434,9.877 -2.612,13.934 -0.674,15.329 -2.16,34.254 -1.741,50.5 -1.571,-14.335 -0.872,-33.568 -0.872,-50.5 0,-4.486 2.198,-11.898 -2.61,-13.934 -4.829,2.114 -2.612,9.639 -2.612,13.934 v 48.76 c -2.339,-15.435 -1.855,-34.629 -2.614,-53.113 -0.105,-2.548 2.077,-9.292 -2.611,-9.581 -5.392,2.614 -2.023,18.353 -1.742,24.383 2.438,52.419 2.776,110.662 5.225,164.563 0.696,15.364 4.111,27.144 -2.613,34.828 0.127,5.098 5.168,5.281 4.355,11.319 -3.704,-2.13 -13.566,-4.852 -15.675,1.742 -2.487,7.78 11.308,11.735 3.484,16.544 -5.842,0.787 -8.514,-8.027 -19.156,-5.224 -6.896,5.105 -5.71,17.438 2.611,19.155 7.859,1.62 10.335,-5.27 15.675,-6.095 1.532,0.788 1.437,3.204 3.481,3.484 -0.792,4.43 -9.584,7.262 -6.965,14.801 2.532,7.287 12.094,3.79 16.545,-0.871 -2.822,5.266 -7.345,5.677 -6.967,12.19 0.336,5.775 5.485,5.855 6.967,11.318 -6.292,4.16 -13.689,7.211 -18.286,13.061 -14.272,-7.426 -33.5,-1.727 -35.7,13.061 -17.459,0.244 -25.814,9.595 -24.38,28.734 -12.554,3.902 -25.819,18.948 -16.542,33.958 -11.996,9.486 -9.603,32.549 3.482,39.181 -7.806,13.767 -2.087,34.417 13.06,35.699 -0.397,17.813 9.404,25.426 27.863,24.38 4.669,12.034 19.316,26.103 34.828,16.543 4.794,2.754 7.648,7.447 14.802,7.836 v 52.243 H 0 v -51.372 c 7.382,-2.484 12.343,-7.391 17.414,-12.189 13.687,8.543 33.119,1.861 35.699,-13.061 17.845,0.141 25.455,-9.954 24.379,-28.733 12.534,-3.604 24.881,-17.753 16.544,-33.958 11.807,-9.319 8.425,-32.671 -3.483,-39.182 7.929,-14.336 1.119,-33.159 -13.061,-35.699 C 77.135,93.232 67.479,85.183 48.759,86.199 44.718,74.234 30.897,61.229 14.801,69.655 9.94,66.391 4.985,63.22 -0.872,60.949 -1.17,55.454 5.459,54.806 6.095,49.63 6.803,43.861 3.247,41.618 -0.872,37.44" /></g></g></g></g></svg>