<?xml version="1.0" encoding="UTF-8" standalone="no"?>
<svg
   xmlns:dc="http://purl.org/dc/elements/1.1/"
   xmlns:cc="http://creativecommons.org/ns#"
   xmlns:rdf="http://www.w3.org/1999/02/22-rdf-syntax-ns#"
   xmlns:svg="http://www.w3.org/2000/svg"
   xmlns="http://www.w3.org/2000/svg"
   viewBox="0 0 3356.0132 3356.0132"
   height="3356.0132"
   width="3356.0132"
   xml:space="preserve"
   id="svg2"
   version="1.1"><metadata
     id="metadata8"><rdf:RDF><cc:Work
         rdf:about=""><dc:format>image/svg+xml</dc:format><dc:type
           rdf:resource="http://purl.org/dc/dcmitype/StillImage" /></cc:Work></rdf:RDF></metadata><defs
     id="defs6"><clipPath
       id="clipPath18"
       clipPathUnits="userSpaceOnUse"><path
         id="path16"
         d="M 0,2517.008 H 2517.008 V 0 H 0 Z" /></clipPath></defs><g
     transform="matrix(1.3333333,0,0,-1.3333333,0,3356.0133)"
     id="g10"><g
       id="g12"><g
         clip-path="url(#clipPath18)"
         id="g14"><g
           transform="translate(935.7623,2108.9102)"
           id="g20"><path
             id="path22"
             style="fill:none;stroke:#ed1815;stroke-width:5;stroke-linecap:round;stroke-linejoin:miter;stroke-miterlimit:10;stroke-dasharray:none;stroke-opacity:1"
             d="m 0,0 h -298.55 c -24.724,0 -44.952,20.229 -44.952,44.952 0,24.724 20.228,44.952 44.952,44.952 h 45.511" /></g><g
           transform="translate(798.3614,2108.9102)"
           id="g24"><path
             id="path26"
             style="fill:none;stroke:#ed1815;stroke-width:5;stroke-linecap:round;stroke-linejoin:miter;stroke-miterlimit:10;stroke-dasharray:none;stroke-opacity:1"
             d="m 0,0 h 298.55 c 24.724,0 44.952,-20.229 44.952,-44.952 0,-24.724 -20.228,-44.952 -44.952,-44.952 H 83.437" /></g><g
           transform="translate(249.3452,2198.8145)"
           id="g28"><path
             id="path30"
             style="fill:none;stroke:#ed1815;stroke-width:5;stroke-linecap:round;stroke-linejoin:miter;stroke-miterlimit:10;stroke-dasharray:none;stroke-opacity:1"
             d="m 0,0 h 171.957 c 24.724,0 44.952,-20.229 44.952,-44.952 0,-24.724 -20.228,-44.952 -44.952,-44.952 H 6.711" /></g><g
           transform="translate(413.5586,2288.7188)"
           id="g32"><path
             id="path34"
             style="fill:none;stroke:#ed1815;stroke-width:5;stroke-linecap:round;stroke-linejoin:miter;stroke-miterlimit:10;stroke-dasharray:none;stroke-opacity:1"
             d="m 0,0 h 298.55 c 24.724,0 44.952,-20.229 44.952,-44.952 0,-24.724 -20.228,-44.952 -44.952,-44.952 h -62.974" /></g><g
           transform="translate(505.0625,2288.7188)"
           id="g36"><path
             id="path38"
             style="fill:none;stroke:#ed1815;stroke-width:5;stroke-linecap:round;stroke-linejoin:miter;stroke-miterlimit:10;stroke-dasharray:none;stroke-opacity:1"
             d="m 0,0 h -298.55 c -24.724,0 -44.952,-20.229 -44.952,-44.952 0,-24.724 20.228,-44.952 44.952,-44.952 h 78.502" /></g><g
           transform="translate(1377.4385,1929.1016)"
           id="g40"><path
             id="path42"
             style="fill:none;stroke:#ed1815;stroke-width:5;stroke-linecap:round;stroke-linejoin:miter;stroke-miterlimit:10;stroke-dasharray:none;stroke-opacity:1"
             d="m 0,0 h -531.581 c -24.723,0 -44.952,20.229 -44.952,44.952 0,24.724 20.229,44.952 44.952,44.952 h 237.993" /></g><g
           transform="translate(961.1588,2108.9102)"
           id="g44"><path
             id="path46"
             style="fill:none;stroke:#ed1815;stroke-width:5;stroke-linecap:round;stroke-linejoin:miter;stroke-miterlimit:10;stroke-dasharray:none;stroke-opacity:1"
             d="m 0,0 h -298.55 c -24.724,0 -44.952,20.229 -44.952,44.952 0,24.724 20.228,44.952 44.952,44.952 h 45.511" /></g><g
           transform="translate(823.7579,2108.9102)"
           id="g48"><path
             id="path50"
             style="fill:none;stroke:#ed1815;stroke-width:5;stroke-linecap:round;stroke-linejoin:miter;stroke-miterlimit:10;stroke-dasharray:none;stroke-opacity:1"
             d="m 0,0 h 298.55 c 24.724,0 44.952,-20.229 44.952,-44.952 0,-24.724 -20.228,-44.952 -44.952,-44.952 H 83.437" /></g><g
           transform="translate(274.7417,2198.8145)"
           id="g52"><path
             id="path54"
             style="fill:none;stroke:#ed1815;stroke-width:5;stroke-linecap:round;stroke-linejoin:miter;stroke-miterlimit:10;stroke-dasharray:none;stroke-opacity:1"
             d="m 0,0 h 171.957 c 24.724,0 44.952,-20.229 44.952,-44.952 0,-24.724 -20.228,-44.952 -44.952,-44.952 H -43.156" /></g><g
           transform="translate(438.9551,2288.7188)"
           id="g56"><path
             id="path58"
             style="fill:none;stroke:#ed1815;stroke-width:5;stroke-linecap:round;stroke-linejoin:miter;stroke-miterlimit:10;stroke-dasharray:none;stroke-opacity:1"
             d="m 0,0 h 298.55 c 24.724,0 44.952,-20.229 44.952,-44.952 0,-24.724 -20.228,-44.952 -44.952,-44.952 h -62.974" /></g><g
           transform="translate(530.459,2288.7188)"
           id="g60"><path
             id="path62"
             style="fill:none;stroke:#ed1815;stroke-width:5;stroke-linecap:round;stroke-linejoin:miter;stroke-miterlimit:10;stroke-dasharray:none;stroke-opacity:1"
             d="m 0,0 h -298.55 c -24.724,0 -44.952,-20.229 -44.952,-44.952 0,-24.724 20.228,-44.952 44.952,-44.952 h 42.833" /></g><g
           transform="translate(1367.7588,1929.1016)"
           id="g64"><path
             id="path66"
             style="fill:none;stroke:#ed1815;stroke-width:5;stroke-linecap:round;stroke-linejoin:miter;stroke-miterlimit:10;stroke-dasharray:none;stroke-opacity:1"
             d="m 0,0 h -496.504 c -24.724,0 -44.952,20.229 -44.952,44.952 0,24.724 20.228,44.952 44.952,44.952 h 237.992" /></g><g
           transform="translate(1820.6533,628.0967)"
           id="g68"><path
             id="path70"
             style="fill:none;stroke:#ed1815;stroke-width:5;stroke-linecap:round;stroke-linejoin:miter;stroke-miterlimit:10;stroke-dasharray:none;stroke-opacity:1"
             d="m 0,0 c -71.146,-71.335 -178.65,-71.488 -249.985,-0.342 -57.069,56.917 -57.191,149.32 -0.274,206.388 45.533,45.654 119.456,45.753 165.111,0.219 36.523,-36.427 36.601,-95.565 0.174,-132.088 -29.141,-29.219 -76.452,-29.281 -105.671,-0.141 -23.375,23.314 -23.424,61.162 -0.111,84.537 18.651,18.7 48.929,18.74 67.629,0.09 14.96,-14.921 14.992,-39.143 0.071,-54.103 -11.935,-11.969 -31.314,-11.995 -43.282,-0.058 -9.574,9.549 -9.595,25.052 -0.046,34.626" /></g><g
           transform="translate(2106.3887,525.9249)"
           id="g72"><path
             id="path74"
             style="fill:none;stroke:#ed1815;stroke-width:5;stroke-linecap:round;stroke-linejoin:miter;stroke-miterlimit:10;stroke-dasharray:none;stroke-opacity:1"
             d="m 0,0 c 42.39,-91.397 2.66,-193.854 -88.738,-236.243 -73.118,-33.911 -159.884,-2.128 -193.795,70.991 -27.129,58.494 -1.702,127.906 56.793,155.035 46.796,21.703 102.325,1.363 124.028,-45.433 17.362,-37.437 1.09,-81.861 -36.347,-99.224 -29.95,-13.89 -65.488,-0.871 -79.378,29.078 -11.113,23.96 -0.698,52.391 23.262,63.503 19.167,8.89 41.912,0.558 50.802,-18.61 7.111,-15.334 0.446,-33.53 -14.888,-40.642 -12.267,-5.689 -26.824,-0.356 -32.513,11.91" /></g><g
           transform="translate(1880.9023,626.2471)"
           id="g76"><path
             id="path78"
             style="fill:none;stroke:#ed1815;stroke-width:5;stroke-linecap:round;stroke-linejoin:miter;stroke-miterlimit:10;stroke-dasharray:none;stroke-opacity:1"
             d="m 0,0 c 30.159,-34.749 25.643,-86.415 -10.087,-115.398 -28.584,-23.187 -71.315,-19.448 -95.442,8.351 -19.301,22.24 -16.41,55.306 6.457,73.856 18.293,14.839 45.64,12.446 61.082,-5.345 12.353,-14.234 10.503,-35.396 -4.132,-47.268 -11.708,-9.497 -29.21,-7.966 -39.093,3.421 -7.906,9.11 -6.722,22.654 2.645,30.251 7.493,6.078 18.694,5.098 25.019,-2.189 5.06,-5.83 4.302,-14.498 -1.692,-19.361 -4.796,-3.89 -11.965,-3.262 -16.013,1.402" /></g><g
           transform="translate(1916.6123,525.5606)"
           id="g80"><path
             id="path82"
             style="fill:none;stroke:#ed1815;stroke-width:5;stroke-linecap:round;stroke-linejoin:miter;stroke-miterlimit:10;stroke-dasharray:none;stroke-opacity:1"
             d="m 0,0 c -29.245,69.042 -0.154,138.034 70.778,162.294 56.745,19.407 121.714,-9.635 145.11,-64.868 18.716,-44.188 -2.911,-92.594 -48.308,-108.12 -36.317,-12.421 -77.897,6.166 -92.87,41.515 -11.98,28.28 1.863,59.26 30.917,69.197 23.243,7.949 49.853,-3.947 59.436,-26.57 C 172.73,55.349 163.871,35.521 145.276,29.162 130.401,24.074 113.37,31.687 107.237,46.167 102.33,57.75 108,70.439 119.9,74.51 c 9.521,3.256 20.421,-1.616 24.346,-10.883" /></g><g
           transform="translate(1708.3291,854.6143)"
           id="g84"><path
             id="path86"
             style="fill:none;stroke:#ed1815;stroke-width:5;stroke-linecap:round;stroke-linejoin:miter;stroke-miterlimit:10;stroke-dasharray:none;stroke-opacity:1"
             d="m 0,0 c 69.82,57.453 172.996,46.429 230.449,-23.392 45.963,-55.855 37.944,-138.396 -17.913,-184.359 -44.684,-36.77 -110.717,-30.354 -147.487,14.331 -29.416,35.747 -24.283,88.573 11.465,117.989 28.597,23.534 70.858,19.427 94.391,-9.171 18.826,-22.878 15.542,-56.687 -7.337,-75.513 -18.302,-15.062 -45.349,-12.434 -60.411,5.869 -12.049,14.642 -9.946,36.28 4.697,48.329 11.713,9.639 29.023,7.957 38.662,-3.757 7.712,-9.371 6.366,-23.219 -3.005,-30.93" /></g><g
           transform="translate(1813.5283,420.9336)"
           id="g88"><path
             id="path90"
             style="fill:none;stroke:#ed1815;stroke-width:5;stroke-linecap:round;stroke-linejoin:miter;stroke-miterlimit:10;stroke-dasharray:none;stroke-opacity:1"
             d="m 0,0 c -44.192,-49.258 -116.949,-53.364 -166.207,-9.172 -39.406,35.355 -42.691,95.96 -7.338,135.366 28.283,31.525 76.768,34.154 108.293,5.87 25.221,-22.626 27.322,-61.414 4.696,-86.634 -18.101,-20.176 -49.132,-21.858 -69.307,-3.757 -16.141,14.481 -17.487,39.306 -3.005,55.446 11.584,12.912 31.443,13.989 44.356,2.404 10.33,-9.267 11.192,-25.155 1.923,-35.485 -7.414,-8.265 -20.124,-8.953 -28.388,-1.539 -6.611,5.932 -7.163,16.1 -1.231,22.711" /></g><g
           transform="translate(1778.9492,247.3291)"
           id="g92"><path
             id="path94"
             style="fill:none;stroke:#ed1815;stroke-width:5;stroke-linecap:round;stroke-linejoin:miter;stroke-miterlimit:10;stroke-dasharray:none;stroke-opacity:1"
             d="m 0,0 c -45.801,-15.935 -101.914,1.077 -124.273,44.129 -17.888,34.44 -2.686,72.694 33.954,85.442 29.312,10.199 64.675,-3.871 78.985,-31.424 11.448,-22.042 1.719,-46.524 -21.73,-54.683 -18.76,-6.526 -41.393,2.477 -50.551,20.111 -7.327,14.108 -1.1,29.777 13.908,34.997 12.006,4.178 26.49,-1.585 32.352,-12.871 4.689,-9.028 0.704,-19.056 -8.901,-22.397 -7.684,-2.674 -16.954,1.014 -20.706,8.237 -3.001,5.778 -0.45,12.196 5.697,14.335" /></g><g
           transform="translate(1646.3594,580.5391)"
           id="g96"><path
             id="path98"
             style="fill:none;stroke:#ed1815;stroke-width:5;stroke-linecap:round;stroke-linejoin:miter;stroke-miterlimit:10;stroke-dasharray:none;stroke-opacity:1"
             d="m 0,0 c -12.029,-61.294 -71.471,-101.23 -132.764,-89.2 -49.035,9.624 -80.984,57.177 -71.36,106.212 7.699,39.227 45.741,64.787 84.97,57.088 31.382,-6.16 51.829,-36.593 45.67,-67.976 -4.928,-25.105 -29.275,-41.464 -54.38,-36.536 -20.085,3.942 -33.171,23.42 -29.23,43.504 3.154,16.068 18.736,26.537 34.804,23.384 12.854,-2.524 21.229,-14.989 18.706,-27.843 -2.018,-10.283 -11.99,-16.984 -22.273,-14.966 -8.228,1.615 -13.587,9.593 -11.973,17.819" /></g><g
           transform="translate(1779.4521,248.0557)"
           id="g100"><path
             id="path102"
             style="fill:none;stroke:#ed1815;stroke-width:5;stroke-linecap:round;stroke-linejoin:miter;stroke-miterlimit:10;stroke-dasharray:none;stroke-opacity:1"
             d="m 0,0 c -61.557,-116.846 -206.18,-161.667 -323.025,-100.11 -93.477,49.245 -129.333,164.943 -80.088,258.42 39.395,74.781 131.954,103.466 206.735,64.07 59.825,-31.517 82.774,-105.564 51.257,-165.389 -25.214,-47.86 -84.451,-66.219 -132.312,-41.005 -38.287,20.171 -52.974,67.561 -32.803,105.849 16.136,30.63 54.049,42.38 84.678,26.243 24.505,-12.909 33.905,-43.239 20.996,-67.743 -10.328,-19.604 -34.591,-27.123 -54.195,-16.796 -15.683,8.262 -21.699,27.673 -13.436,43.356" /></g><g
           transform="translate(1266.8955,1300.8164)"
           id="g104"><path
             id="path106"
             style="fill:none;stroke:#ed1815;stroke-width:5;stroke-linecap:butt;stroke-linejoin:miter;stroke-miterlimit:10;stroke-dasharray:none;stroke-opacity:1"
             d="m 0,0 c -36.526,0.399 -65.775,27.254 -65.33,59.983 0.357,26.183 24.334,47.149 53.555,46.83 C 11.602,106.557 30.321,89.37 30.035,68.423 29.808,51.667 14.462,38.248 -4.239,38.453 -19.2,38.616 -31.181,49.616 -30.998,63.021 -30.852,73.746 -21.031,82.334 -9.063,82.203 0.513,82.098 8.181,75.059 8.063,66.479 7.97,59.615 1.685,54.119 -5.976,54.203 c -6.128,0.067 -11.035,4.572 -10.96,10.063 0.06,4.393 4.082,7.91 8.985,7.857" /></g><g
           transform="translate(1943.3438,1407.6328)"
           id="g108"><path
             id="path110"
             style="fill:none;stroke:#ed1815;stroke-width:5;stroke-linecap:butt;stroke-linejoin:miter;stroke-miterlimit:10;stroke-dasharray:none;stroke-opacity:1"
             d="m 0,0 c -36.526,0.399 -65.775,27.254 -65.329,59.983 0.356,26.183 24.333,47.149 53.554,46.83 C 11.602,106.557 30.321,89.37 30.036,68.423 29.808,51.667 14.462,38.248 -4.239,38.452 -19.2,38.616 -31.181,49.616 -30.998,63.021 -30.852,73.746 -21.031,82.333 -9.063,82.203 0.513,82.098 8.181,75.058 8.063,66.479 7.971,59.615 1.685,54.119 -5.976,54.203 c -6.128,0.067 -11.035,4.572 -10.96,10.063 0.06,4.393 4.082,7.91 8.985,7.857" /></g><g
           transform="translate(2157.2256,1621.2651)"
           id="g112"><path
             id="path114"
             style="fill:none;stroke:#ed1815;stroke-width:5;stroke-linecap:butt;stroke-linejoin:miter;stroke-miterlimit:10;stroke-dasharray:none;stroke-opacity:1"
             d="m 0,0 c 36.525,-0.399 65.774,-27.254 65.329,-59.983 -0.356,-26.183 -24.334,-47.149 -53.555,-46.83 -23.376,0.256 -42.095,17.443 -41.81,38.389 0.227,16.757 15.573,30.176 34.274,29.971 14.962,-0.163 26.942,-11.163 26.76,-24.568 -0.146,-10.725 -9.968,-19.313 -21.936,-19.182 -9.576,0.104 -17.243,7.144 -17.126,15.724 0.093,6.864 6.378,12.36 14.039,12.276 6.128,-0.067 11.035,-4.572 10.961,-10.063 -0.06,-4.393 -4.083,-7.911 -8.986,-7.857" /></g><g
           transform="translate(1211.8628,1354.2246)"
           id="g116"><path
             id="path118"
             style="fill:none;stroke:#ed1815;stroke-width:5;stroke-linecap:butt;stroke-linejoin:miter;stroke-miterlimit:10;stroke-dasharray:none;stroke-opacity:1"
             d="M 0,0 V 0" /></g><g
           transform="translate(1417.3184,1407.6328)"
           id="g120"><path
             id="path122"
             style="fill:none;stroke:#ed1815;stroke-width:5;stroke-linecap:butt;stroke-linejoin:miter;stroke-miterlimit:10;stroke-dasharray:none;stroke-opacity:1"
             d="m 0,0 h 70.766 c 29.374,0 53.408,-24.034 53.408,-53.408 0,-29.375 -24.034,-53.408 -53.408,-53.408 h -222.814" /></g><g
           transform="translate(2218.1543,1514.4487)"
           id="g124"><path
             id="path126"
             style="fill:none;stroke:#ed1815;stroke-width:5;stroke-linecap:butt;stroke-linejoin:miter;stroke-miterlimit:10;stroke-dasharray:none;stroke-opacity:1"
             d="m 0,0 h 70.766 c 29.374,0 53.407,-24.034 53.407,-53.408 v 0 c 0,-29.374 -24.033,-53.408 -53.407,-53.408 h -346.872" /></g><g
           transform="translate(1355.0195,1461.0405)"
           id="g128"><path
             id="path130"
             style="fill:none;stroke:#ed1815;stroke-width:5;stroke-linecap:butt;stroke-linejoin:miter;stroke-miterlimit:10;stroke-dasharray:none;stroke-opacity:1"
             d="m 0,0 c 0,-29.374 24.033,-53.408 53.408,-53.408 h 77.269" /></g><g
           transform="translate(1798.7393,1514.4487)"
           id="g132"><path
             id="path134"
             style="fill:none;stroke:#ed1815;stroke-width:5;stroke-linecap:butt;stroke-linejoin:miter;stroke-miterlimit:10;stroke-dasharray:none;stroke-opacity:1"
             d="m 0,0 h -390.312 c -29.375,0 -53.408,-24.034 -53.408,-53.408" /></g><g
           transform="translate(2109.5352,1567.8569)"
           id="g136"><path
             id="path138"
             style="fill:none;stroke:#ed1815;stroke-width:5;stroke-linecap:butt;stroke-linejoin:miter;stroke-miterlimit:10;stroke-dasharray:none;stroke-opacity:1"
             d="m 0,0 c 0,-29.375 24.033,-53.408 53.407,-53.408 h 77.269" /></g><g
           transform="translate(2181.4258,1621.2651)"
           id="g140"><path
             id="path142"
             style="fill:none;stroke:#ed1815;stroke-width:5;stroke-linecap:butt;stroke-linejoin:miter;stroke-miterlimit:10;stroke-dasharray:none;stroke-opacity:1"
             d="M 0,0 H -18.483 C -47.857,0 -71.891,-24.034 -71.891,-53.408" /></g><g
           transform="translate(1697.1416,1674.6733)"
           id="g144"><path
             id="path146"
             style="fill:none;stroke:#ed1815;stroke-width:5;stroke-linecap:butt;stroke-linejoin:miter;stroke-miterlimit:10;stroke-dasharray:none;stroke-opacity:1"
             d="m 0,0 c 0,-29.375 24.033,-53.408 53.408,-53.408 h 77.268" /></g><g
           transform="translate(2140.8604,1728.0811)"
           id="g148"><path
             id="path150"
             style="fill:none;stroke:#ed1815;stroke-width:5;stroke-linecap:butt;stroke-linejoin:miter;stroke-miterlimit:10;stroke-dasharray:none;stroke-opacity:1"
             d="m 0,0 h -390.311 c -29.375,0 -53.408,-24.033 -53.408,-53.408" /></g><g
           transform="translate(1893.6299,1567.8569)"
           id="g152"><path
             id="path154"
             style="fill:none;stroke:#ed1815;stroke-width:5;stroke-linecap:butt;stroke-linejoin:miter;stroke-miterlimit:10;stroke-dasharray:none;stroke-opacity:1"
             d="m 0,0 c 0,-29.375 -24.034,-53.408 -53.408,-53.408 h -77.269" /></g><g
           transform="translate(1776.0596,1621.2651)"
           id="g156"><path
             id="path158"
             style="fill:none;stroke:#ed1815;stroke-width:5;stroke-linecap:butt;stroke-linejoin:miter;stroke-miterlimit:10;stroke-dasharray:none;stroke-opacity:1"
             d="M 0,0 H 64.162 C 93.536,0 117.57,-24.034 117.57,-53.408" /></g><g
           transform="translate(2240.2109,1674.6733)"
           id="g160"><path
             id="path162"
             style="fill:none;stroke:#ed1815;stroke-width:5;stroke-linecap:butt;stroke-linejoin:miter;stroke-miterlimit:10;stroke-dasharray:none;stroke-opacity:1"
             d="M 0,0 C 0,-29.375 -24.033,-53.408 -53.408,-53.408 H -77.269" /></g><g
           transform="translate(2122.6406,1728.0815)"
           id="g164"><path
             id="path166"
             style="fill:none;stroke:#ed1815;stroke-width:5;stroke-linecap:butt;stroke-linejoin:miter;stroke-miterlimit:10;stroke-dasharray:none;stroke-opacity:1"
             d="M 0,0 H 64.162 C 93.537,0 117.57,-24.034 117.57,-53.408" /></g><g
           transform="translate(717.0596,614.5518)"
           id="g168"><path
             id="path170"
             style="fill:#ed1815;fill-opacity:1;fill-rule:nonzero;stroke:none"
             d="m 0,0 c 0,-18.455 -14.96,-33.415 -33.415,-33.415 -18.454,0 -33.415,14.96 -33.415,33.415 0,18.454 14.961,33.415 33.415,33.415 C -14.96,33.415 0,18.454 0,0" /></g><g
           transform="translate(683.6451,647.4669)"
           id="g172"><path
             id="path174"
             style="fill:#990404;fill-opacity:1;fill-rule:nonzero;stroke:none"
             d="m 0,0 c -18.149,0 -32.915,-14.766 -32.915,-32.915 0,-18.149 14.766,-32.915 32.915,-32.915 18.149,0 32.915,14.766 32.915,32.915 C 32.915,-14.766 18.149,0 0,0 m 0,-66.83 c -18.701,0 -33.915,15.214 -33.915,33.915 C -33.915,-14.214 -18.701,1 0,1 18.701,1 33.915,-14.214 33.915,-32.915 33.915,-51.616 18.701,-66.83 0,-66.83" /></g><g
           transform="translate(1278.1133,715.2344)"
           id="g176"><path
             id="path178"
             style="fill:#ed1815;fill-opacity:1;fill-rule:nonzero;stroke:none"
             d="m 0,0 h -151.729 c -18.554,0 -33.734,15.181 -33.734,33.734 0,18.554 15.18,33.735 33.734,33.735 H 0 c 18.554,0 33.734,-15.181 33.734,-33.735 C 33.734,15.181 18.554,0 0,0" /></g><g
           transform="translate(1126.3843,782.2032)"
           id="g180"><path
             id="path182"
             style="fill:#990404;fill-opacity:1;fill-rule:nonzero;stroke:none"
             d="m 0,0 c -18.325,0 -33.234,-14.909 -33.234,-33.234 0,-18.326 14.909,-33.234 33.234,-33.234 h 151.729 c 18.326,0 33.234,14.908 33.234,33.234 C 184.963,-14.909 170.055,0 151.729,0 Z M 151.729,-67.468 H 0 c -18.876,0 -34.234,15.358 -34.234,34.234 C -34.234,-14.357 -18.876,1 0,1 h 151.729 c 18.877,0 34.234,-15.357 34.234,-34.234 0,-18.876 -15.357,-34.234 -34.234,-34.234" /></g><g
           transform="translate(383.5225,853.1983)"
           id="g184"><path
             id="path186"
             style="fill:#ed1815;fill-opacity:1;fill-rule:nonzero;stroke:none"
             d="m 0,0 h -242.913 c -18.553,0 -33.734,15.18 -33.734,33.733 0,18.554 15.181,33.735 33.734,33.735 L 0,67.468 c 18.554,0 33.734,-15.181 33.734,-33.735 C 33.734,15.18 18.554,0 0,0" /></g><g
           transform="translate(140.6099,920.1661)"
           id="g188"><path
             id="path190"
             style="fill:#990404;fill-opacity:1;fill-rule:nonzero;stroke:none"
             d="m 0,0 c -18.326,0 -33.234,-14.909 -33.234,-33.234 0,-18.326 14.908,-33.234 33.234,-33.234 h 242.913 c 18.325,0 33.233,14.908 33.233,33.234 C 276.146,-14.909 261.238,0 242.913,0 Z M 242.913,-67.468 H 0 c -18.877,0 -34.234,15.358 -34.234,34.234 C -34.234,-14.357 -18.877,1 0,1 h 242.913 c 18.876,0 34.233,-15.357 34.233,-34.234 0,-18.876 -15.357,-34.234 -34.233,-34.234" /></g><g
           transform="translate(1198.1538,1049.1279)"
           id="g192"><path
             id="path194"
             style="fill:#ed1815;fill-opacity:1;fill-rule:nonzero;stroke:none"
             d="m 0,0 h -533.927 c -18.381,0 -33.421,-15.039 -33.421,-33.421 0,-18.381 15.04,-33.42 33.421,-33.42 h 25.715 c 18.381,0 33.42,-15.039 33.42,-33.421 0,-16.435 -12.027,-30.189 -27.712,-32.919 h -230.071 c -18.382,0 -33.421,-15.039 -33.421,-33.421 0,-18.38 15.039,-33.419 33.421,-33.419 h 99.558 c 18.382,0 33.421,-15.039 33.421,-33.421 0,-18.381 -15.039,-33.42 -33.421,-33.42 h -51.615 c -18.381,0 -33.42,-15.039 -33.42,-33.421 0,-18.381 15.039,-33.42 33.42,-33.42 h 358.616 c 14.666,-3.527 25.652,-16.785 25.652,-32.493 0,-16.361 -11.917,-30.064 -27.498,-32.881 h -110.124 c -18.381,0 -33.42,-15.039 -33.42,-33.42 0,-18.382 15.039,-33.421 33.42,-33.421 h 310.483 c 18.381,0 33.42,15.039 33.42,33.421 0,18.381 -15.039,33.42 -33.42,33.42 h -60.61 c -15.581,2.817 -27.499,16.52 -27.499,32.881 0,15.706 10.984,28.965 25.648,32.493 h 39.259 c 18.381,0 33.421,15.039 33.421,33.42 0,18.382 -15.04,33.421 -33.421,33.421 h -125.49 c -18.381,0 -33.42,15.039 -33.42,33.42 0,18.382 15.039,33.421 33.42,33.421 h 5.718 c 18.381,0 33.42,15.039 33.42,33.419 0,18.382 -15.039,33.421 -33.42,33.421 h -91.848 c -15.687,2.729 -27.715,16.483 -27.715,32.919 0,17.784 14.077,32.438 31.638,33.372 -0.591,0.033 -1.185,0.049 -1.783,0.049 H 0 c 18.381,0 34.128,15.533 33.42,33.42 C 33.42,-15.039 18.381,0 0,0" /></g><g
           transform="translate(513.522,781.9571)"
           id="g196"><path
             id="path198"
             style="fill:#990404;fill-opacity:1;fill-rule:nonzero;stroke:none"
             d="m 0,0 c -18.258,0 -33.112,-14.854 -33.112,-33.112 0,-18.258 14.854,-33.112 33.112,-33.112 h 358.653 l 0.035,-0.008 c 15.243,-3.666 25.889,-17.151 25.889,-32.793 0,-16.321 -11.671,-30.277 -27.752,-33.185 l -110.179,-0.005 c -18.258,0 -33.112,-14.853 -33.112,-33.111 0,-18.259 14.854,-33.112 33.112,-33.112 h 310.483 c 18.258,0 33.112,14.853 33.112,33.112 0,18.258 -14.854,33.111 -33.112,33.111 h -60.61 c -16.136,2.913 -27.808,16.869 -27.808,33.19 0,15.64 10.644,29.126 25.884,32.793 l 0.072,0.008 h 39.26 c 18.258,0 33.112,14.854 33.112,33.112 C 567.039,-14.854 552.185,0 533.927,0 h -125.49 c -18.598,0 -33.729,15.131 -33.729,33.729 0,18.598 15.131,33.728 33.729,33.728 h 5.718 c 18.258,0 33.112,14.855 33.112,33.113 0,18.257 -14.854,33.112 -33.112,33.112 h -91.848 c -16.26,2.824 -28.023,16.796 -28.023,33.227 0,17.34 13.112,31.743 30.163,33.54 v 0.189 h 360.185 c 8.982,0 17.794,3.808 24.176,10.448 6.09,6.335 9.264,14.38 8.936,22.651 0,18.271 -14.854,33.125 -33.112,33.125 H 150.705 c -18.258,0 -33.112,-14.854 -33.112,-33.112 0,-18.258 14.854,-33.112 33.112,-33.112 h 25.714 c 18.599,0 33.729,-15.131 33.729,-33.729 0,-16.43 -11.762,-30.402 -27.967,-33.222 l -230.124,-0.005 c -18.259,0 -33.113,-14.855 -33.113,-33.112 0,-18.258 14.854,-33.113 33.113,-33.113 h 99.558 c 18.598,0 33.729,-15.13 33.729,-33.728 C 85.344,15.131 70.213,0 51.615,0 Z M 557.129,-199.056 H 246.646 c -18.598,0 -33.729,15.131 -33.729,33.73 0,18.597 15.131,33.728 33.729,33.728 h 110.125 c 15.731,2.85 27.189,16.55 27.189,32.573 0,15.344 -10.435,28.574 -25.38,32.184 H 0 c -18.598,0 -33.729,15.131 -33.729,33.729 0,18.597 15.131,33.728 33.729,33.728 h 51.615 c 18.259,0 33.113,14.855 33.113,33.113 0,18.257 -14.854,33.112 -33.113,33.112 h -99.558 c -18.599,0 -33.729,15.131 -33.729,33.729 0,18.598 15.13,33.728 33.729,33.728 h 230.07 c 15.857,2.764 27.405,16.481 27.405,32.611 0,18.258 -14.855,33.112 -33.113,33.112 h -25.714 c -18.598,0 -33.729,15.131 -33.729,33.729 0,18.599 15.131,33.728 33.729,33.728 h 533.927 c 18.598,0 33.729,-15.129 33.729,-33.728 0.333,-8.429 -2.901,-16.635 -9.109,-23.092 -6.498,-6.76 -15.471,-10.637 -24.62,-10.637 H 326.246 v -0.047 C 308.669,199.038 294.9,184.516 294.9,166.909 c 0,-16.131 11.549,-29.847 27.46,-32.616 l 91.795,0.005 c 18.598,0 33.728,-15.13 33.728,-33.728 0,-18.598 -15.13,-33.729 -33.728,-33.729 h -5.718 c -18.258,0 -33.112,-14.855 -33.112,-33.112 0,-18.258 14.854,-33.113 33.112,-33.113 h 125.49 c 18.598,0 33.729,-15.131 33.729,-33.728 0,-18.598 -15.131,-33.729 -33.729,-33.729 h -39.223 c -14.943,-3.612 -25.376,-16.842 -25.376,-32.184 0,-16.023 11.459,-29.723 27.245,-32.578 l 60.556,0.005 c 18.598,0 33.728,-15.131 33.728,-33.728 0,-18.599 -15.13,-33.73 -33.728,-33.73" /></g><g
           transform="translate(1192.0229,1049.3457)"
           id="g200"><path
             id="path202"
             style="fill:#990404;fill-opacity:1;fill-rule:nonzero;stroke:none"
             d="m 0,0 c 5.666,0.344 11.434,-0.165 16.869,-1.923 5.436,-1.722 10.458,-4.828 14.35,-9.031 3.87,-4.222 6.556,-9.502 7.792,-15.09 0.632,-2.793 0.938,-5.653 0.956,-8.513 0.021,-0.715 -0.012,-1.429 -0.04,-2.144 -0.01,-0.713 -0.089,-1.431 -0.15,-2.148 -0.179,-1.425 -0.414,-2.85 -0.807,-4.236 -1.501,-5.572 -4.761,-10.595 -9.014,-14.455 -4.255,-3.871 -9.478,-6.662 -15.058,-8.082 -1.396,-0.349 -2.808,-0.643 -4.239,-0.814 -1.429,-0.194 -2.866,-0.291 -4.312,-0.292 -2.901,-0.022 -5.798,0.481 -8.552,1.389 -2.748,0.936 -5.348,2.309 -7.663,4.069 -2.306,1.769 -4.329,3.917 -5.926,6.36 -1.591,2.444 -2.734,5.193 -3.308,8.068 -0.286,1.438 -0.437,2.906 -0.418,4.374 0.001,1.476 0.196,2.959 0.574,4.39 0.75,2.868 2.218,5.533 4.193,7.725 1.967,2.2 4.401,3.965 7.078,5.183 2.674,1.226 5.581,1.925 8.514,2.084 2.924,0.188 5.956,-0.244 8.705,-1.386 2.758,-1.121 5.248,-2.948 7.106,-5.315 1.862,-2.357 3.043,-5.304 3.2,-8.343 0.235,-3.047 -0.81,-6.224 -2.775,-8.571 -1.94,-2.384 -4.682,-4.022 -7.615,-4.778 -1.472,-0.375 -2.986,-0.544 -4.51,-0.488 -1.537,0.059 -3.072,0.392 -4.498,1 -2.848,1.196 -5.293,3.579 -6.286,6.635 -0.478,1.522 -0.642,3.141 -0.294,4.772 0.347,1.612 1.202,3.085 2.352,4.215 1.147,1.14 2.576,1.957 4.101,2.413 1.533,0.448 3.127,0.588 4.754,0.286 1.606,-0.31 3.14,-1.092 4.314,-2.291 1.175,-1.189 1.958,-2.844 2.024,-4.576 0.034,-0.86 -0.12,-1.798 -0.488,-2.608 -0.361,-0.818 -0.908,-1.537 -1.561,-2.112 -1.312,-1.154 -3.041,-1.727 -4.735,-1.703 -0.681,0.007 -1.226,0.566 -1.218,1.248 0.008,0.68 0.567,1.225 1.248,1.217 l 0.011,-0.001 c 1.133,-0.023 2.268,0.356 3.094,1.073 0.832,0.721 1.291,1.717 1.249,2.79 -0.036,1.109 -0.521,2.189 -1.326,3.021 -0.802,0.833 -1.895,1.413 -3.065,1.647 -2.36,0.445 -5.082,-0.31 -6.805,-2.025 -0.874,-0.845 -1.499,-1.922 -1.758,-3.079 -0.261,-1.14 -0.154,-2.438 0.209,-3.609 0.746,-2.37 2.68,-4.334 5.03,-5.339 1.174,-0.511 2.448,-0.8 3.738,-0.859 1.305,-0.059 2.634,0.08 3.906,0.393 2.543,0.636 4.912,2.036 6.567,4.044 1.677,1.993 2.555,4.566 2.381,7.18 -0.116,2.628 -1.114,5.191 -2.741,7.285 -1.623,2.099 -3.834,3.759 -6.311,4.786 -2.481,1.048 -5.19,1.464 -7.913,1.311 -2.72,-0.126 -5.417,-0.754 -7.899,-1.87 -2.484,-1.107 -4.74,-2.722 -6.562,-4.728 -1.83,-2 -3.185,-4.424 -3.887,-7.03 -0.355,-1.303 -0.543,-2.649 -0.554,-4.003 -0.028,-1.364 0.102,-2.728 0.359,-4.068 0.514,-2.68 1.561,-5.26 3.041,-7.571 1.485,-2.309 3.38,-4.354 5.552,-6.046 2.181,-1.683 4.639,-3.006 7.244,-3.914 2.611,-0.882 5.363,-1.383 8.127,-1.382 1.383,-0.009 2.777,0.073 4.155,0.249 1.382,0.156 2.748,0.431 4.1,0.756 5.403,1.331 10.485,3.997 14.632,7.715 4.147,3.707 7.333,8.538 8.824,13.91 0.39,1.337 0.627,2.712 0.811,4.09 0.064,0.693 0.146,1.384 0.161,2.086 0.032,0.7 0.071,1.399 0.054,2.099 0.004,2.801 -0.275,5.603 -0.873,8.337 -1.167,5.473 -3.751,10.646 -7.505,14.803 -3.774,4.139 -8.672,7.226 -14.015,8.962 -5.342,1.772 -11.045,2.322 -16.668,2.022 -0.12,-0.006 -0.223,0.085 -0.231,0.206 C -0.211,-0.111 -0.119,-0.008 0,0" /></g><g
           transform="translate(921.6299,916.2335)"
           id="g204"><path
             id="path206"
             style="fill:#990404;fill-opacity:1;fill-rule:nonzero;stroke:none"
             d="m 0,0 c 5.665,0.344 11.433,-0.165 16.869,-1.923 5.436,-1.723 10.458,-4.828 14.349,-9.032 3.871,-4.221 6.557,-9.502 7.793,-15.09 0.632,-2.792 0.938,-5.653 0.956,-8.512 0.021,-0.715 -0.013,-1.429 -0.04,-2.144 -0.01,-0.713 -0.089,-1.431 -0.15,-2.148 -0.179,-1.425 -0.414,-2.85 -0.807,-4.236 -1.501,-5.572 -4.761,-10.595 -9.014,-14.455 -4.255,-3.871 -9.478,-6.662 -15.058,-8.082 -1.396,-0.349 -2.809,-0.643 -4.239,-0.816 -1.429,-0.192 -2.866,-0.289 -4.313,-0.291 -2.9,-0.021 -5.797,0.482 -8.552,1.39 -2.748,0.936 -5.347,2.309 -7.662,4.068 -2.306,1.77 -4.329,3.917 -5.926,6.361 -1.591,2.444 -2.735,5.193 -3.309,8.068 -0.286,1.438 -0.436,2.905 -0.418,4.374 0.002,1.476 0.196,2.959 0.575,4.39 0.749,2.868 2.217,5.533 4.192,7.724 1.968,2.201 4.402,3.966 7.078,5.184 2.675,1.226 5.582,1.925 8.514,2.084 2.925,0.188 5.957,-0.244 8.706,-1.386 2.757,-1.121 5.247,-2.948 7.106,-5.315 1.862,-2.358 3.043,-5.304 3.2,-8.343 0.235,-3.047 -0.81,-6.225 -2.776,-8.571 -1.94,-2.384 -4.681,-4.022 -7.614,-4.778 -1.473,-0.375 -2.986,-0.545 -4.51,-0.488 -1.537,0.059 -3.072,0.392 -4.498,1 -2.848,1.196 -5.293,3.579 -6.286,6.635 -0.478,1.522 -0.643,3.141 -0.294,4.771 0.347,1.613 1.202,3.086 2.352,4.216 1.147,1.14 2.576,1.957 4.101,2.413 1.533,0.447 3.126,0.588 4.754,0.286 1.606,-0.31 3.139,-1.092 4.314,-2.292 1.174,-1.188 1.957,-2.844 2.024,-4.576 0.034,-0.859 -0.12,-1.798 -0.488,-2.607 -0.362,-0.818 -0.908,-1.537 -1.561,-2.112 -1.312,-1.155 -3.041,-1.727 -4.735,-1.704 -0.681,0.008 -1.226,0.567 -1.218,1.248 0.008,0.681 0.566,1.226 1.248,1.218 l 0.011,-0.001 c 1.133,-0.024 2.267,0.356 3.094,1.073 0.832,0.721 1.291,1.717 1.248,2.79 -0.036,1.109 -0.521,2.189 -1.325,3.021 -0.802,0.833 -1.895,1.412 -3.065,1.647 -2.361,0.445 -5.082,-0.31 -6.805,-2.025 -0.874,-0.846 -1.5,-1.922 -1.758,-3.079 -0.261,-1.14 -0.154,-2.439 0.208,-3.609 0.747,-2.37 2.68,-4.334 5.03,-5.339 1.174,-0.511 2.449,-0.8 3.739,-0.859 1.304,-0.059 2.633,0.08 3.906,0.393 2.542,0.636 4.912,2.036 6.567,4.044 1.677,1.993 2.555,4.566 2.381,7.18 -0.117,2.627 -1.114,5.19 -2.741,7.285 -1.624,2.099 -3.834,3.759 -6.312,4.786 -2.48,1.048 -5.189,1.464 -7.912,1.311 -2.72,-0.126 -5.417,-0.754 -7.899,-1.87 -2.484,-1.107 -4.74,-2.722 -6.563,-4.728 -1.829,-2 -3.184,-4.424 -3.886,-7.03 -0.355,-1.303 -0.543,-2.649 -0.554,-4.003 -0.028,-1.364 0.102,-2.728 0.358,-4.068 0.515,-2.68 1.562,-5.261 3.041,-7.571 1.485,-2.309 3.381,-4.354 5.553,-6.046 2.181,-1.683 4.639,-3.006 7.244,-3.914 2.611,-0.882 5.362,-1.383 8.127,-1.382 1.383,-0.009 2.777,0.073 4.154,0.249 1.382,0.155 2.749,0.43 4.1,0.756 5.403,1.331 10.485,3.997 14.633,7.715 4.147,3.707 7.333,8.538 8.824,13.91 0.39,1.337 0.626,2.712 0.811,4.09 0.063,0.693 0.145,1.384 0.161,2.086 0.031,0.7 0.07,1.399 0.054,2.099 0.004,2.801 -0.275,5.603 -0.873,8.337 -1.168,5.473 -3.751,10.646 -7.505,14.803 -3.775,4.139 -8.673,7.226 -14.016,8.962 C 11.352,-0.686 5.649,-0.136 0.026,-0.436 -0.095,-0.443 -0.198,-0.351 -0.205,-0.23 -0.211,-0.111 -0.12,-0.008 0,0" /></g><g
           transform="translate(1041.5083,782.2823)"
           id="g208"><path
             id="path210"
             style="fill:#990404;fill-opacity:1;fill-rule:nonzero;stroke:none"
             d="m 0,0 c 5.665,0.345 11.433,-0.164 16.869,-1.922 5.436,-1.723 10.457,-4.828 14.349,-9.032 3.871,-4.221 6.557,-9.502 7.792,-15.09 0.632,-2.792 0.939,-5.653 0.957,-8.512 0.021,-0.715 -0.013,-1.429 -0.04,-2.144 -0.011,-0.714 -0.089,-1.431 -0.15,-2.148 -0.179,-1.425 -0.415,-2.85 -0.807,-4.236 -1.501,-5.572 -4.762,-10.595 -9.014,-14.455 -4.256,-3.872 -9.478,-6.662 -15.058,-8.082 -1.396,-0.349 -2.809,-0.643 -4.239,-0.816 -1.429,-0.192 -2.866,-0.289 -4.313,-0.291 -2.9,-0.021 -5.797,0.482 -8.552,1.39 -2.748,0.935 -5.347,2.309 -7.662,4.068 -2.306,1.77 -4.329,3.917 -5.926,6.36 -1.592,2.445 -2.735,5.194 -3.308,8.069 -0.287,1.438 -0.437,2.905 -0.418,4.373 0.001,1.477 0.195,2.96 0.574,4.391 0.749,2.868 2.217,5.533 4.192,7.724 1.968,2.201 4.402,3.966 7.078,5.184 2.675,1.226 5.582,1.925 8.514,2.084 2.924,0.188 5.957,-0.244 8.706,-1.387 2.757,-1.121 5.247,-2.947 7.106,-5.314 1.862,-2.358 3.043,-5.304 3.199,-8.343 0.236,-3.047 -0.81,-6.225 -2.775,-8.571 -1.94,-2.384 -4.681,-4.022 -7.614,-4.779 -1.473,-0.375 -2.986,-0.544 -4.51,-0.487 -1.537,0.059 -3.072,0.392 -4.498,1 -2.848,1.195 -5.293,3.578 -6.286,6.635 -0.478,1.522 -0.643,3.141 -0.294,4.771 0.347,1.613 1.202,3.086 2.352,4.216 1.147,1.14 2.575,1.956 4.101,2.413 1.533,0.447 3.126,0.588 4.754,0.285 1.605,-0.309 3.139,-1.091 4.314,-2.291 1.174,-1.189 1.957,-2.844 2.024,-4.576 0.034,-0.859 -0.12,-1.798 -0.488,-2.607 -0.362,-0.818 -0.908,-1.538 -1.561,-2.112 -1.312,-1.155 -3.041,-1.727 -4.735,-1.704 -0.681,0.008 -1.226,0.567 -1.218,1.248 0.008,0.68 0.566,1.226 1.248,1.217 h 0.011 c 1.133,-0.024 2.267,0.355 3.094,1.073 0.831,0.721 1.291,1.717 1.248,2.79 -0.036,1.109 -0.521,2.189 -1.325,3.021 -0.802,0.833 -1.895,1.412 -3.066,1.647 -2.36,0.444 -5.082,-0.31 -6.804,-2.025 -0.874,-0.846 -1.5,-1.922 -1.758,-3.079 -0.261,-1.14 -0.154,-2.439 0.208,-3.609 0.747,-2.37 2.68,-4.334 5.03,-5.339 1.174,-0.511 2.449,-0.8 3.738,-0.859 1.305,-0.059 2.634,0.08 3.907,0.393 2.542,0.636 4.912,2.036 6.567,4.043 1.677,1.993 2.555,4.567 2.38,7.181 -0.116,2.627 -1.113,5.19 -2.74,7.285 -1.624,2.099 -3.834,3.758 -6.312,4.785 -2.48,1.048 -5.189,1.464 -7.912,1.312 -2.72,-0.127 -5.417,-0.755 -7.899,-1.87 -2.484,-1.107 -4.74,-2.722 -6.563,-4.728 -1.829,-2 -3.184,-4.424 -3.887,-7.031 -0.354,-1.303 -0.542,-2.648 -0.553,-4.002 -0.028,-1.364 0.102,-2.728 0.358,-4.068 0.515,-2.68 1.562,-5.261 3.041,-7.571 1.485,-2.309 3.381,-4.354 5.553,-6.046 2.181,-1.683 4.639,-3.006 7.244,-3.914 2.611,-0.882 5.362,-1.383 8.127,-1.383 1.382,-0.008 2.777,0.074 4.154,0.25 1.382,0.155 2.748,0.43 4.1,0.756 5.403,1.331 10.485,3.997 14.633,7.715 4.147,3.707 7.332,8.538 8.823,13.91 0.39,1.336 0.627,2.711 0.812,4.09 0.063,0.693 0.145,1.384 0.16,2.086 0.032,0.699 0.071,1.399 0.055,2.099 0.004,2.801 -0.276,5.602 -0.873,8.337 -1.168,5.473 -3.752,10.646 -7.505,14.803 -3.775,4.139 -8.673,7.226 -14.016,8.962 -5.341,1.771 -11.044,2.321 -16.668,2.021 -0.12,-0.006 -0.223,0.085 -0.23,0.207 C -0.212,-0.11 -0.12,-0.008 0,0" /></g><g
           transform="translate(1271.874,782.963)"
           id="g212"><path
             id="path214"
             style="fill:#990404;fill-opacity:1;fill-rule:nonzero;stroke:none"
             d="m 0,0 c 5.665,0.345 11.434,-0.164 16.869,-1.922 5.436,-1.723 10.458,-4.828 14.35,-9.032 3.87,-4.221 6.556,-9.502 7.792,-15.09 0.632,-2.792 0.938,-5.653 0.956,-8.512 0.021,-0.715 -0.013,-1.429 -0.039,-2.144 -0.012,-0.713 -0.09,-1.431 -0.151,-2.148 -0.178,-1.425 -0.414,-2.85 -0.807,-4.236 -1.501,-5.572 -4.761,-10.595 -9.014,-14.455 -4.256,-3.871 -9.478,-6.662 -15.058,-8.082 -1.395,-0.349 -2.808,-0.643 -4.239,-0.816 -1.429,-0.192 -2.865,-0.289 -4.312,-0.291 -2.901,-0.021 -5.797,0.482 -8.552,1.39 -2.748,0.935 -5.348,2.309 -7.663,4.068 -2.306,1.77 -4.329,3.917 -5.926,6.361 -1.591,2.444 -2.734,5.193 -3.309,8.068 -0.285,1.438 -0.436,2.905 -0.417,4.373 0.001,1.477 0.196,2.96 0.574,4.391 0.75,2.868 2.218,5.533 4.192,7.724 1.968,2.201 4.402,3.966 7.078,5.184 2.675,1.226 5.582,1.925 8.515,2.084 2.924,0.188 5.957,-0.244 8.706,-1.387 2.757,-1.12 5.246,-2.947 7.105,-5.314 1.862,-2.358 3.043,-5.304 3.2,-8.343 0.235,-3.047 -0.81,-6.225 -2.776,-8.571 -1.939,-2.384 -4.681,-4.022 -7.614,-4.779 -1.473,-0.375 -2.986,-0.544 -4.51,-0.487 -1.537,0.059 -3.071,0.392 -4.498,1 -2.848,1.195 -5.293,3.579 -6.286,6.635 -0.478,1.522 -0.643,3.141 -0.294,4.771 0.347,1.613 1.202,3.086 2.352,4.216 1.147,1.14 2.576,1.956 4.101,2.413 1.533,0.447 3.126,0.588 4.754,0.285 1.606,-0.309 3.14,-1.091 4.314,-2.291 1.174,-1.188 1.958,-2.844 2.024,-4.576 0.034,-0.859 -0.12,-1.798 -0.487,-2.607 -0.363,-0.818 -0.909,-1.538 -1.562,-2.112 -1.312,-1.155 -3.041,-1.727 -4.735,-1.704 -0.681,0.008 -1.226,0.567 -1.218,1.248 0.008,0.681 0.566,1.226 1.248,1.218 l 0.012,-10e-4 c 1.132,-0.024 2.266,0.355 3.093,1.073 0.832,0.721 1.291,1.717 1.249,2.79 -0.037,1.109 -0.522,2.189 -1.326,3.021 -0.802,0.833 -1.895,1.412 -3.065,1.647 -2.36,0.444 -5.082,-0.31 -6.805,-2.025 -0.874,-0.846 -1.5,-1.922 -1.758,-3.079 -0.261,-1.14 -0.154,-2.439 0.208,-3.609 0.747,-2.37 2.68,-4.334 5.031,-5.339 1.174,-0.511 2.448,-0.8 3.737,-0.859 1.306,-0.059 2.635,0.08 3.907,0.393 2.542,0.636 4.912,2.036 6.567,4.044 1.677,1.993 2.555,4.566 2.381,7.18 -0.117,2.627 -1.114,5.19 -2.741,7.285 -1.624,2.099 -3.834,3.758 -6.311,4.786 -2.481,1.048 -5.19,1.464 -7.913,1.311 -2.72,-0.127 -5.417,-0.755 -7.899,-1.87 -2.484,-1.107 -4.74,-2.722 -6.562,-4.728 -1.83,-2 -3.185,-4.424 -3.887,-7.031 -0.355,-1.302 -0.543,-2.648 -0.554,-4.002 -0.028,-1.364 0.102,-2.728 0.359,-4.068 0.514,-2.68 1.561,-5.261 3.041,-7.571 1.484,-2.309 3.38,-4.354 5.552,-6.046 2.181,-1.683 4.639,-3.006 7.244,-3.914 2.611,-0.882 5.363,-1.383 8.127,-1.382 1.383,-0.009 2.777,0.073 4.155,0.249 1.382,0.155 2.748,0.43 4.099,0.756 5.404,1.331 10.486,3.997 14.633,7.715 4.147,3.707 7.333,8.538 8.824,13.91 0.39,1.336 0.627,2.712 0.811,4.09 0.064,0.693 0.146,1.384 0.161,2.086 0.031,0.7 0.071,1.399 0.055,2.099 0.003,2.801 -0.276,5.603 -0.873,8.337 -1.168,5.473 -3.752,10.646 -7.506,14.803 -3.774,4.139 -8.673,7.226 -14.016,8.962 -5.341,1.772 -11.044,2.321 -16.667,2.021 -0.121,-0.006 -0.223,0.085 -0.23,0.207 C -0.212,-0.11 -0.119,-0.008 0,0" /></g><g
           transform="translate(1064.957,650.1758)"
           id="g216"><path
             id="path218"
             style="fill:#990404;fill-opacity:1;fill-rule:nonzero;stroke:none"
             d="m 0,0 c 5.665,0.344 11.433,-0.165 16.869,-1.923 5.436,-1.722 10.458,-4.828 14.349,-9.031 3.871,-4.222 6.557,-9.503 7.793,-15.091 0.632,-2.792 0.938,-5.653 0.956,-8.512 0.021,-0.715 -0.012,-1.429 -0.04,-2.144 -0.01,-0.713 -0.089,-1.431 -0.15,-2.148 -0.179,-1.425 -0.414,-2.85 -0.807,-4.236 -1.501,-5.572 -4.761,-10.595 -9.014,-14.455 -4.255,-3.871 -9.478,-6.662 -15.058,-8.082 -1.396,-0.349 -2.808,-0.643 -4.239,-0.816 -1.429,-0.192 -2.866,-0.289 -4.313,-0.291 -2.9,-0.021 -5.797,0.482 -8.552,1.39 -2.747,0.936 -5.347,2.309 -7.662,4.068 -2.306,1.77 -4.329,3.917 -5.926,6.361 -1.591,2.444 -2.735,5.193 -3.309,8.068 -0.286,1.438 -0.436,2.905 -0.417,4.374 0.001,1.476 0.195,2.959 0.574,4.39 0.749,2.868 2.217,5.533 4.192,7.724 1.968,2.201 4.402,3.966 7.078,5.184 2.675,1.226 5.582,1.925 8.514,2.084 2.925,0.188 5.957,-0.244 8.706,-1.386 2.757,-1.121 5.248,-2.948 7.106,-5.315 1.862,-2.358 3.043,-5.304 3.2,-8.343 0.235,-3.047 -0.81,-6.225 -2.776,-8.571 -1.939,-2.384 -4.681,-4.022 -7.614,-4.778 -1.473,-0.375 -2.986,-0.544 -4.51,-0.488 -1.537,0.059 -3.072,0.392 -4.498,1 -2.848,1.196 -5.293,3.579 -6.286,6.635 -0.478,1.522 -0.643,3.141 -0.294,4.771 0.347,1.613 1.202,3.086 2.352,4.216 1.147,1.14 2.576,1.957 4.101,2.413 1.533,0.447 3.126,0.588 4.754,0.286 1.606,-0.31 3.139,-1.092 4.314,-2.292 1.174,-1.188 1.957,-2.844 2.024,-4.575 0.034,-0.86 -0.12,-1.799 -0.488,-2.608 -0.362,-0.818 -0.908,-1.537 -1.561,-2.112 -1.312,-1.154 -3.041,-1.727 -4.735,-1.704 -0.681,0.008 -1.226,0.567 -1.218,1.248 0.008,0.681 0.567,1.226 1.248,1.218 l 0.011,-0.001 c 1.133,-0.024 2.267,0.356 3.094,1.073 0.832,0.721 1.291,1.717 1.248,2.79 -0.036,1.109 -0.521,2.189 -1.325,3.021 -0.802,0.833 -1.895,1.412 -3.065,1.647 -2.361,0.445 -5.082,-0.31 -6.805,-2.025 -0.874,-0.846 -1.5,-1.922 -1.758,-3.079 -0.261,-1.14 -0.154,-2.439 0.208,-3.609 0.747,-2.37 2.68,-4.334 5.03,-5.339 1.174,-0.511 2.449,-0.8 3.739,-0.859 1.304,-0.059 2.634,0.08 3.906,0.393 2.542,0.636 4.912,2.036 6.567,4.044 1.677,1.993 2.555,4.566 2.381,7.18 -0.117,2.627 -1.114,5.19 -2.741,7.285 -1.623,2.099 -3.834,3.759 -6.311,4.786 -2.481,1.048 -5.19,1.464 -7.913,1.311 -2.72,-0.126 -5.417,-0.754 -7.899,-1.87 -2.484,-1.107 -4.74,-2.722 -6.563,-4.728 -1.829,-2 -3.184,-4.424 -3.886,-7.03 -0.355,-1.303 -0.543,-2.649 -0.554,-4.003 -0.028,-1.364 0.102,-2.728 0.358,-4.068 0.515,-2.68 1.562,-5.261 3.041,-7.571 1.485,-2.309 3.381,-4.354 5.553,-6.046 2.181,-1.683 4.639,-3.006 7.244,-3.914 2.611,-0.882 5.362,-1.383 8.127,-1.382 1.383,-0.009 2.777,0.073 4.155,0.249 1.381,0.155 2.748,0.43 4.099,0.756 5.403,1.331 10.485,3.997 14.633,7.715 4.147,3.707 7.333,8.538 8.824,13.91 0.39,1.337 0.626,2.712 0.811,4.09 0.063,0.693 0.145,1.384 0.161,2.086 0.031,0.7 0.07,1.399 0.054,2.099 0.004,2.801 -0.275,5.603 -0.873,8.337 -1.168,5.473 -3.751,10.646 -7.505,14.803 -3.775,4.139 -8.673,7.226 -14.016,8.962 C 11.352,-0.686 5.649,-0.136 0.026,-0.436 -0.095,-0.443 -0.198,-0.351 -0.205,-0.23 -0.211,-0.111 -0.12,-0.008 0,0" /></g><g
           transform="translate(670.9913,1048.8154)"
           id="g220"><path
             id="path222"
             style="fill:#990404;fill-opacity:1;fill-rule:nonzero;stroke:none"
             d="m 0,0 c -5.624,0.3 -11.326,-0.25 -16.667,-2.022 -5.343,-1.737 -10.241,-4.824 -14.017,-8.962 -3.753,-4.158 -6.337,-9.33 -7.504,-14.803 -0.598,-2.734 -0.877,-5.536 -0.874,-8.336 -0.016,-0.701 0.023,-1.4 0.055,-2.101 0.016,-0.702 0.097,-1.392 0.161,-2.086 0.184,-1.377 0.421,-2.752 0.811,-4.089 1.491,-5.372 4.677,-10.203 8.824,-13.911 4.147,-3.717 9.229,-6.383 14.632,-7.714 1.352,-0.326 2.718,-0.601 4.1,-0.756 1.377,-0.176 2.772,-0.258 4.155,-0.249 2.764,-0.001 5.515,0.5 8.127,1.382 2.605,0.908 5.063,2.231 7.244,3.914 2.172,1.692 4.067,3.737 5.552,6.046 1.48,2.31 2.527,4.89 3.041,7.571 0.256,1.34 0.387,2.705 0.359,4.067 -0.011,1.355 -0.199,2.7 -0.554,4.003 -0.702,2.607 -2.057,5.03 -3.887,7.03 -1.822,2.007 -4.079,3.622 -6.562,4.729 -2.482,1.115 -5.179,1.743 -7.899,1.87 -2.723,0.152 -5.432,-0.264 -7.913,-1.311 -2.477,-1.028 -4.688,-2.687 -6.311,-4.787 -1.627,-2.093 -2.625,-4.657 -2.741,-7.284 -0.174,-2.614 0.703,-5.187 2.381,-7.18 1.654,-2.008 4.024,-3.409 6.567,-4.043 1.272,-0.315 2.601,-0.454 3.906,-0.394 1.29,0.059 2.565,0.348 3.738,0.858 2.35,1.005 4.284,2.969 5.03,5.339 0.363,1.171 0.47,2.47 0.209,3.61 -0.259,1.157 -0.884,2.233 -1.758,3.079 -1.723,1.715 -4.445,2.47 -6.805,2.024 -1.171,-0.233 -2.263,-0.813 -3.066,-1.646 -0.804,-0.832 -1.289,-1.912 -1.325,-3.022 -0.042,-1.072 0.417,-2.068 1.249,-2.79 0.826,-0.717 1.961,-1.096 3.094,-1.071 0.68,0.015 1.244,-0.525 1.259,-1.206 0.014,-0.681 -0.526,-1.245 -1.206,-1.26 h -0.012 c -1.694,-0.023 -3.423,0.55 -4.735,1.703 -0.653,0.575 -1.2,1.294 -1.561,2.113 -0.368,0.809 -0.522,1.748 -0.488,2.608 0.067,1.731 0.849,3.387 2.024,4.575 1.174,1.199 2.708,1.982 4.314,2.291 1.628,0.303 3.22,0.162 4.754,-0.285 1.525,-0.456 2.954,-1.273 4.101,-2.413 1.15,-1.13 2.005,-2.604 2.352,-4.216 0.348,-1.631 0.184,-3.249 -0.294,-4.771 -0.993,-3.056 -3.438,-5.44 -6.286,-6.635 -1.427,-0.609 -2.961,-0.942 -4.498,-1 -1.524,-0.057 -3.038,0.112 -4.51,0.487 -2.933,0.757 -5.675,2.395 -7.614,4.778 -1.966,2.347 -3.012,5.525 -2.776,8.572 0.157,3.039 1.338,5.986 3.2,8.342 1.858,2.368 4.348,4.195 7.105,5.316 2.749,1.141 5.782,1.573 8.707,1.386 2.932,-0.16 5.839,-0.859 8.513,-2.084 2.677,-1.218 5.111,-2.984 7.079,-5.184 1.974,-2.191 3.442,-4.856 4.192,-7.725 0.378,-1.43 0.573,-2.914 0.574,-4.389 0.019,-1.469 -0.132,-2.937 -0.418,-4.373 -0.574,-2.876 -1.717,-5.625 -3.308,-8.07 -1.597,-2.443 -3.62,-4.59 -5.926,-6.36 -2.315,-1.759 -4.915,-3.133 -7.663,-4.068 -2.754,-0.908 -5.651,-1.411 -8.551,-1.39 -1.448,0.002 -2.885,0.099 -4.313,0.292 -1.431,0.172 -2.844,0.466 -4.24,0.815 -5.579,1.419 -10.802,4.21 -15.057,8.082 -4.253,3.86 -7.513,8.882 -9.014,14.455 -0.393,1.385 -0.628,2.81 -0.807,4.237 -0.062,0.716 -0.14,1.434 -0.15,2.146 -0.028,0.715 -0.061,1.429 -0.04,2.145 0.018,2.859 0.324,5.721 0.956,8.513 1.236,5.587 3.922,10.868 7.793,15.089 3.891,4.204 8.913,7.31 14.349,9.032 C -11.408,0.271 -5.64,0.779 0.026,0.436 0.146,0.428 0.238,0.324 0.23,0.204 0.223,0.085 0.12,-0.007 0,0" /></g><g
           transform="translate(471.6714,915.7354)"
           id="g224"><path
             id="path226"
             style="fill:#990404;fill-opacity:1;fill-rule:nonzero;stroke:none"
             d="m 0,0 c -5.624,0.3 -11.326,-0.25 -16.668,-2.022 -5.343,-1.737 -10.241,-4.824 -14.016,-8.962 -3.754,-4.158 -6.337,-9.33 -7.505,-14.803 -0.597,-2.734 -0.876,-5.536 -0.873,-8.336 -0.016,-0.701 0.023,-1.4 0.055,-2.101 0.015,-0.702 0.097,-1.392 0.161,-2.086 0.184,-1.378 0.421,-2.753 0.811,-4.089 1.491,-5.372 4.677,-10.204 8.823,-13.911 4.148,-3.717 9.23,-6.383 14.633,-7.714 1.351,-0.326 2.718,-0.601 4.1,-0.756 1.377,-0.176 2.772,-0.258 4.155,-0.249 2.764,-0.001 5.515,0.5 8.127,1.382 2.605,0.908 5.063,2.231 7.244,3.914 2.172,1.693 4.067,3.737 5.552,6.045 1.48,2.311 2.526,4.891 3.041,7.572 0.256,1.34 0.386,2.705 0.359,4.067 -0.011,1.355 -0.199,2.7 -0.554,4.003 -0.703,2.607 -2.058,5.03 -3.887,7.03 -1.822,2.006 -4.079,3.621 -6.562,4.729 -2.482,1.115 -5.18,1.743 -7.899,1.87 -2.723,0.152 -5.432,-0.264 -7.913,-1.312 -2.478,-1.027 -4.688,-2.685 -6.311,-4.786 -1.627,-2.093 -2.625,-4.657 -2.741,-7.284 -0.175,-2.614 0.703,-5.187 2.381,-7.18 1.654,-2.008 4.024,-3.409 6.567,-4.043 1.272,-0.315 2.601,-0.454 3.906,-0.394 1.29,0.059 2.564,0.348 3.738,0.858 2.35,1.005 4.284,2.969 5.03,5.339 0.363,1.171 0.47,2.47 0.208,3.61 -0.258,1.158 -0.883,2.233 -1.757,3.079 -1.724,1.715 -4.445,2.469 -6.805,2.024 -1.171,-0.233 -2.263,-0.813 -3.066,-1.646 -0.804,-0.832 -1.289,-1.912 -1.325,-3.022 -0.042,-1.072 0.417,-2.068 1.249,-2.79 0.826,-0.717 1.961,-1.096 3.093,-1.071 0.681,0.014 1.245,-0.526 1.259,-1.206 0.015,-0.681 -0.525,-1.245 -1.206,-1.26 h -0.011 c -1.694,-0.023 -3.423,0.55 -4.735,1.703 -0.654,0.575 -1.2,1.294 -1.561,2.113 -0.368,0.809 -0.523,1.747 -0.488,2.608 0.066,1.731 0.849,3.387 2.024,4.575 1.174,1.199 2.708,1.981 4.314,2.291 1.627,0.303 3.22,0.162 4.754,-0.285 1.525,-0.456 2.954,-1.274 4.101,-2.413 1.15,-1.13 2.005,-2.604 2.352,-4.215 0.348,-1.632 0.183,-3.25 -0.294,-4.772 -0.994,-3.056 -3.438,-5.44 -6.286,-6.635 -1.427,-0.609 -2.961,-0.942 -4.499,-1 -1.523,-0.057 -3.037,0.112 -4.51,0.487 -2.932,0.757 -5.674,2.395 -7.614,4.778 -1.965,2.347 -3.011,5.525 -2.775,8.572 0.157,3.039 1.338,5.986 3.199,8.343 1.859,2.367 4.349,4.194 7.106,5.315 2.749,1.141 5.782,1.573 8.706,1.386 2.933,-0.16 5.84,-0.859 8.514,-2.083 2.676,-1.219 5.111,-2.985 7.078,-5.185 1.975,-2.191 3.443,-4.856 4.193,-7.724 0.378,-1.431 0.572,-2.915 0.574,-4.39 0.018,-1.469 -0.132,-2.937 -0.418,-4.373 -0.574,-2.876 -1.717,-5.625 -3.309,-8.07 -1.596,-2.443 -3.619,-4.59 -5.925,-6.36 -2.316,-1.759 -4.915,-3.133 -7.663,-4.068 -2.755,-0.909 -5.651,-1.411 -8.552,-1.39 -1.447,0.002 -2.884,0.099 -4.313,0.292 -1.43,0.172 -2.843,0.466 -4.239,0.814 -5.579,1.42 -10.802,4.211 -15.057,8.083 -4.254,3.86 -7.513,8.882 -9.015,14.455 -0.392,1.385 -0.628,2.81 -0.806,4.237 -0.062,0.716 -0.14,1.433 -0.151,2.146 -0.027,0.715 -0.06,1.429 -0.039,2.145 0.017,2.859 0.324,5.72 0.956,8.513 1.235,5.587 3.922,10.868 7.792,15.089 3.892,4.204 8.914,7.31 14.35,9.032 C -11.408,0.271 -5.64,0.779 0.025,0.436 0.146,0.428 0.237,0.324 0.23,0.204 0.223,0.085 0.119,-0.007 0,0" /></g><g
           transform="translate(146.8238,919.8096)"
           id="g228"><path
             id="path230"
             style="fill:#990404;fill-opacity:1;fill-rule:nonzero;stroke:none"
             d="m 0,0 c -5.624,0.3 -11.326,-0.249 -16.668,-2.021 -5.343,-1.737 -10.241,-4.824 -14.016,-8.962 -3.754,-4.158 -6.337,-9.33 -7.505,-14.803 -0.597,-2.735 -0.876,-5.536 -0.873,-8.337 -0.016,-0.7 0.023,-1.399 0.055,-2.1 0.015,-0.702 0.097,-1.392 0.161,-2.086 0.184,-1.378 0.421,-2.754 0.811,-4.089 1.491,-5.373 4.677,-10.204 8.823,-13.911 4.148,-3.717 9.23,-6.383 14.633,-7.714 1.351,-0.327 2.718,-0.601 4.1,-0.756 1.377,-0.176 2.772,-0.258 4.155,-0.249 2.764,-10e-4 5.515,0.5 8.127,1.382 2.605,0.908 5.063,2.231 7.244,3.914 2.172,1.692 4.067,3.737 5.552,6.045 1.48,2.311 2.526,4.891 3.041,7.572 0.256,1.34 0.386,2.704 0.359,4.067 -0.012,1.355 -0.199,2.7 -0.554,4.002 -0.703,2.608 -2.058,5.031 -3.887,7.031 -1.822,2.006 -4.079,3.621 -6.562,4.729 -2.482,1.114 -5.18,1.743 -7.899,1.87 -2.723,0.152 -5.432,-0.264 -7.913,-1.313 -2.478,-1.027 -4.688,-2.685 -6.311,-4.785 -1.627,-2.094 -2.625,-4.658 -2.741,-7.285 -0.175,-2.613 0.703,-5.186 2.381,-7.18 1.654,-2.007 4.024,-3.408 6.567,-4.043 1.272,-0.314 2.601,-0.453 3.906,-0.393 1.29,0.059 2.564,0.348 3.738,0.858 2.35,1.005 4.284,2.969 5.03,5.339 0.363,1.17 0.47,2.47 0.208,3.61 -0.258,1.157 -0.883,2.233 -1.757,3.079 -1.724,1.715 -4.445,2.468 -6.806,2.024 -1.17,-0.234 -2.262,-0.813 -3.065,-1.646 -0.804,-0.832 -1.289,-1.912 -1.325,-3.022 -0.042,-1.072 0.417,-2.068 1.249,-2.79 0.826,-0.718 1.961,-1.097 3.093,-1.072 0.681,0.014 1.245,-0.526 1.259,-1.206 0.015,-0.681 -0.525,-1.244 -1.206,-1.259 h -0.011 c -1.694,-0.023 -3.423,0.549 -4.735,1.703 -0.654,0.574 -1.2,1.294 -1.562,2.112 -0.367,0.81 -0.522,1.748 -0.487,2.608 0.066,1.731 0.849,3.388 2.024,4.576 1.174,1.199 2.708,1.981 4.313,2.291 1.628,0.303 3.221,0.161 4.755,-0.285 1.525,-0.457 2.954,-1.274 4.101,-2.413 1.15,-1.13 2.005,-2.604 2.351,-4.216 0.349,-1.631 0.184,-3.249 -0.293,-4.772 -0.994,-3.055 -3.438,-5.439 -6.286,-6.634 -1.427,-0.609 -2.961,-0.942 -4.499,-1 -1.523,-0.058 -3.037,0.112 -4.51,0.486 -2.932,0.758 -5.674,2.396 -7.614,4.779 -1.965,2.346 -3.011,5.525 -2.775,8.572 0.157,3.039 1.338,5.985 3.199,8.342 1.859,2.368 4.349,4.195 7.106,5.315 2.749,1.142 5.782,1.574 8.706,1.387 2.933,-0.16 5.84,-0.859 8.514,-2.084 2.676,-1.218 5.111,-2.984 7.078,-5.184 1.975,-2.191 3.443,-4.856 4.193,-7.725 0.378,-1.43 0.572,-2.914 0.574,-4.389 0.018,-1.469 -0.132,-2.937 -0.418,-4.374 -0.574,-2.875 -1.717,-5.624 -3.309,-8.069 -1.596,-2.443 -3.62,-4.59 -5.925,-6.36 -2.316,-1.76 -4.915,-3.134 -7.663,-4.068 -2.755,-0.909 -5.651,-1.411 -8.552,-1.39 -1.447,0.002 -2.884,0.099 -4.313,0.291 -1.43,0.173 -2.843,0.467 -4.239,0.815 -5.579,1.42 -10.802,4.21 -15.057,8.082 -4.254,3.861 -7.513,8.883 -9.015,14.456 -0.392,1.385 -0.628,2.81 -0.806,4.236 -0.062,0.717 -0.14,1.434 -0.151,2.147 -0.027,0.715 -0.06,1.429 -0.039,2.145 0.017,2.858 0.324,5.72 0.956,8.512 1.235,5.587 3.922,10.869 7.792,15.089 3.892,4.205 8.914,7.31 14.349,9.033 C -11.408,0.271 -5.64,0.78 0.025,0.436 0.146,0.429 0.237,0.325 0.23,0.205 0.223,0.085 0.119,-0.006 0,0" /></g><g
           transform="translate(520.046,782.0645)"
           id="g232"><path
             id="path234"
             style="fill:#990404;fill-opacity:1;fill-rule:nonzero;stroke:none"
             d="m 0,0 c -5.624,0.3 -11.326,-0.25 -16.668,-2.022 -5.343,-1.737 -10.241,-4.824 -14.016,-8.962 -3.754,-4.157 -6.337,-9.33 -7.505,-14.803 -0.597,-2.734 -0.876,-5.536 -0.873,-8.336 -0.016,-0.7 0.023,-1.4 0.055,-2.101 0.015,-0.702 0.097,-1.392 0.161,-2.085 0.184,-1.379 0.421,-2.754 0.811,-4.09 1.491,-5.372 4.677,-10.203 8.823,-13.911 4.148,-3.717 9.23,-6.383 14.633,-7.713 1.351,-0.327 2.718,-0.601 4.1,-0.756 1.377,-0.177 2.772,-0.259 4.155,-0.25 2.764,-0.001 5.515,0.5 8.127,1.382 2.605,0.908 5.063,2.231 7.244,3.914 2.172,1.693 4.067,3.737 5.552,6.045 1.48,2.312 2.526,4.891 3.041,7.572 0.256,1.34 0.386,2.705 0.359,4.067 -0.012,1.355 -0.199,2.7 -0.554,4.003 -0.702,2.607 -2.058,5.03 -3.887,7.03 -1.822,2.007 -4.079,3.622 -6.563,4.729 -2.481,1.115 -5.179,1.743 -7.898,1.87 -2.723,0.152 -5.432,-0.264 -7.913,-1.312 -2.478,-1.027 -4.688,-2.685 -6.311,-4.785 -1.627,-2.094 -2.625,-4.658 -2.741,-7.285 -0.175,-2.614 0.703,-5.187 2.381,-7.18 1.654,-2.008 4.024,-3.409 6.567,-4.043 1.272,-0.315 2.601,-0.453 3.906,-0.394 1.29,0.06 2.564,0.348 3.738,0.859 2.35,1.004 4.284,2.968 5.03,5.339 0.363,1.17 0.47,2.469 0.208,3.609 -0.258,1.158 -0.883,2.233 -1.757,3.08 -1.724,1.714 -4.445,2.468 -6.805,2.023 -1.171,-0.233 -2.263,-0.813 -3.066,-1.646 -0.804,-0.832 -1.289,-1.912 -1.325,-3.022 -0.042,-1.072 0.417,-2.068 1.249,-2.79 0.826,-0.717 1.961,-1.096 3.093,-1.071 0.681,0.014 1.245,-0.526 1.259,-1.206 0.015,-0.681 -0.525,-1.245 -1.206,-1.26 h -0.011 c -1.694,-0.023 -3.423,0.55 -4.735,1.703 -0.654,0.575 -1.2,1.294 -1.561,2.113 -0.369,0.809 -0.523,1.747 -0.488,2.608 0.066,1.731 0.849,3.387 2.024,4.576 1.174,1.198 2.708,1.98 4.313,2.29 1.628,0.303 3.221,0.162 4.755,-0.284 1.525,-0.457 2.954,-1.275 4.101,-2.414 1.15,-1.129 2.005,-2.604 2.351,-4.215 0.349,-1.632 0.184,-3.25 -0.293,-4.772 -0.993,-3.056 -3.438,-5.44 -6.286,-6.635 -1.427,-0.609 -2.961,-0.942 -4.499,-1 -1.523,-0.057 -3.037,0.113 -4.51,0.487 -2.932,0.757 -5.674,2.395 -7.614,4.779 -1.965,2.346 -3.011,5.524 -2.775,8.571 0.156,3.039 1.338,5.986 3.199,8.343 1.859,2.367 4.349,4.194 7.106,5.315 2.749,1.142 5.782,1.573 8.706,1.386 2.933,-0.16 5.839,-0.859 8.514,-2.083 2.676,-1.219 5.111,-2.985 7.078,-5.184 1.975,-2.192 3.443,-4.857 4.193,-7.725 0.378,-1.431 0.572,-2.915 0.574,-4.39 0.018,-1.468 -0.132,-2.937 -0.418,-4.373 -0.574,-2.876 -1.717,-5.625 -3.308,-8.07 -1.597,-2.443 -3.62,-4.59 -5.926,-6.36 -2.316,-1.759 -4.915,-3.133 -7.663,-4.067 -2.755,-0.91 -5.651,-1.412 -8.552,-1.39 -1.447,0.002 -2.884,0.098 -4.312,0.291 -1.431,0.172 -2.844,0.466 -4.24,0.814 -5.579,1.42 -10.802,4.211 -15.057,8.083 -4.253,3.861 -7.513,8.882 -9.015,14.455 -0.392,1.385 -0.628,2.81 -0.806,4.237 -0.062,0.716 -0.14,1.433 -0.15,2.147 -0.028,0.714 -0.062,1.428 -0.04,2.144 0.017,2.859 0.324,5.721 0.956,8.513 1.235,5.587 3.921,10.868 7.792,15.089 3.892,4.204 8.914,7.31 14.349,9.032 C -11.408,0.271 -5.64,0.779 0.025,0.436 0.146,0.428 0.237,0.324 0.23,0.204 0.223,0.085 0.119,-0.007 0,0" /></g><g
           transform="translate(766.1807,649.8878)"
           id="g236"><path
             id="path238"
             style="fill:#990404;fill-opacity:1;fill-rule:nonzero;stroke:none"
             d="m 0,0 c -5.624,0.3 -11.326,-0.25 -16.668,-2.021 -5.343,-1.737 -10.241,-4.824 -14.016,-8.962 -3.754,-4.158 -6.337,-9.33 -7.505,-14.803 -0.597,-2.735 -0.876,-5.536 -0.873,-8.337 -0.016,-0.7 0.023,-1.4 0.055,-2.1 0.015,-0.703 0.097,-1.392 0.161,-2.086 0.184,-1.378 0.421,-2.754 0.811,-4.089 1.491,-5.373 4.677,-10.204 8.823,-13.911 4.148,-3.717 9.23,-6.383 14.633,-7.714 1.351,-0.327 2.718,-0.601 4.1,-0.756 1.377,-0.176 2.772,-0.259 4.155,-0.25 2.764,-0.001 5.515,0.501 8.127,1.383 2.605,0.908 5.063,2.231 7.244,3.914 2.172,1.692 4.067,3.737 5.552,6.045 1.48,2.311 2.526,4.891 3.041,7.572 0.256,1.34 0.386,2.704 0.359,4.067 -0.012,1.355 -0.199,2.7 -0.554,4.002 -0.703,2.608 -2.058,5.031 -3.887,7.031 -1.822,2.006 -4.079,3.621 -6.562,4.729 -2.482,1.114 -5.18,1.743 -7.899,1.87 -2.723,0.151 -5.432,-0.265 -7.913,-1.313 -2.478,-1.027 -4.688,-2.685 -6.311,-4.785 -1.627,-2.094 -2.625,-4.658 -2.741,-7.285 -0.175,-2.613 0.703,-5.187 2.381,-7.18 1.654,-2.007 4.024,-3.408 6.567,-4.043 1.272,-0.314 2.601,-0.453 3.906,-0.393 1.29,0.059 2.564,0.348 3.738,0.858 2.35,1.005 4.284,2.969 5.03,5.339 0.363,1.17 0.47,2.47 0.208,3.61 -0.258,1.157 -0.883,2.233 -1.757,3.079 -1.724,1.715 -4.445,2.468 -6.806,2.024 -1.17,-0.234 -2.262,-0.813 -3.065,-1.646 -0.804,-0.832 -1.289,-1.912 -1.325,-3.022 -0.042,-1.072 0.417,-2.068 1.249,-2.79 0.826,-0.718 1.961,-1.097 3.093,-1.072 0.681,0.014 1.245,-0.526 1.259,-1.206 0.015,-0.681 -0.525,-1.244 -1.206,-1.259 h -0.011 c -1.694,-0.023 -3.423,0.549 -4.735,1.703 -0.654,0.574 -1.2,1.294 -1.561,2.112 -0.368,0.81 -0.523,1.748 -0.488,2.608 0.066,1.731 0.849,3.388 2.024,4.576 1.174,1.199 2.708,1.981 4.313,2.291 1.628,0.303 3.221,0.161 4.755,-0.285 1.525,-0.457 2.954,-1.274 4.101,-2.413 1.15,-1.13 2.005,-2.605 2.351,-4.216 0.349,-1.631 0.184,-3.249 -0.293,-4.772 -0.994,-3.056 -3.438,-5.439 -6.286,-6.634 -1.427,-0.609 -2.961,-0.942 -4.499,-1 -1.523,-0.058 -3.037,0.112 -4.51,0.486 -2.932,0.758 -5.674,2.395 -7.614,4.779 -1.965,2.346 -3.011,5.525 -2.775,8.572 0.157,3.039 1.338,5.985 3.199,8.342 1.859,2.368 4.349,4.194 7.106,5.315 2.749,1.142 5.782,1.574 8.706,1.387 2.933,-0.16 5.84,-0.859 8.514,-2.084 2.676,-1.218 5.111,-2.984 7.078,-5.184 1.975,-2.191 3.443,-4.856 4.193,-7.725 0.378,-1.43 0.572,-2.914 0.574,-4.39 0.018,-1.468 -0.132,-2.936 -0.418,-4.373 -0.574,-2.875 -1.717,-5.624 -3.308,-8.069 -1.597,-2.443 -3.62,-4.59 -5.926,-6.36 -2.316,-1.76 -4.915,-3.134 -7.663,-4.068 -2.755,-0.909 -5.651,-1.411 -8.552,-1.39 -1.447,0.002 -2.884,0.099 -4.313,0.291 -1.43,0.173 -2.843,0.467 -4.239,0.815 -5.579,1.419 -10.802,4.21 -15.057,8.082 -4.254,3.861 -7.513,8.883 -9.014,14.456 -0.393,1.385 -0.629,2.81 -0.807,4.236 -0.062,0.717 -0.14,1.433 -0.151,2.147 -0.027,0.715 -0.061,1.429 -0.039,2.145 0.017,2.858 0.324,5.72 0.956,8.512 1.235,5.587 3.922,10.869 7.792,15.089 3.892,4.205 8.914,7.31 14.349,9.033 C -11.408,0.271 -5.64,0.78 0.025,0.436 0.146,0.429 0.237,0.325 0.23,0.205 0.223,0.085 0.119,-0.006 0,0" /></g><g
           transform="translate(689.9429,647.4297)"
           id="g240"><path
             id="path242"
             style="fill:#990404;fill-opacity:1;fill-rule:nonzero;stroke:none"
             d="m 0,0 c -5.624,0.3 -11.326,-0.25 -16.668,-2.021 -5.343,-1.737 -10.241,-4.825 -14.016,-8.962 -3.754,-4.158 -6.337,-9.33 -7.504,-14.804 -0.598,-2.734 -0.877,-5.536 -0.874,-8.336 -0.016,-0.7 0.023,-1.4 0.055,-2.1 0.015,-0.703 0.097,-1.392 0.161,-2.086 0.184,-1.379 0.421,-2.754 0.811,-4.09 1.491,-5.372 4.677,-10.203 8.823,-13.911 4.148,-3.717 9.23,-6.382 14.633,-7.713 1.351,-0.327 2.718,-0.601 4.1,-0.756 1.377,-0.176 2.772,-0.259 4.155,-0.25 2.764,-0.001 5.515,0.5 8.127,1.382 2.605,0.908 5.063,2.231 7.244,3.914 2.172,1.693 4.067,3.738 5.552,6.046 1.48,2.311 2.526,4.891 3.041,7.571 0.256,1.34 0.386,2.705 0.359,4.068 -0.012,1.355 -0.199,2.699 -0.554,4.002 -0.702,2.607 -2.058,5.031 -3.887,7.03 -1.822,2.007 -4.079,3.622 -6.562,4.73 -2.482,1.114 -5.18,1.742 -7.899,1.869 -2.723,0.152 -5.432,-0.264 -7.913,-1.312 -2.478,-1.027 -4.688,-2.685 -6.311,-4.785 -1.627,-2.094 -2.625,-4.658 -2.741,-7.285 -0.174,-2.613 0.703,-5.187 2.381,-7.18 1.654,-2.007 4.024,-3.408 6.567,-4.043 1.272,-0.314 2.601,-0.453 3.906,-0.393 1.29,0.059 2.564,0.347 3.738,0.858 2.35,1.005 4.284,2.969 5.03,5.339 0.363,1.17 0.47,2.47 0.208,3.609 -0.258,1.158 -0.883,2.234 -1.757,3.08 -1.724,1.715 -4.445,2.468 -6.805,2.024 -1.171,-0.234 -2.263,-0.814 -3.066,-1.646 -0.804,-0.833 -1.289,-1.913 -1.325,-3.022 -0.042,-1.072 0.417,-2.068 1.249,-2.79 0.826,-0.718 1.961,-1.097 3.093,-1.072 0.681,0.014 1.245,-0.526 1.259,-1.206 0.015,-0.681 -0.525,-1.244 -1.206,-1.259 h -0.011 c -1.694,-0.023 -3.423,0.549 -4.735,1.702 -0.654,0.575 -1.2,1.295 -1.561,2.113 -0.368,0.81 -0.523,1.748 -0.488,2.608 0.066,1.731 0.849,3.387 2.024,4.576 1.174,1.199 2.708,1.98 4.313,2.29 1.628,0.304 3.221,0.162 4.755,-0.284 1.525,-0.457 2.954,-1.275 4.101,-2.413 1.15,-1.13 2.005,-2.605 2.351,-4.216 0.349,-1.631 0.184,-3.249 -0.293,-4.772 -0.994,-3.056 -3.438,-5.44 -6.286,-6.634 -1.427,-0.61 -2.961,-0.942 -4.499,-1.001 -1.523,-0.057 -3.037,0.113 -4.51,0.487 -2.932,0.758 -5.674,2.395 -7.614,4.779 -1.965,2.346 -3.011,5.525 -2.775,8.572 0.157,3.039 1.338,5.985 3.199,8.342 1.859,2.368 4.349,4.194 7.106,5.315 2.749,1.142 5.782,1.574 8.706,1.387 2.933,-0.16 5.84,-0.859 8.514,-2.084 2.676,-1.218 5.111,-2.985 7.078,-5.184 1.975,-2.191 3.443,-4.856 4.193,-7.725 0.378,-1.431 0.572,-2.914 0.574,-4.39 0.018,-1.468 -0.132,-2.937 -0.418,-4.373 -0.574,-2.876 -1.717,-5.624 -3.308,-8.07 -1.597,-2.443 -3.62,-4.59 -5.926,-6.36 -2.316,-1.759 -4.915,-3.133 -7.663,-4.067 -2.755,-0.909 -5.651,-1.411 -8.552,-1.39 -1.447,0.002 -2.884,0.098 -4.313,0.291 -1.43,0.172 -2.843,0.467 -4.239,0.814 -5.579,1.42 -10.802,4.211 -15.057,8.083 -4.254,3.861 -7.513,8.883 -9.014,14.455 -0.393,1.386 -0.629,2.81 -0.807,4.237 -0.062,0.717 -0.14,1.433 -0.15,2.147 -0.028,0.714 -0.061,1.429 -0.04,2.144 0.017,2.859 0.324,5.721 0.956,8.513 1.235,5.587 3.922,10.869 7.792,15.089 3.892,4.205 8.914,7.31 14.349,9.032 C -11.408,0.271 -5.64,0.779 0.025,0.436 0.146,0.429 0.237,0.325 0.23,0.205 0.223,0.085 0.12,-0.006 0,0" /></g></g></g></g></svg>