<?xml version="1.0" encoding="UTF-8" standalone="no"?>
<svg
   xmlns:dc="http://purl.org/dc/elements/1.1/"
   xmlns:cc="http://creativecommons.org/ns#"
   xmlns:rdf="http://www.w3.org/1999/02/22-rdf-syntax-ns#"
   xmlns:svg="http://www.w3.org/2000/svg"
   xmlns="http://www.w3.org/2000/svg"
   viewBox="0 0 2666.6667 2666.6667"
   height="2666.6667"
   width="2666.6667"
   xml:space="preserve"
   id="svg2"
   version="1.1"><metadata
     id="metadata8"><rdf:RDF><cc:Work
         rdf:about=""><dc:format>image/svg+xml</dc:format><dc:type
           rdf:resource="http://purl.org/dc/dcmitype/StillImage" /></cc:Work></rdf:RDF></metadata><defs
     id="defs6" /><g
     transform="matrix(1.3333333,0,0,-1.3333333,0,2666.6667)"
     id="g10"><g
       transform="translate(1743.6973,1123.5615)"
       id="g12"><path
         id="path14"
         style="fill:#c51313;fill-opacity:1;fill-rule:nonzero;stroke:none"
         d="m 0,0 v 18.431 h 14.824 v -0.012 h 7.293 v 18.337 l 14.147,0.035 v -7.548 h -0.035 l 0.035,-7.3 V 0 Z M -7.298,0 H -43.942 V 77.167 H -7.121 V 55.021 h -19.071 v -0.036 h -3.164 V 18.419 h 7.299 v 0.012 H -7.298 Z M -51.217,84.502 V 65.951 l -15.009,-0.012 v 37.386 h 37.048 V 84.467 h -14.764 v 0.035 z m 0,-84.502 h -15.009 v 58.629 l 15.009,0.048 z m -44.424,124.842 h 51.017 v -14.218 h -51.017 z m -7.293,-14.218 h -51.557 v 14.218 h 51.557 z m 65.609,14.218 h 51.46 v -14.218 h -51.46 z M -21.88,84.467 v 18.858 H 14.824 V 25.718 H -22.057 V 47.734 H 0.166 v 36.733 z m 43.32,40.375 H 58.149 V 87.825 L 43.551,87.802 v 22.846 h -7.287 v -0.024 H 21.44 Z M 58.149,29.278 43.551,29.255 v 51.247 l 14.598,0.036 z m 0,-59.021 -14.598,-0.012 V 21.98 l 14.598,0.023 z M 36.264,87.802 H 36.229 L 36.264,80.49 V 44.078 L 22.117,44.066 v 59.259 h 14.147 z m -1341.168,22.822 h -51.545 v 14.218 h 51.545 z m -58.838,0 h -51.029 v 14.218 h 51.029 z m -29.427,-44.685 -15.002,0.012 v 18.551 h -7.281 v -0.035 h -14.765 v 18.858 h 37.048 z m 0,-65.939 h -15.002 v 58.677 l 15.002,-0.048 z m -22.283,0 h -36.638 v 18.431 h 14.758 v -0.012 h 7.293 v 36.566 h -3.157 v 0.036 h -19.066 v 22.146 h 36.81 z m -43.931,0 h -36.264 v 21.943 l 0.024,7.3 h -0.024 v 7.548 l 14.129,-0.035 V 18.419 h 7.293 v 0.012 h 14.842 z m -36.264,87.802 v 15.523 h 14.129 V 44.066 l -14.129,0.012 V 80.49 l 0.024,7.312 z m -7.293,22.846 V 87.802 l -14.592,0.023 v 37.017 h 36.697 v -14.218 h -14.812 v 0.024 z m 0,-81.393 -14.592,0.023 v 51.26 l 14.592,-0.036 z m 0,-59.01 -14.592,0.012 v 51.746 l 14.592,-0.023 z m 28.715,133.08 h 36.721 V 84.467 h -22.051 V 47.734 h 22.223 V 25.718 h -36.893 z m 0.706,21.517 h 51.456 v -14.218 h -51.456 z M 36.264,-29.778 h -0.035 l 0.035,-7.25 h 15.377 l 6.508,0.021 v -0.021 h 8.154 v 169.157 h -1592 V -36.694 h 30.051 l 0.023,6.916 h -0.024 v 22.466 h 80.195 v -0.012 h 7.281 v 0.012 h 15.002 v -0.012 h 7.299 v 110.649 h 88.306 v 7.299 h -0.047 v 14.218 h 1135.828 v -14.218 h -0.035 v -7.299 h 88.306 V -7.324 h 7.286 v 0.012 h 15.009 v -0.012 h 7.275 v 0.012 h 80.206 z" /></g><g
       transform="translate(1743.6973,1123.5615)"
       id="g16"><path
         id="path18"
         style="fill:none;stroke:#fcd375;stroke-width:1;stroke-linecap:butt;stroke-linejoin:miter;stroke-miterlimit:4;stroke-dasharray:none;stroke-opacity:1"
         d="m 0,0 v 18.431 h 14.824 v -0.012 h 7.293 v 18.337 l 14.147,0.035 v -7.548 h -0.035 l 0.035,-7.3 V 0 Z M -7.298,0 H -43.942 V 77.167 H -7.121 V 55.021 h -19.071 v -0.036 h -3.164 V 18.419 h 7.299 v 0.012 H -7.298 Z M -51.217,84.502 V 65.951 l -15.009,-0.012 v 37.386 h 37.048 V 84.467 h -14.764 v 0.035 z m 0,-84.502 h -15.009 v 58.629 l 15.009,0.048 z m -44.424,124.842 h 51.017 v -14.218 h -51.017 z m -7.293,-14.218 h -51.557 v 14.218 h 51.557 z m 65.609,14.218 h 51.46 v -14.218 h -51.46 z M -21.88,84.467 v 18.858 H 14.824 V 25.718 H -22.057 V 47.734 H 0.166 v 36.733 z m 43.32,40.375 H 58.149 V 87.825 L 43.551,87.802 v 22.846 h -7.287 v -0.024 H 21.44 Z M 58.149,29.278 43.551,29.255 v 51.247 l 14.598,0.036 z m 0,-59.021 -14.598,-0.012 V 21.98 l 14.598,0.023 z M 36.264,87.802 H 36.229 L 36.264,80.49 V 44.078 L 22.117,44.066 v 59.259 h 14.147 z m -1341.168,22.822 h -51.545 v 14.218 h 51.545 z m -58.838,0 h -51.029 v 14.218 h 51.029 z m -29.427,-44.685 -15.002,0.012 v 18.551 h -7.281 v -0.035 h -14.765 v 18.858 h 37.048 z m 0,-65.939 h -15.002 v 58.677 l 15.002,-0.048 z m -22.283,0 h -36.638 v 18.431 h 14.758 v -0.012 h 7.293 v 36.566 h -3.157 v 0.036 h -19.066 v 22.146 h 36.81 z m -43.931,0 h -36.264 v 21.943 l 0.024,7.3 h -0.024 v 7.548 l 14.129,-0.035 V 18.419 h 7.293 v 0.012 h 14.842 z m -36.264,87.802 v 15.523 h 14.129 V 44.066 l -14.129,0.012 V 80.49 l 0.024,7.312 z m -7.293,22.846 V 87.802 l -14.592,0.023 v 37.017 h 36.697 v -14.218 h -14.812 v 0.024 z m 0,-81.393 -14.592,0.023 v 51.26 l 14.592,-0.036 z m 0,-59.01 -14.592,0.012 v 51.746 l 14.592,-0.023 z m 28.715,133.08 h 36.721 V 84.467 h -22.051 V 47.734 h 22.223 V 25.718 h -36.893 z m 0.706,21.517 h 51.456 v -14.218 h -51.456 z M 36.264,-29.778 h -0.035 l 0.035,-7.25 h 15.377 l 6.508,0.021 v -0.021 h 8.154 v 169.157 h -1592 V -36.694 h 30.051 l 0.023,6.916 h -0.024 v 22.466 h 80.195 v -0.012 h 7.281 v 0.012 h 15.002 v -0.012 h 7.299 v 110.649 h 88.306 v 7.299 h -0.047 v 14.218 h 1135.828 v -14.218 h -0.035 v -7.299 h 88.306 V -7.324 h 7.286 v 0.012 h 15.009 v -0.012 h 7.275 v 0.012 h 80.206 z" /></g><g
       transform="translate(1801.8467,882.3252)"
       id="g20"><path
         id="path22"
         style="fill:#c51313;fill-opacity:1;fill-rule:nonzero;stroke:none"
         d="M 0,0 -14.599,0.023 V 51.757 L 0,51.746 Z m 0,-58.534 -14.599,0.035 V -7.251 L 0,-7.275 Z m 0,-44.306 h -36.709 v 14.22 h 14.823 v -0.025 h 7.287 v 22.847 L 0,-65.822 Z m -21.886,37.042 v -15.535 h -14.146 v 59.27 l 14.146,-0.011 v -36.412 l -0.035,-7.312 z m -21.439,69.37 h -14.824 v 18.432 h 36.263 V 0.059 l -0.035,-7.298 h 0.035 v -7.548 l -14.146,0.035 V 3.584 h -7.293 z m 0,-84.905 h -36.704 v 18.87 h 22.046 v 36.733 h -22.223 v 22.015 h 36.881 z m -0.69,-21.507 h -51.46 v 14.22 h 51.46 z m -58.758,0 h -51.017 v 14.22 h 51.017 z m -58.31,0 h -51.557 v 14.22 h 51.557 z m 36.708,58.903 15.009,-0.012 v -18.549 h 7.274 v 0.035 h 14.765 v -18.87 h -37.048 z m 0,65.941 h 15.009 v -58.677 l -15.009,0.047 z m 22.283,0 h 36.645 V 3.572 h -14.759 v 0.012 h -7.3 v -36.566 h 3.164 v -0.036 h 19.071 v -22.146 h -36.821 z M -1363.054,-102.84 h -51.545 v 14.22 h 51.545 z m -58.837,0 h -51.029 v 14.22 h 51.029 z m -58.322,0 h -51.456 v 14.22 h 51.456 z m -52.162,99.125 h 36.894 V -25.73 h -22.223 v -36.733 h 22.051 v -18.87 h -36.722 z m -6.609,-99.125 h -36.697 v 37.018 l 14.591,0.024 v -22.847 h 7.293 v 0.025 h 14.813 z m -36.697,95.565 14.591,0.024 v -51.248 l -14.591,-0.035 z m 0,59.021 14.591,0.011 V 0.023 L -1575.681,0 Z m 21.884,-117.544 h 0.025 l -0.025,7.312 v 36.412 l 14.13,0.011 v -59.27 h -14.13 z m 0,58.559 h 0.025 l -0.025,7.298 v 21.945 h 36.264 V 3.572 h -14.842 v 0.012 h -7.292 v -18.336 l -14.13,-0.035 z m 43.557,29.243 h 36.638 v -77.168 h -36.809 v 22.146 h 19.066 v 0.036 h 3.157 V 3.584 h -7.293 V 3.572 h -14.759 z m 43.919,-84.502 v 18.549 l 15.002,0.012 v -37.396 h -37.048 v 18.87 h 14.765 v -0.035 z m 0,84.502 h 15.002 v -58.63 l -15.002,-0.047 z m 1444.433,36.637 -0.033,-6.86 h 0.035 V 29.315 h -80.206 v 0.011 h -7.274 v -0.011 h -15.009 v 0.011 h -7.286 V -81.333 h -88.307 v -7.287 h 0.035 v -14.22 h -1135.828 v 14.22 h 0.048 v 7.287 h -88.307 V 29.326 h -7.299 v -0.011 h -15.002 v 0.011 h -7.281 v -0.011 h -80.195 v 22.466 h 0.025 l -0.023,6.86 h -30.052 v -168.768 h 1592 V 58.641 Z" /></g><g
       transform="translate(1801.8467,882.3252)"
       id="g24"><path
         id="path26"
         style="fill:none;stroke:#fcd375;stroke-width:1;stroke-linecap:butt;stroke-linejoin:miter;stroke-miterlimit:4;stroke-dasharray:none;stroke-opacity:1"
         d="M 0,0 -14.599,0.023 V 51.757 L 0,51.746 Z m 0,-58.534 -14.599,0.035 V -7.251 L 0,-7.275 Z m 0,-44.306 h -36.709 v 14.22 h 14.823 v -0.025 h 7.287 v 22.847 L 0,-65.822 Z m -21.886,37.042 v -15.535 h -14.146 v 59.27 l 14.146,-0.011 v -36.412 l -0.035,-7.312 z m -21.439,69.37 h -14.824 v 18.432 h 36.263 V 0.059 l -0.035,-7.298 h 0.035 v -7.548 l -14.146,0.035 V 3.584 h -7.293 z m 0,-84.905 h -36.704 v 18.87 h 22.046 v 36.733 h -22.223 v 22.015 h 36.881 z m -0.69,-21.507 h -51.46 v 14.22 h 51.46 z m -58.758,0 h -51.017 v 14.22 h 51.017 z m -58.31,0 h -51.557 v 14.22 h 51.557 z m 36.708,58.903 15.009,-0.012 v -18.549 h 7.274 v 0.035 h 14.765 v -18.87 h -37.048 z m 0,65.941 h 15.009 v -58.677 l -15.009,0.047 z m 22.283,0 h 36.645 V 3.572 h -14.759 v 0.012 h -7.3 v -36.566 h 3.164 v -0.036 h 19.071 v -22.146 h -36.821 z M -1363.054,-102.84 h -51.545 v 14.22 h 51.545 z m -58.837,0 h -51.029 v 14.22 h 51.029 z m -58.322,0 h -51.456 v 14.22 h 51.456 z m -52.162,99.125 h 36.894 V -25.73 h -22.223 v -36.733 h 22.051 v -18.87 h -36.722 z m -6.609,-99.125 h -36.697 v 37.018 l 14.591,0.024 v -22.847 h 7.293 v 0.025 h 14.813 z m -36.697,95.565 14.591,0.024 v -51.248 l -14.591,-0.035 z m 0,59.021 14.591,0.011 V 0.023 L -1575.681,0 Z m 21.884,-117.544 h 0.025 l -0.025,7.312 v 36.412 l 14.13,0.011 v -59.27 h -14.13 z m 0,58.559 h 0.025 l -0.025,7.298 v 21.945 h 36.264 V 3.572 h -14.842 v 0.012 h -7.292 v -18.336 l -14.13,-0.035 z m 43.557,29.243 h 36.638 v -77.168 h -36.809 v 22.146 h 19.066 v 0.036 h 3.157 V 3.584 h -7.293 V 3.572 h -14.759 z m 43.919,-84.502 v 18.549 l 15.002,0.012 v -37.396 h -37.048 v 18.87 h 14.765 v -0.035 z m 0,84.502 h 15.002 v -58.63 l -15.002,-0.047 z m 1444.433,36.637 -0.033,-6.86 h 0.035 V 29.315 h -80.206 v 0.011 h -7.274 v -0.011 h -15.009 v 0.011 h -7.286 V -81.333 h -88.307 v -7.287 h 0.035 v -14.22 h -1135.828 v 14.22 h 0.048 v 7.287 h -88.307 V 29.326 h -7.299 v -0.011 h -15.002 v 0.011 h -7.281 v -0.011 h -80.195 v 22.466 h 0.025 l -0.023,6.86 h -30.052 v -168.768 h 1592 V 58.641 Z" /></g></g></svg>