<?xml version="1.0" encoding="UTF-8" standalone="no"?>
<svg
   xmlns:dc="http://purl.org/dc/elements/1.1/"
   xmlns:cc="http://creativecommons.org/ns#"
   xmlns:rdf="http://www.w3.org/1999/02/22-rdf-syntax-ns#"
   xmlns:svg="http://www.w3.org/2000/svg"
   xmlns="http://www.w3.org/2000/svg"
   viewBox="0 0 2666.6667 2666.6667"
   height="2666.6667"
   width="2666.6667"
   xml:space="preserve"
   id="svg2"
   version="1.1"><metadata
     id="metadata8"><rdf:RDF><cc:Work
         rdf:about=""><dc:format>image/svg+xml</dc:format><dc:type
           rdf:resource="http://purl.org/dc/dcmitype/StillImage" /></cc:Work></rdf:RDF></metadata><defs
     id="defs6"><clipPath
       id="clipPath18"
       clipPathUnits="userSpaceOnUse"><path
         id="path16"
         d="M 0,2000 H 2000 V 0 H 0 Z" /></clipPath></defs><g
     transform="matrix(1.3333333,0,0,-1.3333333,0,2666.6667)"
     id="g10"><g
       id="g12"><g
         clip-path="url(#clipPath18)"
         id="g14"><g
           transform="translate(1117.5146,1365.0566)"
           id="g20"><path
             id="path22"
             style="fill:#ba2f1c;fill-opacity:1;fill-rule:nonzero;stroke:none"
             d="m 0,0 c 0,0 16.7,10.797 29.293,19.044 0.404,0.264 0.854,0.497 1.29,0.743 -0.436,0.253 -0.886,0.489 -1.29,0.751 C 16.7,28.784 0,39.581 0,39.581 41.652,66.969 76.244,53.854 71.493,35.43 69.296,26.924 60.903,23.373 52.258,23.129 40.093,22.783 32.883,30.659 36.187,37.02 38.09,40.703 34.643,39.599 33.488,37.839 27.656,28.976 37.926,20.671 49.617,19.787 37.926,18.908 27.656,10.613 33.488,1.742 34.643,-0.012 38.09,-1.124 36.187,2.562 32.883,8.92 40.093,16.793 52.258,16.447 60.903,16.207 69.296,12.652 71.493,4.154 76.244,-14.27 41.652,-27.387 0,0 m -12.373,8.969 -15.476,10.818 15.476,10.825 C -8.124,27.562 -2.402,23.772 3.893,19.787 -2.402,15.802 -8.124,12.009 -12.373,8.969 m -26.357,-18.972 -10.667,7.66 22.306,15.996 10.669,-7.606 z m -23.183,17.17 -10.915,7.713 6.843,4.907 -6.843,4.915 10.915,7.713 17.609,-12.628 z m -26.182,-18.914 -10.664,7.658 22.307,16.003 10.68,-7.609 z m 19.246,-19.825 -22.321,-16.057 -10.667,7.65 22.31,16.011 z m -57.251,17.074 10.772,7.83 6.238,-4.479 6.234,4.479 10.772,-7.83 -17.006,-12.19 z m -0.909,-33.131 -22.32,16.057 10.675,7.604 22.309,-16.011 z m -25.398,51.934 10.682,7.609 22.307,-16.003 -10.67,-7.658 z m -21.471,15.482 17.609,12.626 10.913,-7.711 -6.849,-4.915 6.849,-4.907 -10.913,-7.713 z m -5.571,-29.79 -22.317,16.05 10.68,7.606 22.304,-15.996 z m -42.618,29.79 c 6.28,3.985 12.004,7.775 16.26,10.825 l 15.482,-10.825 -15.482,-10.818 c -4.256,3.04 -9.98,6.833 -16.26,10.818 M -289.67,4.154 c 2.192,8.498 10.585,12.053 19.238,12.293 12.158,0.346 19.362,-7.527 16.066,-13.885 -1.908,-3.686 1.544,-2.574 2.691,-0.82 5.845,8.871 -4.425,17.166 -16.118,18.045 11.693,0.884 21.963,9.189 16.118,18.052 -1.147,1.76 -4.599,2.864 -2.691,-0.819 3.296,-6.361 -3.908,-14.237 -16.066,-13.891 -8.653,0.244 -17.046,3.795 -19.238,12.301 -4.759,18.424 29.834,31.539 71.486,4.151 0,0 -16.703,-10.797 -29.288,-19.043 -0.405,-0.262 -0.858,-0.498 -1.285,-0.751 0.427,-0.244 0.88,-0.479 1.285,-0.743 C -234.887,10.797 -218.184,0 -218.184,0 c -41.652,-27.387 -76.245,-14.27 -71.486,4.154 m 110.221,45.428 10.667,-7.647 -22.304,-16.007 -10.68,7.604 z m 49.361,1.749 10.67,-7.663 -22.307,-15.999 -10.682,7.607 z m -19.241,19.82 22.32,16.06 10.664,-7.658 -22.309,-16.003 z m 57.245,-17.072 -10.772,-7.824 -6.234,4.474 -6.238,-4.474 -10.772,7.824 17.01,12.191 z m 0.914,33.132 22.321,-16.06 -10.678,-7.601 -22.31,16.003 z m 0.812,-67.424 -18.732,-13.484 -18.733,13.484 18.733,13.494 z m 24.586,15.489 -10.68,-7.607 -22.307,16.002 10.664,7.66 z m 27.042,14.306 22.308,-16.05 -10.669,-7.604 -22.306,16.007 z m -255.224,-5.621 c -0.553,-1.524 -1.7,-4.817 -0.885,-8.851 0.538,-2.666 1.698,-4.49 2.427,-5.611 1.949,-3 4.256,-4.655 5.391,-5.453 5.82,-4.088 12.48,-4.3 15.04,-4.259 -1.23,0.016 -14.378,-0.061 -20.429,-9.701 -2.231,-3.554 -2.553,-7.473 -2.553,-7.473 -0.294,-2.676 0.073,-4.89 0.419,-6.301 0.574,-1.584 1.62,-3.937 3.54,-6.343 3.539,-4.431 7.845,-6.282 10.474,-7.376 1.105,-0.459 5.262,-2.115 12.539,-2.508 6.891,-0.371 12.699,0.6 17.555,1.771 15.704,3.787 30.133,11.762 36.391,15.44 8.772,-6.299 17.544,-12.599 26.316,-18.898 l 22.863,16.422 22.343,-15.879 -22.81,-16.616 30.037,-21.553 26.206,18.823 26.199,-18.823 30.052,21.553 -22.809,16.616 22.335,15.879 22.868,-16.422 26.314,18.898 c 21.642,-13.984 40.941,-18.13 55.263,-16.625 2.374,0.249 12.025,1.077 18.864,7.063 4.564,3.994 6.291,8.996 6.547,10.215 0.225,1.067 0.293,2.125 0.293,2.125 0,0.001 0.079,1.234 -0.054,2.539 -0.247,2.419 -1.655,6.046 -2.553,7.476 -3.46,5.515 -10.264,9.15 -20.422,9.698 2.897,-0.081 8.455,0.202 13.882,3.522 1.516,0.927 4.038,2.506 6.123,5.606 2.145,3.189 2.661,6.253 2.802,7.302 0.322,2.38 0.041,4.21 -0.045,4.726 -0.39,2.323 -1.245,4.083 -1.873,5.158 -0.403,0.776 -0.911,1.628 -1.549,2.507 -1.167,1.61 -2.41,2.816 -3.466,3.688 -1.222,0.889 -3.151,2.177 -5.68,3.393 0,0 -7.931,3.813 -19.177,3.688 C 34.468,59.262 16.329,54.112 -4.131,42.278 l -26.314,18.905 -22.868,-16.411 -22.335,15.869 22.809,16.615 -30.052,21.559 -26.199,-18.826 -26.206,18.826 -30.037,-21.559 22.81,-16.615 -22.343,-15.869 -22.863,16.411 -26.316,-18.905 c -37.947,24.532 -68.705,18.787 -78.06,5.39 0.004,0.014 0.01,0.028 0.015,0.041 -0.559,-0.863 -1.276,-2.126 -1.864,-3.748" /></g><g
           transform="translate(342.3467,1391.5889)"
           id="g24"><path
             id="path26"
             style="fill:#ba2f1c;fill-opacity:1;fill-rule:nonzero;stroke:none"
             d="m 0,0 c -4.526,0 -8.195,-2.635 -8.195,-5.88 0,-3.252 3.669,-5.887 8.195,-5.887 4.527,0 8.198,2.635 8.198,5.887 C 8.198,-2.635 4.527,0 0,0" /></g><g
           transform="translate(1651.8525,1393.6602)"
           id="g28"><path
             id="path30"
             style="fill:#ba2f1c;fill-opacity:1;fill-rule:nonzero;stroke:none"
             d="m 0,0 c -5.309,0 -9.754,-2.689 -10.816,-6.27 -26.017,0.141 -51.997,1.313 -77.25,4.05 -5.364,-0.149 -10.728,-0.298 -16.107,-0.43 -69.844,-1.783 -140.028,-2.62 -177.933,-3.096 -5.104,-0.063 -10.186,-0.126 -15.241,-0.18 -0.568,1.256 -1.666,3.243 -3.695,5.024 -4.003,3.513 -8.715,3.658 -10.376,3.709 -6.015,0.185 -10.335,-2.714 -11.79,-3.792 -0.831,-0.732 -1.692,-1.552 -2.564,-2.467 -0.543,-0.57 -1.048,-1.133 -1.517,-1.685 h -20.548 c 0.325,0.071 0.653,0.134 0.978,0.204 8.477,-0.508 14.022,0.618 17.265,2.729 7.532,4.433 3.894,13.767 -4.293,21.625 0,0 0.004,-0.242 -0.033,-0.617 -0.125,0.109 -0.242,0.226 -0.363,0.343 0,0 0.099,-4.424 -4.517,-7.356 -0.319,-0.181 -0.645,-0.36 -0.997,-0.524 -4.601,-2.166 -10.465,-4.222 -14.116,-6.333 -5.004,-2.752 -6.415,-5.575 3.665,-8.851 -1.513,-0.469 -3.03,-0.868 -4.574,-1.22 h -28.082 c 4.625,0.751 8.553,1.97 11.777,3.613 7.298,3.588 11.246,9.312 12.22,16.95 -7.725,0.024 -13.25,-1.361 -17.604,-3.502 C -385.678,7.631 -389.7,0.04 -397.483,-5.137 h -5.129 c -12.121,7.138 -16.337,19.914 -39.804,18.913 0.004,-0.039 0.018,-0.078 0.029,-0.109 -0.15,-0.016 -0.285,0 -0.437,0 2.042,-9.851 8.837,-16.309 21.178,-18.804 l -14.296,-1.305 c -1.333,1.767 -3.9,2.971 -6.882,2.971 -1.128,0 -2.194,-0.18 -3.159,-0.485 -0.369,-0.097 -0.785,-0.237 -1.225,-0.446 -1.007,-0.476 -1.716,-1.103 -2.167,-1.583 -1.26,-1.461 -1.333,-2.637 -1.318,-3.131 0.089,-3.076 4.333,-5.645 7.869,-5.645 1.631,0 3.135,0.379 3.135,0.379 0.979,0.306 1.64,0.705 1.814,0.813 0.313,0.195 0.941,0.591 1.52,1.251 0.944,1.08 1.256,2.297 1.373,3.006 l 15.054,-1.04 c -13.438,-2.235 -20.76,-8.834 -22.896,-19.131 0.152,-0.008 0.287,0.008 0.437,0 -0.011,-0.039 -0.025,-0.078 -0.029,-0.117 23.687,-1.017 27.76,12.024 40.145,19.116 0.728,0.046 1.398,0.086 2.096,0.132 h 2.182 c 8.127,-5.167 12.124,-13.009 21.482,-17.396 4.354,-2.142 9.879,-3.525 17.604,-3.494 -0.974,7.615 -4.922,13.346 -12.209,16.934 -3.759,1.932 -8.463,3.253 -14.133,3.956 h 28.834 c 2.115,-0.406 4.13,-0.914 6.167,-1.555 -10.086,-3.276 -8.659,-6.098 -3.649,-8.859 3.657,-2.095 9.514,-4.167 14.1,-6.324 0.346,-0.165 0.678,-0.337 0.989,-0.516 4.624,-2.933 4.525,-7.366 4.525,-7.366 0.121,0.11 0.238,0.235 0.363,0.352 0.037,-0.391 0.033,-0.625 0.033,-0.625 8.187,7.865 11.825,17.193 4.289,21.634 -3.241,2.118 -8.784,3.229 -17.261,2.72 -0.861,0.188 -1.751,0.368 -2.645,0.539 h 22.034 c 0.56,-0.734 1.261,-1.54 2.131,-2.345 1.656,-1.532 3.327,-2.505 4.631,-3.122 1.988,-0.873 5.238,-1.955 9.29,-1.819 2.022,0.068 5.317,0.179 8.71,2.319 2.819,1.78 4.362,4.115 5.093,5.421 3.585,-0.042 11.904,-0.143 15.509,-0.187 37.905,-0.47 108.089,-1.298 177.933,-3.081 5.379,-0.141 10.743,-0.273 16.107,-0.43 0.026,0 0.086,0.008 0.121,0.016 25.21,2.705 51.14,3.877 77.096,4.026 1.029,-3.62 5.494,-6.348 10.849,-6.348 6.118,0 11.079,3.565 11.079,7.951 C 11.079,-3.557 6.118,0 0,0" /></g><g
           transform="translate(812.894,1388.6748)"
           id="g32"><path
             id="path34"
             style="fill:#ba2f1c;fill-opacity:1;fill-rule:nonzero;stroke:none"
             d="m 0,0 c -0.156,0.108 -0.811,0.552 -1.75,0.875 -0.375,0.129 -0.728,0.209 -1.042,0.292 -0.257,0.068 -0.615,0.151 -1.045,0.219 0,0 -0.828,0.128 -1.644,0.128 -2.985,0 -5.545,-1.203 -6.882,-2.971 l -14.294,1.306 c 12.337,2.494 19.129,8.952 21.176,18.803 -0.148,0 -0.283,-0.015 -0.436,0 0.014,0.032 0.021,0.071 0.031,0.109 -23.465,1.001 -27.681,-11.774 -39.805,-18.912 h -5.123 c -7.791,5.176 -11.814,12.767 -20.976,17.06 -4.356,2.142 -9.881,3.526 -17.603,3.503 0.968,-7.639 4.92,-13.37 12.213,-16.951 3.229,-1.642 7.158,-2.862 11.786,-3.612 h -28.085 c -1.547,0.352 -3.062,0.75 -4.576,1.219 10.072,3.277 8.666,6.099 3.662,8.851 -3.65,2.111 -9.511,4.167 -14.115,6.333 -0.354,0.164 -0.677,0.344 -0.997,0.524 -4.617,2.932 -4.516,7.357 -4.516,7.357 -0.123,-0.117 -0.24,-0.235 -0.363,-0.344 -0.039,0.376 -0.031,0.618 -0.031,0.618 -8.187,-7.858 -11.822,-17.193 -4.299,-21.626 3.249,-2.111 8.79,-3.229 17.269,-2.729 0.321,-0.07 0.659,-0.133 0.978,-0.203 h -20.543 c -0.463,0.548 -0.969,1.113 -1.521,1.685 -0.907,0.939 -1.804,1.757 -2.657,2.466 -1.452,1.078 -5.726,3.946 -11.695,3.792 -1.737,-0.044 -7.156,-0.184 -11.179,-4.292 -1.568,-1.601 -2.425,-3.294 -2.893,-4.44 -3.701,0.042 -11.501,0.132 -15.236,0.179 -37.913,0.477 -108.1,1.313 -177.942,3.089 -5.375,0.14 -10.742,0.288 -16.102,0.437 -25.257,-2.728 -51.242,-3.909 -77.25,-4.05 -1.077,3.581 -5.51,6.27 -10.825,6.27 -6.115,0 -11.07,-3.557 -11.07,-7.951 0,-4.386 4.955,-7.951 11.07,-7.951 5.36,0 9.82,2.729 10.851,6.348 25.962,-0.14 51.887,-1.321 77.099,-4.026 0.041,-0.008 0.09,-0.015 0.125,-0.015 5.36,0.155 10.727,0.289 16.102,0.429 69.842,1.783 140.029,2.612 177.942,3.081 5.188,0.07 10.346,0.125 15.504,0.187 0.807,-1.361 2.634,-4.01 6,-5.9 3.374,-1.894 6.494,-2.013 8.375,-2.062 3.846,-0.101 6.909,0.903 8.749,1.687 1.161,0.598 2.635,1.508 4.125,2.875 1.124,1.031 1.974,2.063 2.604,2.947 H -98.8 c -0.899,-0.172 -1.783,-0.352 -2.645,-0.54 -8.479,0.509 -14.014,-0.609 -17.257,-2.72 -7.535,-4.441 -3.907,-13.769 4.287,-21.634 0,0 -0.008,0.235 0.031,0.626 0.123,-0.117 0.24,-0.242 0.363,-0.352 0,0 -0.103,4.433 4.523,7.365 0.319,0.18 0.642,0.351 0.99,0.516 4.587,2.158 10.445,4.222 14.1,6.325 5.015,2.76 6.44,5.582 -3.647,8.858 2.033,0.641 4.054,1.15 6.166,1.556 h 28.839 c -5.675,-0.704 -10.381,-2.025 -14.14,-3.956 -7.283,-3.589 -11.235,-9.32 -12.203,-16.935 7.722,-0.031 13.247,1.353 17.603,3.495 9.357,4.386 13.349,12.228 21.482,17.396 h 2.178 c 0.699,-0.055 1.368,-0.086 2.099,-0.133 12.384,-7.091 16.459,-20.132 40.145,-19.116 -0.01,0.039 -0.017,0.078 -0.031,0.117 0.153,0.008 0.288,-0.007 0.436,0 -2.136,10.297 -9.451,16.896 -22.896,19.132 l 15.06,1.04 c 0.101,-2.229 1.996,-4.129 4.693,-4.981 0.008,-0.062 0.018,-0.117 0.023,-0.179 0.002,0.054 0.016,0.11 0.016,0.172 0.659,-0.203 1.748,-0.469 3.104,-0.462 0.946,0.005 5.14,0.159 7.043,3.089 0.253,0.388 0.828,1.298 0.83,2.556 C 2.396,-2.542 1.484,-1.415 1.25,-1.125 0.785,-0.549 0.287,-0.199 0,0" /></g><g
           transform="translate(1674.0957,1391.5889)"
           id="g36"><path
             id="path38"
             style="fill:#ba2f1c;fill-opacity:1;fill-rule:nonzero;stroke:none"
             d="m 0,0 c -4.53,0 -8.205,-2.635 -8.205,-5.88 0,-3.252 3.675,-5.887 8.205,-5.887 4.523,0 8.198,2.635 8.198,5.887 C 8.198,-2.635 4.523,0 0,0" /></g><g
           transform="translate(1118.5479,585.0605)"
           id="g40"><path
             id="path42"
             style="fill:#ba2f1c;fill-opacity:1;fill-rule:nonzero;stroke:none"
             d="m 0,0 c 0,0 16.701,10.797 29.293,19.044 0.405,0.264 0.855,0.496 1.291,0.742 -0.436,0.254 -0.886,0.489 -1.291,0.751 C 16.701,28.783 0,39.58 0,39.58 41.652,66.968 76.244,53.854 71.494,35.429 69.296,26.924 60.903,23.372 52.258,23.129 40.093,22.783 32.884,30.658 36.188,37.02 c 1.902,3.682 -1.544,2.579 -2.7,0.819 C 27.656,28.976 37.926,20.67 49.617,19.786 37.926,18.908 27.656,10.613 33.488,1.741 c 1.156,-1.754 4.602,-2.865 2.7,0.82 -3.304,6.359 3.905,14.232 16.07,13.886 C 60.903,16.206 69.296,12.651 71.494,4.153 76.244,-14.271 41.652,-27.388 0,0 m -12.372,8.969 -15.477,10.817 15.477,10.826 C -8.123,27.562 -2.402,23.771 3.893,19.786 -2.402,15.802 -8.123,12.009 -12.372,8.969 m -26.358,-18.973 -10.666,7.661 22.306,15.996 10.669,-7.606 z m -23.182,17.17 -10.916,7.714 6.844,4.906 -6.844,4.915 10.916,7.714 17.609,-12.629 z m -26.182,-18.913 -10.664,7.657 22.307,16.004 10.68,-7.609 z m 19.246,-19.825 -22.322,-16.058 -10.666,7.65 22.309,16.011 z m -57.252,17.074 10.772,7.829 6.239,-4.478 6.234,4.478 10.771,-7.829 -17.005,-12.19 z m -0.908,-33.132 -22.32,16.058 10.674,7.603 22.309,-16.011 z m -25.398,51.935 10.682,7.609 22.306,-16.004 -10.669,-7.657 z m -21.472,15.481 17.609,12.626 10.913,-7.711 -6.848,-4.915 6.848,-4.906 -10.913,-7.714 z m -5.57,-29.79 -22.317,16.051 10.68,7.606 22.303,-15.996 z m -42.618,29.79 c 6.279,3.985 12.004,7.776 16.26,10.826 l 15.481,-10.826 -15.481,-10.817 c -4.256,3.04 -9.981,6.833 -16.26,10.817 M -289.669,4.153 c 2.191,8.498 10.584,12.053 19.238,12.294 12.157,0.346 19.361,-7.527 16.065,-13.886 -1.907,-3.685 1.545,-2.574 2.692,-0.82 5.844,8.872 -4.425,17.167 -16.119,18.045 11.694,0.884 21.963,9.19 16.119,18.053 -1.147,1.76 -4.599,2.863 -2.692,-0.819 3.296,-6.362 -3.908,-14.237 -16.065,-13.891 -8.654,0.243 -17.047,3.795 -19.238,12.3 -4.759,18.425 29.833,31.539 71.485,4.151 0,0 -16.703,-10.797 -29.287,-19.043 -0.405,-0.262 -0.859,-0.497 -1.286,-0.751 0.427,-0.243 0.881,-0.478 1.286,-0.742 C -234.887,10.797 -218.184,0 -218.184,0 c -41.652,-27.388 -76.244,-14.271 -71.485,4.153 m 110.221,45.429 10.666,-7.647 -22.303,-16.007 -10.68,7.603 z m 49.361,1.749 10.669,-7.663 -22.306,-15.999 -10.682,7.606 z m -19.241,19.819 22.32,16.061 10.663,-7.658 -22.309,-16.003 z m 57.244,-17.071 -10.771,-7.824 -6.234,4.474 -6.239,-4.474 -10.772,7.824 17.011,12.19 z m 0.914,33.132 22.322,-16.061 -10.679,-7.6 -22.309,16.003 z m 0.813,-67.425 -18.732,-13.483 -18.734,13.483 18.734,13.494 z m 24.586,15.489 -10.68,-7.606 -22.307,16.002 10.664,7.66 z M -38.73,49.582 -16.421,33.531 -27.09,25.928 -49.396,41.935 Z m -255.224,-5.621 c -0.552,-1.524 -1.699,-4.817 -0.885,-8.852 0.539,-2.666 1.699,-4.49 2.427,-5.611 1.949,-3 4.257,-4.654 5.392,-5.452 5.819,-4.089 12.48,-4.301 15.04,-4.26 -1.231,0.017 -14.379,-0.061 -20.429,-9.7 -2.231,-3.555 -2.554,-7.474 -2.554,-7.474 -0.294,-2.675 0.073,-4.889 0.419,-6.3 0.574,-1.584 1.62,-3.938 3.541,-6.343 3.538,-4.431 7.845,-6.282 10.474,-7.376 1.104,-0.459 5.262,-2.115 12.539,-2.508 6.89,-0.371 12.698,0.6 17.554,1.77 15.705,3.788 30.134,11.762 36.391,15.441 8.773,-6.3 17.545,-12.599 26.317,-18.899 l 22.862,16.422 22.343,-15.879 -22.809,-16.616 30.036,-21.553 26.207,18.824 26.199,-18.824 30.051,21.553 -22.808,16.616 22.334,15.879 22.868,-16.422 26.314,18.899 c 21.642,-13.984 40.941,-18.131 55.264,-16.626 2.373,0.25 12.024,1.077 18.864,7.063 4.563,3.994 6.291,8.996 6.547,10.215 0.224,1.068 0.292,2.126 0.292,2.126 0,0 0.079,1.234 -0.054,2.538 -0.247,2.42 -1.655,6.047 -2.552,7.477 -3.46,5.515 -10.265,9.149 -20.422,9.697 2.897,-0.081 8.455,0.202 13.881,3.523 1.517,0.926 4.039,2.506 6.123,5.605 2.146,3.19 2.662,6.254 2.802,7.302 0.322,2.38 0.042,4.211 -0.045,4.726 -0.389,2.324 -1.244,4.083 -1.872,5.158 -0.404,0.777 -0.911,1.629 -1.549,2.507 -1.168,1.611 -2.411,2.817 -3.466,3.689 -1.223,0.889 -3.151,2.177 -5.68,3.392 0,0 -7.931,3.813 -19.178,3.689 C 34.469,59.262 16.33,54.111 -4.131,42.277 l -26.314,18.906 -22.868,-16.412 -22.334,15.869 22.808,16.616 -30.051,21.558 -26.199,-18.826 -26.207,18.826 -30.036,-21.558 22.809,-16.616 -22.343,-15.869 -22.862,16.412 -26.317,-18.906 c -37.947,24.533 -68.705,18.787 -78.06,5.391 0.005,0.014 0.01,0.027 0.015,0.041 -0.559,-0.863 -1.276,-2.126 -1.864,-3.748" /></g><g
           transform="translate(343.3804,611.5918)"
           id="g44"><path
             id="path46"
             style="fill:#ba2f1c;fill-opacity:1;fill-rule:nonzero;stroke:none"
             d="m 0,0 c -4.526,0 -8.195,-2.635 -8.195,-5.879 0,-3.253 3.669,-5.888 8.195,-5.888 4.527,0 8.198,2.635 8.198,5.888 C 8.198,-2.635 4.527,0 0,0" /></g><g
           transform="translate(1652.8867,613.6641)"
           id="g48"><path
             id="path50"
             style="fill:#ba2f1c;fill-opacity:1;fill-rule:nonzero;stroke:none"
             d="m 0,0 c -5.31,0 -9.754,-2.689 -10.817,-6.271 -26.016,0.141 -51.996,1.314 -77.25,4.05 -5.364,-0.148 -10.727,-0.297 -16.106,-0.429 -69.845,-1.784 -140.028,-2.62 -177.934,-3.097 -5.104,-0.063 -10.186,-0.125 -15.241,-0.18 -0.568,1.256 -1.665,3.244 -3.694,5.025 -4.003,3.512 -8.715,3.658 -10.377,3.709 -6.014,0.185 -10.335,-2.714 -11.79,-3.792 -0.83,-0.733 -1.692,-1.552 -2.563,-2.467 -0.543,-0.57 -1.048,-1.134 -1.518,-1.685 h -20.547 c 0.324,0.071 0.652,0.133 0.978,0.203 8.477,-0.507 14.022,0.618 17.264,2.729 7.532,4.434 3.894,13.768 -4.292,21.626 0,0 0.004,-0.242 -0.033,-0.618 -0.125,0.11 -0.242,0.226 -0.363,0.344 0,0 0.099,-4.425 -4.518,-7.357 -0.318,-0.18 -0.645,-0.359 -0.997,-0.523 -4.6,-2.166 -10.465,-4.223 -14.116,-6.333 -5.003,-2.752 -6.415,-5.576 3.665,-8.851 -1.513,-0.47 -3.029,-0.868 -4.573,-1.22 h -28.082 c 4.625,0.75 8.552,1.97 11.776,3.613 7.299,3.588 11.247,9.311 12.22,16.95 -7.725,0.023 -13.25,-1.361 -17.603,-3.503 -9.167,-4.292 -13.19,-11.884 -20.973,-17.06 h -5.129 c -12.12,7.138 -16.336,19.913 -39.803,18.912 0.004,-0.038 0.018,-0.078 0.028,-0.109 -0.15,-0.016 -0.285,0 -0.437,0 2.043,-9.851 8.837,-16.309 21.179,-18.803 l -14.296,-1.305 c -1.333,1.766 -3.9,2.97 -6.883,2.97 -1.128,0 -2.193,-0.179 -3.158,-0.484 -0.369,-0.097 -0.786,-0.238 -1.226,-0.446 -1.007,-0.476 -1.715,-1.104 -2.167,-1.583 -1.259,-1.461 -1.333,-2.637 -1.318,-3.131 0.09,-3.076 4.333,-5.646 7.869,-5.646 1.631,0 3.136,0.38 3.136,0.38 0.979,0.305 1.639,0.705 1.813,0.813 0.314,0.195 0.942,0.59 1.52,1.251 0.945,1.079 1.257,2.297 1.373,3.006 l 15.054,-1.04 c -13.438,-2.236 -20.759,-8.835 -22.896,-19.131 0.152,-0.008 0.287,0.007 0.437,0 -0.01,-0.039 -0.024,-0.079 -0.028,-0.118 23.686,-1.016 27.759,12.025 40.145,19.117 0.727,0.046 1.398,0.086 2.095,0.132 h 2.182 c 8.127,-5.168 12.125,-13.009 21.483,-17.396 4.353,-2.143 9.878,-3.526 17.603,-3.494 -0.973,7.615 -4.921,13.346 -12.208,16.934 -3.759,1.931 -8.463,3.252 -14.134,3.956 h 28.834 c 2.115,-0.407 4.131,-0.915 6.167,-1.556 -10.086,-3.276 -8.659,-6.098 -3.649,-8.858 3.657,-2.095 9.515,-4.168 14.1,-6.325 0.347,-0.165 0.679,-0.336 0.989,-0.515 4.625,-2.933 4.526,-7.366 4.526,-7.366 0.121,0.11 0.238,0.235 0.363,0.352 0.037,-0.392 0.033,-0.625 0.033,-0.625 8.186,7.865 11.824,17.192 4.288,21.633 -3.24,2.119 -8.783,3.229 -17.26,2.72 -0.861,0.188 -1.751,0.369 -2.645,0.54 h 22.034 c 0.559,-0.734 1.26,-1.541 2.13,-2.345 1.656,-1.532 3.327,-2.505 4.631,-3.122 1.989,-0.873 5.239,-1.955 9.29,-1.82 2.023,0.069 5.318,0.179 8.71,2.32 2.82,1.78 4.363,4.115 5.094,5.421 3.584,-0.042 11.903,-0.143 15.508,-0.188 37.906,-0.469 108.089,-1.298 177.934,-3.08 5.379,-0.142 10.742,-0.274 16.106,-0.431 0.027,0 0.086,0.008 0.121,0.016 25.211,2.705 51.14,3.878 77.097,4.026 1.029,-3.619 5.493,-6.347 10.849,-6.347 6.117,0 11.078,3.564 11.078,7.951 C 11.078,-3.558 6.117,0 0,0" /></g><g
           transform="translate(813.9277,608.6787)"
           id="g52"><path
             id="path54"
             style="fill:#ba2f1c;fill-opacity:1;fill-rule:nonzero;stroke:none"
             d="m 0,0 c -0.156,0.108 -0.811,0.552 -1.75,0.875 -0.375,0.129 -0.728,0.208 -1.042,0.291 -0.257,0.068 -0.615,0.152 -1.045,0.22 0,0 -0.828,0.128 -1.644,0.128 -2.985,0 -5.545,-1.204 -6.882,-2.971 l -14.294,1.306 c 12.337,2.494 19.129,8.952 21.176,18.803 -0.148,0 -0.283,-0.015 -0.436,0 0.014,0.031 0.021,0.071 0.031,0.109 -23.465,1.001 -27.681,-11.775 -39.805,-18.912 h -5.123 c -7.791,5.175 -11.814,12.767 -20.976,17.059 -4.356,2.143 -9.881,3.527 -17.603,3.503 0.968,-7.639 4.92,-13.37 12.213,-16.95 3.229,-1.643 7.158,-2.862 11.786,-3.612 h -28.085 c -1.547,0.351 -3.062,0.75 -4.576,1.219 10.072,3.276 8.666,6.099 3.662,8.851 -3.65,2.11 -9.511,4.167 -14.115,6.333 -0.354,0.164 -0.677,0.344 -0.997,0.523 -4.617,2.932 -4.516,7.358 -4.516,7.358 -0.123,-0.118 -0.24,-0.235 -0.363,-0.344 -0.039,0.375 -0.031,0.617 -0.031,0.617 -8.187,-7.857 -11.822,-17.192 -4.299,-21.626 3.249,-2.111 8.79,-3.228 17.269,-2.728 0.321,-0.071 0.659,-0.133 0.978,-0.203 h -20.543 c -0.463,0.548 -0.969,1.113 -1.521,1.684 -0.907,0.94 -1.804,1.757 -2.657,2.467 -1.452,1.077 -5.726,3.945 -11.695,3.792 -1.737,-0.045 -7.156,-0.185 -11.179,-4.292 -1.568,-1.601 -2.425,-3.295 -2.893,-4.441 -3.701,0.043 -11.501,0.132 -15.236,0.179 -37.913,0.478 -108.1,1.314 -177.942,3.089 -5.375,0.141 -10.742,0.289 -16.102,0.438 -25.257,-2.729 -51.242,-3.91 -77.25,-4.05 -1.077,3.581 -5.51,6.27 -10.825,6.27 -6.115,0 -11.07,-3.557 -11.07,-7.951 0,-4.387 4.955,-7.951 11.07,-7.951 5.36,0 9.82,2.729 10.851,6.348 25.962,-0.141 51.887,-1.322 77.099,-4.027 0.041,-0.008 0.09,-0.015 0.125,-0.015 5.36,0.156 10.727,0.289 16.102,0.43 69.842,1.783 140.029,2.612 177.942,3.08 5.188,0.071 10.346,0.125 15.504,0.188 0.807,-1.361 2.634,-4.011 6,-5.9 3.374,-1.894 6.494,-2.013 8.375,-2.062 3.846,-0.102 6.909,0.902 8.749,1.687 1.161,0.597 2.635,1.507 4.125,2.875 1.124,1.031 1.974,2.063 2.604,2.947 H -98.8 c -0.899,-0.172 -1.783,-0.353 -2.645,-0.54 -8.479,0.509 -14.014,-0.61 -17.257,-2.72 -7.535,-4.441 -3.907,-13.769 4.287,-21.634 0,0 -0.008,0.234 0.031,0.625 0.123,-0.117 0.24,-0.242 0.363,-0.351 0,0 -0.103,4.432 4.523,7.365 0.319,0.18 0.642,0.35 0.99,0.516 4.587,2.157 10.445,4.221 14.1,6.325 5.015,2.759 6.44,5.582 -3.647,8.858 2.033,0.641 4.054,1.149 6.166,1.556 h 28.839 c -5.675,-0.704 -10.381,-2.026 -14.14,-3.956 -7.283,-3.589 -11.235,-9.32 -12.203,-16.935 7.722,-0.032 13.247,1.352 17.603,3.494 9.357,4.387 13.349,12.229 21.482,17.397 h 2.178 c 0.699,-0.055 1.368,-0.086 2.099,-0.133 12.384,-7.092 16.459,-20.133 40.145,-19.116 -0.01,0.039 -0.017,0.078 -0.031,0.117 0.153,0.008 0.288,-0.008 0.436,0 -2.136,10.297 -9.451,16.895 -22.896,19.132 l 15.06,1.04 c 0.101,-2.229 1.996,-4.129 4.693,-4.981 0.008,-0.062 0.018,-0.117 0.023,-0.179 0.002,0.054 0.016,0.109 0.016,0.172 0.659,-0.203 1.748,-0.469 3.104,-0.462 0.946,0.005 5.14,0.159 7.043,3.089 0.253,0.388 0.828,1.298 0.83,2.556 C 2.396,-2.542 1.484,-1.415 1.25,-1.125 0.785,-0.55 0.287,-0.199 0,0" /></g><g
           transform="translate(1675.1299,611.5918)"
           id="g56"><path
             id="path58"
             style="fill:#ba2f1c;fill-opacity:1;fill-rule:nonzero;stroke:none"
             d="m 0,0 c -4.531,0 -8.206,-2.635 -8.206,-5.879 0,-3.253 3.675,-5.888 8.206,-5.888 4.522,0 8.197,2.635 8.197,5.888 C 8.197,-2.635 4.522,0 0,0" /></g><g
           transform="translate(298.6455,892.6299)"
           id="g60"><path
             id="path62"
             style="fill:#ba2f1c;fill-opacity:1;fill-rule:nonzero;stroke:none"
             d="m 0,0 c -4.443,-0.576 -7.866,-4.497 -7.836,-9.233 0.028,-4.698 3.441,-8.546 7.834,-9.122 l -0.002,-10.934 c -3.11,-0.632 -5.448,-3.464 -5.427,-6.853 0.021,-3.356 2.348,-6.142 5.419,-6.769 l -0.065,-189.216 0.012,-0.007 0.302,-49.243 c 6.512,21.118 14.448,32.785 24.511,30.232 -10.154,5.115 -18.78,8.434 -18.89,16.945 L 3.451,-42.676 c 2.671,0.935 4.585,3.546 4.567,6.616 -0.02,3.106 -2.006,5.721 -4.735,6.594 l -0.138,11.267 c 3.999,0.949 6.974,4.657 6.947,9.076 -0.028,4.459 -3.106,8.165 -7.179,9.017 L 2.911,0.249 -0.002,0.262 Z" /></g><g
           transform="translate(304.7329,1032.9814)"
           id="g64"><path
             id="path66"
             style="fill:#ba2f1c;fill-opacity:1;fill-rule:nonzero;stroke:none"
             d="m 0,0 c -1.474,-2.222 -3.522,-4.461 -5.836,-6.578 -2.34,2.088 -4.421,4.302 -5.923,6.505 2.916,5.045 4.74,10.186 5.789,15.204 C -4.865,10.127 -2.972,5.008 0,0 m 9.28,-11.62 c -3.387,-3.047 -5.323,-5.902 -6.452,-7.252 -2.07,3.054 -4.582,6.087 -7.581,8.968 3.394,3.049 5.312,5.913 6.441,7.264 2.082,-3.083 4.564,-6.072 7.592,-8.98 m -30.176,-0.186 c 2.998,2.946 5.438,5.965 7.487,9.073 1.146,-1.337 3.1,-4.178 6.531,-7.184 -2.97,-2.918 -5.433,-5.981 -7.471,-9.061 -1.151,1.336 -3.11,4.167 -6.547,7.172 M 2,-35.527 c -1.966,-4.45 -4.456,-7.945 -7.591,-10.999 -3.178,3.015 -5.703,6.479 -7.724,10.904 1.966,4.449 4.449,7.934 7.589,10.992 3.173,-3.019 5.705,-6.474 7.726,-10.897 m -8.563,-25.724 c -3.393,-3.044 -5.312,-5.914 -6.441,-7.264 -2.087,3.085 -4.564,6.07 -7.598,8.981 3.399,3.045 5.323,5.902 6.458,7.253 2.076,-3.058 4.576,-6.086 7.581,-8.97 m 16.137,1.902 c -2.992,-2.947 -5.438,-5.963 -7.481,-9.073 -1.146,1.336 -3.099,4.183 -6.53,7.184 2.963,2.921 5.438,5.98 7.47,9.062 1.145,-1.336 3.116,-4.17 6.541,-7.173 m -14.92,-26.936 c -1.111,5.003 -2.998,10.124 -5.976,15.135 1.474,2.22 3.529,4.462 5.843,6.574 2.339,-2.084 4.415,-4.299 5.916,-6.501 -2.91,-5.048 -4.739,-10.193 -5.783,-15.208 M -7.044,43.086 c -3.325,11.11 -10.265,19.544 -15.633,22.706 9.659,-9.686 16.606,-27.614 9.734,-47.981 -3.994,-11.85 -10.629,-17.539 -21.809,-23.991 6.196,-3.321 14.621,-9.466 18.731,-15.487 -2.677,-4.645 -4.423,-9.371 -5.498,-14.005 1.132,-4.626 2.936,-9.333 5.67,-13.94 -4.036,-6.075 -12.384,-12.322 -18.539,-15.719 11.258,-6.315 17.962,-11.924 22.102,-23.715 7.122,-20.282 0.397,-38.3 -9.143,-48.1 5.323,3.226 12.164,11.747 15.353,22.896 l -0.013,-25.84 2.912,-0.013 -0.293,23.432 c 3.542,-9.9 9.862,-17.35 14.82,-20.273 -9.648,9.682 -16.589,27.615 -9.723,47.984 3.995,11.841 10.63,17.532 21.81,23.985 -6.202,3.322 -14.627,9.465 -18.732,15.49 2.672,4.64 4.423,9.369 5.498,14.008 -1.132,4.621 -2.941,9.325 -5.67,13.936 4.03,6.071 12.379,12.32 18.539,15.717 C 11.814,0.49 5.11,6.097 0.97,17.896 -6.146,38.177 0.568,56.19 10.102,65.994 5.179,63.002 -1.048,55.48 -4.468,45.536 l 0.004,23.686 -2.913,-0.018 z" /></g><g
           transform="translate(294.1313,1383.5269)"
           id="g68"><path
             id="path70"
             style="fill:#ba2f1c;fill-opacity:1;fill-rule:nonzero;stroke:none"
             d="m 0,0 0.303,-49.243 -0.011,-0.009 2.392,-189.022 c -3.063,-0.662 -5.356,-3.477 -5.335,-6.833 0.021,-3.391 2.393,-6.19 5.511,-6.785 l 0.136,-10.936 c -4.385,-0.627 -7.751,-4.518 -7.722,-9.212 0.029,-4.741 3.5,-8.614 7.944,-9.138 l 0.007,-0.164 2.912,0.018 0.004,0.292 c 4.062,0.899 7.089,4.637 7.062,9.103 -0.027,4.416 -3.049,8.088 -7.053,8.987 l -0.005,11.269 c 2.717,0.906 4.671,3.541 4.652,6.649 -0.019,3.068 -1.965,5.657 -4.648,6.557 l 0.053,191.359 c 0.005,8.515 8.589,11.943 18.679,17.178 C 14.85,-32.607 6.765,-21.035 0,0" /></g><g
           transform="translate(1715.2881,894.3945)"
           id="g72"><path
             id="path74"
             style="fill:#ba2f1c;fill-opacity:1;fill-rule:nonzero;stroke:none"
             d="M 0,0 C 4.442,-0.577 7.865,-4.498 7.837,-9.233 7.808,-13.932 4.395,-17.779 0.002,-18.355 L 0.004,-29.29 c 3.109,-0.631 5.447,-3.464 5.427,-6.853 -0.021,-3.355 -2.348,-6.141 -5.419,-6.768 l 0.065,-189.217 -0.012,-0.006 -0.302,-49.243 c -6.512,21.117 -14.449,32.784 -24.511,30.232 10.153,5.115 18.779,8.433 18.89,16.945 l 2.407,191.524 c -2.671,0.934 -4.585,3.545 -4.567,6.616 0.02,3.106 2.006,5.72 4.735,6.593 l 0.137,11.268 c -3.998,0.948 -6.973,4.657 -6.946,9.076 0.028,4.458 3.106,8.164 7.179,9.017 l 0.002,0.355 2.913,0.013 z" /></g><g
           transform="translate(1715.1709,1049.8765)"
           id="g76"><path
             id="path78"
             style="fill:#ba2f1c;fill-opacity:1;fill-rule:nonzero;stroke:none"
             d="m 0,0 c 1.049,-5.018 2.872,-10.159 5.789,-15.204 -1.502,-2.203 -3.584,-4.417 -5.923,-6.504 -2.314,2.116 -4.362,4.355 -5.837,6.577 C -2.998,-10.123 -1.105,-5.004 0,0 m -7.658,-17.771 c 1.129,-1.352 3.047,-4.215 6.44,-7.264 -2.999,-2.881 -5.511,-5.914 -7.58,-8.968 -1.13,1.35 -3.065,4.205 -6.453,7.252 3.028,2.908 5.511,5.897 7.593,8.98 M 8.378,-34.108 c -2.037,3.079 -4.501,6.142 -7.47,9.06 3.431,3.006 5.384,5.847 6.53,7.184 2.049,-3.108 4.49,-6.127 7.487,-9.073 -3.437,-3.004 -5.396,-5.836 -6.547,-7.171 m -8.623,-5.653 c 3.141,-3.058 5.624,-6.543 7.59,-10.991 -2.021,-4.425 -4.546,-7.889 -7.725,-10.905 -3.135,3.055 -5.624,6.549 -7.59,10.999 2.021,4.423 4.552,7.878 7.725,10.897 m 8.418,-27.652 c 1.136,-1.35 3.059,-4.208 6.459,-7.253 -3.034,-2.91 -5.512,-5.895 -7.599,-8.979 -1.129,1.349 -3.047,4.22 -6.44,7.263 3.005,2.884 5.505,5.913 7.58,8.969 m -17.176,0.106 c 2.032,-3.082 4.506,-6.141 7.47,-9.062 -3.431,-3.002 -5.384,-5.848 -6.53,-7.183 -2.043,3.109 -4.49,6.125 -7.481,9.072 3.425,3.003 5.396,5.837 6.541,7.173 m 2.595,-18.901 c 1.502,2.202 3.578,4.416 5.917,6.501 2.314,-2.113 4.368,-4.353 5.843,-6.574 -2.979,-5.011 -4.866,-10.133 -5.976,-15.136 -1.044,5.017 -2.874,10.162 -5.784,15.209 m 7.814,140.281 -2.912,0.018 0.003,-23.686 c -3.42,9.945 -9.646,17.467 -14.569,20.458 9.534,-9.804 16.248,-27.817 9.132,-48.098 -4.14,-11.799 -10.844,-17.406 -22.103,-23.72 6.16,-3.397 14.51,-9.646 18.539,-15.716 -2.728,-4.612 -4.538,-9.316 -5.669,-13.937 1.074,-4.64 2.826,-9.368 5.497,-14.009 -4.104,-6.024 -12.529,-12.168 -18.731,-15.489 11.179,-6.452 17.814,-12.144 21.809,-23.985 6.867,-20.368 -0.075,-38.302 -9.722,-47.985 4.958,2.925 11.277,10.373 14.819,20.275 l -0.293,-23.432 2.913,0.013 -0.014,25.839 c 3.189,-11.15 10.031,-19.67 15.353,-22.896 -9.539,9.801 -16.265,27.818 -9.143,48.101 4.14,11.791 10.844,17.4 22.103,23.715 -6.155,3.397 -14.504,9.643 -18.539,15.718 2.733,4.608 4.538,9.314 5.669,13.94 -1.074,4.634 -2.82,9.36 -5.497,14.005 4.11,6.021 12.535,12.166 18.73,15.487 C 17.602,-14.859 10.967,-9.169 6.973,2.68 0.102,23.047 7.048,40.976 16.707,50.661 11.339,47.499 4.399,39.065 1.073,27.955 Z" /></g><g
           transform="translate(1719.8018,1385.291)"
           id="g80"><path
             id="path82"
             style="fill:#ba2f1c;fill-opacity:1;fill-rule:nonzero;stroke:none"
             d="m 0,0 -0.303,-49.244 0.012,-0.008 -2.393,-189.022 c 3.064,-0.662 5.356,-3.477 5.335,-6.833 -0.02,-3.391 -2.393,-6.19 -5.51,-6.785 l -0.136,-10.936 c 4.385,-0.627 7.75,-4.518 7.722,-9.212 -0.03,-4.741 -3.5,-8.614 -7.945,-9.138 l -0.007,-0.164 -2.912,0.018 -0.004,0.292 c -4.061,0.899 -7.089,4.637 -7.061,9.103 0.026,4.416 3.048,8.088 7.052,8.987 l 0.005,11.269 c -2.716,0.906 -4.67,3.541 -4.652,6.649 0.02,3.068 1.966,5.657 4.648,6.557 l -0.052,191.359 c -0.005,8.515 -8.59,11.943 -18.68,17.178 C -14.85,-32.607 -6.765,-21.035 0,0" /></g></g></g></g></svg>