<?xml version="1.0" encoding="UTF-8" standalone="no"?>
<svg
   xmlns:dc="http://purl.org/dc/elements/1.1/"
   xmlns:cc="http://creativecommons.org/ns#"
   xmlns:rdf="http://www.w3.org/1999/02/22-rdf-syntax-ns#"
   xmlns:svg="http://www.w3.org/2000/svg"
   xmlns="http://www.w3.org/2000/svg"
   viewBox="0 0 1133.8533 636.37732"
   height="636.37732"
   width="1133.8533"
   xml:space="preserve"
   id="svg2"
   version="1.1"><metadata
     id="metadata8"><rdf:RDF><cc:Work
         rdf:about=""><dc:format>image/svg+xml</dc:format><dc:type
           rdf:resource="http://purl.org/dc/dcmitype/StillImage" /></cc:Work></rdf:RDF></metadata><defs
     id="defs6"><clipPath
       id="clipPath18"
       clipPathUnits="userSpaceOnUse"><path
         id="path16"
         d="M 0,477.283 H 850.39 V 0 H 0 Z" /></clipPath></defs><g
     transform="matrix(1.3333333,0,0,-1.3333333,0,636.37733)"
     id="g10"><g
       id="g12"><g
         clip-path="url(#clipPath18)"
         id="g14"><g
           transform="translate(153.7881,48.8398)"
           id="g20"><path
             id="path22"
             style="fill:none;stroke:#231815;stroke-width:1;stroke-linecap:butt;stroke-linejoin:miter;stroke-miterlimit:10;stroke-dasharray:none;stroke-opacity:1"
             d="m 0,0 v 12.793 h -5.717 l -1.625,0.708 c -17.247,7.52 -31.681,19.918 -41.742,35.856 l -1.313,2.08 v 7.86 h -13.367 v 261.009 h 13.367 v 7.86 l 1.313,2.08 c 10.063,15.939 24.496,28.337 41.742,35.856 l 1.625,0.708 H 0 v 12.793 H 542.813 V 366.81 h 5.728 l 1.626,-0.709 c 17.24,-7.521 31.671,-19.919 41.73,-35.855 l 1.314,-2.08 v -7.86 h 13.366 V 59.297 h -13.366 v -7.86 l -1.313,-2.08 C 581.839,33.422 567.408,21.023 550.167,13.502 l -1.626,-0.709 h -5.728 l 0,-12.793 z" /></g><g
           transform="translate(165.126,60.1797)"
           id="g24"><path
             id="path26"
             style="fill:#a32b0f;fill-opacity:1;fill-rule:nonzero;stroke:none"
             d="m 0,0 h 520.137 v 12.793 h 14.695 c 14.668,6.521 26.987,17.078 35.702,30.592 V 59.297 H 583.9 v 238.331 h -13.366 v 15.912 c -8.716,13.513 -21.035,24.07 -35.702,30.592 h -14.695 v 12.793 H 0 v -12.793 h -14.686 c -14.669,-6.52 -26.994,-17.077 -35.71,-30.592 V 297.628 H -63.764 V 59.297 h 13.368 V 43.385 c 8.715,-13.516 21.039,-24.073 35.71,-30.592 H 0 Z M 525.807,-5.67 H -5.668 V 7.123 h -10.204 l -0.542,0.236 c -16.201,7.063 -29.762,18.711 -39.215,33.684 l -0.437,0.693 v 11.891 h -13.366 v 249.67 h 13.366 v 11.89 l 0.437,0.693 c 9.454,14.974 23.014,26.622 39.215,33.685 l 0.542,0.236 h 10.204 v 12.793 h 531.475 v -12.793 h 10.214 l 0.541,-0.237 c 16.196,-7.064 29.752,-18.712 39.204,-33.684 l 0.438,-0.693 v -11.89 H 589.57 V 53.627 H 576.204 V 41.736 l -0.437,-0.693 C 566.315,26.072 552.759,14.424 536.562,7.359 l -0.541,-0.236 h -10.214 z" /></g></g></g></g></svg>