<?xml version="1.0" encoding="UTF-8" standalone="no"?>
<svg
   xmlns:dc="http://purl.org/dc/elements/1.1/"
   xmlns:cc="http://creativecommons.org/ns#"
   xmlns:rdf="http://www.w3.org/1999/02/22-rdf-syntax-ns#"
   xmlns:svg="http://www.w3.org/2000/svg"
   xmlns="http://www.w3.org/2000/svg"
   viewBox="0 0 4000 4000"
   height="4000"
   width="4000"
   xml:space="preserve"
   id="svg2"
   version="1.1"><metadata
     id="metadata8"><rdf:RDF><cc:Work
         rdf:about=""><dc:format>image/svg+xml</dc:format><dc:type
           rdf:resource="http://purl.org/dc/dcmitype/StillImage" /></cc:Work></rdf:RDF></metadata><defs
     id="defs6"><clipPath
       id="clipPath18"
       clipPathUnits="userSpaceOnUse"><path
         id="path16"
         d="M 0,3000 H 3000 V 0 H 0 Z" /></clipPath><clipPath
       id="clipPath58"
       clipPathUnits="userSpaceOnUse"><path
         id="path56"
         d="M 269.065,273.121 H 2193.69 V 40.2314 H 269.065 Z" /></clipPath><clipPath
       id="clipPath230"
       clipPathUnits="userSpaceOnUse"><path
         id="path228"
         d="m 1596.78,680.36 h 295.74 v -69.717 h -295.74 z" /></clipPath><clipPath
       id="clipPath266"
       clipPathUnits="userSpaceOnUse"><path
         id="path264"
         d="m 1741.92,379.044 h 86.99 V 114.231 h -86.99 z" /></clipPath><clipPath
       id="clipPath426"
       clipPathUnits="userSpaceOnUse"><path
         id="path424"
         d="M 658.583,2111.9 H 1118.48 V 1641.63 H 658.583 Z" /></clipPath><clipPath
       id="clipPath458"
       clipPathUnits="userSpaceOnUse"><path
         id="path456"
         d="m 861.035,2198.65 h 222.185 v -154.2 H 861.035 Z" /></clipPath></defs><g
     transform="matrix(1.3333333,0,0,-1.3333333,0,4000)"
     id="g10"><g
       id="g12"><g
         clip-path="url(#clipPath18)"
         id="g14"><g
           transform="translate(2063.6772,1809.8868)"
           id="g20"><path
             id="path22"
             style="fill:#ffffff;fill-opacity:1;fill-rule:nonzero;stroke:none"
             d="m 0,0 c 0,0 -16.166,50.036 18.868,75.473 35.033,25.444 117.228,30.289 144.179,67.845 0,0 5.387,-93.282 -26.951,-132.044 C 103.757,-27.497 3.714,-28.196 0,0" /></g><g
           transform="translate(2199.7737,1846.4121)"
           id="g24"><path
             id="path26"
             style="fill:#adadad;fill-opacity:1;fill-rule:nonzero;stroke:none"
             d="m 0,0 c -32.34,-38.77 -132.383,-39.47 -136.096,-11.274 0,0 -1.667,5.247 -2.776,13.158 -3.07,-20.087 2.776,-38.409 2.776,-38.409 C -132.383,-64.721 -32.34,-64.023 0,-25.251 29.286,9.85 27.64,89.435 27.059,104.185 26.1,73.525 21.07,25.251 0,0" /></g><g
           transform="translate(2022.3679,1891.0013)"
           id="g28"><path
             id="path30"
             style="fill:#c74443;fill-opacity:1;fill-rule:nonzero;stroke:none"
             d="m 0,0 c -0.079,0 -0.169,-0.008 -0.249,-0.008 -17.803,-0.692 -35.796,-12.425 -44.369,-23.668 -4.744,-6.211 -6.597,-12.093 -5.085,-16.134 6.337,-16.93 20.578,-26.868 30.728,-32.872 8.629,-5.094 34.694,-8.449 51.19,-7.991 C 26.665,-40.293 13.096,0 0,0 m 29.136,-95.205 c -18.931,0 -45.434,3.548 -56.999,10.372 -12.156,7.194 -29.233,19.193 -37.163,40.389 -3.195,8.53 -0.68,18.83 7.079,28.994 10.51,13.776 32.822,29.017 56.99,29.966 0.323,0.016 0.636,0.016 0.95,0.016 35.104,0 46.543,-77.195 49.228,-101.039 l 0.761,-6.775 -7.483,-1.126 c -3.58,-0.54 -8.19,-0.797 -13.363,-0.797" /></g><g
           transform="translate(1987.1116,1778.3418)"
           id="g32"><path
             id="path34"
             style="fill:#c74443;fill-opacity:1;fill-rule:nonzero;stroke:none"
             d="m 0,0 c -7.983,0 -16.21,0.611 -24.588,2.068 -58.529,10.188 -80.879,51.188 -82.23,83.2 l 16.156,0.555 c 1.127,-26.701 19.915,-60.916 69.163,-69.488 47.931,-8.36 93.401,15.121 93.858,15.372 L 80.503,19.145 C 78.749,18.227 43.375,0 0,0" /></g><g
           transform="translate(1133.7267,2053.5994)"
           id="g36"><path
             id="path38"
             style="fill:#ffffff;fill-opacity:1;fill-rule:nonzero;stroke:none"
             d="M 0,0 C 0,0 37.091,101.763 127.387,92.677 217.683,83.592 232.658,7.129 285.807,-9.15 c 53.14,-16.287 140.052,43.535 231.002,0 90.958,-43.542 103.086,-145.707 123.296,-180.937 20.212,-35.23 169.78,-120.368 297.114,-56.9 0,0 -4.038,-95.85 -78.822,-139.762 -74.782,-43.905 -238.502,-67.152 -345.624,-27.36 -107.124,39.785 -325.415,221.197 -325.415,221.197 0,0 -223.135,122.05 -187.358,192.912" /></g><g
           transform="translate(1992.1233,1714.6586)"
           id="g40"><path
             id="path42"
             style="fill:#adadad;fill-opacity:1;fill-rule:nonzero;stroke:none"
             d="m 0,0 c -90.958,-95.607 -155.698,56.015 -267.476,108.442 -203.46,95.429 -358.424,77.637 -358.424,77.637 0,0 -83.537,173.18 -223.402,172.094 -1.755,-3.918 -9.095,-19.232 -9.095,-19.232 -35.777,-70.862 187.358,-192.912 187.358,-192.912 0,0 218.292,-181.412 325.415,-221.197 C -238.502,-114.96 -74.782,-91.713 0,-47.808 74.784,-3.896 78.822,91.954 78.822,91.954 75.097,90.095 71.356,88.396 67.596,86.787 57.285,57.238 29.172,30.675 0,0" /></g><g
           transform="translate(2077.2461,1789.6968)"
           id="g44"><path
             id="path46"
             style="fill:#c74443;fill-opacity:1;fill-rule:nonzero;stroke:none"
             d="m 0,0 c -2.238,-14.702 -1.261,-38.353 3.474,-46.6 5.567,-9.713 15.072,-23.481 33.144,-30.925 4.305,-1.778 11.008,-0.732 18.375,2.856 13.329,6.487 28.196,21.349 30.835,37.194 0,0.065 0.019,0.145 0.028,0.218 C 87.234,-25.549 44.083,-9.189 0,0 m -14.115,10.638 2.022,6.574 7.42,-1.399 C 21.42,10.912 105.619,-7.403 101.94,-38.786 c -0.035,-0.282 -0.072,-0.564 -0.125,-0.846 -3.58,-21.51 -22.78,-39.864 -39.115,-47.816 -12.056,-5.874 -23.719,-7.04 -32.822,-3.291 -22.61,9.32 -34.094,25.839 -40.78,37.46 -6.337,11.056 -7.483,35.124 -5.504,52.048 0.546,4.634 1.316,8.723 2.291,11.869" /></g><g
           transform="translate(2034.7837,1732.7325)"
           id="g48"><path
             id="path50"
             style="fill:#c74443;fill-opacity:1;fill-rule:nonzero;stroke:none"
             d="m 0,0 c -0.832,-7.139 -1.012,-14.565 -0.286,-22.202 5.136,-53.4 48.136,-77.687 83.412,-82.249 l 2.308,14.388 C 56.022,-86.256 20.139,-65.874 15.825,-20.947 11.6,22.797 42.338,60.987 42.658,61.358 l -13.04,8.603 C 28.419,68.495 4.546,38.77 0,0" /></g><g
           id="g52"><g
             id="g54" /><g
             id="g66"><g
               style="opacity:0.14999402"
               id="g64"
               clip-path="url(#clipPath58)"><g
                 id="g62"
                 transform="translate(1596.7781,239.6927)"><path
                   id="path60"
                   style="fill:#323334;fill-opacity:1;fill-rule:evenodd;stroke:none"
                   d="m 0,0 c -121.499,0 -234.449,-5.359 -328.728,-14.541 l 6.284,3.034 -191.09,44.936 -685.245,-9.102 -128.935,-28.422 249.745,-121.366 155.098,29.783 210.926,-103.783 160.988,77.686 c 90.045,-31.746 302.788,-54.052 550.957,-54.052 329.665,0 596.909,39.358 596.909,87.914 C 596.909,-39.357 329.665,0 0,0" /></g></g></g></g><g
           transform="translate(376.0875,402.2349)"
           id="g68"><path
             id="path70"
             style="fill:#678ca9;fill-opacity:1;fill-rule:nonzero;stroke:none"
             d="m 0,0 -29.636,-173.879 193.194,-84.35 23.334,220.313 z" /></g><g
           transform="translate(787.4303,408.9143)"
           id="g72"><path
             id="path74"
             style="fill:#7aa6cf;fill-opacity:1;fill-rule:nonzero;stroke:none"
             d="m 0,0 9.514,-140.742 -257.299,-124.166 23.334,220.312 z" /></g><g
           transform="translate(317.1032,384.6289)"
           id="g76"><path
             id="path78"
             style="fill:#678ca9;fill-opacity:1;fill-rule:nonzero;stroke:none"
             d="m 0,0 233.811,-62.686 275.12,89.724 6.616,49.441 L 235.136,-6.06 13.613,77.799 Z" /></g><g
           transform="translate(330.716,462.4276)"
           id="g80"><path
             id="path82"
             style="fill:#7aa6cf;fill-opacity:1;fill-rule:nonzero;stroke:none"
             d="M 0,0 319.874,39.551 501.934,-1.32 221.523,-83.858 Z" /></g><g
           transform="translate(666.3711,412.1577)"
           id="g84"><path
             id="path86"
             style="fill:#7e5e94;fill-opacity:1;fill-rule:nonzero;stroke:none"
             d="m 0,0 -8.11,-55.202 72.117,23.512 7.446,52.724 z" /></g><g
           transform="translate(639.3216,350.7751)"
           id="g88"><path
             id="path90"
             style="fill:#7e5e94;fill-opacity:1;fill-rule:nonzero;stroke:none"
             d="M 0,0 11.439,-153.143 69.171,-125.285 53.811,17.55 Z" /></g><g
           transform="translate(415.9817,358.1137)"
           id="g92"><path
             id="path94"
             style="fill:#7e5e94;fill-opacity:1;fill-rule:nonzero;stroke:none"
             d="m 0,0 60.874,-16.312 -25.689,-159.162 -53.168,23.216 z" /></g><g
           transform="translate(412.1779,431.5913)"
           id="g96"><path
             id="path98"
             style="fill:#7e5e94;fill-opacity:1;fill-rule:nonzero;stroke:none"
             d="m 0,0 -18.958,-67.37 59.486,-15.95 29.323,56.877 z" /></g><g
           transform="translate(666.3711,412.1577)"
           id="g100"><path
             id="path102"
             style="fill:#7e5e94;fill-opacity:1;fill-rule:nonzero;stroke:none"
             d="m 0,0 -166.673,71.16 54.019,6.686 184.107,-56.812 z" /></g><g
           transform="translate(482.029,405.1486)"
           id="g104"><path
             id="path106"
             style="fill:#7e5e94;fill-opacity:1;fill-rule:nonzero;stroke:none"
             d="M 0,0 271.12,73.807 228.434,83.39 -69.851,26.443 Z" /></g><g
           transform="translate(556.384,459.12)"
           id="g108"><path
             id="path110"
             style="fill:#7e5e94;fill-opacity:1;fill-rule:nonzero;stroke:none"
             d="m 0,0 c 0,0 -47.833,110.301 -193.365,125.372 0,0 26.835,22.412 68.341,20.433 0,0 5.567,55.387 -46.473,68.688 0,0 138.495,-8.296 222.032,-200.025 z" /></g><g
           transform="translate(572.0828,484.3316)"
           id="g112"><path
             id="path114"
             style="fill:#7e5e94;fill-opacity:1;fill-rule:nonzero;stroke:none"
             d="m 0,0 c 0,0 88.712,101.779 176.115,118.709 l -17.105,-44.62 46.365,-13.39 c 0,0 -134.037,-40.55 -154.301,-85.517 z" /></g><g
           transform="translate(712.8425,371.1975)"
           id="g116"><path
             id="path118"
             style="fill:#a33333;fill-opacity:1;fill-rule:nonzero;stroke:none"
             d="m 0,0 -33.698,-197.708 219.67,-95.904 26.538,250.496 z" /></g><g
           transform="translate(1180.5482,378.7867)"
           id="g120"><path
             id="path122"
             style="fill:#c74443;fill-opacity:1;fill-rule:nonzero;stroke:none"
             d="m 0,0 10.821,-160.024 -292.555,-141.177 26.538,250.496 z" /></g><g
           transform="translate(645.7742,351.1772)"
           id="g124"><path
             id="path126"
             style="fill:#a33333;fill-opacity:1;fill-rule:nonzero;stroke:none"
             d="m 0,0 265.857,-71.272 312.82,102.011 7.52,56.218 L 267.36,-6.889 15.477,88.461 Z" /></g><g
           transform="translate(661.2512,439.6386)"
           id="g128"><path
             id="path130"
             style="fill:#c74443;fill-opacity:1;fill-rule:nonzero;stroke:none"
             d="M 0,0 363.715,44.975 570.72,-1.505 251.883,-95.35 Z" /></g><g
           transform="translate(1042.903,382.4799)"
           id="g132"><path
             id="path134"
             style="fill:#f0df4e;fill-opacity:1;fill-rule:nonzero;stroke:none"
             d="m 0,0 -9.219,-62.767 82.007,26.741 8.467,59.942 z" /></g><g
           transform="translate(1012.1487,312.6874)"
           id="g136"><path
             id="path138"
             style="fill:#f0df4e;fill-opacity:1;fill-rule:nonzero;stroke:none"
             d="M 0,0 13.013,-174.138 78.659,-142.456 61.188,19.949 Z" /></g><g
           transform="translate(758.2049,321.033)"
           id="g140"><path
             id="path142"
             style="fill:#f0df4e;fill-opacity:1;fill-rule:nonzero;stroke:none"
             d="m 0,0 69.217,-18.557 -29.205,-180.969 -60.455,26.394 z" /></g><g
           transform="translate(753.8824,404.5685)"
           id="g144"><path
             id="path146"
             style="fill:#f0df4e;fill-opacity:1;fill-rule:nonzero;stroke:none"
             d="m 0,0 -21.554,-76.599 67.633,-18.13 33.341,64.666 z" /></g><g
           transform="translate(1042.903,382.4799)"
           id="g148"><path
             id="path150"
             style="fill:#f0df4e;fill-opacity:1;fill-rule:nonzero;stroke:none"
             d="m 0,0 -189.506,80.913 61.411,7.596 209.35,-64.593 z" /></g><g
           transform="translate(833.3023,374.5051)"
           id="g152"><path
             id="path154"
             style="fill:#f0df4e;fill-opacity:1;fill-rule:nonzero;stroke:none"
             d="M 0,0 308.274,83.923 259.735,94.826 -79.42,30.063 Z" /></g><g
           transform="translate(917.8421,435.8795)"
           id="g156"><path
             id="path158"
             style="fill:#f0df4e;fill-opacity:1;fill-rule:nonzero;stroke:none"
             d="m 0,0 c 0,0 -54.385,125.405 -219.857,142.545 0,0 30.512,25.485 77.71,23.232 0,0 6.329,62.976 -52.846,78.105 0,0 157.473,-9.431 252.458,-227.433 z" /></g><g
           transform="translate(935.7004,464.5437)"
           id="g160"><path
             id="path162"
             style="fill:#f0df4e;fill-opacity:1;fill-rule:nonzero;stroke:none"
             d="M 0,0 C 0,0 100.866,115.733 200.246,134.972 L 180.797,84.244 233.516,69.02 c 0,0 -152.404,-46.111 -175.445,-97.241 z" /></g><g
           transform="translate(620.1307,600.6744)"
           id="g164"><path
             id="path166"
             style="fill:#7e5e94;fill-opacity:1;fill-rule:nonzero;stroke:none"
             d="m 0,0 -27.792,-163.104 181.226,-79.127 21.895,206.663 z" /></g><g
           transform="translate(1005.9895,606.9353)"
           id="g168"><path
             id="path170"
             style="fill:#9477ab;fill-opacity:1;fill-rule:nonzero;stroke:none"
             d="m 0,0 8.933,-132.019 -241.358,-116.473 21.895,206.663 z" /></g><g
           transform="translate(564.8071,584.1545)"
           id="g172"><path
             id="path174"
             style="fill:#7e5e94;fill-opacity:1;fill-rule:nonzero;stroke:none"
             d="M 0,0 219.329,-58.792 477.407,25.365 483.61,71.747 220.574,-5.681 12.771,72.978 Z" /></g><g
           transform="translate(577.5785,657.1328)"
           id="g176"><path
             id="path178"
             style="fill:#9477ab;fill-opacity:1;fill-rule:nonzero;stroke:none"
             d="M 0,0 300.058,37.105 470.839,-1.231 207.802,-78.659 Z" /></g><g
           transform="translate(892.4314,609.9858)"
           id="g180"><path
             id="path182"
             style="fill:#c74443;fill-opacity:1;fill-rule:nonzero;stroke:none"
             d="m 0,0 -7.598,-51.791 67.649,22.065 6.983,49.458 z" /></g><g
           transform="translate(867.0647,552.4003)"
           id="g184"><path
             id="path186"
             style="fill:#c74443;fill-opacity:1;fill-rule:nonzero;stroke:none"
             d="M 0,0 10.733,-143.654 64.885,-117.526 50.482,16.466 Z" /></g><g
           transform="translate(657.563,559.2891)"
           id="g188"><path
             id="path190"
             style="fill:#c74443;fill-opacity:1;fill-rule:nonzero;stroke:none"
             d="M 0,0 57.098,-15.305 33.002,-164.61 -16.872,-142.835 Z" /></g><g
           transform="translate(653.9921,628.2048)"
           id="g192"><path
             id="path194"
             style="fill:#c74443;fill-opacity:1;fill-rule:nonzero;stroke:none"
             d="m 0,0 -17.785,-63.194 55.798,-14.959 27.516,53.352 z" /></g><g
           transform="translate(892.4314,609.9858)"
           id="g196"><path
             id="path198"
             style="fill:#c74443;fill-opacity:1;fill-rule:nonzero;stroke:none"
             d="m 0,0 -156.343,66.75 50.671,6.269 172.706,-53.287 z" /></g><g
           transform="translate(719.5206,603.4036)"
           id="g200"><path
             id="path202"
             style="fill:#c74443;fill-opacity:1;fill-rule:nonzero;stroke:none"
             d="M 0,0 254.318,69.235 214.273,78.232 -65.529,24.801 Z" /></g><g
           transform="translate(789.2653,654.0344)"
           id="g204"><path
             id="path206"
             style="fill:#c74443;fill-opacity:1;fill-rule:nonzero;stroke:none"
             d="m 0,0 c 0,0 -44.871,103.462 -181.387,117.6 0,0 25.178,21.028 64.113,19.169 0,0 5.219,51.959 -43.599,64.439 0,0 129.912,-7.78 208.276,-187.64 z" /></g><g
           transform="translate(803.9889,677.6854)"
           id="g208"><path
             id="path210"
             style="fill:#c74443;fill-opacity:1;fill-rule:nonzero;stroke:none"
             d="m 0,0 c 0,0 83.216,95.479 165.214,111.354 l -16.049,-41.86 43.492,-12.553 c 0,0 -125.732,-38.046 -144.743,-80.221 z" /></g><g
           transform="translate(1175.8225,1019.54)"
           id="g212"><path
             id="path214"
             style="fill:#c74443;fill-opacity:1;fill-rule:nonzero;stroke:none"
             d="m 0,0 -48.746,-430.252 479.001,-26.652 16.164,82.379 -288.214,71.345 180.922,233.379 z" /></g><g
           transform="translate(1334.028,986.9732)"
           id="g216"><path
             id="path218"
             style="fill:#a33333;fill-opacity:1;fill-rule:nonzero;stroke:none"
             d="m 0,0 -113.56,-328.295 396.387,-54.848 5.387,41.185 L 0,-270.613 180.922,-37.234 Z" /></g><g
           transform="translate(1581.3378,515.1761)"
           id="g220"><path
             id="path222"
             style="fill:#323334;fill-opacity:1;fill-rule:evenodd;stroke:none"
             d="m 0,0 161.615,-10.414 c 0,0 41.119,-105.802 101.144,-147.212 0,0 -44.073,-69.349 -7.295,-91.527 36.779,-22.169 49.901,38.867 58.538,112.571 6.651,56.811 -3.303,172.044 -2.828,257.81 0.169,30.055 -32.483,51.196 -64.168,41.627 C 186.069,144.443 95.432,126.531 23.128,151.983 Z" /></g><g
           id="g224"><g
             id="g226" /><g
             id="g238"><g
               style="opacity:0.14999402"
               id="g236"
               clip-path="url(#clipPath230)"><g
                 id="g234"
                 transform="translate(1828.3434,678.0314)"><path
                   id="path232"
                   style="fill:#000100;fill-opacity:1;fill-rule:evenodd;stroke:none"
                   d="m 0,0 c -60.937,-18.412 -151.573,-36.324 -223.877,-10.872 l -7.688,-50.511 c 83.779,-15.249 178.907,1.344 245.59,18.589 17.66,4.563 35.616,2.389 50.152,-4.33 0,1.82 -0.018,3.702 -0.009,5.496 C 64.337,-11.573 31.685,9.575 0,0" /></g></g></g></g><g
           transform="translate(1626.3867,672.1249)"
           id="g240"><path
             id="path242"
             style="fill:#323334;fill-opacity:1;fill-rule:evenodd;stroke:none"
             d="m 0,0 -8.297,-163.081 c -1.021,-20.022 -19.898,-35.512 -42.167,-34.594 l -0.869,0.04 c -22.269,0.909 -39.5,17.881 -38.479,37.901 l 8.297,163.089 c 1.021,20.022 19.898,35.504 42.167,34.594 l 0.869,-0.039 C -16.21,36.992 1.012,20.02 0,0" /></g><g
           transform="translate(1556.9554,1030.7087)"
           id="g244"><path
             id="path246"
             style="fill:#c74443;fill-opacity:1;fill-rule:nonzero;stroke:none"
             d="m 0,0 9.371,-363.782 142.38,-352.646 77.746,-3.339 L 185.2,-295.334 347.899,0.321 Z" /></g><g
           transform="translate(1556.9554,1030.7087)"
           id="g248"><path
             id="path250"
             style="fill:#c74443;fill-opacity:1;fill-rule:nonzero;stroke:none"
             d="m 0,0 9.371,-363.782 120.432,-351.705 99.694,-4.28 L 185.2,-295.334 347.899,0.321 Z" /></g><g
           transform="translate(1792.3701,1013.7059)"
           id="g252"><path
             id="path254"
             style="fill:#a33333;fill-opacity:1;fill-rule:nonzero;stroke:none"
             d="m 0,0 -109.272,-300.983 66.021,-400.181 37.334,-1.6 -44.298,424.433 162.699,295.655 z" /></g><g
           transform="translate(1631.9979,387.7503)"
           id="g256"><path
             id="path258"
             style="fill:#323334;fill-opacity:1;fill-rule:evenodd;stroke:none"
             d="m 0,0 -3.347,-145.643 c 0,0 -115.437,-42.304 -158.384,-98.302 0,0 -79.286,36.051 -102.048,1.899 -22.761,-34.153 45.711,-42.834 128.033,-46.834 63.442,-3.082 190.947,11.717 286.245,15.651 33.396,1.376 55.217,31.763 42.972,59.733 -23.548,53.779 -48.055,134.241 -23.458,200.452 z" /></g><g
           id="g260"><g
             id="g262" /><g
             id="g274"><g
               style="opacity:0.14999402"
               id="g272"
               clip-path="url(#clipPath266)"><g
                 id="g270"
                 transform="translate(1825.4689,174.2543)"><path
                   id="path268"
                   style="fill:#000100;fill-opacity:1;fill-rule:evenodd;stroke:none"
                   d="m 0,0 c -23.548,53.779 -48.055,134.24 -23.458,200.452 l -56.499,4.337 c -12.683,-75.995 10.59,-160.562 33.136,-219.555 5.97,-15.635 4.467,-31.867 -2.255,-45.257 2.022,0.097 4.108,0.209 6.104,0.29 C -9.576,-58.357 12.245,-27.97 0,0" /></g></g></g></g><g
           transform="translate(1808.6427,355.2808)"
           id="g276"><path
             id="path278"
             style="fill:#323334;fill-opacity:1;fill-rule:evenodd;stroke:none"
             d="m 0,0 -181.585,-0.845 c -22.296,-0.104 -40.457,16.055 -40.574,36.1 l -0.01,0.779 c -0.115,20.045 17.868,36.374 40.155,36.478 L -0.422,73.357 C 21.865,73.461 40.037,57.304 40.153,37.265 V 36.478 C 40.268,16.441 22.296,0.105 0,0" /></g><g
           transform="translate(1032.9767,1593.8232)"
           id="g280"><path
             id="path282"
             style="fill:#a33333;fill-opacity:1;fill-rule:evenodd;stroke:none"
             d="m 0,0 c -44.387,39.31 -115.815,38.819 -159.529,-1.086 l -270.332,-246.762 c -43.707,-39.897 -43.161,-104.096 1.217,-143.39 l 0.019,-0.017 c 44.396,-39.3 115.821,-38.817 159.538,1.087 L 1.217,-143.43 C 44.933,-103.525 44.396,-39.301 0,0" /></g><g
           transform="translate(1826.3027,1737.0809)"
           id="g284"><path
             id="path286"
             style="fill:#c74443;fill-opacity:1;fill-rule:evenodd;stroke:none"
             d="m 0,0 c 389.617,-346.966 141.462,-921.639 -418.079,-933.91 -145.33,-3.187 -286.999,47.762 -395.54,144.456 -389.498,346.984 -141.376,921.529 418.08,933.854 C -250.216,147.602 -108.553,96.67 0,0" /></g><g
           transform="translate(1171.2745,1829.2001)"
           id="g288"><path
             id="path290"
             style="fill:#a33333;fill-opacity:1;fill-rule:evenodd;stroke:none"
             d="m 0,0 c -15.208,-6.269 -29.869,-13.166 -44.198,-20.408 288.483,93.917 613.629,-25.251 743.764,-280.472 93.76,-183.882 30.173,-362.59 -73.53,-482.169 l -47.474,-149.602 c 300.897,180.527 316.374,462.8 211.247,668.966 C 652.71,5.206 299.092,123.265 0,0" /></g><g
           transform="translate(891.7605,1093.853)"
           id="g292"><path
             id="path294"
             style="fill:#323334;fill-opacity:1;fill-rule:nonzero;stroke:none"
             d="m 0,0 c 0,0 464.421,-65.414 1081.639,445.766 0,0 41.845,-80.325 41.029,-167.354 -0.473,-49.884 -474.829,-519.452 -987.771,-432.641 0,0 -86.151,56.868 -134.897,154.229" /></g><g
           transform="translate(1028.8687,866.83)"
           id="g296"><path
             id="path298"
             style="fill:#ffffff;fill-opacity:1;fill-rule:nonzero;stroke:none"
             d="m 0,0 c -12.665,-4.191 -26.907,-4.819 -40.798,-0.972 -24.758,6.847 -39.044,12.706 -41.658,13.808 -31.918,13.486 -45.62,47.686 -30.62,76.382 14.966,28.592 52.765,40.927 84.62,27.674 0.637,-0.257 9.436,-3.758 25.233,-8.127 C 30.477,99.431 49.39,67.306 39.016,37.002 32.912,19.193 18.052,5.979 0,0" /></g><g
           transform="translate(1478.5914,891.1566)"
           id="g300"><path
             id="path302"
             style="fill:#ffffff;fill-opacity:1;fill-rule:nonzero;stroke:none"
             d="m 0,0 c -18.009,-5.963 -36.296,-11.467 -54.35,-16.375 -17.149,-4.659 -34.763,-2.526 -49.3,4.684 -9.157,-12.491 -23.693,-21.767 -41.308,-24.801 -25.788,-4.443 -51.844,-7.822 -77.416,-10.027 -18.027,-1.554 -35.014,3.782 -47.743,13.614 -11.94,-10.652 -28.507,-17.067 -46.642,-16.64 -26.799,0.628 -53.401,2.558 -79.081,5.745 -34.934,4.346 -59.344,33.323 -54.519,64.73 4.816,31.416 37.057,53.36 71.992,49.016 21.008,-2.607 42.857,-4.193 64.937,-4.709 15.297,-0.362 29.207,-5.527 39.965,-13.856 10.106,9.021 23.604,15.087 38.873,16.391 21.635,1.867 43.707,4.732 65.61,8.506 15.235,2.623 30.235,0.145 42.83,-6.108 7.93,10.832 19.987,19.313 34.854,23.369 21.069,5.722 42.194,12.279 63.506,19.78 14.832,5.046 30.422,5.102 44.323,0.723 6.007,12.281 16.801,22.733 31.383,28.865 21.141,8.885 42.077,18.203 62.234,27.674 14.214,6.68 30.012,8.079 44.503,4.949 4.601,12.723 14.133,24.076 27.882,31.496 19.961,10.76 39.482,21.928 58.046,33.211 13.229,8.031 28.589,11.015 43.294,9.446 2.865,13.013 10.751,25.196 23.281,34.016 18.027,12.665 35.669,25.887 52.425,39.269 11.815,9.424 26.459,14.228 41.121,14.493 0.832,13.14 6.694,26.088 17.605,36.349 15.549,14.605 30.747,29.91 45.185,45.505 22.554,24.375 62.815,27.674 89.936,7.387 27.112,-20.286 30.791,-56.481 8.225,-80.848 -16.307,-17.624 -33.502,-34.925 -51.063,-51.436 -12.209,-11.476 -28.446,-17.407 -44.853,-17.704 -0.938,-14.678 -8.135,-29.035 -21.328,-39.575 -18.744,-14.976 -38.444,-29.742 -58.567,-43.889 -13.829,-9.737 -30.71,-13.519 -46.874,-11.788 -3.17,-14.317 -12.37,-27.546 -26.879,-36.366 -20.452,-12.424 -41.944,-24.72 -63.837,-36.533 -14.993,-8.071 -32.079,-9.978 -47.771,-6.591 C 195.502,88.188 184.744,76.076 169.331,68.835 147.509,58.566 124.863,48.5 102.03,38.9 86.276,32.301 69.081,31.931 53.892,36.712 47.322,23.297 35.069,12.128 18.689,6.373 12.423,4.176 6.185,2.044 0,0" /></g><g
           transform="translate(2066.4692,1281.9364)"
           id="g304"><path
             id="path306"
             style="fill:#ffffff;fill-opacity:1;fill-rule:nonzero;stroke:none"
             d="M 0,0 C -19.253,-6.373 -41.594,-4.305 -59.496,7.316 -88.094,25.872 -94.529,61.762 -73.89,87.473 l 20.75,25.982 c 20.703,25.662 60.632,31.384 89.175,12.763 C 64.597,107.613 70.953,71.716 50.249,46.046 L 29.663,20.254 C 21.948,10.646 11.528,3.815 0,0" /></g><g
           transform="translate(1371.0295,992.1628)"
           id="g308"><path
             id="path310"
             style="fill:#f0df4e;fill-opacity:1;fill-rule:nonzero;stroke:none"
             d="m 0,0 56.542,18.082 c 21.483,6.864 31.193,27.537 21.688,46.167 l -42.972,84.283 c -9.497,18.63 -34.613,28.165 -56.086,21.301 l -56.542,-18.09 c -21.483,-6.864 -31.186,-27.536 -21.688,-46.165 L -56.086,21.293 C -46.589,2.665 -21.473,-6.872 0,0 M 124.13,-7.579 -26.128,-55.636 c -21.473,-6.866 -46.588,2.672 -56.086,21.299 l -84.431,165.576 c -9.498,18.63 0.214,39.303 21.687,46.167 L 5.299,225.462 c 21.481,6.864 46.589,-2.671 56.094,-21.301 L 145.817,38.585 c 9.498,-18.627 -0.214,-39.3 -21.687,-46.164" /></g><g
           transform="translate(1822.9099,2139.3564)"
           id="g312"><path
             id="path314"
             style="fill:#c74443;fill-opacity:1;fill-rule:evenodd;stroke:none"
             d="m 0,0 c -44.611,39.238 -116.594,38.561 -160.783,-1.505 l -273.223,-247.712 c -44.172,-40.051 -43.831,-104.314 0.77,-143.534 l 0.019,-0.025 c 44.61,-39.229 116.601,-38.554 160.792,1.505 L 0.77,-143.575 C 44.959,-103.51 44.611,-39.23 0,0" /></g><g
           transform="translate(2047.8702,2457.8503)"
           id="g316"><path
             id="path318"
             style="fill:#323334;fill-opacity:1;fill-rule:evenodd;stroke:none"
             d="m 0,0 -32.992,38.987 c -37.513,44.331 -27.516,107.67 22.34,141.468 l 36.867,24.993 c 40.307,27.328 97.574,20.423 127.908,-15.418 l 5.379,-6.365 C 193.444,143.558 184.393,86.256 139.291,55.685 L 99.174,28.486 Z" /></g><g
           transform="translate(2118.7864,2677.3005)"
           id="g320"><path
             id="path322"
             style="fill:#323334;fill-opacity:1;fill-rule:evenodd;stroke:none"
             d="m 0,0 -86.589,-12.706 c -15.853,-2.334 -26.621,-15.877 -24.051,-30.25 2.568,-14.379 17.499,-24.148 33.35,-21.823 l 86.589,12.714 c 15.853,2.326 26.621,15.869 24.053,30.25 C 30.782,-7.436 15.853,2.334 0,0" /></g><g
           transform="translate(2139.4456,2817.769)"
           id="g324"><path
             id="path326"
             style="fill:#323334;fill-opacity:1;fill-rule:evenodd;stroke:none"
             d="m 0,0 c -15.602,1.828 -29.995,-8.046 -32.16,-22.049 l -18.753,-121.147 c -2.165,-14.002 8.718,-26.838 24.32,-28.656 15.593,-1.826 29.993,8.047 32.16,22.049 L 24.309,-28.654 C 26.476,-14.653 15.593,-1.818 0,0" /></g><g
           transform="translate(2278.3887,2772.7546)"
           id="g328"><path
             id="path330"
             style="fill:#323334;fill-opacity:1;fill-rule:evenodd;stroke:none"
             d="m 0,0 c -12.496,8.522 -30.433,6.333 -40.055,-4.885 l -83.233,-97.087 c -9.622,-11.226 -7.287,-27.239 5.209,-35.769 12.504,-8.522 30.441,-6.333 40.063,4.885 L 5.217,-35.769 C 14.839,-24.544 12.504,-8.53 0,0" /></g><g
           transform="translate(2201.9661,2646.1741)"
           id="g332"><path
             id="path334"
             style="fill:#323334;fill-opacity:1;fill-rule:evenodd;stroke:none"
             d="m 0,0 -121.453,-56.288 c -14.044,-6.502 -19.593,-21.913 -12.396,-34.418 7.195,-12.505 24.408,-17.365 38.452,-10.864 l 121.453,56.29 c 14.034,6.502 19.585,21.919 12.388,34.416 C 31.247,1.642 14.034,6.503 0,0" /></g><g
           transform="translate(2221.5603,2600.1694)"
           id="g336"><path
             id="path338"
             style="fill:#323334;fill-opacity:1;fill-rule:evenodd;stroke:none"
             d="m 0,0 -96.633,-38.328 c -11.171,-4.433 -16.291,-16.11 -11.439,-26.089 4.851,-9.97 17.838,-14.468 29.009,-10.035 l 96.633,38.329 c 11.17,4.426 16.289,16.103 11.439,26.08 C 24.157,-0.064 11.169,4.427 0,0" /></g><g
           transform="translate(2122.3757,2447.9109)"
           id="g340"><path
             id="path342"
             style="fill:#c74443;fill-opacity:1;fill-rule:evenodd;stroke:none"
             d="m 0,0 -175.488,92.084 c -5.775,3.032 -13.202,1.318 -16.586,-3.824 l -247.382,-376.52 c -31.713,-48.275 -13.453,-110.478 40.789,-138.94 54.242,-28.463 123.923,-12.401 155.636,35.865 L 4.35,-14.806 C 7.725,-9.664 5.781,-3.032 0,0" /></g><g
           transform="translate(1881.2324,2574.4436)"
           id="g344"><path
             id="path346"
             style="fill:#ffffff;fill-opacity:1;fill-rule:nonzero;stroke:none"
             d="m 0,0 c 18.179,27.682 58.126,36.888 89.222,20.567 l 62.566,-32.823 c 14.419,-7.571 24.408,-19.297 29.152,-32.462 15.173,2.713 31.498,0.628 45.918,-6.936 l 62.566,-32.824 c 31.095,-16.319 41.558,-51.984 23.379,-79.658 -18.178,-27.674 -58.126,-36.879 -89.23,-20.559 l -62.557,32.824 c -14.42,7.571 -24.408,19.297 -29.152,32.461 -15.171,-2.713 -31.499,-0.636 -45.918,6.937 L 23.38,-79.649 C -7.716,-63.331 -18.188,-27.674 0,0" /></g><g
           transform="translate(2499.4629,2567.25)"
           id="g348"><path
             id="path350"
             style="fill:#ffffff;fill-opacity:1;fill-rule:nonzero;stroke:none"
             d="M 0,0 C 0,0 0.94,-0.259 2.22,-0.612 1.503,-0.41 0.841,-0.234 0,0" /></g><g
           transform="translate(2501.6829,2566.6384)"
           id="g352"><path
             id="path354"
             style="fill:#ffffff;fill-opacity:1;fill-rule:nonzero;stroke:none"
             d="M 0,0 C 2.865,-0.781 4.905,-1.345 6.123,-1.674 4.421,-1.208 1.853,-0.508 0,0" /></g><g
           transform="translate(2507.8054,2564.9641)"
           id="g356"><path
             id="path358"
             style="fill:#ffffff;fill-opacity:1;fill-rule:nonzero;stroke:none"
             d="M 0,0 C 2.695,-0.748 1.916,-0.531 0,0" /></g><g
           transform="translate(773.7809,1734.3015)"
           id="g360"><path
             id="path362"
             style="fill:#ddddde;fill-opacity:1;fill-rule:nonzero;stroke:none"
             d="M 0,0 C 0,0 35.623,-62.976 65.144,-84.64 94.671,-106.301 195.618,-128.512 205.24,-118.968 214.871,-109.416 104.787,3.372 71.525,10.083 38.265,16.793 18.635,17.494 0,0" /></g><g
           transform="translate(793.1863,1765.8218)"
           id="g364"><path
             id="path366"
             style="fill:#e5b095;fill-opacity:1;fill-rule:nonzero;stroke:none"
             d="m 0,0 c 0,0 48.583,-61.778 76.502,-88.397 33.287,-31.746 170.128,-88.284 226.624,-104.708 35.194,-10.228 135.066,-66.05 184.172,-49.215 29.724,10.186 66.513,73.863 82.016,99.879 63.039,105.754 -17.213,192.315 -33.055,246.424 -15.173,51.791 -63.069,109.577 -150.732,152.202 -45.828,22.29 -152.602,76.567 -207.604,46.56 C 122.929,272.746 -51.978,139.43 0,0" /></g><g
           transform="translate(1007.7273,1248.623)"
           id="g368"><path
             id="path370"
             style="fill:#cecfcf;fill-opacity:1;fill-rule:evenodd;stroke:none"
             d="m 0,0 c 0,0 58.403,18.499 96.944,-28.77 37.88,-46.446 43.27,-167.023 -162.903,-167.023 0,0 147.366,69.389 128.963,120.577 -14.419,40.082 -63.398,22.909 -59.12,0 0,0 -46.401,31.601 -3.884,75.216" /></g><g
           transform="translate(1520.4893,1581.6492)"
           id="g372"><path
             id="path374"
             style="fill:#ffffff;fill-opacity:1;fill-rule:evenodd;stroke:none"
             d="m 0,0 c -15.055,21.815 -36.169,93.916 -37.709,99.268 -20.21,70.468 -40.422,90.304 -70.738,117.961 -18.046,16.457 -88.238,52.282 -101.064,59.757 -41.549,24.23 -86.096,-16.955 -86.096,-16.955 0,0 -20.615,11.87 -24.392,-11.91 -3.33,-20.961 24.293,-44.386 24.293,-44.386 -16.667,-15.386 2.398,-33.371 2.398,-33.371 -57.491,-15.612 -56.972,-49.361 -86.285,-78.209 -48.396,-47.64 -123.386,-51.437 -140.751,-72.263 -17.356,-20.835 27.873,-45.329 27.873,-45.329 -76.806,-158.012 148.484,-155.55 172.724,-289.42 24.237,-133.871 -154.188,-131.471 -182.374,-102.398 -28.186,29.074 -10.641,84.229 -10.641,84.229 0,0 -82.41,-12.723 -63.004,-109.031 10.597,-52.539 100.462,-108.618 274.832,-78.136 174.379,30.49 310.602,155.935 337.4,237.686 C 65.376,-194.352 55.943,-81.05 0,0" /></g><g
           transform="translate(1048.8735,1698.6693)"
           id="g376"><path
             id="path378"
             style="fill:#d17373;fill-opacity:1;fill-rule:nonzero;stroke:none"
             d="m 0,0 -1.146,-19.354 c -0.474,-8.096 0.994,-16.158 4.387,-23.666 6.22,-13.801 17.176,-35.939 27.246,-45.497 12.307,-11.685 46.454,10.267 59.263,39.839 4.887,11.274 -0.144,24.078 -11.905,29.951 L 20.256,10.066 C 11.439,14.476 0.537,9.053 0,0" /></g><g
           transform="translate(1010.7336,1697.3575)"
           id="g380"><path
             id="path382"
             style="fill:#3a8dae;fill-opacity:1;fill-rule:nonzero;stroke:none"
             d="m 0,0 c 17.616,-8.346 27.167,-23.199 21.321,-33.162 -5.844,-9.97 -24.864,-11.274 -42.49,-2.922 -17.614,8.346 -27.165,23.2 -21.319,33.162 C -36.644,7.049 -17.624,8.352 0,0" /></g><g
           transform="translate(1080.9164,1796.6976)"
           id="g384"><path
             id="path386"
             style="fill:#3a8dae;fill-opacity:1;fill-rule:nonzero;stroke:none"
             d="m 0,0 c 17.741,-9.915 26.503,-26.097 19.558,-36.131 -6.937,-10.044 -26.951,-10.139 -44.699,-0.218 -17.75,9.923 -26.513,26.105 -19.567,36.14 C -37.762,9.834 -17.748,9.923 0,0" /></g><g
           transform="translate(931.5832,1723.6947)"
           id="g388"><path
             id="path390"
             style="fill:#ffffff;fill-opacity:1;fill-rule:nonzero;stroke:none"
             d="M 0,0 C 5.629,9.987 18.832,14.532 30.369,10.308 34.943,8.634 38.783,6.574 38.961,4.329 39.401,-1.335 5.021,-19.473 2.506,-30.144 0,-40.813 6.453,-54.776 3.677,-59.024 0.904,-63.281 -15.279,-44.274 -12.317,-24.14 -11.323,-17.421 -3.93,-6.968 0,0" /></g><g
           transform="translate(1001.7385,1818.8274)"
           id="g392"><path
             id="path394"
             style="fill:#ffffff;fill-opacity:1;fill-rule:nonzero;stroke:none"
             d="m 0,0 c -9.219,-8.893 -9.433,-22.71 -0.323,-31.698 3.608,-3.565 7.393,-6.309 9.998,-5.633 6.588,1.714 14.286,40.019 25.438,46.319 11.162,6.293 29.422,5.609 33.2,9.737 3.785,4.136 -23.836,11.861 -45.551,1.602 C 15.521,16.907 6.427,6.211 0,0" /></g><g
           transform="translate(1033.5046,1922.3518)"
           id="g396"><path
             id="path398"
             style="fill:#ffffff;fill-opacity:1;fill-rule:nonzero;stroke:none"
             d="m 0,0 c -21.017,0.539 -56.077,6.019 -65.376,-28.679 -9.3,-34.699 -36.483,-90.111 -60.633,-122.009 -24.149,-31.891 -59.415,-102.971 -99.908,-104.757 -40.494,-1.786 -130.905,42.401 -147.125,83.206 -16.226,40.807 77.954,157.071 77.954,157.071 0,0 2.022,29.493 62.771,106.728 41.003,52.143 119.234,90.239 179.409,96.668 75.017,8.023 214.461,-71.409 262.087,-107.999 128.687,-98.858 90.279,-128.132 88.041,-170.38 l -49.051,33.065 c 0,0 5.245,44.896 -30.11,77.309 C 182.694,52.636 112.53,64.408 96.204,34.658 69.897,-13.27 191.378,-80.671 191.378,-80.671 161.875,-91.293 128.265,-84.687 106.264,-64.071 76.206,-35.914 32.411,-0.829 0,0" /></g><g
           transform="translate(1171.4193,1587.2327)"
           id="g400"><path
             id="path402"
             style="fill:#d17373;fill-opacity:1;fill-rule:nonzero;stroke:none"
             d="m 0,0 c -4.038,-2.752 -9.73,-3.026 -14.152,-0.321 -5.532,3.388 -6.973,10.163 -3.195,15.145 0,0 11.153,14.717 32.599,42.569 5.629,7.305 11.715,17.639 8.753,25.323 -2.667,6.92 -12.271,9.971 -12.379,9.994 -6.391,1.778 -9.989,7.871 -8.011,13.633 1.996,5.761 8.762,8.988 15.163,7.21 2.175,-0.603 21.474,-6.398 28.141,-23.691 C 51.967,76.746 48.03,61.65 35.194,44.983 13.82,17.237 2.711,2.568 2.693,2.551 1.932,1.546 1.019,0.7 0,0" /></g><g
           transform="translate(971.8972,1690.5248)"
           id="g404"><path
             id="path406"
             style="fill:#323334;fill-opacity:1;fill-rule:evenodd;stroke:none"
             d="m 0,0 -65.699,-85.009 c -3.285,-4.257 -9.783,-5.311 -14.509,-2.358 -4.735,2.961 -5.899,8.795 -2.614,13.052 l 65.69,85.017 c 3.285,4.249 9.783,5.304 14.518,2.35 C 2.112,10.099 3.285,4.257 0,0 m 33.968,-25.187 -61.555,-79.657 c -3.285,-4.249 -9.783,-5.304 -14.518,-2.351 -4.726,2.954 -5.899,8.796 -2.614,13.045 l 61.563,79.665 c 3.285,4.249 9.784,5.304 14.51,2.35 4.725,-2.953 5.899,-8.795 2.614,-13.052 M 70.003,-47.694 8.449,-127.352 c -3.285,-4.257 -9.784,-5.303 -14.509,-2.35 -4.726,2.953 -5.899,8.788 -2.614,13.044 L 52.88,-37 c 3.285,4.257 9.783,5.303 14.509,2.35 4.735,-2.953 5.908,-8.795 2.614,-13.044 M -34.345,32.905 -111.617,-67.096 c -8.055,-10.421 -5.899,-24.068 4.735,-29.886 l 87.117,-47.679 c 19.389,-10.615 46.107,-4.024 60.803,14.992 l 43.108,55.789 c 14.698,19.024 12.245,43.825 -5.586,56.459 l -80.1,56.763 c -9.774,6.928 -24.749,3.983 -32.805,-6.437" /></g><g
           transform="translate(1022.845,1772.895)"
           id="g408"><path
             id="path410"
             style="fill:#323334;fill-opacity:1;fill-rule:evenodd;stroke:none"
             d="m 0,0 v 0 c -4.726,2.953 -5.899,8.796 -2.614,13.044 l 65.699,85.017 c 3.285,4.257 9.783,5.31 14.509,2.349 4.726,-2.954 5.899,-8.788 2.614,-13.044 L 14.509,2.349 C 11.224,-1.9 4.726,-2.953 0,0 m 38.112,-19.829 v 0 c -4.735,2.953 -5.899,8.795 -2.614,13.044 l 61.555,79.658 c 3.285,4.257 9.783,5.303 14.509,2.35 4.735,-2.953 5.899,-8.796 2.614,-13.044 L 52.622,-17.479 c -3.285,-4.257 -9.784,-5.303 -14.51,-2.35 m 36.036,-22.515 v 0 c -4.726,2.953 -5.899,8.795 -2.614,13.052 l 61.563,79.658 c 3.285,4.248 9.784,5.303 14.509,2.35 4.726,-2.954 5.899,-8.796 2.614,-13.044 L 88.666,-39.994 c -3.285,-4.249 -9.783,-5.304 -14.518,-2.35 m -101.179,32.26 87.117,-47.678 c 19.396,-10.615 46.105,-4.024 60.803,14.999 l 43.107,55.783 c 14.706,19.023 12.253,43.824 -5.585,56.458 l -80.093,56.763 c -9.774,6.928 -24.758,3.983 -32.813,-6.437 L -31.766,19.803 c -8.057,-10.429 -5.89,-24.068 4.735,-29.887" /></g><g
           transform="translate(1043.145,1746.4442)"
           id="g412"><path
             id="path414"
             style="fill:#323334;fill-opacity:1;fill-rule:evenodd;stroke:none"
             d="m 0,0 -39.724,-51.406 -36.035,22.509 39.723,51.412 z" /></g><g
           transform="translate(1084.9805,1888.9973)"
           id="g416"><path
             id="path418"
             style="fill:#323334;fill-opacity:1;fill-rule:nonzero;stroke:none"
             d="m 0,0 44.728,68.013 c 0,0 -14.742,-30.265 22.251,-61.269 L 41.63,-25.485 Z" /></g><g
           id="g420"><g
             id="g422" /><g
             id="g434"><g
               style="opacity:0.14999402"
               id="g432"
               clip-path="url(#clipPath426)"><g
                 id="g430"
                 transform="translate(818.6777,1669.2734)"><path
                   id="path428"
                   style="fill:#000100;fill-opacity:1;fill-rule:nonzero;stroke:none"
                   d="m 0,0 c 3.723,-4.306 32.983,-24.061 36.725,-27.642 36.473,25.895 124.908,132.196 201.078,261.262 41.201,69.826 45.328,138.402 61.995,171.99 -65.601,30.337 -87.996,41.031 -137.879,35.697 C 101.744,434.878 23.513,396.782 -17.49,344.638 -78.239,267.403 -80.261,237.91 -80.261,237.91 c 0,0 -94.18,-116.264 -77.954,-157.071 C -141.995,40.034 -51.584,-4.153 -11.09,-2.367 -7.34,-2.197 -3.652,-1.264 0,0" /></g></g></g></g><g
           transform="translate(658.8038,2430.7444)"
           id="g436"><path
             id="path438"
             style="fill:#ffffff;fill-opacity:1;fill-rule:nonzero;stroke:none"
             d="m 0,0 c 92.125,13.228 157.869,-66.727 122.353,-139.661 -15.261,-31.34 -45.692,-52.302 -80.198,-57.248 -92.091,-13.2 -157.804,66.719 -122.346,139.633 C -64.944,-25.924 -34.509,-4.955 0,0" /></g><g
           transform="translate(611.9861,2411.1367)"
           id="g440"><path
             id="path442"
             style="fill:#cecfcf;fill-opacity:1;fill-rule:nonzero;stroke:none"
             d="m 0,0 c 19.039,8.128 40.994,11.129 63.265,7.194 55.288,-9.768 91.296,-57.978 80.439,-107.686 -10.132,-46.358 -57.472,-77.612 -108.662,-73.685 3.732,-1.038 7.554,-1.923 11.466,-2.616 60.167,-10.631 118.535,24.607 130.35,78.707 C 188.683,-43.992 149.487,8.474 89.319,19.104 56.587,24.882 24.454,17.019 0,0" /></g><g
           transform="translate(683.2523,1650.7479)"
           id="g444"><path
             id="path446"
             style="fill:#ffffff;fill-opacity:1;fill-rule:nonzero;stroke:none"
             d="m 0,0 c -39.205,0.105 -63.292,36.237 -40.825,61.125 35.293,39.11 92.856,111.831 110.498,186.869 26.038,110.776 60.937,158.735 98.618,193.974 37.675,35.238 -7.356,70.781 17.259,91.624 24.613,20.832 65.6,18.693 112.878,-4.902 47.278,-23.585 85.471,-39.559 96.274,-58.711 C 438.328,392.647 200.631,-17.823 113.424,-41.425 26.217,-65.02 66.137,-17.832 32.446,-4.506 22.412,-0.539 11.277,-0.031 0,0" /></g><g
           transform="translate(868.8025,2184.3396)"
           id="g448"><path
             id="path450"
             style="fill:#cecfcf;fill-opacity:1;fill-rule:nonzero;stroke:none"
             d="m 0,0 c -24.615,-20.843 20.415,-56.386 -17.259,-91.624 -23.048,-21.55 -45.03,-47.945 -64.606,-90.464 60.113,12.392 127.442,18.555 145.997,14.549 32.312,-6.97 69.117,9.962 69.117,9.962 16.068,30.337 0.42,98.294 0.42,98.294 25.662,-28.503 25.332,-71.474 25.332,-71.474 25.867,4.017 46.024,-8.41 47.17,-9.133 9.292,34.273 11.351,61.439 2.981,76.277 -10.803,19.152 -48.996,35.127 -96.274,58.712 C 65.6,18.694 24.613,20.833 0,0" /></g><g
           id="g452"><g
             id="g454" /><g
             id="g466"><g
               style="opacity:0.16000402"
               id="g464"
               clip-path="url(#clipPath458)"><g
                 id="g462"
                 transform="translate(868.8025,2184.3396)"><path
                   id="path460"
                   style="fill:#000100;fill-opacity:1;fill-rule:nonzero;stroke:none"
                   d="m 0,0 c -8.003,-6.775 -8.612,-15.129 -7.125,-24.503 24.838,18.644 64.498,16.085 110.183,-6.713 47.287,-23.593 85.471,-39.565 96.275,-58.711 5.89,-10.451 6.524,-27.11 3.196,-47.967 2.04,-1.03 3.383,-1.835 3.642,-1.996 9.292,34.273 11.351,61.439 2.981,76.277 -10.803,19.152 -48.996,35.127 -96.274,58.712 C 65.6,18.694 24.613,20.833 0,0" /></g></g></g></g><g
           transform="translate(718.2227,1716.6461)"
           id="g468"><path
             id="path470"
             style="fill:#c74443;fill-opacity:1;fill-rule:nonzero;stroke:none"
             d="m 0,0 c -21.446,-5.689 -44.539,1.979 -58.548,17.655 -36.903,41.288 -114.399,129.34 -129.167,156.852 -19.532,36.39 -79.286,224.005 -62.755,278.725 12.28,40.63 106.299,108.796 170.128,146.787 13.221,7.861 29.394,-5.343 21.831,-17.857 C -79.072,548.163 -101.547,503.599 -92.82,483.03 -77.693,447.422 168.229,441.041 194.769,415.774 219.41,392.301 160.926,42.681 0,0" /></g><g
           transform="translate(638.2108,2301.48)"
           id="g472"><path
             id="path474"
             style="fill:#a33333;fill-opacity:1;fill-rule:nonzero;stroke:none"
             d="m 0,0 c -24.148,-39.937 -45.406,-90.988 -40.286,-116.432 10.553,-52.379 240.041,-142.184 311.084,-165.157 16.182,32.14 6.579,110.042 3.983,112.529 -26.54,25.268 -272.471,31.649 -287.589,67.256 -8.728,20.561 13.739,65.117 34.299,99.116 C 29.002,9.728 13.149,22.764 -0.007,15.305 2.722,10.945 3.278,5.424 0,0" /></g><g
           transform="translate(1108.8788,1430.9283)"
           id="g476"><path
             id="path478"
             style="fill:#323334;fill-opacity:1;fill-rule:evenodd;stroke:none"
             d="m 0,0 50.09,-19.707 c 56.944,-22.412 122.643,1.181 146.738,52.699 l 17.812,38.102 c 19.477,41.653 -2.059,90.103 -48.101,108.225 l -8.172,3.211 C 106.845,202.809 47.405,181.46 25.609,134.852 L 6.231,93.401 Z" /></g><g
           transform="translate(1327.5828,1544.3905)"
           id="g480"><path
             id="path482"
             style="fill:#323334;fill-opacity:1;fill-rule:evenodd;stroke:none"
             d="m 0,0 7.644,-78.692 c 1.404,-14.404 -10.517,-26.998 -26.62,-28.124 -16.112,-1.127 -30.298,9.64 -31.704,24.045 l -7.643,78.692 c -1.406,14.412 10.517,26.998 26.628,28.124 C -15.593,25.172 -1.397,14.405 0,0" /></g><g
           transform="translate(1473.6584,1595.3855)"
           id="g484"><path
             id="path486"
             style="fill:#323334;fill-opacity:1;fill-rule:evenodd;stroke:none"
             d="m 0,0 c 5.809,-13.206 -1.27,-28.117 -15.807,-33.292 l -125.757,-44.797 c -14.537,-5.175 -31.024,1.335 -36.833,14.541 -5.8,13.214 1.27,28.117 15.807,33.298 L -36.831,14.541 C -22.296,19.722 -5.8,13.212 0,0" /></g><g
           transform="translate(1390.9812,1706.3293)"
           id="g488"><path
             id="path490"
             style="fill:#323334;fill-opacity:1;fill-rule:evenodd;stroke:none"
             d="m 0,0 c 12.262,-8.932 14.32,-25.131 4.618,-36.179 l -83.985,-95.543 c -9.712,-11.04 -27.515,-12.754 -39.768,-3.822 -12.263,8.932 -14.322,25.131 -4.619,36.171 L -39.768,-3.83 C -30.058,7.218 -12.254,8.932 0,0" /></g><g
           transform="translate(1273.5919,1609.8207)"
           id="g492"><path
             id="path494"
             style="fill:#323334;fill-opacity:1;fill-rule:evenodd;stroke:none"
             d="m 0,0 -30.657,-119.393 c -3.544,-13.801 -18.76,-22.267 -33.995,-18.91 -15.224,3.364 -24.694,17.276 -21.151,31.077 L -55.146,12.167 C -51.61,25.968 -36.386,34.434 -21.16,31.07 -5.934,27.715 3.543,13.801 0,0" /></g><g
           transform="translate(1219.251,1616.1705)"
           id="g496"><path
             id="path498"
             style="fill:#323334;fill-opacity:1;fill-rule:evenodd;stroke:none"
             d="m 0,0 -17.444,-93.483 c -2.015,-10.806 -13.319,-18.025 -25.251,-16.118 -11.932,1.907 -19.968,12.207 -17.946,23.015 l 17.436,93.483 c 2.022,10.806 13.32,18.025 25.25,16.118 C -6.024,21.108 2.015,10.808 0,0" /></g><g
           transform="translate(1096.5804,1534.6456)"
           id="g500"><path
             id="path502"
             style="fill:#c74443;fill-opacity:1;fill-rule:evenodd;stroke:none"
             d="m 0,0 82.688,-166.863 c 2.721,-5.496 0.019,-11.95 -6.042,-14.404 l -443.279,-180.036 c -56.829,-23.087 -123.609,0.016 -149.165,51.59 -25.563,51.58 -0.214,112.094 56.624,135.182 L -15.897,5.504 C -9.846,7.958 -2.72,5.496 0,0" /></g><g
           transform="translate(1096.5804,1534.6456)"
           id="g504"><path
             id="path506"
             style="fill:#a33333;fill-opacity:1;fill-rule:evenodd;stroke:none"
             d="m 0,0 c -1.987,4.008 -6.319,6.342 -10.858,6.389 l 78.025,-157.456 c 2.721,-5.496 0.019,-11.95 -6.042,-14.404 l -443.277,-180.036 c -42.303,-17.189 -90.1,-8.739 -122.332,17.952 30.657,-38.745 88.076,-53.971 137.851,-33.748 l 443.279,180.036 c 6.061,2.454 8.763,8.908 6.042,14.404 z" /></g><g
           transform="translate(1210.2026,1305.3533)"
           id="g508"><path
             id="path510"
             style="fill:#ffffff;fill-opacity:1;fill-rule:nonzero;stroke:none"
             d="M 0,0 C 32.58,13.23 47.117,47.928 32.464,77.494 L 2.99,136.984 c -6.794,13.705 -18.672,23.917 -32.716,29.591 4.654,13.26 4.136,28.084 -2.658,41.796 l -29.475,59.484 c -14.654,29.572 -52.944,42.809 -85.526,29.58 -32.58,-13.237 -47.116,-47.928 -32.464,-77.5 l 29.484,-59.484 c 6.793,-13.713 18.672,-23.916 32.706,-29.597 -4.654,-13.262 -4.135,-28.084 2.658,-41.789 L -85.517,29.574 C -70.863,0.008 -32.582,-13.237 0,0" /></g><g
           transform="translate(1213.1925,1442.3376)"
           id="g512"><path
             id="path514"
             style="fill:#cecfcf;fill-opacity:1;fill-rule:nonzero;stroke:none"
             d="m 0,0 c -6.794,13.705 -18.672,23.916 -32.716,29.59 4.655,13.261 4.136,28.085 -2.658,41.796 l -29.475,59.484 c -8.494,17.14 -25.009,28.559 -43.672,32.743 9.355,-5.883 17.241,-13.897 22.243,-23.988 l 29.475,-59.491 c 6.794,-13.713 7.322,-28.527 2.667,-41.797 14.037,-5.673 25.913,-15.878 32.707,-29.589 L 8.046,-50.736 c 14.652,-29.573 0.126,-64.272 -32.456,-77.501 -13.702,-5.56 -28.329,-6.205 -41.863,-3.162 18.027,-11.355 41.828,-14.3 63.283,-5.585 32.58,13.23 47.117,47.928 32.465,77.493 z" /></g><g
           transform="translate(1269.636,1858.6356)"
           id="g516"><path
             id="path518"
             style="fill:#ffffff;fill-opacity:1;fill-rule:nonzero;stroke:none"
             d="M 0,0 C 0,0 -0.18,0.86 -0.431,2.052 -0.288,1.384 -0.161,0.781 0,0" /></g><g
           transform="translate(1269.2052,1860.6874)"
           id="g520"><path
             id="path522"
             style="fill:#ffffff;fill-opacity:1;fill-rule:nonzero;stroke:none"
             d="M 0,0 C -0.563,2.64 -0.957,4.522 -1.19,5.65 -0.86,4.081 -0.357,1.706 0,0" /></g><g
           transform="translate(1268.0155,1866.3369)"
           id="g524"><path
             id="path526"
             style="fill:#ffffff;fill-opacity:1;fill-rule:nonzero;stroke:none"
             d="M 0,0 C -0.528,2.495 -0.376,1.77 0,0" /></g></g></g></g></svg>