<?xml version="1.0" encoding="UTF-8" standalone="no"?>
<svg
   xmlns:dc="http://purl.org/dc/elements/1.1/"
   xmlns:cc="http://creativecommons.org/ns#"
   xmlns:rdf="http://www.w3.org/1999/02/22-rdf-syntax-ns#"
   xmlns:svg="http://www.w3.org/2000/svg"
   xmlns="http://www.w3.org/2000/svg"
   viewBox="0 0 2666.6667 2666.6667"
   height="2666.6667"
   width="2666.6667"
   xml:space="preserve"
   id="svg2"
   version="1.1"><metadata
     id="metadata8"><rdf:RDF><cc:Work
         rdf:about=""><dc:format>image/svg+xml</dc:format><dc:type
           rdf:resource="http://purl.org/dc/dcmitype/StillImage" /></cc:Work></rdf:RDF></metadata><defs
     id="defs6"><radialGradient
       id="radialGradient30"
       spreadMethod="pad"
       gradientTransform="matrix(819.98206,0,0,-819.98206,1000.0002,984.25513)"
       gradientUnits="userSpaceOnUse"
       r="1"
       cy="0"
       cx="0"
       fy="0"
       fx="0"><stop
         id="stop24"
         offset="0"
         style="stop-opacity:1;stop-color:#ff0000" /><stop
         id="stop26"
         offset="0.00346793"
         style="stop-opacity:1;stop-color:#ff0000" /><stop
         id="stop28"
         offset="1"
         style="stop-opacity:1;stop-color:#cc0000" /></radialGradient><radialGradient
       id="radialGradient52"
       spreadMethod="pad"
       gradientTransform="matrix(819.97504,0,0,819.97504,1000.0691,984.32251)"
       gradientUnits="userSpaceOnUse"
       r="1"
       cy="0"
       cx="0"
       fy="0"
       fx="0"><stop
         id="stop46"
         offset="0"
         style="stop-opacity:1;stop-color:#ff0000" /><stop
         id="stop48"
         offset="0.00346793"
         style="stop-opacity:1;stop-color:#ff0000" /><stop
         id="stop50"
         offset="1"
         style="stop-opacity:1;stop-color:#cc0000" /></radialGradient></defs><g
     transform="matrix(1.3333333,0,0,-1.3333333,0,2666.6667)"
     id="g10"><g
       id="g12"><g
         id="g14"><g
           id="g20"><g
             id="g22"><path
               id="path32"
               style="fill:url(#radialGradient30);stroke:none"
               d="m 1758.061,1835.654 v -20.227 h -9.128 v 20.227 H 251.067 v -20.227 h -9.137 v 20.227 h -29.242 v -29.241 h 19.818 v -9.748 H 212.688 V 171.84 h 19.818 v -9.748 h -19.818 v -29.236 h 29.242 v 20.215 h 9.137 v -20.215 h 1497.866 v 20.215 h 9.128 v -20.215 h 29.252 v 29.236 h -19.804 v 9.748 h 19.804 v 1624.825 h -19.804 v 9.748 h 19.804 v 29.241 z m 9.094,-9.077 h 11.078 v -11.085 h -11.078 z m -38.392,0 h 11.091 v -11.085 h -11.091 z M 221.759,1767.406 h 20.171 v 19.848 h 18.755 v 19.159 h 19.626 v 20.164 h 1439.372 v -20.164 h 19.638 v -19.159 h 18.74 v -19.848 h 20.18 V 201.091 h -20.18 V 181.25 h -18.74 v -19.158 h -19.638 V 141.929 H 280.311 v 20.163 H 260.685 V 181.25 H 241.93 v 19.841 h -20.171 z m 38.395,59.171 h 11.091 v -11.085 h -11.091 z m -38.395,0 h 11.093 v -11.085 h -11.093 z m 1526.649,-20.223 h 10.02 v -9.689 h -0.367 v -0.331 h -9.653 z m -1506.829,0 h 10.028 v -10.02 h -9.677 v 0.331 h -0.351 z m 1525.576,-19.1 h 0.354 v 0.324 h 10.717 v -11.085 h -11.071 z m -1545.396,0.324 h 10.747 v -0.324 h 0.346 v -10.761 H 221.759 Z M 1767.155,192.019 h 11.071 v -11.1 h -10.717 v 0.331 h -0.354 z m -1545.396,0 h 11.093 V 181.25 h -0.346 v -0.331 h -10.747 z m 1526.649,-19.848 h 9.653 v -0.331 h 0.367 v -9.682 h -10.02 z M 241.579,171.84 h 0.351 v 0.331 h 9.677 v -10.013 h -10.028 z m 1525.576,-18.826 h 11.078 v -11.085 h -11.078 z m -38.392,0 h 11.091 v -11.085 h -11.091 z m -1468.609,0 h 11.091 v -11.085 h -11.091 z m -38.395,0 h 11.093 v -11.085 h -11.093 z" /></g></g></g></g><g
       id="g34"><g
         id="g36"><g
           id="g42"><g
             id="g44"><path
               id="path54"
               style="fill:url(#radialGradient52);stroke:none"
               d="m 1758.061,1835.654 v -20.227 h -9.129 v 20.227 H 251.068 v -20.227 h -9.138 v 20.227 h -29.242 v -29.242 h 19.818 v -9.747 H 212.688 V 171.84 h 19.818 v -9.747 h -19.818 v -29.237 h 29.242 v 20.215 h 9.138 v -20.215 h 1497.864 v 20.215 h 9.129 v -20.215 h 29.252 v 29.237 h -19.804 v 9.747 h 19.804 v 1624.825 h -19.804 v 9.747 h 19.804 v 29.242 z m 9.094,-9.077 h 11.077 v -11.085 h -11.077 z m -38.392,0 h 11.091 v -11.085 h -11.091 z M 221.759,1767.406 h 20.171 v 19.848 h 18.755 v 19.158 h 19.626 v 20.165 h 1439.372 v -20.165 h 19.638 v -19.158 h 18.74 v -19.848 h 20.18 V 201.091 h -20.18 V 181.25 h -18.74 v -19.157 h -19.638 V 141.929 H 280.311 v 20.164 H 260.685 V 181.25 H 241.93 v 19.841 h -20.171 z m 38.395,59.171 h 11.091 v -11.085 h -11.091 z m -38.395,0 h 11.092 v -11.085 h -11.092 z m 1526.648,-20.223 h 10.021 v -9.689 h -0.367 v -0.331 h -9.654 z m -1506.828,0 h 10.028 v -10.02 h -9.677 v 0.331 h -0.351 z m 1525.576,-19.1 h 0.354 v 0.324 h 10.716 v -11.085 h -11.07 z m -1545.396,0.324 h 10.747 v -0.324 h 0.346 v -10.761 H 221.759 Z M 1767.155,192.019 h 11.07 v -11.1 h -10.716 v 0.331 h -0.354 z m -1545.396,0 h 11.093 V 181.25 h -0.346 v -0.331 h -10.747 z m 1526.648,-19.848 h 9.654 v -0.331 h 0.367 v -9.682 h -10.021 z M 241.579,171.84 h 0.351 v 0.331 h 9.677 v -10.013 h -10.028 z m 1525.576,-18.827 h 11.077 v -11.084 h -11.077 z m -38.392,0 h 11.091 v -11.084 h -11.091 z m -1468.609,0 h 11.091 v -11.084 h -11.091 z m -38.395,0 h 11.092 v -11.084 h -11.092 z" /></g></g></g></g></g></svg>