<?xml version="1.0" encoding="UTF-8" standalone="no"?>
<svg
   xmlns:dc="http://purl.org/dc/elements/1.1/"
   xmlns:cc="http://creativecommons.org/ns#"
   xmlns:rdf="http://www.w3.org/1999/02/22-rdf-syntax-ns#"
   xmlns:svg="http://www.w3.org/2000/svg"
   xmlns="http://www.w3.org/2000/svg"
   viewBox="0 0 4000 4000"
   height="4000"
   width="4000"
   xml:space="preserve"
   id="svg2"
   version="1.1"><metadata
     id="metadata8"><rdf:RDF><cc:Work
         rdf:about=""><dc:format>image/svg+xml</dc:format><dc:type
           rdf:resource="http://purl.org/dc/dcmitype/StillImage" /></cc:Work></rdf:RDF></metadata><defs
     id="defs6"><clipPath
       id="clipPath18"
       clipPathUnits="userSpaceOnUse"><path
         id="path16"
         d="M 0,3000 H 3000 V 0 H 0 Z" /></clipPath></defs><g
     transform="matrix(1.3333333,0,0,-1.3333333,0,4000)"
     id="g10"><g
       id="g12"><g
         clip-path="url(#clipPath18)"
         id="g14"><g
           transform="translate(979.9751,2038.0947)"
           id="g20"><path
             id="path22"
             style="fill:#e50012;fill-opacity:1;fill-rule:nonzero;stroke:none"
             d="m 0,0 c -131.85,0 -239.12,107.27 -239.12,239.12 0,131.85 107.27,239.119 239.12,239.119 h 1466.368 c 131.849,0 239.119,-107.269 239.119,-239.119 C 1705.487,107.27 1598.217,0 1466.368,0 Z" /></g><g
           transform="translate(2446.3428,2523.8711)"
           id="g24"><path
             id="path26"
             style="fill:#500200;fill-opacity:1;fill-rule:nonzero;stroke:none"
             d="m 0,0 h -1466.368 c -136.007,0 -246.656,-110.65 -246.656,-246.657 0,-136.007 110.649,-246.656 246.656,-246.656 H 0 c 136.007,0 246.656,110.649 246.656,246.656 C 246.656,-110.65 136.007,0 0,0 m 0,-15.074 c 127.899,0 231.582,-103.683 231.582,-231.583 0,-127.899 -103.683,-231.582 -231.582,-231.582 h -1466.368 c -127.899,0 -231.582,103.683 -231.582,231.582 0,127.9 103.683,231.583 231.582,231.583 L 0,-15.074" /></g><g
           transform="translate(2655.5107,2376.6807)"
           id="g28"><path
             id="path30"
             style="fill:#980000;fill-opacity:1;fill-rule:nonzero;stroke:none"
             d="m 0,0 c 1.605,-11.005 2.47,-22.252 2.47,-33.702 v -0.001 c 0,-127.9 -103.683,-231.583 -231.582,-231.583 H -1695.48 c -92.291,0 -171.955,53.999 -209.168,132.117 16.322,-111.921 112.664,-197.88 229.112,-197.88 h 1466.368 c 127.899,0 231.582,103.683 231.582,231.582 v 0.001 C 22.414,-63.858 14.358,-30.139 0,0" /></g><g
           transform="translate(742.5522,1442.6514)"
           id="g32"><path
             id="path34"
             style="fill:#ffffff;fill-opacity:1;fill-rule:nonzero;stroke:none"
             d="m 0,0 c -131.85,0 -239.12,107.27 -239.12,239.122 0,131.85 107.27,239.119 239.12,239.119 h 1466.368 c 131.849,0 239.119,-107.269 239.119,-239.119 C 1705.487,107.27 1598.217,0 1466.368,0 Z" /></g><g
           transform="translate(2208.9199,1928.4297)"
           id="g36"><path
             id="path38"
             style="fill:#500200;fill-opacity:1;fill-rule:nonzero;stroke:none"
             d="m 0,0 h -1466.368 c -136.007,0 -246.656,-110.65 -246.656,-246.657 0,-136.007 110.649,-246.656 246.656,-246.656 H 0 c 136.007,0 246.656,110.649 246.656,246.656 C 246.656,-110.65 136.007,0 0,0 m 0,-15.075 c 127.899,0 231.582,-103.683 231.582,-231.582 0,-127.899 -103.683,-231.582 -231.582,-231.582 h -1466.368 c -127.899,0 -231.582,103.683 -231.582,231.582 0,127.899 103.683,231.582 231.582,231.582 L 0,-15.075" /></g><g
           transform="translate(534.6187,1781.2393)"
           id="g40"><path
             id="path42"
             style="fill:#b2dff7;fill-opacity:1;fill-rule:nonzero;stroke:none"
             d="m 0,0 c -1.605,-11.005 -2.47,-22.252 -2.47,-33.702 v -0.001 c 0,-127.9 103.683,-231.583 231.583,-231.583 H 1695.48 c 92.292,0 171.954,54 209.169,132.117 C 1888.326,-245.09 1791.984,-331.05 1675.536,-331.05 H 209.168 c -127.899,0 -231.582,103.684 -231.582,231.583 v 0.001 c 0,35.608 8.056,69.327 22.414,99.466" /></g><g
           transform="translate(676.7891,2169.6211)"
           id="g44"><path
             id="path46"
             style="fill:#ffffff;fill-opacity:1;fill-rule:nonzero;stroke:none"
             d="m 0,0 c -95.588,0 -173.356,77.768 -173.356,173.356 0,95.588 77.768,173.357 173.356,173.357 95.588,0 173.356,-77.769 173.356,-173.357 C 173.356,77.768 95.588,0 0,0" /></g><g
           transform="translate(676.7891,2523.8711)"
           id="g48"><path
             id="path50"
             style="fill:#500200;fill-opacity:1;fill-rule:nonzero;stroke:none"
             d="m 0,0 c -99.745,0 -180.894,-81.148 -180.894,-180.894 0,-99.745 81.149,-180.893 180.894,-180.893 99.745,0 180.894,81.148 180.894,180.893 C 180.894,-81.148 99.745,0 0,0 m 0,-15.074 c 91.579,0 165.819,-74.239 165.819,-165.82 0,-91.578 -74.24,-165.819 -165.819,-165.819 -91.579,0 -165.819,74.241 -165.819,165.819 0,91.581 74.24,165.82 165.819,165.82" /></g><g
           transform="translate(2512.1055,1574.1797)"
           id="g52"><path
             id="path54"
             style="fill:#e50012;fill-opacity:1;fill-rule:nonzero;stroke:none"
             d="m 0,0 c -95.588,0 -173.356,77.768 -173.356,173.356 0,95.588 77.768,173.356 173.356,173.356 95.589,0 173.356,-77.768 173.356,-173.356 C 173.356,77.768 95.589,0 0,0" /></g><g
           transform="translate(2512.1055,1928.4297)"
           id="g56"><path
             id="path58"
             style="fill:#500200;fill-opacity:1;fill-rule:nonzero;stroke:none"
             d="m 0,0 c -99.745,0 -180.894,-81.149 -180.894,-180.894 0,-99.745 81.149,-180.894 180.894,-180.894 99.745,0 180.894,81.149 180.894,180.894 C 180.894,-81.149 99.745,0 0,0 m 0,-15.075 c 91.579,0 165.819,-74.238 165.819,-165.819 0,-91.578 -74.24,-165.819 -165.819,-165.819 -91.578,0 -165.819,74.241 -165.819,165.819 0,91.581 74.241,165.819 165.819,165.819" /></g><g
           transform="translate(674.0454,2245.5103)"
           id="g60"><path
             id="path62"
             style="fill:#e50012;fill-opacity:1;fill-rule:nonzero;stroke:none"
             d="m 0,0 c -84.831,33.152 -107.071,86.618 -100.341,122.33 5.386,28.571 28.106,47.77 56.536,47.77 15.235,0 31.229,-5.583 46.549,-16.199 15.319,10.616 31.313,16.199 46.548,16.199 28.426,0 51.143,-19.197 56.527,-47.769 C 112.551,86.618 90.313,33.15 5.487,0 L 2.744,-1.073 Z" /></g><g
           transform="translate(723.3374,2423.147)"
           id="g64"><path
             id="path66"
             style="fill:#500200;fill-opacity:1;fill-rule:nonzero;stroke:none"
             d="M 0,0 C -15.339,0 -31.255,-5.053 -46.548,-14.701 -61.84,-5.053 -77.757,-0.002 -93.097,0 c -32.167,0 -57.865,-21.664 -63.943,-53.909 -7.265,-38.545 15.877,-95.916 105.004,-130.748 l 5.488,-2.143 5.487,2.143 C 48.061,-149.828 71.199,-92.456 63.936,-53.911 57.858,-21.666 32.164,0 0,0 m 0,-15.074 c 61.751,0 86.919,-103.384 -46.548,-155.542 -133.477,52.162 -108.311,155.543 -46.549,155.542 14.094,0 30.094,-5.384 46.549,-17.988 16.46,12.607 32.45,17.988 46.548,17.988" /></g><g
           transform="translate(721.6719,2670.3354)"
           id="g68"><path
             id="path70"
             style="fill:#e50012;fill-opacity:1;fill-rule:nonzero;stroke:none"
             d="m 0,0 c -3.699,0 -7.587,0.23 -11.56,0.681 l -2.927,0.333 -1.925,2.229 c -24.671,28.553 -19.169,49.481 -15.66,57.154 4.643,10.145 13.969,16.448 24.342,16.448 9.855,0 18.918,-5.747 25.011,-15.621 0.719,0.036 1.431,0.055 2.135,0.055 11.508,0 20.951,-4.928 25.911,-13.518 C 50.078,39.53 49.868,29.341 44.765,20.503 37.241,7.473 20.928,0 0.009,0 Z" /></g><g
           transform="translate(713.9414,2754.7173)"
           id="g72"><path
             id="path74"
             style="fill:#500200;fill-opacity:1;fill-rule:nonzero;stroke:none"
             d="m 0,0 c -13.357,0 -25.311,-7.99 -31.194,-20.849 -4.117,-8.996 -10.719,-33.36 16.808,-65.218 l 3.851,-4.457 5.856,-0.666 c 4.258,-0.482 8.433,-0.729 12.409,-0.729 36.941,0 56.27,21.35 56.27,42.436 0,18.766 -14.923,33.054 -35.01,33.879 C 21.587,-5.682 11.258,0 0,0 m 0,-15.074 c 7.567,0 15.604,-4.886 20.779,-16.128 2.249,0.382 4.37,0.562 6.367,0.562 32.042,-0.002 31.268,-46.204 -19.416,-46.204 -3.347,0 -6.922,0.202 -10.709,0.633 -29.813,34.504 -14.694,61.137 2.979,61.137" /></g><g
           transform="translate(390.5454,2605.0288)"
           id="g76"><path
             id="path78"
             style="fill:#e50012;fill-opacity:1;fill-rule:nonzero;stroke:none"
             d="m 0,0 c -45.248,0 -69.397,26.41 -69.869,52.496 -0.366,20.31 14.653,42.645 48.297,46.047 8.693,29.065 28.927,39.593 45.643,39.593 16.062,0 31.01,-9.123 39.988,-24.404 C 78.999,88.301 75.063,51.276 53.257,12.154 L 51.822,9.582 49.025,8.662 C 31.516,2.915 15.021,0 0.001,0 Z" /></g><g
           transform="translate(414.6162,2750.7021)"
           id="g80"><path
             id="path82"
             style="fill:#500200;fill-opacity:1;fill-rule:nonzero;stroke:none"
             d="m 0,0 c -22.803,0 -42.084,-15.466 -51.255,-40.246 -34.978,-5.463 -50.63,-30.346 -50.22,-53.068 0.537,-29.764 27.299,-59.896 77.404,-59.896 15.821,0 33.106,3.04 51.375,9.038 l 5.598,1.837 2.869,5.147 C 58.91,-95.671 62.815,-55.918 46.487,-28.123 36.14,-10.513 18.764,0 0,0 m 0,-15.075 c 31.369,0 62.417,-43.339 22.603,-114.775 -17.694,-5.809 -33.257,-8.286 -46.674,-8.286 -76.9,0 -83.272,81.413 -15.669,83.857 6.225,26.907 23.028,39.204 39.74,39.204" /></g><g
           transform="translate(2509.3623,1653.8394)"
           id="g84"><path
             id="path86"
             style="fill:#ffffff;fill-opacity:1;fill-rule:nonzero;stroke:none"
             d="m 0,0 c -84.831,33.152 -107.071,86.618 -100.342,122.329 5.387,28.572 28.107,47.771 56.537,47.771 15.235,0 31.229,-5.583 46.548,-16.2 15.319,10.617 31.315,16.2 46.549,16.2 28.427,0 51.143,-19.197 56.527,-47.769 C 112.551,86.618 90.313,33.15 5.487,0 L 2.743,-1.073 Z" /></g><g
           transform="translate(2558.6543,1831.4761)"
           id="g88"><path
             id="path90"
             style="fill:#500200;fill-opacity:1;fill-rule:nonzero;stroke:none"
             d="M 0,0 C -15.34,0 -31.255,-5.053 -46.549,-14.701 -61.84,-5.053 -77.758,-0.002 -93.097,0 c -32.168,0 -57.865,-21.664 -63.943,-53.909 -7.265,-38.546 15.877,-95.916 105.004,-130.748 l 5.487,-2.144 5.487,2.144 c 89.123,34.828 112.26,92.2 104.998,130.746 C 57.857,-21.666 32.164,0 0,0 m 0,-15.075 c 61.751,0 86.919,-103.383 -46.549,-155.542 -133.476,52.165 -108.31,155.544 -46.548,155.542 14.094,0 30.094,-5.384 46.548,-17.987 16.46,12.607 32.451,17.987 46.549,17.987" /></g><g
           transform="translate(979.9751,847.21)"
           id="g92"><path
             id="path94"
             style="fill:#e50012;fill-opacity:1;fill-rule:nonzero;stroke:none"
             d="m 0,0 c -131.85,0 -239.12,107.27 -239.12,239.119 0,131.855 107.27,239.123 239.12,239.123 h 1466.368 c 131.849,0 239.119,-107.268 239.119,-239.119 C 1705.487,107.27 1598.217,0 1466.368,0 Z" /></g><g
           transform="translate(2446.3428,1332.9883)"
           id="g96"><path
             id="path98"
             style="fill:#500200;fill-opacity:1;fill-rule:nonzero;stroke:none"
             d="m 0,0 h -1466.368 c -136.007,0 -246.656,-110.65 -246.656,-246.657 0,-136.007 110.649,-246.656 246.656,-246.656 H 0 c 136.007,0 246.656,110.649 246.656,246.656 C 246.656,-110.65 136.007,0 0,0 m 0,-15.075 c 127.899,0 231.582,-103.683 231.582,-231.582 0,-127.9 -103.683,-231.582 -231.582,-231.582 h -1466.368 c -127.899,0 -231.582,103.682 -231.582,231.582 0,127.899 103.683,231.582 231.582,231.582 L 0,-15.075" /></g><g
           transform="translate(2654.2764,1185.7178)"
           id="g100"><path
             id="path102"
             style="fill:#980000;fill-opacity:1;fill-rule:nonzero;stroke:none"
             d="m 0,0 c 1.605,-11.006 2.47,-22.252 2.47,-33.702 v -0.001 c 0,-127.9 -103.684,-231.582 -231.583,-231.582 H -1695.48 c -92.292,0 -171.955,53.999 -209.169,132.116 16.323,-111.921 112.665,-197.881 229.113,-197.881 h 1466.367 c 127.899,0 231.583,103.684 231.583,231.583 C 22.414,-63.858 14.357,-30.139 0,0" /></g><g
           transform="translate(742.5522,251.7686)"
           id="g104"><path
             id="path106"
             style="fill:#ffffff;fill-opacity:1;fill-rule:nonzero;stroke:none"
             d="m 0,0 c -131.85,0 -239.12,107.27 -239.12,239.119 0,131.854 107.27,239.123 239.12,239.123 h 1466.368 c 131.849,0 239.119,-107.269 239.119,-239.119 C 1705.487,107.27 1598.217,0 1466.368,0 Z" /></g><g
           transform="translate(2208.9199,737.5459)"
           id="g108"><path
             id="path110"
             style="fill:#500200;fill-opacity:1;fill-rule:nonzero;stroke:none"
             d="m 0,0 h -1466.368 c -136.007,0 -246.656,-110.649 -246.656,-246.656 0,-136.007 110.649,-246.657 246.656,-246.657 H 0 c 136.007,0 246.656,110.65 246.656,246.657 C 246.656,-110.649 136.007,0 0,0 m 0,-15.074 c 127.899,0 231.582,-103.683 231.582,-231.582 0,-127.9 -103.683,-231.582 -231.582,-231.582 h -1466.368 c -127.899,0 -231.582,103.682 -231.582,231.582 0,127.899 103.683,231.582 231.582,231.582 L 0,-15.074" /></g><g
           transform="translate(533.3838,590.2764)"
           id="g112"><path
             id="path114"
             style="fill:#b2dff7;fill-opacity:1;fill-rule:nonzero;stroke:none"
             d="m 0,0 c -1.605,-11.006 -2.47,-22.252 -2.47,-33.702 v -0.001 c 0,-127.9 103.683,-231.582 231.583,-231.582 H 1695.48 c 92.291,0 171.955,53.999 209.168,132.116 C 1888.326,-245.09 1791.984,-331.05 1675.536,-331.05 H 209.168 c -127.899,0 -231.582,103.684 -231.582,231.583 0,35.609 8.056,69.328 22.414,99.467" /></g><g
           transform="translate(676.7891,978.7402)"
           id="g116"><path
             id="path118"
             style="fill:#ffffff;fill-opacity:1;fill-rule:nonzero;stroke:none"
             d="m 0,0 c -95.588,0 -173.356,77.768 -173.356,173.355 0,95.589 77.768,173.357 173.356,173.357 95.588,0 173.356,-77.768 173.356,-173.357 C 173.356,77.768 95.588,0 0,0" /></g><g
           transform="translate(676.7891,1332.9883)"
           id="g120"><path
             id="path122"
             style="fill:#500200;fill-opacity:1;fill-rule:nonzero;stroke:none"
             d="m 0,0 c -99.745,0 -180.894,-81.148 -180.894,-180.894 0,-99.745 81.149,-180.894 180.894,-180.894 99.745,0 180.894,81.149 180.894,180.894 C 180.894,-81.148 99.745,0 0,0 m 0,-15.075 c 91.579,0 165.819,-74.238 165.819,-165.819 0,-91.579 -74.24,-165.819 -165.819,-165.819 -91.579,0 -165.819,74.24 -165.819,165.819 0,91.581 74.24,165.819 165.819,165.819" /></g><g
           transform="translate(2512.1055,383.2979)"
           id="g124"><path
             id="path126"
             style="fill:#e50012;fill-opacity:1;fill-rule:nonzero;stroke:none"
             d="m 0,0 c -95.588,0 -173.356,77.769 -173.356,173.356 0,95.589 77.768,173.357 173.356,173.357 95.589,0 173.356,-77.768 173.356,-173.357 C 173.356,77.769 95.589,0 0,0" /></g><g
           transform="translate(2512.1055,737.5459)"
           id="g128"><path
             id="path130"
             style="fill:#500200;fill-opacity:1;fill-rule:nonzero;stroke:none"
             d="m 0,0 c -99.745,0 -180.894,-81.148 -180.894,-180.894 0,-99.745 81.149,-180.893 180.894,-180.893 99.745,0 180.894,81.148 180.894,180.893 C 180.894,-81.148 99.745,0 0,0 m 0,-15.074 c 91.579,0 165.819,-74.239 165.819,-165.82 0,-91.578 -74.24,-165.818 -165.819,-165.818 -91.578,0 -165.819,74.24 -165.819,165.818 0,91.581 74.241,165.82 165.819,165.82" /></g><g
           transform="translate(674.0454,1054.627)"
           id="g132"><path
             id="path134"
             style="fill:#e50012;fill-opacity:1;fill-rule:nonzero;stroke:none"
             d="m 0,0 c -84.831,33.156 -107.071,86.62 -100.341,122.333 5.386,28.57 28.106,47.767 56.536,47.767 15.235,0 31.229,-5.579 46.549,-16.198 15.319,10.619 31.313,16.198 46.548,16.198 28.426,0 51.143,-19.197 56.527,-47.767 C 112.551,86.62 90.313,33.152 5.487,0 L 2.744,-1.07 Z" /></g><g
           transform="translate(723.3374,1232.2637)"
           id="g136"><path
             id="path138"
             style="fill:#500200;fill-opacity:1;fill-rule:nonzero;stroke:none"
             d="M 0,0 C -15.339,0 -31.255,-5.053 -46.548,-14.7 -61.84,-5.053 -77.757,-0.002 -93.097,0 c -32.167,0 -57.865,-21.664 -63.943,-53.908 -7.265,-38.546 15.877,-95.916 105.004,-130.748 l 5.488,-2.144 5.487,2.144 c 89.122,34.828 112.26,92.2 104.997,130.746 C 57.858,-21.666 32.164,0 0,0 m 0,-15.074 c 61.751,0 86.919,-103.383 -46.548,-155.542 -133.477,52.163 -108.311,155.544 -46.549,155.542 14.094,0 30.094,-5.384 46.549,-17.988 16.46,12.607 32.45,17.988 46.548,17.988" /></g><g
           transform="translate(2509.3623,462.9541)"
           id="g140"><path
             id="path142"
             style="fill:#ffffff;fill-opacity:1;fill-rule:nonzero;stroke:none"
             d="m 0,0 c -84.831,33.156 -107.071,86.619 -100.342,122.333 5.387,28.57 28.107,47.767 56.537,47.767 15.235,0 31.229,-5.579 46.548,-16.198 15.319,10.619 31.315,16.198 46.549,16.198 28.427,0 51.143,-19.197 56.527,-47.767 C 112.551,86.619 90.313,33.152 5.487,0 L 2.743,-1.07 Z" /></g><g
           transform="translate(2558.6543,640.5928)"
           id="g144"><path
             id="path146"
             style="fill:#500200;fill-opacity:1;fill-rule:nonzero;stroke:none"
             d="M 0,0 C -15.34,0 -31.255,-5.053 -46.549,-14.701 -61.84,-5.053 -77.758,-0.002 -93.097,0 c -32.168,0 -57.865,-21.664 -63.943,-53.909 -7.265,-38.545 15.877,-95.915 105.004,-130.747 l 5.487,-2.145 5.487,2.145 c 89.123,34.828 112.26,92.2 104.998,130.745 C 57.857,-21.666 32.164,0 0,0 m 0,-15.074 c 61.751,0 86.919,-103.383 -46.549,-155.542 -133.476,52.164 -108.31,155.544 -46.548,155.542 14.094,0 30.094,-5.385 46.548,-17.988 16.46,12.607 32.451,17.988 46.549,17.988" /></g></g></g></g></svg>