<?xml version="1.0" encoding="UTF-8" standalone="no"?>
<svg
   xmlns:dc="http://purl.org/dc/elements/1.1/"
   xmlns:cc="http://creativecommons.org/ns#"
   xmlns:rdf="http://www.w3.org/1999/02/22-rdf-syntax-ns#"
   xmlns:svg="http://www.w3.org/2000/svg"
   xmlns="http://www.w3.org/2000/svg"
   viewBox="0 0 780 1133.8533"
   height="1133.8533"
   width="780"
   xml:space="preserve"
   id="svg2"
   version="1.1"><metadata
     id="metadata8"><rdf:RDF><cc:Work
         rdf:about=""><dc:format>image/svg+xml</dc:format><dc:type
           rdf:resource="http://purl.org/dc/dcmitype/StillImage" /></cc:Work></rdf:RDF></metadata><defs
     id="defs6"><clipPath
       id="clipPath18"
       clipPathUnits="userSpaceOnUse"><path
         id="path16"
         d="M 0,850.39 H 585 V 0 H 0 Z" /></clipPath><clipPath
       id="clipPath26"
       clipPathUnits="userSpaceOnUse"><path
         id="path24"
         d="M 31.0659,819.252 H 551.258 V 43.0586 H 31.0659 Z" /></clipPath><clipPath
       id="clipPath42"
       clipPathUnits="userSpaceOnUse"><path
         id="path40"
         d="M 0,0 H 585 V 850.389 H 0 Z" /></clipPath><clipPath
       id="clipPath760"
       clipPathUnits="userSpaceOnUse"><path
         id="path758"
         d="M 0,850.39 H 585 V 0 H 0 Z" /></clipPath></defs><g
     transform="matrix(1.3333333,0,0,-1.3333333,0,1133.8533)"
     id="g10"><g
       id="g12"><g
         clip-path="url(#clipPath18)"
         id="g14"><g
           id="g20"><g
             id="g22" /><g
             id="g32"><g
               style="opacity:0.69999701"
               id="g30"
               clip-path="url(#clipPath26)"><path
                 id="path28"
                 style="fill:#aa0e0e;fill-opacity:1;fill-rule:nonzero;stroke:none"
                 d="M 46.015,58.009 H 536.307 V 804.302 H 46.015 Z M 551.258,43.059 H 31.066 v 776.193 h 520.192 z" /></g></g></g></g></g><path
       id="path34"
       style="fill:none;stroke:#aa0e0e;stroke-width:1;stroke-linecap:butt;stroke-linejoin:miter;stroke-miterlimit:10;stroke-dasharray:none;stroke-opacity:1"
       d="M 56.471,73.925 H 525.85 V 788.386 H 56.471 Z" /><g
       id="g36"><g
         clip-path="url(#clipPath42)"
         id="g38"><g
           transform="translate(139.0059,635.0801)"
           id="g44"><path
             id="path46"
             style="fill:none;stroke:#aa0e0e;stroke-width:1;stroke-linecap:butt;stroke-linejoin:miter;stroke-miterlimit:10;stroke-dasharray:none;stroke-opacity:1"
             d="m 0,0 c 0,-58.448 -47.382,-105.83 -105.831,-105.83 -58.448,0 -105.83,47.382 -105.83,105.83 0,58.448 47.382,105.83 105.83,105.83 C -47.382,105.83 0,58.448 0,0 Z" /></g><g
           transform="translate(33.1753,533.6138)"
           id="g48"><path
             id="path50"
             style="fill:none;stroke:#aa0e0e;stroke-width:1;stroke-linecap:butt;stroke-linejoin:miter;stroke-miterlimit:10;stroke-dasharray:none;stroke-opacity:1"
             d="m 0,0 c -56.038,0 -101.466,45.428 -101.466,101.466 0,56.038 45.428,101.467 101.466,101.467 56.039,0 101.467,-45.429 101.467,-101.467 C 101.467,45.428 56.039,0 0,0 Z" /></g><g
           transform="translate(33.1753,537.9775)"
           id="g52"><path
             id="path54"
             style="fill:none;stroke:#aa0e0e;stroke-width:1;stroke-linecap:butt;stroke-linejoin:miter;stroke-miterlimit:10;stroke-dasharray:none;stroke-opacity:1"
             d="m 0,0 c -53.628,0 -97.103,43.474 -97.103,97.103 0,53.628 43.475,97.102 97.103,97.102 53.628,0 97.103,-43.474 97.103,-97.102 C 97.103,43.474 53.628,0 0,0 Z" /></g><g
           transform="translate(33.1753,542.3413)"
           id="g56"><path
             id="path58"
             style="fill:none;stroke:#aa0e0e;stroke-width:1;stroke-linecap:butt;stroke-linejoin:miter;stroke-miterlimit:10;stroke-dasharray:none;stroke-opacity:1"
             d="m 0,0 c -51.218,0 -92.739,41.521 -92.739,92.739 0,51.218 41.521,92.739 92.739,92.739 51.219,0 92.739,-41.521 92.739,-92.739 C 92.739,41.521 51.219,0 0,0 Z" /></g><g
           transform="translate(33.1753,546.7051)"
           id="g60"><path
             id="path62"
             style="fill:none;stroke:#aa0e0e;stroke-width:1;stroke-linecap:butt;stroke-linejoin:miter;stroke-miterlimit:10;stroke-dasharray:none;stroke-opacity:1"
             d="m 0,0 c -48.808,0 -88.375,39.567 -88.375,88.375 0,48.808 39.567,88.375 88.375,88.375 48.809,0 88.375,-39.567 88.375,-88.375 C 88.375,39.567 48.809,0 0,0 Z" /></g><g
           transform="translate(33.1753,551.0688)"
           id="g64"><path
             id="path66"
             style="fill:none;stroke:#aa0e0e;stroke-width:1;stroke-linecap:butt;stroke-linejoin:miter;stroke-miterlimit:10;stroke-dasharray:none;stroke-opacity:1"
             d="m 0,0 c -46.398,0 -84.011,37.613 -84.011,84.011 0,46.398 37.613,84.011 84.011,84.011 46.398,0 84.012,-37.613 84.012,-84.011 C 84.012,37.613 46.398,0 0,0 Z" /></g><g
           transform="translate(33.1753,555.4321)"
           id="g68"><path
             id="path70"
             style="fill:none;stroke:#aa0e0e;stroke-width:1;stroke-linecap:butt;stroke-linejoin:miter;stroke-miterlimit:10;stroke-dasharray:none;stroke-opacity:1"
             d="m 0,0 c -43.988,0 -79.647,35.66 -79.647,79.648 0,43.988 35.659,79.647 79.647,79.647 43.988,0 79.648,-35.659 79.648,-79.647 C 79.648,35.66 43.988,0 0,0 Z" /></g><g
           transform="translate(33.1753,559.7959)"
           id="g72"><path
             id="path74"
             style="fill:none;stroke:#aa0e0e;stroke-width:1;stroke-linecap:butt;stroke-linejoin:miter;stroke-miterlimit:10;stroke-dasharray:none;stroke-opacity:1"
             d="m 0,0 c -41.578,0 -75.284,33.706 -75.284,75.284 0,41.578 33.706,75.284 75.284,75.284 41.579,0 75.284,-33.706 75.284,-75.284 C 75.284,33.706 41.579,0 0,0 Z" /></g><g
           transform="translate(33.1753,564.1597)"
           id="g76"><path
             id="path78"
             style="fill:none;stroke:#aa0e0e;stroke-width:1;stroke-linecap:butt;stroke-linejoin:miter;stroke-miterlimit:10;stroke-dasharray:none;stroke-opacity:1"
             d="m 0,0 c -39.168,0 -70.92,31.752 -70.92,70.92 0,39.168 31.752,70.92 70.92,70.92 39.168,0 70.92,-31.752 70.92,-70.92 C 70.92,31.752 39.168,0 0,0 Z" /></g><g
           transform="translate(33.1753,568.5234)"
           id="g80"><path
             id="path82"
             style="fill:none;stroke:#aa0e0e;stroke-width:1;stroke-linecap:butt;stroke-linejoin:miter;stroke-miterlimit:10;stroke-dasharray:none;stroke-opacity:1"
             d="m 0,0 c -36.758,0 -66.556,29.798 -66.556,66.557 0,36.758 29.798,66.556 66.556,66.556 36.758,0 66.557,-29.798 66.557,-66.556 C 66.557,29.798 36.758,0 0,0 Z" /></g><g
           transform="translate(33.1753,572.8872)"
           id="g84"><path
             id="path86"
             style="fill:none;stroke:#aa0e0e;stroke-width:1;stroke-linecap:butt;stroke-linejoin:miter;stroke-miterlimit:10;stroke-dasharray:none;stroke-opacity:1"
             d="m 0,0 c -34.348,0 -62.192,27.845 -62.192,62.193 0,34.348 27.844,62.192 62.192,62.192 34.348,0 62.193,-27.844 62.193,-62.192 C 62.193,27.845 34.348,0 0,0 Z" /></g><g
           transform="translate(33.1753,577.251)"
           id="g88"><path
             id="path90"
             style="fill:none;stroke:#aa0e0e;stroke-width:1;stroke-linecap:butt;stroke-linejoin:miter;stroke-miterlimit:10;stroke-dasharray:none;stroke-opacity:1"
             d="m 0,0 c -31.938,0 -57.829,25.891 -57.829,57.829 0,31.938 25.891,57.829 57.829,57.829 31.938,0 57.83,-25.891 57.83,-57.829 C 57.83,25.891 31.938,0 0,0 Z" /></g><g
           transform="translate(33.1753,581.6147)"
           id="g92"><path
             id="path94"
             style="fill:none;stroke:#aa0e0e;stroke-width:1;stroke-linecap:butt;stroke-linejoin:miter;stroke-miterlimit:10;stroke-dasharray:none;stroke-opacity:1"
             d="m 0,0 c -29.528,0 -53.465,23.937 -53.465,53.465 0,29.528 23.937,53.466 53.465,53.466 29.528,0 53.466,-23.938 53.466,-53.466 C 53.466,23.937 29.528,0 0,0 Z" /></g><g
           transform="translate(33.1753,585.9785)"
           id="g96"><path
             id="path98"
             style="fill:none;stroke:#aa0e0e;stroke-width:1;stroke-linecap:butt;stroke-linejoin:miter;stroke-miterlimit:10;stroke-dasharray:none;stroke-opacity:1"
             d="m 0,0 c -27.118,0 -49.102,21.983 -49.102,49.102 0,27.118 21.984,49.101 49.102,49.101 27.118,0 49.102,-21.983 49.102,-49.101 C 49.102,21.983 27.118,0 0,0 Z" /></g><g
           transform="translate(33.1753,590.3423)"
           id="g100"><path
             id="path102"
             style="fill:none;stroke:#aa0e0e;stroke-width:1;stroke-linecap:butt;stroke-linejoin:miter;stroke-miterlimit:10;stroke-dasharray:none;stroke-opacity:1"
             d="m 0,0 c -24.708,0 -44.738,20.03 -44.738,44.738 0,24.708 20.03,44.738 44.738,44.738 24.708,0 44.738,-20.03 44.738,-44.738 C 44.738,20.03 24.708,0 0,0 Z" /></g><g
           transform="translate(33.1753,594.7061)"
           id="g104"><path
             id="path106"
             style="fill:none;stroke:#aa0e0e;stroke-width:1;stroke-linecap:butt;stroke-linejoin:miter;stroke-miterlimit:10;stroke-dasharray:none;stroke-opacity:1"
             d="m 0,0 c -22.298,0 -40.374,18.076 -40.374,40.374 0,22.298 18.076,40.374 40.374,40.374 22.298,0 40.375,-18.076 40.375,-40.374 C 40.375,18.076 22.298,0 0,0 Z" /></g><g
           transform="translate(33.1753,599.0693)"
           id="g108"><path
             id="path110"
             style="fill:none;stroke:#aa0e0e;stroke-width:1;stroke-linecap:butt;stroke-linejoin:miter;stroke-miterlimit:10;stroke-dasharray:none;stroke-opacity:1"
             d="m 0,0 c -19.888,0 -36.01,16.123 -36.01,36.011 0,19.888 16.122,36.01 36.01,36.01 19.888,0 36.011,-16.122 36.011,-36.01 C 36.011,16.123 19.888,0 0,0 Z" /></g><g
           transform="translate(33.1753,603.4331)"
           id="g112"><path
             id="path114"
             style="fill:none;stroke:#aa0e0e;stroke-width:1;stroke-linecap:butt;stroke-linejoin:miter;stroke-miterlimit:10;stroke-dasharray:none;stroke-opacity:1"
             d="m 0,0 c -17.478,0 -31.646,14.169 -31.646,31.647 0,17.478 14.168,31.646 31.646,31.646 17.478,0 31.647,-14.168 31.647,-31.646 C 31.647,14.169 17.478,0 0,0 Z" /></g><g
           transform="translate(33.1753,607.7969)"
           id="g116"><path
             id="path118"
             style="fill:none;stroke:#aa0e0e;stroke-width:1;stroke-linecap:butt;stroke-linejoin:miter;stroke-miterlimit:10;stroke-dasharray:none;stroke-opacity:1"
             d="m 0,0 c -15.067,0 -27.283,12.215 -27.283,27.283 0,15.068 12.216,27.283 27.283,27.283 15.068,0 27.283,-12.215 27.283,-27.283 C 27.283,12.215 15.068,0 0,0 Z" /></g><g
           transform="translate(33.1753,612.1606)"
           id="g120"><path
             id="path122"
             style="fill:none;stroke:#aa0e0e;stroke-width:1;stroke-linecap:butt;stroke-linejoin:miter;stroke-miterlimit:10;stroke-dasharray:none;stroke-opacity:1"
             d="m 0,0 c -12.658,0 -22.919,10.262 -22.919,22.919 0,12.658 10.261,22.919 22.919,22.919 12.658,0 22.919,-10.261 22.919,-22.919 C 22.919,10.262 12.658,0 0,0 Z" /></g><g
           transform="translate(33.1753,616.5244)"
           id="g124"><path
             id="path126"
             style="fill:none;stroke:#aa0e0e;stroke-width:1;stroke-linecap:butt;stroke-linejoin:miter;stroke-miterlimit:10;stroke-dasharray:none;stroke-opacity:1"
             d="m 0,0 c -10.248,0 -18.555,8.308 -18.555,18.556 0,10.248 8.307,18.555 18.555,18.555 10.248,0 18.556,-8.307 18.556,-18.555 C 18.556,8.308 10.248,0 0,0 Z" /></g><g
           transform="translate(47.3672,635.0801)"
           id="g128"><path
             id="path130"
             style="fill:none;stroke:#aa0e0e;stroke-width:1;stroke-linecap:butt;stroke-linejoin:miter;stroke-miterlimit:10;stroke-dasharray:none;stroke-opacity:1"
             d="m 0,0 c 0,-7.838 -6.354,-14.192 -14.192,-14.192 -7.837,0 -14.191,6.354 -14.191,14.192 0,7.838 6.354,14.191 14.191,14.191 C -6.354,14.191 0,7.838 0,0 Z" /></g><g
           transform="translate(706.5225,469.2485)"
           id="g132"><path
             id="path134"
             style="fill:none;stroke:#aa0e0e;stroke-width:1;stroke-linecap:butt;stroke-linejoin:miter;stroke-miterlimit:10;stroke-dasharray:none;stroke-opacity:1"
             d="m 0,0 c 0,-75.731 -61.392,-137.124 -137.123,-137.124 -75.731,0 -137.122,61.393 -137.122,137.124 0,75.731 61.391,137.123 137.122,137.123 C -61.392,137.123 0,75.731 0,0 Z" /></g><g
           transform="translate(569.3994,340.4268)"
           id="g136"><path
             id="path138"
             style="fill:none;stroke:#aa0e0e;stroke-width:1;stroke-linecap:butt;stroke-linejoin:miter;stroke-miterlimit:10;stroke-dasharray:none;stroke-opacity:1"
             d="m 0,0 c -71.146,0 -128.82,57.676 -128.82,128.822 0,71.146 57.674,128.821 128.82,128.821 71.146,0 128.821,-57.675 128.821,-128.821 C 128.821,57.676 71.146,0 0,0 Z" /></g><g
           transform="translate(569.3994,348.7285)"
           id="g140"><path
             id="path142"
             style="fill:none;stroke:#aa0e0e;stroke-width:1;stroke-linecap:butt;stroke-linejoin:miter;stroke-miterlimit:10;stroke-dasharray:none;stroke-opacity:1"
             d="m 0,0 c -66.561,0 -120.519,53.959 -120.519,120.52 0,66.561 53.958,120.52 120.519,120.52 66.562,0 120.52,-53.959 120.52,-120.52 C 120.52,53.959 66.562,0 0,0 Z" /></g><g
           transform="translate(569.3994,357.0303)"
           id="g144"><path
             id="path146"
             style="fill:none;stroke:#aa0e0e;stroke-width:1;stroke-linecap:butt;stroke-linejoin:miter;stroke-miterlimit:10;stroke-dasharray:none;stroke-opacity:1"
             d="m 0,0 c -61.976,0 -112.218,50.242 -112.218,112.218 0,61.977 50.242,112.219 112.218,112.219 61.977,0 112.219,-50.242 112.219,-112.219 C 112.219,50.242 61.977,0 0,0 Z" /></g><g
           transform="translate(569.3994,365.332)"
           id="g148"><path
             id="path150"
             style="fill:none;stroke:#aa0e0e;stroke-width:1;stroke-linecap:butt;stroke-linejoin:miter;stroke-miterlimit:10;stroke-dasharray:none;stroke-opacity:1"
             d="m 0,0 c -57.391,0 -103.916,46.525 -103.916,103.917 0,57.391 46.525,103.916 103.916,103.916 57.392,0 103.917,-46.525 103.917,-103.916 C 103.917,46.525 57.392,0 0,0 Z" /></g><g
           transform="translate(569.3994,373.6338)"
           id="g152"><path
             id="path154"
             style="fill:none;stroke:#aa0e0e;stroke-width:1;stroke-linecap:butt;stroke-linejoin:miter;stroke-miterlimit:10;stroke-dasharray:none;stroke-opacity:1"
             d="m 0,0 c -52.806,0 -95.614,42.809 -95.614,95.615 0,52.806 42.808,95.614 95.614,95.614 52.807,0 95.615,-42.808 95.615,-95.614 C 95.615,42.809 52.807,0 0,0 Z" /></g><g
           transform="translate(569.3994,381.9355)"
           id="g156"><path
             id="path158"
             style="fill:none;stroke:#aa0e0e;stroke-width:1;stroke-linecap:butt;stroke-linejoin:miter;stroke-miterlimit:10;stroke-dasharray:none;stroke-opacity:1"
             d="m 0,0 c -48.221,0 -87.313,39.092 -87.313,87.313 0,48.222 39.092,87.313 87.313,87.313 48.222,0 87.313,-39.091 87.313,-87.313 C 87.313,39.092 48.222,0 0,0 Z" /></g><g
           transform="translate(569.3994,390.2373)"
           id="g160"><path
             id="path162"
             style="fill:none;stroke:#aa0e0e;stroke-width:1;stroke-linecap:butt;stroke-linejoin:miter;stroke-miterlimit:10;stroke-dasharray:none;stroke-opacity:1"
             d="m 0,0 c -43.636,0 -79.011,35.375 -79.011,79.011 0,43.637 35.375,79.011 79.011,79.011 43.637,0 79.012,-35.374 79.012,-79.011 C 79.012,35.375 43.637,0 0,0 Z" /></g><g
           transform="translate(569.3994,398.5381)"
           id="g164"><path
             id="path166"
             style="fill:none;stroke:#aa0e0e;stroke-width:1;stroke-linecap:butt;stroke-linejoin:miter;stroke-miterlimit:10;stroke-dasharray:none;stroke-opacity:1"
             d="m 0,0 c -39.052,0 -70.71,31.659 -70.71,70.71 0,39.053 31.658,70.71 70.71,70.71 39.052,0 70.71,-31.657 70.71,-70.71 C 70.71,31.659 39.052,0 0,0 Z" /></g><g
           transform="translate(569.3994,406.8398)"
           id="g168"><path
             id="path170"
             style="fill:none;stroke:#aa0e0e;stroke-width:1;stroke-linecap:butt;stroke-linejoin:miter;stroke-miterlimit:10;stroke-dasharray:none;stroke-opacity:1"
             d="m 0,0 c -34.467,0 -62.408,27.942 -62.408,62.409 0,34.467 27.941,62.408 62.408,62.408 34.468,0 62.409,-27.941 62.409,-62.408 C 62.409,27.942 34.468,0 0,0 Z" /></g><g
           transform="translate(569.3994,415.1416)"
           id="g172"><path
             id="path174"
             style="fill:none;stroke:#aa0e0e;stroke-width:1;stroke-linecap:butt;stroke-linejoin:miter;stroke-miterlimit:10;stroke-dasharray:none;stroke-opacity:1"
             d="m 0,0 c -29.882,0 -54.106,24.225 -54.106,54.107 0,29.882 24.224,54.106 54.106,54.106 29.883,0 54.107,-24.224 54.107,-54.106 C 54.107,24.225 29.883,0 0,0 Z" /></g><g
           transform="translate(569.3994,423.4434)"
           id="g176"><path
             id="path178"
             style="fill:none;stroke:#aa0e0e;stroke-width:1;stroke-linecap:butt;stroke-linejoin:miter;stroke-miterlimit:10;stroke-dasharray:none;stroke-opacity:1"
             d="M 0,0 C -25.297,0 -45.805,20.508 -45.805,45.805 -45.805,71.103 -25.297,91.61 0,91.61 25.298,91.61 45.806,71.103 45.806,45.805 45.806,20.508 25.298,0 0,0 Z" /></g><g
           transform="translate(569.3994,431.7451)"
           id="g180"><path
             id="path182"
             style="fill:none;stroke:#aa0e0e;stroke-width:1;stroke-linecap:butt;stroke-linejoin:miter;stroke-miterlimit:10;stroke-dasharray:none;stroke-opacity:1"
             d="m 0,0 c -20.712,0 -37.503,16.791 -37.503,37.503 0,20.713 16.791,37.503 37.503,37.503 20.713,0 37.504,-16.79 37.504,-37.503 C 37.504,16.791 20.713,0 0,0 Z" /></g><g
           transform="translate(569.3994,440.0469)"
           id="g184"><path
             id="path186"
             style="fill:none;stroke:#aa0e0e;stroke-width:1;stroke-linecap:butt;stroke-linejoin:miter;stroke-miterlimit:10;stroke-dasharray:none;stroke-opacity:1"
             d="m 0,0 c -16.127,0 -29.201,13.074 -29.201,29.202 0,16.127 13.074,29.201 29.201,29.201 16.128,0 29.202,-13.074 29.202,-29.201 C 29.202,13.074 16.128,0 0,0 Z" /></g><g
           transform="translate(569.3994,448.3486)"
           id="g188"><path
             id="path190"
             style="fill:none;stroke:#aa0e0e;stroke-width:1;stroke-linecap:butt;stroke-linejoin:miter;stroke-miterlimit:10;stroke-dasharray:none;stroke-opacity:1"
             d="m 0,0 c -11.542,0 -20.9,9.357 -20.9,20.9 0,11.543 9.358,20.9 20.9,20.9 11.543,0 20.901,-9.357 20.901,-20.9 C 20.901,9.357 11.543,0 0,0 Z" /></g><g
           transform="translate(569.3994,456.6504)"
           id="g192"><path
             id="path194"
             style="fill:none;stroke:#aa0e0e;stroke-width:1;stroke-linecap:butt;stroke-linejoin:miter;stroke-miterlimit:10;stroke-dasharray:none;stroke-opacity:1"
             d="m 0,0 c -6.957,0 -12.599,5.641 -12.599,12.598 0,6.958 5.642,12.598 12.599,12.598 6.958,0 12.6,-5.64 12.6,-12.598 C 12.6,5.641 6.958,0 0,0 Z" /></g><g
           transform="translate(573.6973,469.2485)"
           id="g196"><path
             id="path198"
             style="fill:none;stroke:#aa0e0e;stroke-width:1;stroke-linecap:butt;stroke-linejoin:miter;stroke-miterlimit:10;stroke-dasharray:none;stroke-opacity:1"
             d="m 0,0 c 0,-2.373 -1.925,-4.296 -4.298,-4.296 -2.372,0 -4.297,1.923 -4.297,4.296 0,2.373 1.925,4.296 4.297,4.296 C -1.925,4.296 0,2.373 0,0 Z" /></g><g
           transform="translate(579.3252,49.4404)"
           id="g200"><path
             id="path202"
             style="fill:none;stroke:#aa0e0e;stroke-width:1;stroke-linecap:butt;stroke-linejoin:miter;stroke-miterlimit:10;stroke-dasharray:none;stroke-opacity:1"
             d="m 0,0 c 0,-75.729 -61.392,-137.122 -137.124,-137.122 -75.73,0 -137.122,61.393 -137.122,137.122 0,75.731 61.392,137.125 137.122,137.125 C -61.392,137.125 0,75.731 0,0 Z" /></g><g
           transform="translate(442.2012,-82.5732)"
           id="g204"><path
             id="path206"
             style="fill:none;stroke:#aa0e0e;stroke-width:1;stroke-linecap:butt;stroke-linejoin:miter;stroke-miterlimit:10;stroke-dasharray:none;stroke-opacity:1"
             d="m 0,0 c -72.909,0 -132.014,59.105 -132.014,132.014 0,72.91 59.105,132.016 132.014,132.016 72.911,0 132.016,-59.106 132.016,-132.016 C 132.016,59.105 72.911,0 0,0 Z" /></g><g
           transform="translate(442.2012,-77.4639)"
           id="g208"><path
             id="path210"
             style="fill:none;stroke:#aa0e0e;stroke-width:1;stroke-linecap:butt;stroke-linejoin:miter;stroke-miterlimit:10;stroke-dasharray:none;stroke-opacity:1"
             d="m 0,0 c -70.087,0 -126.905,56.817 -126.905,126.904 0,70.089 56.818,126.908 126.905,126.908 70.09,0 126.906,-56.819 126.906,-126.908 C 126.906,56.817 70.09,0 0,0 Z" /></g><g
           transform="translate(442.2012,-72.3555)"
           id="g212"><path
             id="path214"
             style="fill:none;stroke:#aa0e0e;stroke-width:1;stroke-linecap:butt;stroke-linejoin:miter;stroke-miterlimit:10;stroke-dasharray:none;stroke-opacity:1"
             d="m 0,0 c -67.266,0 -121.796,54.53 -121.796,121.796 0,67.267 54.53,121.799 121.796,121.799 67.268,0 121.798,-54.532 121.798,-121.799 C 121.798,54.53 67.268,0 0,0 Z" /></g><g
           transform="translate(442.2012,-67.2471)"
           id="g216"><path
             id="path218"
             style="fill:none;stroke:#aa0e0e;stroke-width:1;stroke-linecap:butt;stroke-linejoin:miter;stroke-miterlimit:10;stroke-dasharray:none;stroke-opacity:1"
             d="m 0,0 c -64.444,0 -116.688,52.244 -116.688,116.688 0,64.445 52.244,116.69 116.688,116.69 64.446,0 116.689,-52.245 116.689,-116.69 C 116.689,52.244 64.446,0 0,0 Z" /></g><g
           transform="translate(442.2012,-62.1377)"
           id="g220"><path
             id="path222"
             style="fill:none;stroke:#aa0e0e;stroke-width:1;stroke-linecap:butt;stroke-linejoin:miter;stroke-miterlimit:10;stroke-dasharray:none;stroke-opacity:1"
             d="m 0,0 c -61.623,0 -111.579,49.956 -111.579,111.578 0,61.624 49.956,111.581 111.579,111.581 61.625,0 111.581,-49.957 111.581,-111.581 C 111.581,49.956 61.625,0 0,0 Z" /></g><g
           transform="translate(442.2012,-57.0293)"
           id="g224"><path
             id="path226"
             style="fill:none;stroke:#aa0e0e;stroke-width:1;stroke-linecap:butt;stroke-linejoin:miter;stroke-miterlimit:10;stroke-dasharray:none;stroke-opacity:1"
             d="m 0,0 c -58.801,0 -106.47,47.669 -106.47,106.47 0,58.802 47.669,106.472 106.47,106.472 58.804,0 106.472,-47.67 106.472,-106.472 C 106.472,47.669 58.804,0 0,0 Z" /></g><g
           transform="translate(442.2012,-51.9209)"
           id="g228"><path
             id="path230"
             style="fill:none;stroke:#aa0e0e;stroke-width:1;stroke-linecap:butt;stroke-linejoin:miter;stroke-miterlimit:10;stroke-dasharray:none;stroke-opacity:1"
             d="m 0,0 c -55.98,0 -101.361,45.382 -101.361,101.361 0,55.982 45.381,101.365 101.361,101.365 55.982,0 101.363,-45.383 101.363,-101.365 C 101.363,45.382 55.982,0 0,0 Z" /></g><g
           transform="translate(442.2012,-46.8115)"
           id="g232"><path
             id="path234"
             style="fill:none;stroke:#aa0e0e;stroke-width:1;stroke-linecap:butt;stroke-linejoin:miter;stroke-miterlimit:10;stroke-dasharray:none;stroke-opacity:1"
             d="m 0,0 c -53.158,0 -96.253,43.094 -96.253,96.252 0,53.16 43.095,96.255 96.253,96.255 53.16,0 96.255,-43.095 96.255,-96.255 C 96.255,43.094 53.16,0 0,0 Z" /></g><g
           transform="translate(442.2012,-41.7031)"
           id="g236"><path
             id="path238"
             style="fill:none;stroke:#aa0e0e;stroke-width:1;stroke-linecap:butt;stroke-linejoin:miter;stroke-miterlimit:10;stroke-dasharray:none;stroke-opacity:1"
             d="m 0,0 c -50.337,0 -91.144,40.807 -91.144,91.144 0,50.338 40.807,91.146 91.144,91.146 50.339,0 91.146,-40.808 91.146,-91.146 C 91.146,40.807 50.339,0 0,0 Z" /></g><g
           transform="translate(442.2012,-36.5947)"
           id="g240"><path
             id="path242"
             style="fill:none;stroke:#aa0e0e;stroke-width:1;stroke-linecap:butt;stroke-linejoin:miter;stroke-miterlimit:10;stroke-dasharray:none;stroke-opacity:1"
             d="m 0,0 c -47.515,0 -86.036,38.521 -86.036,86.035 0,47.517 38.521,86.038 86.036,86.038 47.518,0 86.037,-38.521 86.037,-86.038 C 86.037,38.521 47.518,0 0,0 Z" /></g><g
           transform="translate(442.2012,-31.4854)"
           id="g244"><path
             id="path246"
             style="fill:none;stroke:#aa0e0e;stroke-width:1;stroke-linecap:butt;stroke-linejoin:miter;stroke-miterlimit:10;stroke-dasharray:none;stroke-opacity:1"
             d="m 0,0 c -44.694,0 -80.927,36.232 -80.927,80.926 0,44.695 36.233,80.928 80.927,80.928 44.696,0 80.929,-36.233 80.929,-80.928 C 80.929,36.232 44.696,0 0,0 Z" /></g><g
           transform="translate(442.2012,-26.377)"
           id="g248"><path
             id="path250"
             style="fill:none;stroke:#aa0e0e;stroke-width:1;stroke-linecap:butt;stroke-linejoin:miter;stroke-miterlimit:10;stroke-dasharray:none;stroke-opacity:1"
             d="m 0,0 c -41.873,0 -75.818,33.945 -75.818,75.817 0,41.874 33.945,75.821 75.818,75.821 41.875,0 75.819,-33.947 75.819,-75.821 C 75.819,33.945 41.875,0 0,0 Z" /></g><g
           transform="translate(442.2012,-21.2686)"
           id="g252"><path
             id="path254"
             style="fill:none;stroke:#aa0e0e;stroke-width:1;stroke-linecap:butt;stroke-linejoin:miter;stroke-miterlimit:10;stroke-dasharray:none;stroke-opacity:1"
             d="m 0,0 c -39.051,0 -70.709,31.658 -70.709,70.709 0,39.053 31.658,70.712 70.709,70.712 39.054,0 70.711,-31.659 70.711,-70.712 C 70.711,31.658 39.054,0 0,0 Z" /></g><g
           transform="translate(442.2012,-16.1592)"
           id="g256"><path
             id="path258"
             style="fill:none;stroke:#aa0e0e;stroke-width:1;stroke-linecap:butt;stroke-linejoin:miter;stroke-miterlimit:10;stroke-dasharray:none;stroke-opacity:1"
             d="m 0,0 c -36.229,0 -65.601,29.37 -65.601,65.6 0,36.231 29.372,65.602 65.601,65.602 36.231,0 65.603,-29.371 65.603,-65.602 C 65.603,29.37 36.231,0 0,0 Z" /></g><g
           transform="translate(442.2012,-11.0508)"
           id="g260"><path
             id="path262"
             style="fill:none;stroke:#aa0e0e;stroke-width:1;stroke-linecap:butt;stroke-linejoin:miter;stroke-miterlimit:10;stroke-dasharray:none;stroke-opacity:1"
             d="m 0,0 c -33.408,0 -60.492,27.083 -60.492,60.491 0,33.41 27.084,60.494 60.492,60.494 33.41,0 60.493,-27.084 60.493,-60.494 C 60.493,27.083 33.41,0 0,0 Z" /></g><g
           transform="translate(442.2012,-5.9414)"
           id="g264"><path
             id="path266"
             style="fill:none;stroke:#aa0e0e;stroke-width:1;stroke-linecap:butt;stroke-linejoin:miter;stroke-miterlimit:10;stroke-dasharray:none;stroke-opacity:1"
             d="m 0,0 c -30.586,0 -55.383,24.795 -55.383,55.382 0,30.589 24.797,55.385 55.383,55.385 30.589,0 55.385,-24.796 55.385,-55.385 C 55.385,24.795 30.589,0 0,0 Z" /></g><g
           transform="translate(442.2012,-0.833)"
           id="g268"><path
             id="path270"
             style="fill:none;stroke:#aa0e0e;stroke-width:1;stroke-linecap:butt;stroke-linejoin:miter;stroke-miterlimit:10;stroke-dasharray:none;stroke-opacity:1"
             d="m 0,0 c -27.765,0 -50.275,22.509 -50.275,50.273 0,27.767 22.51,50.277 50.275,50.277 27.768,0 50.276,-22.51 50.276,-50.277 C 50.276,22.509 27.768,0 0,0 Z" /></g><g
           transform="translate(442.2012,4.2754)"
           id="g272"><path
             id="path274"
             style="fill:none;stroke:#aa0e0e;stroke-width:1;stroke-linecap:butt;stroke-linejoin:miter;stroke-miterlimit:10;stroke-dasharray:none;stroke-opacity:1"
             d="m 0,0 c -24.943,0 -45.166,20.222 -45.166,45.165 0,24.945 20.223,45.168 45.166,45.168 24.946,0 45.167,-20.223 45.167,-45.168 C 45.167,20.222 24.946,0 0,0 Z" /></g><g
           transform="translate(442.2012,9.3848)"
           id="g276"><path
             id="path278"
             style="fill:none;stroke:#aa0e0e;stroke-width:1;stroke-linecap:butt;stroke-linejoin:miter;stroke-miterlimit:10;stroke-dasharray:none;stroke-opacity:1"
             d="m 0,0 c -22.122,0 -40.058,17.934 -40.058,40.056 0,22.124 17.936,40.058 40.058,40.058 22.124,0 40.059,-17.934 40.059,-40.058 C 40.059,17.934 22.124,0 0,0 Z" /></g><g
           transform="translate(442.2012,14.4932)"
           id="g280"><path
             id="path282"
             style="fill:none;stroke:#aa0e0e;stroke-width:1;stroke-linecap:butt;stroke-linejoin:miter;stroke-miterlimit:10;stroke-dasharray:none;stroke-opacity:1"
             d="m 0,0 c -19.3,0 -34.949,15.646 -34.949,34.947 0,19.303 15.649,34.95 34.949,34.95 19.303,0 34.95,-15.647 34.95,-34.95 C 34.95,15.646 19.303,0 0,0 Z" /></g><g
           transform="translate(442.2012,19.6016)"
           id="g284"><path
             id="path286"
             style="fill:none;stroke:#aa0e0e;stroke-width:1;stroke-linecap:butt;stroke-linejoin:miter;stroke-miterlimit:10;stroke-dasharray:none;stroke-opacity:1"
             d="m 0,0 c -16.479,0 -29.84,13.359 -29.84,29.839 0,16.481 13.361,29.842 29.84,29.842 16.481,0 29.842,-13.361 29.842,-29.842 C 29.842,13.359 16.481,0 0,0 Z" /></g><g
           transform="translate(442.2012,24.7109)"
           id="g288"><path
             id="path290"
             style="fill:none;stroke:#aa0e0e;stroke-width:1;stroke-linecap:butt;stroke-linejoin:miter;stroke-miterlimit:10;stroke-dasharray:none;stroke-opacity:1"
             d="m 0,0 c -13.657,0 -24.731,11.071 -24.731,24.729 0,13.661 11.074,24.733 24.731,24.733 13.66,0 24.732,-11.072 24.732,-24.733 C 24.732,11.071 13.66,0 0,0 Z" /></g><g
           transform="translate(442.2012,29.8193)"
           id="g292"><path
             id="path294"
             style="fill:none;stroke:#aa0e0e;stroke-width:1;stroke-linecap:butt;stroke-linejoin:miter;stroke-miterlimit:10;stroke-dasharray:none;stroke-opacity:1"
             d="m 0,0 c -10.836,0 -19.623,8.785 -19.623,19.621 0,10.838 8.787,19.624 19.623,19.624 10.839,0 19.624,-8.786 19.624,-19.624 C 19.624,8.785 10.839,0 0,0 Z" /></g><g
           transform="translate(442.2012,34.9277)"
           id="g296"><path
             id="path298"
             style="fill:none;stroke:#aa0e0e;stroke-width:1;stroke-linecap:butt;stroke-linejoin:miter;stroke-miterlimit:10;stroke-dasharray:none;stroke-opacity:1"
             d="m 0,0 c -8.014,0 -14.515,6.498 -14.515,14.513 0,8.016 6.501,14.515 14.515,14.515 8.017,0 14.516,-6.499 14.516,-14.515 C 14.516,6.498 8.017,0 0,0 Z" /></g><g
           transform="translate(442.2012,40.0371)"
           id="g300"><path
             id="path302"
             style="fill:none;stroke:#aa0e0e;stroke-width:1;stroke-linecap:butt;stroke-linejoin:miter;stroke-miterlimit:10;stroke-dasharray:none;stroke-opacity:1"
             d="m 0,0 c -5.192,0 -9.405,4.21 -9.405,9.403 0,5.196 4.213,9.407 9.405,9.407 5.195,0 9.406,-4.211 9.406,-9.407 C 9.406,4.21 5.195,0 0,0 Z" /></g><g
           transform="translate(446.499,49.4404)"
           id="g304"><path
             id="path306"
             style="fill:none;stroke:#aa0e0e;stroke-width:1;stroke-linecap:butt;stroke-linejoin:miter;stroke-miterlimit:10;stroke-dasharray:none;stroke-opacity:1"
             d="m 0,0 c 0,-2.372 -1.924,-4.295 -4.298,-4.295 -2.371,0 -4.297,1.923 -4.297,4.295 0,2.374 1.926,4.298 4.297,4.298 C -1.924,4.298 0,2.374 0,0 Z" /></g><g
           transform="translate(401.1841,-24.04)"
           id="g308"><path
             id="path310"
             style="fill:none;stroke:#aa0e0e;stroke-width:1;stroke-linecap:butt;stroke-linejoin:miter;stroke-miterlimit:10;stroke-dasharray:none;stroke-opacity:1"
             d="m 0,0 c 0,-75.729 -61.392,-137.123 -137.124,-137.123 -75.731,0 -137.123,61.394 -137.123,137.123 0,75.731 61.392,137.124 137.123,137.124 C -61.392,137.124 0,75.731 0,0 Z" /></g><g
           transform="translate(264.0605,-156.0547)"
           id="g312"><path
             id="path314"
             style="fill:none;stroke:#aa0e0e;stroke-width:1;stroke-linecap:butt;stroke-linejoin:miter;stroke-miterlimit:10;stroke-dasharray:none;stroke-opacity:1"
             d="m 0,0 c -72.91,0 -132.015,59.106 -132.015,132.015 0,72.91 59.105,132.015 132.015,132.015 72.91,0 132.015,-59.105 132.015,-132.015 C 132.015,59.106 72.91,0 0,0 Z" /></g><g
           transform="translate(264.0605,-150.9453)"
           id="g316"><path
             id="path318"
             style="fill:none;stroke:#aa0e0e;stroke-width:1;stroke-linecap:butt;stroke-linejoin:miter;stroke-miterlimit:10;stroke-dasharray:none;stroke-opacity:1"
             d="m 0,0 c -70.088,0 -126.906,56.818 -126.906,126.905 0,70.089 56.818,126.907 126.906,126.907 70.088,0 126.906,-56.818 126.906,-126.907 C 126.906,56.818 70.088,0 0,0 Z" /></g><g
           transform="translate(264.0605,-145.8369)"
           id="g320"><path
             id="path322"
             style="fill:none;stroke:#aa0e0e;stroke-width:1;stroke-linecap:butt;stroke-linejoin:miter;stroke-miterlimit:10;stroke-dasharray:none;stroke-opacity:1"
             d="m 0,0 c -67.267,0 -121.797,54.531 -121.797,121.797 0,67.267 54.53,121.798 121.797,121.798 67.267,0 121.797,-54.531 121.797,-121.798 C 121.797,54.531 67.267,0 0,0 Z" /></g><g
           transform="translate(264.0605,-140.7285)"
           id="g324"><path
             id="path326"
             style="fill:none;stroke:#aa0e0e;stroke-width:1;stroke-linecap:butt;stroke-linejoin:miter;stroke-miterlimit:10;stroke-dasharray:none;stroke-opacity:1"
             d="m 0,0 c -64.445,0 -116.688,52.245 -116.688,116.688 0,64.446 52.243,116.69 116.688,116.69 64.445,0 116.689,-52.244 116.689,-116.69 C 116.689,52.245 64.445,0 0,0 Z" /></g><g
           transform="translate(264.0605,-135.6191)"
           id="g328"><path
             id="path330"
             style="fill:none;stroke:#aa0e0e;stroke-width:1;stroke-linecap:butt;stroke-linejoin:miter;stroke-miterlimit:10;stroke-dasharray:none;stroke-opacity:1"
             d="m 0,0 c -61.624,0 -111.58,49.957 -111.58,111.579 0,61.624 49.956,111.581 111.58,111.581 61.624,0 111.58,-49.957 111.58,-111.581 C 111.58,49.957 61.624,0 0,0 Z" /></g><g
           transform="translate(264.0605,-130.5107)"
           id="g332"><path
             id="path334"
             style="fill:none;stroke:#aa0e0e;stroke-width:1;stroke-linecap:butt;stroke-linejoin:miter;stroke-miterlimit:10;stroke-dasharray:none;stroke-opacity:1"
             d="m 0,0 c -58.803,0 -106.471,47.67 -106.471,106.471 0,58.802 47.668,106.471 106.471,106.471 58.802,0 106.471,-47.669 106.471,-106.471 C 106.471,47.67 58.802,0 0,0 Z" /></g><g
           transform="translate(264.0605,-125.4014)"
           id="g336"><path
             id="path338"
             style="fill:none;stroke:#aa0e0e;stroke-width:1;stroke-linecap:butt;stroke-linejoin:miter;stroke-miterlimit:10;stroke-dasharray:none;stroke-opacity:1"
             d="m 0,0 c -55.981,0 -101.362,45.382 -101.362,101.361 0,55.982 45.381,101.364 101.362,101.364 55.981,0 101.363,-45.382 101.363,-101.364 C 101.363,45.382 55.981,0 0,0 Z" /></g><g
           transform="translate(264.0605,-120.293)"
           id="g340"><path
             id="path342"
             style="fill:none;stroke:#aa0e0e;stroke-width:1;stroke-linecap:butt;stroke-linejoin:miter;stroke-miterlimit:10;stroke-dasharray:none;stroke-opacity:1"
             d="m 0,0 c -53.16,0 -96.253,43.095 -96.253,96.253 0,53.16 43.093,96.255 96.253,96.255 53.159,0 96.254,-43.095 96.254,-96.255 C 96.254,43.095 53.159,0 0,0 Z" /></g><g
           transform="translate(264.0605,-115.1846)"
           id="g344"><path
             id="path346"
             style="fill:none;stroke:#aa0e0e;stroke-width:1;stroke-linecap:butt;stroke-linejoin:miter;stroke-miterlimit:10;stroke-dasharray:none;stroke-opacity:1"
             d="m 0,0 c -50.338,0 -91.145,40.808 -91.145,91.145 0,50.338 40.807,91.145 91.145,91.145 50.338,0 91.146,-40.807 91.146,-91.145 C 91.146,40.808 50.338,0 0,0 Z" /></g><g
           transform="translate(264.0605,-110.0752)"
           id="g348"><path
             id="path350"
             style="fill:none;stroke:#aa0e0e;stroke-width:1;stroke-linecap:butt;stroke-linejoin:miter;stroke-miterlimit:10;stroke-dasharray:none;stroke-opacity:1"
             d="m 0,0 c -47.517,0 -86.036,38.521 -86.036,86.035 0,47.517 38.519,86.037 86.036,86.037 47.516,0 86.037,-38.52 86.037,-86.037 C 86.037,38.521 47.516,0 0,0 Z" /></g><g
           transform="translate(264.0605,-104.9668)"
           id="g352"><path
             id="path354"
             style="fill:none;stroke:#aa0e0e;stroke-width:1;stroke-linecap:butt;stroke-linejoin:miter;stroke-miterlimit:10;stroke-dasharray:none;stroke-opacity:1"
             d="m 0,0 c -44.695,0 -80.928,36.233 -80.928,80.927 0,44.695 36.233,80.928 80.928,80.928 44.695,0 80.928,-36.233 80.928,-80.928 C 80.928,36.233 44.695,0 0,0 Z" /></g><g
           transform="translate(264.0605,-99.8574)"
           id="g356"><path
             id="path358"
             style="fill:none;stroke:#aa0e0e;stroke-width:1;stroke-linecap:butt;stroke-linejoin:miter;stroke-miterlimit:10;stroke-dasharray:none;stroke-opacity:1"
             d="m 0,0 c -41.874,0 -75.819,33.945 -75.819,75.817 0,41.874 33.945,75.82 75.819,75.82 41.874,0 75.819,-33.946 75.819,-75.82 C 75.819,33.945 41.874,0 0,0 Z" /></g><g
           transform="translate(264.0605,-94.749)"
           id="g360"><path
             id="path362"
             style="fill:none;stroke:#aa0e0e;stroke-width:1;stroke-linecap:butt;stroke-linejoin:miter;stroke-miterlimit:10;stroke-dasharray:none;stroke-opacity:1"
             d="m 0,0 c -39.052,0 -70.71,31.658 -70.71,70.709 0,39.053 31.658,70.711 70.71,70.711 39.052,0 70.71,-31.658 70.71,-70.711 C 70.71,31.658 39.052,0 0,0 Z" /></g><g
           transform="translate(264.0605,-89.6406)"
           id="g364"><path
             id="path366"
             style="fill:none;stroke:#aa0e0e;stroke-width:1;stroke-linecap:butt;stroke-linejoin:miter;stroke-miterlimit:10;stroke-dasharray:none;stroke-opacity:1"
             d="m 0,0 c -36.23,0 -65.602,29.371 -65.602,65.601 0,36.231 29.372,65.602 65.602,65.602 36.23,0 65.602,-29.371 65.602,-65.602 C 65.602,29.371 36.23,0 0,0 Z" /></g><g
           transform="translate(264.0605,-84.5313)"
           id="g368"><path
             id="path370"
             style="fill:none;stroke:#aa0e0e;stroke-width:1;stroke-linecap:butt;stroke-linejoin:miter;stroke-miterlimit:10;stroke-dasharray:none;stroke-opacity:1"
             d="m 0,0 c -33.409,0 -60.493,27.083 -60.493,60.491 0,33.41 27.084,60.493 60.493,60.493 33.409,0 60.493,-27.083 60.493,-60.493 C 60.493,27.083 33.409,0 0,0 Z" /></g><g
           transform="translate(264.0605,-79.4229)"
           id="g372"><path
             id="path374"
             style="fill:none;stroke:#aa0e0e;stroke-width:1;stroke-linecap:butt;stroke-linejoin:miter;stroke-miterlimit:10;stroke-dasharray:none;stroke-opacity:1"
             d="m 0,0 c -30.587,0 -55.384,24.796 -55.384,55.383 0,30.589 24.797,55.385 55.384,55.385 30.587,0 55.384,-24.796 55.384,-55.385 C 55.384,24.796 30.587,0 0,0 Z" /></g><g
           transform="translate(264.0605,-74.3135)"
           id="g376"><path
             id="path378"
             style="fill:none;stroke:#aa0e0e;stroke-width:1;stroke-linecap:butt;stroke-linejoin:miter;stroke-miterlimit:10;stroke-dasharray:none;stroke-opacity:1"
             d="m 0,0 c -27.766,0 -50.275,22.509 -50.275,50.273 0,27.767 22.509,50.277 50.275,50.277 27.766,0 50.276,-22.51 50.276,-50.277 C 50.276,22.509 27.766,0 0,0 Z" /></g><g
           transform="translate(264.0605,-69.2051)"
           id="g380"><path
             id="path382"
             style="fill:none;stroke:#aa0e0e;stroke-width:1;stroke-linecap:butt;stroke-linejoin:miter;stroke-miterlimit:10;stroke-dasharray:none;stroke-opacity:1"
             d="m 0,0 c -24.944,0 -45.167,20.222 -45.167,45.165 0,24.945 20.223,45.167 45.167,45.167 24.944,0 45.167,-20.222 45.167,-45.167 C 45.167,20.222 24.944,0 0,0 Z" /></g><g
           transform="translate(264.0605,-64.0967)"
           id="g384"><path
             id="path386"
             style="fill:none;stroke:#aa0e0e;stroke-width:1;stroke-linecap:butt;stroke-linejoin:miter;stroke-miterlimit:10;stroke-dasharray:none;stroke-opacity:1"
             d="m 0,0 c -22.123,0 -40.058,17.935 -40.058,40.057 0,22.124 17.935,40.058 40.058,40.058 22.123,0 40.058,-17.934 40.058,-40.058 C 40.058,17.935 22.123,0 0,0 Z" /></g><g
           transform="translate(264.0605,-58.9873)"
           id="g388"><path
             id="path390"
             style="fill:none;stroke:#aa0e0e;stroke-width:1;stroke-linecap:butt;stroke-linejoin:miter;stroke-miterlimit:10;stroke-dasharray:none;stroke-opacity:1"
             d="m 0,0 c -19.302,0 -34.95,15.646 -34.95,34.947 0,19.303 15.648,34.95 34.95,34.95 19.301,0 34.95,-15.647 34.95,-34.95 C 34.95,15.646 19.301,0 0,0 Z" /></g><g
           transform="translate(264.0605,-53.8789)"
           id="g392"><path
             id="path394"
             style="fill:none;stroke:#aa0e0e;stroke-width:1;stroke-linecap:butt;stroke-linejoin:miter;stroke-miterlimit:10;stroke-dasharray:none;stroke-opacity:1"
             d="M 0,0 C -16.48,0 -29.841,13.359 -29.841,29.839 -29.841,46.32 -16.48,59.681 0,59.681 16.479,59.681 29.841,46.32 29.841,29.839 29.841,13.359 16.479,0 0,0 Z" /></g><g
           transform="translate(264.0605,-48.7705)"
           id="g396"><path
             id="path398"
             style="fill:none;stroke:#aa0e0e;stroke-width:1;stroke-linecap:butt;stroke-linejoin:miter;stroke-miterlimit:10;stroke-dasharray:none;stroke-opacity:1"
             d="m 0,0 c -13.659,0 -24.732,11.072 -24.732,24.73 0,13.661 11.073,24.733 24.732,24.733 13.658,0 24.732,-11.072 24.732,-24.733 C 24.732,11.072 13.658,0 0,0 Z" /></g><g
           transform="translate(172.1484,826.2539)"
           id="g400"><path
             id="path402"
             style="fill:none;stroke:#aa0e0e;stroke-width:1;stroke-linecap:butt;stroke-linejoin:miter;stroke-miterlimit:10;stroke-dasharray:none;stroke-opacity:1"
             d="m 0,0 c 0,-28.836 -23.376,-52.213 -52.212,-52.213 -28.837,0 -52.213,23.377 -52.213,52.213 0,28.836 23.376,52.212 52.213,52.212 C -23.376,52.212 0,28.836 0,0 Z" /></g><g
           transform="translate(119.936,776.1938)"
           id="g404"><path
             id="path406"
             style="fill:none;stroke:#aa0e0e;stroke-width:1;stroke-linecap:butt;stroke-linejoin:miter;stroke-miterlimit:10;stroke-dasharray:none;stroke-opacity:1"
             d="m 0,0 c -27.647,0 -50.06,22.413 -50.06,50.06 0,27.647 22.413,50.06 50.06,50.06 27.647,0 50.06,-22.413 50.06,-50.06 C 50.06,22.413 27.647,0 0,0 Z" /></g><g
           transform="translate(119.936,778.3467)"
           id="g408"><path
             id="path410"
             style="fill:none;stroke:#aa0e0e;stroke-width:1;stroke-linecap:butt;stroke-linejoin:miter;stroke-miterlimit:10;stroke-dasharray:none;stroke-opacity:1"
             d="m 0,0 c -26.458,0 -47.907,21.449 -47.907,47.907 0,26.458 21.449,47.907 47.907,47.907 26.458,0 47.907,-21.449 47.907,-47.907 C 47.907,21.449 26.458,0 0,0 Z" /></g><g
           transform="translate(119.936,780.4995)"
           id="g412"><path
             id="path414"
             style="fill:none;stroke:#aa0e0e;stroke-width:1;stroke-linecap:butt;stroke-linejoin:miter;stroke-miterlimit:10;stroke-dasharray:none;stroke-opacity:1"
             d="m 0,0 c -25.27,0 -45.754,20.485 -45.754,45.754 0,25.269 20.484,45.754 45.754,45.754 25.269,0 45.754,-20.485 45.754,-45.754 C 45.754,20.485 25.269,0 0,0 Z" /></g><g
           transform="translate(119.936,782.6528)"
           id="g416"><path
             id="path418"
             style="fill:none;stroke:#aa0e0e;stroke-width:1;stroke-linecap:butt;stroke-linejoin:miter;stroke-miterlimit:10;stroke-dasharray:none;stroke-opacity:1"
             d="m 0,0 c -24.08,0 -43.601,19.521 -43.601,43.601 0,24.08 19.521,43.601 43.601,43.601 24.08,0 43.601,-19.521 43.601,-43.601 C 43.601,19.521 24.08,0 0,0 Z" /></g><g
           transform="translate(119.936,784.8057)"
           id="g420"><path
             id="path422"
             style="fill:none;stroke:#aa0e0e;stroke-width:1;stroke-linecap:butt;stroke-linejoin:miter;stroke-miterlimit:10;stroke-dasharray:none;stroke-opacity:1"
             d="m 0,0 c -22.891,0 -41.448,18.557 -41.448,41.448 0,22.891 18.557,41.448 41.448,41.448 22.891,0 41.448,-18.557 41.448,-41.448 C 41.448,18.557 22.891,0 0,0 Z" /></g><g
           transform="translate(119.936,786.9585)"
           id="g424"><path
             id="path426"
             style="fill:none;stroke:#aa0e0e;stroke-width:1;stroke-linecap:butt;stroke-linejoin:miter;stroke-miterlimit:10;stroke-dasharray:none;stroke-opacity:1"
             d="M 0,0 C -21.702,0 -39.295,17.593 -39.295,39.295 -39.295,60.997 -21.702,78.59 0,78.59 21.702,78.59 39.295,60.997 39.295,39.295 39.295,17.593 21.702,0 0,0 Z" /></g><g
           transform="translate(119.936,789.1113)"
           id="g428"><path
             id="path430"
             style="fill:none;stroke:#aa0e0e;stroke-width:1;stroke-linecap:butt;stroke-linejoin:miter;stroke-miterlimit:10;stroke-dasharray:none;stroke-opacity:1"
             d="m 0,0 c -20.513,0 -37.143,16.629 -37.143,37.143 0,20.512 16.63,37.142 37.143,37.142 20.513,0 37.142,-16.63 37.142,-37.142 C 37.142,16.629 20.513,0 0,0 Z" /></g><g
           transform="translate(119.936,791.2642)"
           id="g432"><path
             id="path434"
             style="fill:none;stroke:#aa0e0e;stroke-width:1;stroke-linecap:butt;stroke-linejoin:miter;stroke-miterlimit:10;stroke-dasharray:none;stroke-opacity:1"
             d="m 0,0 c -19.324,0 -34.99,15.666 -34.99,34.99 0,19.323 15.666,34.989 34.99,34.989 19.324,0 34.989,-15.666 34.989,-34.989 C 34.989,15.666 19.324,0 0,0 Z" /></g><g
           transform="translate(119.936,793.417)"
           id="g436"><path
             id="path438"
             style="fill:none;stroke:#aa0e0e;stroke-width:1;stroke-linecap:butt;stroke-linejoin:miter;stroke-miterlimit:10;stroke-dasharray:none;stroke-opacity:1"
             d="m 0,0 c -18.135,0 -32.837,14.702 -32.837,32.837 0,18.135 14.702,32.836 32.837,32.836 18.135,0 32.836,-14.701 32.836,-32.836 C 32.836,14.702 18.135,0 0,0 Z" /></g><g
           transform="translate(119.936,795.5698)"
           id="g440"><path
             id="path442"
             style="fill:none;stroke:#aa0e0e;stroke-width:1;stroke-linecap:butt;stroke-linejoin:miter;stroke-miterlimit:10;stroke-dasharray:none;stroke-opacity:1"
             d="m 0,0 c -16.946,0 -30.684,13.738 -30.684,30.684 0,16.946 13.738,30.684 30.684,30.684 16.946,0 30.684,-13.738 30.684,-30.684 C 30.684,13.738 16.946,0 0,0 Z" /></g><g
           transform="translate(119.936,797.7231)"
           id="g444"><path
             id="path446"
             style="fill:none;stroke:#aa0e0e;stroke-width:1;stroke-linecap:butt;stroke-linejoin:miter;stroke-miterlimit:10;stroke-dasharray:none;stroke-opacity:1"
             d="m 0,0 c -15.757,0 -28.531,12.774 -28.531,28.531 0,15.756 12.774,28.53 28.531,28.53 15.757,0 28.53,-12.774 28.53,-28.53 C 28.53,12.774 15.757,0 0,0 Z" /></g><g
           transform="translate(119.936,799.876)"
           id="g448"><path
             id="path450"
             style="fill:none;stroke:#aa0e0e;stroke-width:1;stroke-linecap:butt;stroke-linejoin:miter;stroke-miterlimit:10;stroke-dasharray:none;stroke-opacity:1"
             d="m 0,0 c -14.568,0 -26.378,11.81 -26.378,26.378 0,14.567 11.81,26.377 26.378,26.377 14.568,0 26.377,-11.81 26.377,-26.377 C 26.377,11.81 14.568,0 0,0 Z" /></g><g
           transform="translate(119.936,802.0288)"
           id="g452"><path
             id="path454"
             style="fill:none;stroke:#aa0e0e;stroke-width:1;stroke-linecap:butt;stroke-linejoin:miter;stroke-miterlimit:10;stroke-dasharray:none;stroke-opacity:1"
             d="M 0,0 C -13.379,0 -24.225,10.846 -24.225,24.225 -24.225,37.604 -13.379,48.45 0,48.45 13.379,48.45 24.225,37.604 24.225,24.225 24.225,10.846 13.379,0 0,0 Z" /></g><g
           transform="translate(119.936,804.1816)"
           id="g456"><path
             id="path458"
             style="fill:none;stroke:#aa0e0e;stroke-width:1;stroke-linecap:butt;stroke-linejoin:miter;stroke-miterlimit:10;stroke-dasharray:none;stroke-opacity:1"
             d="m 0,0 c -12.19,0 -22.072,9.882 -22.072,22.072 0,12.19 9.882,22.072 22.072,22.072 12.189,0 22.072,-9.882 22.072,-22.072 C 22.072,9.882 12.189,0 0,0 Z" /></g><g
           transform="translate(119.936,806.3345)"
           id="g460"><path
             id="path462"
             style="fill:none;stroke:#aa0e0e;stroke-width:1;stroke-linecap:butt;stroke-linejoin:miter;stroke-miterlimit:10;stroke-dasharray:none;stroke-opacity:1"
             d="m 0,0 c -11.001,0 -19.919,8.918 -19.919,19.919 0,11.001 8.918,19.919 19.919,19.919 11,0 19.919,-8.918 19.919,-19.919 C 19.919,8.918 11,0 0,0 Z" /></g><g
           transform="translate(119.936,808.4873)"
           id="g464"><path
             id="path466"
             style="fill:none;stroke:#aa0e0e;stroke-width:1;stroke-linecap:butt;stroke-linejoin:miter;stroke-miterlimit:10;stroke-dasharray:none;stroke-opacity:1"
             d="m 0,0 c -9.812,0 -17.767,7.955 -17.767,17.767 0,9.811 7.955,17.766 17.767,17.766 9.812,0 17.766,-7.955 17.766,-17.766 C 17.766,7.955 9.812,0 0,0 Z" /></g><g
           transform="translate(119.936,810.6401)"
           id="g468"><path
             id="path470"
             style="fill:none;stroke:#aa0e0e;stroke-width:1;stroke-linecap:butt;stroke-linejoin:miter;stroke-miterlimit:10;stroke-dasharray:none;stroke-opacity:1"
             d="m 0,0 c -8.623,0 -15.614,6.991 -15.614,15.614 0,8.622 6.991,15.613 15.614,15.613 8.623,0 15.613,-6.991 15.613,-15.613 C 15.613,6.991 8.623,0 0,0 Z" /></g><g
           transform="translate(119.936,812.7935)"
           id="g472"><path
             id="path474"
             style="fill:none;stroke:#aa0e0e;stroke-width:1;stroke-linecap:butt;stroke-linejoin:miter;stroke-miterlimit:10;stroke-dasharray:none;stroke-opacity:1"
             d="m 0,0 c -7.434,0 -13.46,6.027 -13.46,13.46 0,7.434 6.026,13.46 13.46,13.46 7.434,0 13.46,-6.026 13.46,-13.46 C 13.46,6.027 7.434,0 0,0 Z" /></g><g
           transform="translate(119.936,814.9463)"
           id="g476"><path
             id="path478"
             style="fill:none;stroke:#aa0e0e;stroke-width:1;stroke-linecap:butt;stroke-linejoin:miter;stroke-miterlimit:10;stroke-dasharray:none;stroke-opacity:1"
             d="m 0,0 c -6.245,0 -11.308,5.063 -11.308,11.308 0,6.244 5.063,11.307 11.308,11.307 6.244,0 11.307,-5.063 11.307,-11.307 C 11.307,5.063 6.244,0 0,0 Z" /></g><g
           transform="translate(119.936,817.0991)"
           id="g480"><path
             id="path482"
             style="fill:none;stroke:#aa0e0e;stroke-width:1;stroke-linecap:butt;stroke-linejoin:miter;stroke-miterlimit:10;stroke-dasharray:none;stroke-opacity:1"
             d="m 0,0 c -5.056,0 -9.155,4.099 -9.155,9.155 0,5.055 4.099,9.154 9.155,9.154 5.055,0 9.154,-4.099 9.154,-9.154 C 9.154,4.099 5.055,0 0,0 Z" /></g><g
           transform="translate(126.9375,826.2539)"
           id="g484"><path
             id="path486"
             style="fill:none;stroke:#aa0e0e;stroke-width:1;stroke-linecap:butt;stroke-linejoin:miter;stroke-miterlimit:10;stroke-dasharray:none;stroke-opacity:1"
             d="m 0,0 c 0,-3.867 -3.135,-7.002 -7.001,-7.002 -3.867,0 -7.002,3.135 -7.002,7.002 0,3.866 3.135,7.001 7.002,7.001 C -3.135,7.001 0,3.866 0,0 Z" /></g><g
           transform="translate(68.2681,514.8472)"
           id="g488"><path
             id="path490"
             style="fill:none;stroke:#aa0e0e;stroke-width:1;stroke-linecap:butt;stroke-linejoin:miter;stroke-miterlimit:10;stroke-dasharray:none;stroke-opacity:1"
             d="m 0,0 c 0,-22.811 -18.491,-41.302 -41.3,-41.302 -22.81,0 -41.302,18.491 -41.302,41.302 0,22.809 18.492,41.3 41.302,41.3 C -18.491,41.3 0,22.809 0,0 Z" /></g><g
           transform="translate(26.9678,477.5186)"
           id="g492"><path
             id="path494"
             style="fill:none;stroke:#aa0e0e;stroke-width:1;stroke-linecap:butt;stroke-linejoin:miter;stroke-miterlimit:10;stroke-dasharray:none;stroke-opacity:1"
             d="m 0,0 c -20.615,0 -37.328,16.712 -37.328,37.329 0,20.614 16.713,37.326 37.328,37.326 20.615,0 37.327,-16.712 37.327,-37.326 C 37.327,16.712 20.615,0 0,0 Z" /></g><g
           transform="translate(26.9678,481.4922)"
           id="g496"><path
             id="path498"
             style="fill:none;stroke:#aa0e0e;stroke-width:1;stroke-linecap:butt;stroke-linejoin:miter;stroke-miterlimit:10;stroke-dasharray:none;stroke-opacity:1"
             d="m 0,0 c -18.421,0 -33.354,14.933 -33.354,33.355 0,18.42 14.933,33.353 33.354,33.353 18.42,0 33.353,-14.933 33.353,-33.353 C 33.353,14.933 18.42,0 0,0 Z" /></g><g
           transform="translate(26.9678,485.4658)"
           id="g500"><path
             id="path502"
             style="fill:none;stroke:#aa0e0e;stroke-width:1;stroke-linecap:butt;stroke-linejoin:miter;stroke-miterlimit:10;stroke-dasharray:none;stroke-opacity:1"
             d="m 0,0 c -16.226,0 -29.38,13.154 -29.38,29.381 0,16.226 13.154,29.38 29.38,29.38 16.226,0 29.379,-13.154 29.379,-29.38 C 29.379,13.154 16.226,0 0,0 Z" /></g><g
           transform="translate(26.9678,489.4395)"
           id="g504"><path
             id="path506"
             style="fill:none;stroke:#aa0e0e;stroke-width:1;stroke-linecap:butt;stroke-linejoin:miter;stroke-miterlimit:10;stroke-dasharray:none;stroke-opacity:1"
             d="m 0,0 c -14.032,0 -25.407,11.375 -25.407,25.408 0,14.03 11.375,25.405 25.407,25.405 14.031,0 25.406,-11.375 25.406,-25.405 C 25.406,11.375 14.031,0 0,0 Z" /></g><g
           transform="translate(26.9678,493.4136)"
           id="g508"><path
             id="path510"
             style="fill:none;stroke:#aa0e0e;stroke-width:1;stroke-linecap:butt;stroke-linejoin:miter;stroke-miterlimit:10;stroke-dasharray:none;stroke-opacity:1"
             d="m 0,0 c -11.837,0 -21.433,9.596 -21.433,21.434 0,11.836 9.596,21.432 21.433,21.432 11.836,0 21.433,-9.596 21.433,-21.432 C 21.433,9.596 11.836,0 0,0 Z" /></g><g
           transform="translate(26.9678,497.3872)"
           id="g512"><path
             id="path514"
             style="fill:none;stroke:#aa0e0e;stroke-width:1;stroke-linecap:butt;stroke-linejoin:miter;stroke-miterlimit:10;stroke-dasharray:none;stroke-opacity:1"
             d="m 0,0 c -9.643,0 -17.459,7.817 -17.459,17.46 0,9.642 7.816,17.458 17.459,17.458 9.642,0 17.459,-7.816 17.459,-17.458 C 17.459,7.817 9.642,0 0,0 Z" /></g><g
           transform="translate(26.9678,501.3608)"
           id="g516"><path
             id="path518"
             style="fill:none;stroke:#aa0e0e;stroke-width:1;stroke-linecap:butt;stroke-linejoin:miter;stroke-miterlimit:10;stroke-dasharray:none;stroke-opacity:1"
             d="m 0,0 c -7.448,0 -13.486,6.038 -13.486,13.486 0,7.448 6.038,13.485 13.486,13.485 7.447,0 13.485,-6.037 13.485,-13.485 C 13.485,6.038 7.447,0 0,0 Z" /></g><g
           transform="translate(26.9678,505.3345)"
           id="g520"><path
             id="path522"
             style="fill:none;stroke:#aa0e0e;stroke-width:1;stroke-linecap:butt;stroke-linejoin:miter;stroke-miterlimit:10;stroke-dasharray:none;stroke-opacity:1"
             d="m 0,0 c -5.253,0 -9.512,4.259 -9.512,9.513 0,5.252 4.259,9.511 9.512,9.511 5.253,0 9.512,-4.259 9.512,-9.511 C 9.512,4.259 5.253,0 0,0 Z" /></g><g
           transform="translate(32.5059,514.8472)"
           id="g524"><path
             id="path526"
             style="fill:none;stroke:#aa0e0e;stroke-width:1;stroke-linecap:butt;stroke-linejoin:miter;stroke-miterlimit:10;stroke-dasharray:none;stroke-opacity:1"
             d="m 0,0 c 0,-3.059 -2.48,-5.539 -5.538,-5.539 -3.059,0 -5.539,2.48 -5.539,5.539 0,3.058 2.48,5.538 5.539,5.538 C -2.48,5.538 0,3.058 0,0 Z" /></g><g
           transform="translate(112.9341,49.4434)"
           id="g528"><path
             id="path530"
             style="fill:none;stroke:#aa0e0e;stroke-width:1;stroke-linecap:butt;stroke-linejoin:miter;stroke-miterlimit:10;stroke-dasharray:none;stroke-opacity:1"
             d="m 0,0 c 0,-38.16 -30.932,-69.092 -69.089,-69.092 -38.158,0 -69.09,30.932 -69.09,69.092 0,38.156 30.932,69.088 69.09,69.088 C -30.932,69.088 0,38.156 0,0 Z" /></g><g
           transform="translate(43.8447,-16.7998)"
           id="g532"><path
             id="path534"
             style="fill:none;stroke:#aa0e0e;stroke-width:1;stroke-linecap:butt;stroke-linejoin:miter;stroke-miterlimit:10;stroke-dasharray:none;stroke-opacity:1"
             d="m 0,0 c -36.584,0 -66.241,29.656 -66.241,66.243 0,36.583 29.657,66.239 66.241,66.239 36.584,0 66.241,-29.656 66.241,-66.239 C 66.241,29.656 36.584,0 0,0 Z" /></g><g
           transform="translate(43.8447,-13.9512)"
           id="g536"><path
             id="path538"
             style="fill:none;stroke:#aa0e0e;stroke-width:1;stroke-linecap:butt;stroke-linejoin:miter;stroke-miterlimit:10;stroke-dasharray:none;stroke-opacity:1"
             d="m 0,0 c -35.011,0 -63.392,28.382 -63.392,63.395 0,35.009 28.381,63.39 63.392,63.39 35.011,0 63.392,-28.381 63.392,-63.39 C 63.392,28.382 35.011,0 0,0 Z" /></g><g
           transform="translate(43.8447,-11.1016)"
           id="g540"><path
             id="path542"
             style="fill:none;stroke:#aa0e0e;stroke-width:1;stroke-linecap:butt;stroke-linejoin:miter;stroke-miterlimit:10;stroke-dasharray:none;stroke-opacity:1"
             d="m 0,0 c -33.438,0 -60.543,27.105 -60.543,60.545 0,33.436 27.105,60.541 60.543,60.541 33.437,0 60.543,-27.105 60.543,-60.541 C 60.543,27.105 33.437,0 0,0 Z" /></g><g
           transform="translate(43.8447,-8.2529)"
           id="g544"><path
             id="path546"
             style="fill:none;stroke:#aa0e0e;stroke-width:1;stroke-linecap:butt;stroke-linejoin:miter;stroke-miterlimit:10;stroke-dasharray:none;stroke-opacity:1"
             d="m 0,0 c -31.864,0 -57.694,25.83 -57.694,57.696 0,31.863 25.83,57.693 57.694,57.693 31.864,0 57.694,-25.83 57.694,-57.693 C 57.694,25.83 31.864,0 0,0 Z" /></g><g
           transform="translate(43.8447,-5.4043)"
           id="g548"><path
             id="path550"
             style="fill:none;stroke:#aa0e0e;stroke-width:1;stroke-linecap:butt;stroke-linejoin:miter;stroke-miterlimit:10;stroke-dasharray:none;stroke-opacity:1"
             d="m 0,0 c -30.291,0 -54.846,24.555 -54.846,54.848 0,30.289 24.555,54.843 54.846,54.843 30.291,0 54.845,-24.554 54.845,-54.843 C 54.845,24.555 30.291,0 0,0 Z" /></g><g
           transform="translate(43.8447,-2.5557)"
           id="g552"><path
             id="path554"
             style="fill:none;stroke:#aa0e0e;stroke-width:1;stroke-linecap:butt;stroke-linejoin:miter;stroke-miterlimit:10;stroke-dasharray:none;stroke-opacity:1"
             d="m 0,0 c -28.717,0 -51.997,23.28 -51.997,51.999 0,28.716 23.28,51.995 51.997,51.995 28.717,0 51.997,-23.279 51.997,-51.995 C 51.997,23.28 28.717,0 0,0 Z" /></g><g
           transform="translate(43.8447,0.2939)"
           id="g556"><path
             id="path558"
             style="fill:none;stroke:#aa0e0e;stroke-width:1;stroke-linecap:butt;stroke-linejoin:miter;stroke-miterlimit:10;stroke-dasharray:none;stroke-opacity:1"
             d="m 0,0 c -27.144,0 -49.148,22.004 -49.148,49.149 0,27.143 22.004,49.146 49.148,49.146 27.144,0 49.148,-22.003 49.148,-49.146 C 49.148,22.004 27.144,0 0,0 Z" /></g><g
           transform="translate(43.8447,3.1426)"
           id="g560"><path
             id="path562"
             style="fill:none;stroke:#aa0e0e;stroke-width:1;stroke-linecap:butt;stroke-linejoin:miter;stroke-miterlimit:10;stroke-dasharray:none;stroke-opacity:1"
             d="m 0,0 c -25.571,0 -46.299,20.729 -46.299,46.301 0,25.569 20.728,46.297 46.299,46.297 25.57,0 46.299,-20.728 46.299,-46.297 C 46.299,20.729 25.57,0 0,0 Z" /></g><g
           transform="translate(43.8447,5.9912)"
           id="g564"><path
             id="path566"
             style="fill:none;stroke:#aa0e0e;stroke-width:1;stroke-linecap:butt;stroke-linejoin:miter;stroke-miterlimit:10;stroke-dasharray:none;stroke-opacity:1"
             d="M 0,0 C -23.997,0 -43.451,19.454 -43.451,43.452 -43.451,67.448 -23.997,86.9 0,86.9 23.997,86.9 43.45,67.448 43.45,43.452 43.45,19.454 23.997,0 0,0 Z" /></g><g
           transform="translate(43.8447,8.8398)"
           id="g568"><path
             id="path570"
             style="fill:none;stroke:#aa0e0e;stroke-width:1;stroke-linecap:butt;stroke-linejoin:miter;stroke-miterlimit:10;stroke-dasharray:none;stroke-opacity:1"
             d="m 0,0 c -22.424,0 -40.602,18.179 -40.602,40.604 0,22.422 18.178,40.599 40.602,40.599 22.424,0 40.602,-18.177 40.602,-40.599 C 40.602,18.179 22.424,0 0,0 Z" /></g><g
           transform="translate(43.8447,11.6895)"
           id="g572"><path
             id="path574"
             style="fill:none;stroke:#aa0e0e;stroke-width:1;stroke-linecap:butt;stroke-linejoin:miter;stroke-miterlimit:10;stroke-dasharray:none;stroke-opacity:1"
             d="m 0,0 c -20.851,0 -37.753,16.902 -37.753,37.754 0,20.849 16.902,37.75 37.753,37.75 20.85,0 37.752,-16.901 37.752,-37.75 C 37.752,16.902 20.85,0 0,0 Z" /></g><g
           transform="translate(43.8447,14.5381)"
           id="g576"><path
             id="path578"
             style="fill:none;stroke:#aa0e0e;stroke-width:1;stroke-linecap:butt;stroke-linejoin:miter;stroke-miterlimit:10;stroke-dasharray:none;stroke-opacity:1"
             d="m 0,0 c -19.277,0 -34.904,15.627 -34.904,34.905 0,19.276 15.627,34.902 34.904,34.902 19.277,0 34.904,-15.626 34.904,-34.902 C 34.904,15.627 19.277,0 0,0 Z" /></g><g
           transform="translate(43.8447,17.3867)"
           id="g580"><path
             id="path582"
             style="fill:none;stroke:#aa0e0e;stroke-width:1;stroke-linecap:butt;stroke-linejoin:miter;stroke-miterlimit:10;stroke-dasharray:none;stroke-opacity:1"
             d="m 0,0 c -17.704,0 -32.055,14.353 -32.055,32.057 0,17.702 14.351,32.052 32.055,32.052 17.704,0 32.055,-14.35 32.055,-32.052 C 32.055,14.353 17.704,0 0,0 Z" /></g><g
           transform="translate(43.8447,20.2354)"
           id="g584"><path
             id="path586"
             style="fill:none;stroke:#aa0e0e;stroke-width:1;stroke-linecap:butt;stroke-linejoin:miter;stroke-miterlimit:10;stroke-dasharray:none;stroke-opacity:1"
             d="m 0,0 c -16.13,0 -29.207,13.077 -29.207,29.208 0,16.129 13.077,29.204 29.207,29.204 16.13,0 29.206,-13.075 29.206,-29.204 C 29.206,13.077 16.13,0 0,0 Z" /></g><g
           transform="translate(43.8447,23.085)"
           id="g588"><path
             id="path590"
             style="fill:none;stroke:#aa0e0e;stroke-width:1;stroke-linecap:butt;stroke-linejoin:miter;stroke-miterlimit:10;stroke-dasharray:none;stroke-opacity:1"
             d="m 0,0 c -14.557,0 -26.357,11.801 -26.357,26.358 0,14.556 11.8,26.355 26.357,26.355 14.557,0 26.357,-11.799 26.357,-26.355 C 26.357,11.801 14.557,0 0,0 Z" /></g><g
           transform="translate(43.8447,25.9336)"
           id="g592"><path
             id="path594"
             style="fill:none;stroke:#aa0e0e;stroke-width:1;stroke-linecap:butt;stroke-linejoin:miter;stroke-miterlimit:10;stroke-dasharray:none;stroke-opacity:1"
             d="m 0,0 c -12.983,0 -23.509,10.526 -23.509,23.51 0,12.982 10.526,23.506 23.509,23.506 12.983,0 23.509,-10.524 23.509,-23.506 C 23.509,10.526 12.983,0 0,0 Z" /></g><g
           transform="translate(43.8447,28.7822)"
           id="g596"><path
             id="path598"
             style="fill:none;stroke:#aa0e0e;stroke-width:1;stroke-linecap:butt;stroke-linejoin:miter;stroke-miterlimit:10;stroke-dasharray:none;stroke-opacity:1"
             d="m 0,0 c -11.41,0 -20.66,9.251 -20.66,20.661 0,11.409 9.25,20.657 20.66,20.657 11.41,0 20.66,-9.248 20.66,-20.657 C 20.66,9.251 11.41,0 0,0 Z" /></g><g
           transform="translate(43.8447,31.6309)"
           id="g600"><path
             id="path602"
             style="fill:none;stroke:#aa0e0e;stroke-width:1;stroke-linecap:butt;stroke-linejoin:miter;stroke-miterlimit:10;stroke-dasharray:none;stroke-opacity:1"
             d="m 0,0 c -9.837,0 -17.811,7.976 -17.811,17.812 0,9.835 7.974,17.809 17.811,17.809 9.837,0 17.811,-7.974 17.811,-17.809 C 17.811,7.976 9.837,0 0,0 Z" /></g><g
           transform="translate(43.8447,34.4805)"
           id="g604"><path
             id="path606"
             style="fill:none;stroke:#aa0e0e;stroke-width:1;stroke-linecap:butt;stroke-linejoin:miter;stroke-miterlimit:10;stroke-dasharray:none;stroke-opacity:1"
             d="m 0,0 c -8.264,0 -14.962,6.699 -14.962,14.963 0,8.262 6.698,14.959 14.962,14.959 8.263,0 14.962,-6.697 14.962,-14.959 C 14.962,6.699 8.263,0 0,0 Z" /></g><g
           transform="translate(43.8447,37.3291)"
           id="g608"><path
             id="path610"
             style="fill:none;stroke:#aa0e0e;stroke-width:1;stroke-linecap:butt;stroke-linejoin:miter;stroke-miterlimit:10;stroke-dasharray:none;stroke-opacity:1"
             d="m 0,0 c -6.69,0 -12.113,5.425 -12.113,12.114 0,6.689 5.423,12.111 12.113,12.111 6.69,0 12.113,-5.422 12.113,-12.111 C 12.113,5.425 6.69,0 0,0 Z" /></g><g
           transform="translate(53.1094,49.4434)"
           id="g612"><path
             id="path614"
             style="fill:none;stroke:#aa0e0e;stroke-width:1;stroke-linecap:butt;stroke-linejoin:miter;stroke-miterlimit:10;stroke-dasharray:none;stroke-opacity:1"
             d="m 0,0 c 0,-5.116 -4.148,-9.266 -9.265,-9.266 -5.116,0 -9.264,4.15 -9.264,9.266 0,5.115 4.148,9.262 9.264,9.262 C -4.148,9.262 0,5.115 0,0 Z" /></g><g
           transform="translate(161.1611,36.0811)"
           id="g616"><path
             id="path618"
             style="fill:none;stroke:#aa0e0e;stroke-width:1;stroke-linecap:butt;stroke-linejoin:miter;stroke-miterlimit:10;stroke-dasharray:none;stroke-opacity:1"
             d="m 0,0 c 0,-18.967 -15.375,-34.342 -34.34,-34.342 -18.966,0 -34.341,15.375 -34.341,34.342 0,18.966 15.375,34.34 34.341,34.34 C -15.375,34.34 0,18.966 0,0 Z" /></g><g
           transform="translate(126.8213,4.4424)"
           id="g620"><path
             id="path622"
             style="fill:none;stroke:#aa0e0e;stroke-width:1;stroke-linecap:butt;stroke-linejoin:miter;stroke-miterlimit:10;stroke-dasharray:none;stroke-opacity:1"
             d="m 0,0 c -17.473,0 -31.638,14.165 -31.638,31.639 0,17.472 14.165,31.636 31.638,31.636 17.472,0 31.637,-14.164 31.637,-31.636 C 31.637,14.165 17.472,0 0,0 Z" /></g><g
           transform="translate(126.8213,7.1455)"
           id="g624"><path
             id="path626"
             style="fill:none;stroke:#aa0e0e;stroke-width:1;stroke-linecap:butt;stroke-linejoin:miter;stroke-miterlimit:10;stroke-dasharray:none;stroke-opacity:1"
             d="m 0,0 c -15.98,0 -28.935,12.955 -28.935,28.936 0,15.979 12.955,28.933 28.935,28.933 15.979,0 28.934,-12.954 28.934,-28.933 C 28.934,12.955 15.979,0 0,0 Z" /></g><g
           transform="translate(126.8213,9.8496)"
           id="g628"><path
             id="path630"
             style="fill:none;stroke:#aa0e0e;stroke-width:1;stroke-linecap:butt;stroke-linejoin:miter;stroke-miterlimit:10;stroke-dasharray:none;stroke-opacity:1"
             d="m 0,0 c -14.487,0 -26.231,11.744 -26.231,26.231 0,14.488 11.744,26.231 26.231,26.231 14.486,0 26.23,-11.743 26.23,-26.231 C 26.23,11.744 14.486,0 0,0 Z" /></g><g
           transform="translate(126.8213,12.5527)"
           id="g632"><path
             id="path634"
             style="fill:none;stroke:#aa0e0e;stroke-width:1;stroke-linecap:butt;stroke-linejoin:miter;stroke-miterlimit:10;stroke-dasharray:none;stroke-opacity:1"
             d="m 0,0 c -12.994,0 -23.528,10.534 -23.528,23.528 0,12.994 10.534,23.528 23.528,23.528 12.993,0 23.527,-10.534 23.527,-23.528 C 23.527,10.534 12.993,0 0,0 Z" /></g><g
           transform="translate(126.8213,15.2559)"
           id="g636"><path
             id="path638"
             style="fill:none;stroke:#aa0e0e;stroke-width:1;stroke-linecap:butt;stroke-linejoin:miter;stroke-miterlimit:10;stroke-dasharray:none;stroke-opacity:1"
             d="m 0,0 c -11.501,0 -20.825,9.324 -20.825,20.825 0,11.501 9.324,20.824 20.825,20.824 11.5,0 20.824,-9.323 20.824,-20.824 C 20.824,9.324 11.5,0 0,0 Z" /></g><g
           transform="translate(126.8213,17.959)"
           id="g640"><path
             id="path642"
             style="fill:none;stroke:#aa0e0e;stroke-width:1;stroke-linecap:butt;stroke-linejoin:miter;stroke-miterlimit:10;stroke-dasharray:none;stroke-opacity:1"
             d="m 0,0 c -10.008,0 -18.122,8.113 -18.122,18.122 0,10.008 8.114,18.12 18.122,18.12 10.007,0 18.121,-8.112 18.121,-18.12 C 18.121,8.113 10.007,0 0,0 Z" /></g><g
           transform="translate(126.8213,20.6621)"
           id="g644"><path
             id="path646"
             style="fill:none;stroke:#aa0e0e;stroke-width:1;stroke-linecap:butt;stroke-linejoin:miter;stroke-miterlimit:10;stroke-dasharray:none;stroke-opacity:1"
             d="m 0,0 c -8.516,0 -15.418,6.903 -15.418,15.419 0,8.515 6.902,15.417 15.418,15.417 8.515,0 15.417,-6.902 15.417,-15.417 C 15.417,6.903 8.515,0 0,0 Z" /></g><g
           transform="translate(126.8213,23.3652)"
           id="g648"><path
             id="path650"
             style="fill:none;stroke:#aa0e0e;stroke-width:1;stroke-linecap:butt;stroke-linejoin:miter;stroke-miterlimit:10;stroke-dasharray:none;stroke-opacity:1"
             d="m 0,0 c -7.022,0 -12.715,5.693 -12.715,12.716 0,7.021 5.693,12.714 12.715,12.714 7.021,0 12.714,-5.693 12.714,-12.714 C 12.714,5.693 7.021,0 0,0 Z" /></g><g
           transform="translate(126.8213,26.0693)"
           id="g652"><path
             id="path654"
             style="fill:none;stroke:#aa0e0e;stroke-width:1;stroke-linecap:butt;stroke-linejoin:miter;stroke-miterlimit:10;stroke-dasharray:none;stroke-opacity:1"
             d="m 0,0 c -5.529,0 -10.012,4.482 -10.012,10.012 0,5.529 4.483,10.01 10.012,10.01 5.528,0 10.011,-4.481 10.011,-10.01 C 10.011,4.482 5.528,0 0,0 Z" /></g><g
           transform="translate(126.8213,28.7725)"
           id="g656"><path
             id="path658"
             style="fill:none;stroke:#aa0e0e;stroke-width:1;stroke-linecap:butt;stroke-linejoin:miter;stroke-miterlimit:10;stroke-dasharray:none;stroke-opacity:1"
             d="m 0,0 c -4.037,0 -7.309,3.272 -7.309,7.309 0,4.036 3.272,7.307 7.309,7.307 4.036,0 7.308,-3.271 7.308,-7.307 C 7.308,3.272 4.036,0 0,0 Z" /></g><g
           transform="translate(131.4258,36.0811)"
           id="g660"><path
             id="path662"
             style="fill:none;stroke:#aa0e0e;stroke-width:1;stroke-linecap:butt;stroke-linejoin:miter;stroke-miterlimit:10;stroke-dasharray:none;stroke-opacity:1"
             d="m 0,0 c 0,-2.543 -2.062,-4.605 -4.604,-4.605 -2.544,0 -4.606,2.062 -4.606,4.605 0,2.543 2.062,4.604 4.606,4.604 C -2.062,4.604 0,2.543 0,0 Z" /></g><g
           transform="translate(67.9302,127.7969)"
           id="g664"><path
             id="path666"
             style="fill:none;stroke:#aa0e0e;stroke-width:1;stroke-linecap:butt;stroke-linejoin:miter;stroke-miterlimit:10;stroke-dasharray:none;stroke-opacity:1"
             d="m 0,0 c 0,-38.16 -30.932,-69.092 -69.089,-69.092 -38.158,0 -69.09,30.932 -69.09,69.092 0,38.156 30.932,69.088 69.09,69.088 C -30.932,69.088 0,38.156 0,0 Z" /></g><g
           transform="translate(-1.1592,61.5537)"
           id="g668"><path
             id="path670"
             style="fill:none;stroke:#aa0e0e;stroke-width:1;stroke-linecap:butt;stroke-linejoin:miter;stroke-miterlimit:10;stroke-dasharray:none;stroke-opacity:1"
             d="m 0,0 c -36.584,0 -66.241,29.656 -66.241,66.243 0,36.583 29.657,66.239 66.241,66.239 36.584,0 66.241,-29.656 66.241,-66.239 C 66.241,29.656 36.584,0 0,0 Z" /></g><g
           transform="translate(-1.1592,64.4023)"
           id="g672"><path
             id="path674"
             style="fill:none;stroke:#aa0e0e;stroke-width:1;stroke-linecap:butt;stroke-linejoin:miter;stroke-miterlimit:10;stroke-dasharray:none;stroke-opacity:1"
             d="m 0,0 c -35.011,0 -63.392,28.382 -63.392,63.395 0,35.009 28.381,63.39 63.392,63.39 35.01,0 63.392,-28.381 63.392,-63.39 C 63.392,28.382 35.01,0 0,0 Z" /></g><g
           transform="translate(-1.1592,67.252)"
           id="g676"><path
             id="path678"
             style="fill:none;stroke:#aa0e0e;stroke-width:1;stroke-linecap:butt;stroke-linejoin:miter;stroke-miterlimit:10;stroke-dasharray:none;stroke-opacity:1"
             d="m 0,0 c -33.438,0 -60.543,27.105 -60.543,60.545 0,33.436 27.105,60.541 60.543,60.541 33.437,0 60.543,-27.105 60.543,-60.541 C 60.543,27.105 33.437,0 0,0 Z" /></g><g
           transform="translate(-1.1592,70.1006)"
           id="g680"><path
             id="path682"
             style="fill:none;stroke:#aa0e0e;stroke-width:1;stroke-linecap:butt;stroke-linejoin:miter;stroke-miterlimit:10;stroke-dasharray:none;stroke-opacity:1"
             d="m 0,0 c -31.864,0 -57.694,25.83 -57.694,57.696 0,31.863 25.83,57.693 57.694,57.693 31.864,0 57.694,-25.83 57.694,-57.693 C 57.694,25.83 31.864,0 0,0 Z" /></g><g
           transform="translate(-1.1592,72.9492)"
           id="g684"><path
             id="path686"
             style="fill:none;stroke:#aa0e0e;stroke-width:1;stroke-linecap:butt;stroke-linejoin:miter;stroke-miterlimit:10;stroke-dasharray:none;stroke-opacity:1"
             d="m 0,0 c -30.291,0 -54.846,24.555 -54.846,54.848 0,30.289 24.555,54.843 54.846,54.843 30.291,0 54.845,-24.554 54.845,-54.843 C 54.845,24.555 30.291,0 0,0 Z" /></g><g
           transform="translate(-1.1592,75.7979)"
           id="g688"><path
             id="path690"
             style="fill:none;stroke:#aa0e0e;stroke-width:1;stroke-linecap:butt;stroke-linejoin:miter;stroke-miterlimit:10;stroke-dasharray:none;stroke-opacity:1"
             d="m 0,0 c -28.717,0 -51.997,23.28 -51.997,51.999 0,28.716 23.28,51.995 51.997,51.995 28.717,0 51.997,-23.279 51.997,-51.995 C 51.997,23.28 28.717,0 0,0 Z" /></g><g
           transform="translate(-1.1592,78.6475)"
           id="g692"><path
             id="path694"
             style="fill:none;stroke:#aa0e0e;stroke-width:1;stroke-linecap:butt;stroke-linejoin:miter;stroke-miterlimit:10;stroke-dasharray:none;stroke-opacity:1"
             d="m 0,0 c -27.144,0 -49.148,22.004 -49.148,49.149 0,27.143 22.004,49.147 49.148,49.147 27.144,0 49.148,-22.004 49.148,-49.147 C 49.148,22.004 27.144,0 0,0 Z" /></g><g
           transform="translate(-1.1592,81.4961)"
           id="g696"><path
             id="path698"
             style="fill:none;stroke:#aa0e0e;stroke-width:1;stroke-linecap:butt;stroke-linejoin:miter;stroke-miterlimit:10;stroke-dasharray:none;stroke-opacity:1"
             d="m 0,0 c -25.571,0 -46.299,20.729 -46.299,46.301 0,25.569 20.728,46.297 46.299,46.297 25.57,0 46.299,-20.728 46.299,-46.297 C 46.299,20.729 25.57,0 0,0 Z" /></g><g
           transform="translate(-1.1592,84.3447)"
           id="g700"><path
             id="path702"
             style="fill:none;stroke:#aa0e0e;stroke-width:1;stroke-linecap:butt;stroke-linejoin:miter;stroke-miterlimit:10;stroke-dasharray:none;stroke-opacity:1"
             d="M 0,0 C -23.997,0 -43.451,19.454 -43.451,43.452 -43.451,67.448 -23.997,86.9 0,86.9 23.997,86.9 43.45,67.448 43.45,43.452 43.45,19.454 23.997,0 0,0 Z" /></g><g
           transform="translate(-1.1592,87.1934)"
           id="g704"><path
             id="path706"
             style="fill:none;stroke:#aa0e0e;stroke-width:1;stroke-linecap:butt;stroke-linejoin:miter;stroke-miterlimit:10;stroke-dasharray:none;stroke-opacity:1"
             d="m 0,0 c -22.424,0 -40.602,18.179 -40.602,40.604 0,22.422 18.178,40.599 40.602,40.599 22.423,0 40.602,-18.177 40.602,-40.599 C 40.602,18.179 22.423,0 0,0 Z" /></g><g
           transform="translate(-1.1592,90.043)"
           id="g708"><path
             id="path710"
             style="fill:none;stroke:#aa0e0e;stroke-width:1;stroke-linecap:butt;stroke-linejoin:miter;stroke-miterlimit:10;stroke-dasharray:none;stroke-opacity:1"
             d="m 0,0 c -20.851,0 -37.753,16.902 -37.753,37.754 0,20.849 16.902,37.751 37.753,37.751 20.85,0 37.752,-16.902 37.752,-37.751 C 37.752,16.902 20.85,0 0,0 Z" /></g><g
           transform="translate(-1.1592,92.8916)"
           id="g712"><path
             id="path714"
             style="fill:none;stroke:#aa0e0e;stroke-width:1;stroke-linecap:butt;stroke-linejoin:miter;stroke-miterlimit:10;stroke-dasharray:none;stroke-opacity:1"
             d="m 0,0 c -19.277,0 -34.904,15.627 -34.904,34.905 0,19.276 15.627,34.903 34.904,34.903 19.277,0 34.904,-15.627 34.904,-34.903 C 34.904,15.627 19.277,0 0,0 Z" /></g><g
           transform="translate(-1.1592,95.7402)"
           id="g716"><path
             id="path718"
             style="fill:none;stroke:#aa0e0e;stroke-width:1;stroke-linecap:butt;stroke-linejoin:miter;stroke-miterlimit:10;stroke-dasharray:none;stroke-opacity:1"
             d="M 0,0 C -17.704,0 -32.055,14.353 -32.055,32.057 -32.055,49.759 -17.704,64.11 0,64.11 17.703,64.11 32.055,49.759 32.055,32.057 32.055,14.353 17.703,0 0,0 Z" /></g><g
           transform="translate(-1.1592,98.5889)"
           id="g720"><path
             id="path722"
             style="fill:none;stroke:#aa0e0e;stroke-width:1;stroke-linecap:butt;stroke-linejoin:miter;stroke-miterlimit:10;stroke-dasharray:none;stroke-opacity:1"
             d="m 0,0 c -16.13,0 -29.207,13.077 -29.207,29.208 0,16.129 13.077,29.204 29.207,29.204 16.13,0 29.206,-13.075 29.206,-29.204 C 29.206,13.077 16.13,0 0,0 Z" /></g><g
           transform="translate(-1.1592,101.4385)"
           id="g724"><path
             id="path726"
             style="fill:none;stroke:#aa0e0e;stroke-width:1;stroke-linecap:butt;stroke-linejoin:miter;stroke-miterlimit:10;stroke-dasharray:none;stroke-opacity:1"
             d="m 0,0 c -14.557,0 -26.357,11.801 -26.357,26.358 0,14.556 11.8,26.356 26.357,26.356 14.557,0 26.357,-11.8 26.357,-26.356 C 26.357,11.801 14.557,0 0,0 Z" /></g><g
           transform="translate(-1.1592,104.2871)"
           id="g728"><path
             id="path730"
             style="fill:none;stroke:#aa0e0e;stroke-width:1;stroke-linecap:butt;stroke-linejoin:miter;stroke-miterlimit:10;stroke-dasharray:none;stroke-opacity:1"
             d="m 0,0 c -12.983,0 -23.509,10.526 -23.509,23.51 0,12.982 10.526,23.507 23.509,23.507 12.983,0 23.509,-10.525 23.509,-23.507 C 23.509,10.526 12.983,0 0,0 Z" /></g><g
           transform="translate(-1.1592,107.1357)"
           id="g732"><path
             id="path734"
             style="fill:none;stroke:#aa0e0e;stroke-width:1;stroke-linecap:butt;stroke-linejoin:miter;stroke-miterlimit:10;stroke-dasharray:none;stroke-opacity:1"
             d="m 0,0 c -11.41,0 -20.66,9.251 -20.66,20.661 0,11.409 9.25,20.658 20.66,20.658 11.41,0 20.66,-9.249 20.66,-20.658 C 20.66,9.251 11.41,0 0,0 Z" /></g><g
           transform="translate(-1.1592,109.9844)"
           id="g736"><path
             id="path738"
             style="fill:none;stroke:#aa0e0e;stroke-width:1;stroke-linecap:butt;stroke-linejoin:miter;stroke-miterlimit:10;stroke-dasharray:none;stroke-opacity:1"
             d="m 0,0 c -9.837,0 -17.811,7.976 -17.811,17.812 0,9.835 7.974,17.81 17.811,17.81 9.836,0 17.811,-7.975 17.811,-17.81 C 17.811,7.976 9.836,0 0,0 Z" /></g><g
           transform="translate(-1.1592,112.834)"
           id="g740"><path
             id="path742"
             style="fill:none;stroke:#aa0e0e;stroke-width:1;stroke-linecap:butt;stroke-linejoin:miter;stroke-miterlimit:10;stroke-dasharray:none;stroke-opacity:1"
             d="m 0,0 c -8.264,0 -14.962,6.699 -14.962,14.963 0,8.262 6.698,14.96 14.962,14.96 8.263,0 14.962,-6.698 14.962,-14.96 C 14.962,6.699 8.263,0 0,0 Z" /></g><g
           transform="translate(-1.1592,115.6826)"
           id="g744"><path
             id="path746"
             style="fill:none;stroke:#aa0e0e;stroke-width:1;stroke-linecap:butt;stroke-linejoin:miter;stroke-miterlimit:10;stroke-dasharray:none;stroke-opacity:1"
             d="m 0,0 c -6.69,0 -12.113,5.425 -12.113,12.114 0,6.689 5.423,12.112 12.113,12.112 6.689,0 12.113,-5.423 12.113,-12.112 C 12.113,5.425 6.689,0 0,0 Z" /></g><g
           transform="translate(8.1055,127.7969)"
           id="g748"><path
             id="path750"
             style="fill:none;stroke:#aa0e0e;stroke-width:1;stroke-linecap:butt;stroke-linejoin:miter;stroke-miterlimit:10;stroke-dasharray:none;stroke-opacity:1"
             d="m 0,0 c 0,-5.116 -4.148,-9.266 -9.265,-9.266 -5.116,0 -9.264,4.15 -9.264,9.266 0,5.115 4.148,9.263 9.264,9.263 C -4.148,9.263 0,5.115 0,0 Z" /></g></g></g><path
       id="path752"
       style="fill:#aa0e0e;fill-opacity:1;fill-rule:nonzero;stroke:none"
       d="m 360.193,734.742 h -1.016 v 53.645 h 1.016 z" /><g
       id="g754"><g
         clip-path="url(#clipPath760)"
         id="g756"><g
           transform="translate(376.8379,695.312)"
           id="g762"><path
             id="path764"
             style="fill:#aa0e0e;fill-opacity:1;fill-rule:nonzero;stroke:none"
             d="m 0,0 c 0,-7.913 -7.667,-14.326 -17.126,-14.326 -9.459,0 -17.126,6.413 -17.126,14.326 v 20.693 c 0,7.912 7.667,14.327 17.126,14.327 C -7.667,35.02 0,28.605 0,20.693 Z" /></g><path
           id="path766"
           style="fill:#aa0e0e;fill-opacity:1;fill-rule:nonzero;stroke:none"
           d="m 355.533,671.868 h -0.539 v 7.968 h 0.539 z" /><path
           id="path768"
           style="fill:#aa0e0e;fill-opacity:1;fill-rule:nonzero;stroke:none"
           d="m 356.521,671.868 h -0.539 v 7.968 h 0.539 z" /><path
           id="path770"
           style="fill:#aa0e0e;fill-opacity:1;fill-rule:nonzero;stroke:none"
           d="m 357.51,671.868 h -0.539 v 7.968 h 0.539 z" /><path
           id="path772"
           style="fill:#aa0e0e;fill-opacity:1;fill-rule:nonzero;stroke:none"
           d="m 358.499,671.868 h -0.539 v 7.968 h 0.539 z" /><path
           id="path774"
           style="fill:#aa0e0e;fill-opacity:1;fill-rule:nonzero;stroke:none"
           d="m 359.487,671.868 h -0.539 v 7.968 h 0.539 z" /><path
           id="path776"
           style="fill:#aa0e0e;fill-opacity:1;fill-rule:nonzero;stroke:none"
           d="m 360.476,671.868 h -0.539 v 7.968 h 0.539 z" /><path
           id="path778"
           style="fill:#aa0e0e;fill-opacity:1;fill-rule:nonzero;stroke:none"
           d="m 361.464,671.868 h -0.539 v 7.968 h 0.539 z" /><path
           id="path780"
           style="fill:#aa0e0e;fill-opacity:1;fill-rule:nonzero;stroke:none"
           d="m 362.453,671.868 h -0.539 v 7.968 h 0.539 z" /><path
           id="path782"
           style="fill:#aa0e0e;fill-opacity:1;fill-rule:nonzero;stroke:none"
           d="m 363.441,671.868 h -0.539 v 7.968 h 0.539 z" /><path
           id="path784"
           style="fill:#aa0e0e;fill-opacity:1;fill-rule:nonzero;stroke:none"
           d="m 364.43,671.868 h -0.539 v 7.968 h 0.539 z" /><g
           transform="translate(359.7119,730.062)"
           id="g786"><path
             id="path788"
             style="fill:#ffffff;fill-opacity:1;fill-rule:nonzero;stroke:none"
             d="m 0,0 c -6.934,0 -12.575,-10.948 -12.575,-24.404 0,-13.456 5.641,-24.403 12.575,-24.403 6.934,0 12.575,10.947 12.575,24.403 C 12.575,-10.948 6.934,0 0,0 m 0,-49.346 c -7.231,0 -13.114,11.189 -13.114,24.942 0,13.754 5.883,24.943 13.114,24.943 7.231,0 13.114,-11.189 13.114,-24.943 0,-13.753 -5.883,-24.942 -13.114,-24.942" /></g><g
           transform="translate(359.7119,730.062)"
           id="g790"><path
             id="path792"
             style="fill:#ffffff;fill-opacity:1;fill-rule:nonzero;stroke:none"
             d="m 0,0 c -4.856,0 -8.807,-10.948 -8.807,-24.405 0,-13.455 3.951,-24.402 8.807,-24.402 4.855,0 8.806,10.947 8.806,24.402 C 8.806,-10.948 4.855,0 0,0 m 0,-49.346 c -5.24,0 -9.345,10.956 -9.345,24.941 0,13.988 4.105,24.944 9.345,24.944 5.24,0 9.345,-10.956 9.345,-24.944 C 9.345,-38.39 5.24,-49.346 0,-49.346" /></g><g
           transform="translate(366.0874,680.7871)"
           id="g794"><path
             id="path796"
             style="fill:#ffe200;fill-opacity:1;fill-rule:nonzero;stroke:none"
             d="m 0,0 c 0,-0.898 -2.086,-1.625 -4.66,-1.625 h -3.433 c -2.573,0 -4.658,0.727 -4.658,1.625 0,0.898 2.085,1.626 4.658,1.626 H -4.66 C -2.086,1.626 0,0.898 0,0" /></g><g
           transform="translate(369.0254,730.936)"
           id="g798"><path
             id="path800"
             style="fill:#ffe200;fill-opacity:1;fill-rule:nonzero;stroke:none"
             d="m 0,0 c 0,-2.102 -4.17,-3.806 -9.313,-3.806 -5.145,0 -9.314,1.704 -9.314,3.806 0,2.102 4.169,3.806 9.314,3.806 C -4.17,3.806 0,2.102 0,0" /></g><g
           transform="translate(361.6152,743.8896)"
           id="g802"><path
             id="path804"
             style="fill:#ffe200;fill-opacity:1;fill-rule:nonzero;stroke:none"
             d="m 0,0 c 0,-1.101 -0.865,-1.993 -1.93,-1.993 -1.066,0 -1.93,0.892 -1.93,1.993 0,1.101 0.864,1.993 1.93,1.993 C -0.865,1.993 0,1.101 0,0" /></g><g
           transform="translate(361.6152,755.874)"
           id="g806"><path
             id="path808"
             style="fill:#ffe200;fill-opacity:1;fill-rule:nonzero;stroke:none"
             d="m 0,0 c 0,-1.101 -0.865,-1.993 -1.93,-1.993 -1.066,0 -1.93,0.892 -1.93,1.993 0,1.101 0.864,1.993 1.93,1.993 C -0.865,1.993 0,1.101 0,0" /></g><path
           id="path810"
           style="fill:#aa0e0e;fill-opacity:1;fill-rule:nonzero;stroke:none"
           d="m 435.27,706.197 h -1.557 v 82.189 h 1.557 z" /><g
           transform="translate(460.7715,645.7866)"
           id="g812"><path
             id="path814"
             style="fill:#aa0e0e;fill-opacity:1;fill-rule:nonzero;stroke:none"
             d="m 0,0 c 0,-12.123 -11.747,-21.949 -26.238,-21.949 -14.493,0 -26.24,9.826 -26.24,21.949 v 31.704 c 0,12.123 11.747,21.95 26.24,21.95 C -11.747,53.654 0,43.827 0,31.704 Z" /></g><path
           id="path816"
           style="fill:#aa0e0e;fill-opacity:1;fill-rule:nonzero;stroke:none"
           d="m 428.13,609.868 h -0.826 v 12.208 h 0.826 z" /><path
           id="path818"
           style="fill:#aa0e0e;fill-opacity:1;fill-rule:nonzero;stroke:none"
           d="m 429.645,609.868 h -0.826 v 12.208 h 0.826 z" /><path
           id="path820"
           style="fill:#aa0e0e;fill-opacity:1;fill-rule:nonzero;stroke:none"
           d="m 431.158,609.868 h -0.825 v 12.208 h 0.825 z" /><path
           id="path822"
           style="fill:#aa0e0e;fill-opacity:1;fill-rule:nonzero;stroke:none"
           d="m 432.674,609.868 h -0.826 v 12.208 h 0.826 z" /><path
           id="path824"
           style="fill:#aa0e0e;fill-opacity:1;fill-rule:nonzero;stroke:none"
           d="m 434.187,609.868 h -0.824 v 12.208 h 0.824 z" /><path
           id="path826"
           style="fill:#aa0e0e;fill-opacity:1;fill-rule:nonzero;stroke:none"
           d="m 435.703,609.868 h -0.826 v 12.208 h 0.826 z" /><path
           id="path828"
           style="fill:#aa0e0e;fill-opacity:1;fill-rule:nonzero;stroke:none"
           d="m 437.218,609.868 h -0.826 v 12.208 h 0.826 z" /><path
           id="path830"
           style="fill:#aa0e0e;fill-opacity:1;fill-rule:nonzero;stroke:none"
           d="m 438.732,609.868 h -0.826 v 12.208 h 0.826 z" /><path
           id="path832"
           style="fill:#aa0e0e;fill-opacity:1;fill-rule:nonzero;stroke:none"
           d="m 440.246,609.868 h -0.825 v 12.208 h 0.825 z" /><path
           id="path834"
           style="fill:#aa0e0e;fill-opacity:1;fill-rule:nonzero;stroke:none"
           d="m 441.762,609.868 h -0.826 v 12.208 h 0.826 z" /><g
           transform="translate(434.5332,699.0273)"
           id="g836"><path
             id="path838"
             style="fill:#ffffff;fill-opacity:1;fill-rule:nonzero;stroke:none"
             d="m 0,0 c -10.624,0 -19.267,-16.774 -19.267,-37.389 0,-20.616 8.643,-37.388 19.267,-37.388 10.623,0 19.266,16.772 19.266,37.388 C 19.266,-16.774 10.623,0 0,0 m 0,-75.603 c -11.08,0 -20.092,17.142 -20.092,38.214 0,21.072 9.012,38.214 20.092,38.214 11.079,0 20.092,-17.142 20.092,-38.214 0,-21.072 -9.013,-38.214 -20.092,-38.214" /></g><g
           transform="translate(434.5332,699.0273)"
           id="g840"><path
             id="path842"
             style="fill:#ffffff;fill-opacity:1;fill-rule:nonzero;stroke:none"
             d="m 0,0 c -7.44,0 -13.493,-16.774 -13.493,-37.391 0,-20.614 6.053,-37.386 13.493,-37.386 7.438,0 13.492,16.772 13.492,37.386 C 13.492,-16.774 7.438,0 0,0 m 0,-75.603 c -8.029,0 -14.318,16.785 -14.318,38.212 0,21.43 6.289,38.216 14.318,38.216 8.028,0 14.317,-16.786 14.317,-38.216 0,-21.427 -6.289,-38.212 -14.317,-38.212" /></g><g
           transform="translate(444.3008,623.5327)"
           id="g844"><path
             id="path846"
             style="fill:#ffe200;fill-opacity:1;fill-rule:nonzero;stroke:none"
             d="m 0,0 c 0,-1.375 -3.195,-2.489 -7.139,-2.489 h -5.259 c -3.943,0 -7.139,1.114 -7.139,2.489 0,1.377 3.196,2.491 7.139,2.491 h 5.259 C -3.195,2.491 0,1.377 0,0" /></g><g
           transform="translate(448.8018,700.3662)"
           id="g848"><path
             id="path850"
             style="fill:#ffe200;fill-opacity:1;fill-rule:nonzero;stroke:none"
             d="m 0,0 c 0,-3.22 -6.389,-5.831 -14.269,-5.831 -7.881,0 -14.27,2.611 -14.27,5.831 0,3.221 6.389,5.831 14.27,5.831 C -6.389,5.831 0,3.221 0,0" /></g><g
           transform="translate(437.4492,720.2129)"
           id="g852"><path
             id="path854"
             style="fill:#ffe200;fill-opacity:1;fill-rule:nonzero;stroke:none"
             d="m 0,0 c 0,-1.687 -1.325,-3.053 -2.957,-3.053 -1.634,0 -2.957,1.366 -2.957,3.053 0,1.686 1.323,3.053 2.957,3.053 C -1.325,3.053 0,1.686 0,0" /></g><g
           transform="translate(437.4492,738.5742)"
           id="g856"><path
             id="path858"
             style="fill:#ffe200;fill-opacity:1;fill-rule:nonzero;stroke:none"
             d="m 0,0 c 0,-1.687 -1.325,-3.053 -2.957,-3.053 -1.634,0 -2.957,1.366 -2.957,3.053 0,1.686 1.323,3.053 2.957,3.053 C -1.325,3.053 0,1.686 0,0" /></g><g
           transform="translate(205.3335,731.1655)"
           id="g860"><path
             id="path862"
             style="fill:#aa0e0e;fill-opacity:1;fill-rule:nonzero;stroke:none"
             d="m 0,0 c 0,0 11.667,-3.634 14.333,-8.243 0,0 4.334,7.094 11,8.243 0,0 -8,0.276 -11,-4.121 0,0 -7,5.306 -14.333,4.121" /></g><g
           transform="translate(243.3335,695.5952)"
           id="g864"><path
             id="path866"
             style="fill:#aa0e0e;fill-opacity:1;fill-rule:nonzero;stroke:none"
             d="m 0,0 c 0,0 11.5,0.354 15.5,-7.146 0,0 4,12.102 15,12.051 0,0 -11.5,1.5 -15.25,-6.026 0,0 -7.75,5.267 -15.25,1.121" /></g><g
           transform="translate(177.5605,684.0562)"
           id="g868"><path
             id="path870"
             style="fill:#aa0e0e;fill-opacity:1;fill-rule:nonzero;stroke:none"
             d="M 0,0 C 2.79,0 5.059,-2.14 5.059,-4.768 5.059,-7.396 2.79,-9.536 0,-9.536 h -14.119 c -3.712,0 -6.732,-2.889 -6.732,-6.441 0,-3.551 3.02,-6.44 6.732,-6.44 h 52.192 v 1.673 h -52.192 c -2.789,0 -5.058,2.139 -5.058,4.767 0,2.629 2.269,4.769 5.058,4.769 H 0 c 3.712,0 6.732,2.889 6.732,6.44 0,3.551 -3.02,6.44 -6.732,6.44 H -42.058 V 0 Z" /></g><g
           transform="translate(186.0215,684.0562)"
           id="g872"><path
             id="path874"
             style="fill:#aa0e0e;fill-opacity:1;fill-rule:nonzero;stroke:none"
             d="M 0,0 C 2.789,0 5.059,-2.14 5.059,-4.768 5.059,-7.396 2.789,-9.536 0,-9.536 h -14.119 c -3.712,0 -6.732,-2.889 -6.732,-6.441 0,-3.551 3.02,-6.44 6.732,-6.44 h 52.192 v 1.673 h -52.192 c -2.789,0 -5.058,2.139 -5.058,4.767 0,2.629 2.269,4.769 5.058,4.769 H 0 c 3.712,0 6.732,2.889 6.732,6.44 0,3.551 -3.02,6.44 -6.732,6.44 H -42.058 V 0 Z" /></g><g
           transform="translate(440.3711,341.0674)"
           id="g876"><path
             id="path878"
             style="fill:#aa0e0e;fill-opacity:1;fill-rule:nonzero;stroke:none"
             d="M 0,0 C 2.479,0 4.495,-1.901 4.495,-4.236 4.495,-6.572 2.479,-8.474 0,-8.474 h -12.545 c -3.299,0 -5.982,-2.568 -5.982,-5.723 0,-3.155 2.683,-5.723 5.982,-5.723 H 33.83 v 1.487 h -46.375 c -2.478,0 -4.495,1.901 -4.495,4.236 0,2.337 2.017,4.238 4.495,4.238 H 0 c 3.299,0 5.981,2.566 5.981,5.723 C 5.981,-1.08 3.299,1.485 0,1.485 H -37.371 V 0 Z" /></g><g
           transform="translate(447.8896,341.0674)"
           id="g880"><path
             id="path882"
             style="fill:#aa0e0e;fill-opacity:1;fill-rule:nonzero;stroke:none"
             d="M 0,0 C 2.479,0 4.495,-1.901 4.495,-4.236 4.495,-6.572 2.479,-8.474 0,-8.474 h -12.546 c -3.298,0 -5.981,-2.568 -5.981,-5.723 0,-3.155 2.683,-5.723 5.981,-5.723 H 33.83 v 1.487 h -46.376 c -2.478,0 -4.495,1.901 -4.495,4.236 0,2.337 2.017,4.238 4.495,4.238 H 0 c 3.298,0 5.981,2.566 5.981,5.723 C 5.981,-1.08 3.298,1.485 0,1.485 H -37.372 V 0 Z" /></g></g></g></g></svg>