<?xml version="1.0" encoding="UTF-8" standalone="no"?>
<svg
   xmlns:dc="http://purl.org/dc/elements/1.1/"
   xmlns:cc="http://creativecommons.org/ns#"
   xmlns:rdf="http://www.w3.org/1999/02/22-rdf-syntax-ns#"
   xmlns:svg="http://www.w3.org/2000/svg"
   xmlns="http://www.w3.org/2000/svg"
   viewBox="0 0 2666.6667 2666.6667"
   height="2666.6667"
   width="2666.6667"
   xml:space="preserve"
   id="svg2"
   version="1.1"><metadata
     id="metadata8"><rdf:RDF><cc:Work
         rdf:about=""><dc:format>image/svg+xml</dc:format><dc:type
           rdf:resource="http://purl.org/dc/dcmitype/StillImage" /></cc:Work></rdf:RDF></metadata><defs
     id="defs6"><clipPath
       id="clipPath18"
       clipPathUnits="userSpaceOnUse"><path
         id="path16"
         d="M 0,2000 H 2000 V 0 H 0 Z" /></clipPath></defs><g
     transform="matrix(1.3333333,0,0,-1.3333333,0,2666.6667)"
     id="g10"><g
       id="g12"><g
         clip-path="url(#clipPath18)"
         id="g14"><g
           transform="translate(1110.5754,405.631)"
           id="g20"><path
             id="path22"
             style="fill:#d57d69;fill-opacity:1;fill-rule:nonzero;stroke:none"
             d="m 0,0 c -0.831,-0.237 -1.303,-1.078 -1.059,-1.884 25.92,-85.366 52.352,-177.61 70.065,-273.737 0.135,-0.731 0.795,-1.248 1.54,-1.248 0.089,0 0.183,0.008 0.277,0.024 0.847,0.146 1.413,0.936 1.262,1.761 C 54.299,-178.561 26.645,-82.379 1.939,-1.027 1.695,-0.217 0.823,0.241 0,0" /></g><g
           transform="translate(1022.5735,702.8698)"
           id="g24"><path
             id="path26"
             style="fill:#d57d69;fill-opacity:1;fill-rule:nonzero;stroke:none"
             d="m 0,0 c -0.232,0.806 -1.091,1.288 -1.922,1.059 -0.831,-0.221 -1.324,-1.055 -1.092,-1.865 2.26,-7.968 4.541,-15.929 6.842,-23.885 0.196,-0.668 0.823,-1.107 1.507,-1.107 0.139,0 0.282,0.02 0.424,0.056 0.831,0.229 1.315,1.067 1.083,1.872 C 4.541,-15.921 2.261,-7.96 0,0" /></g><g
           transform="translate(993.1591,810.9323)"
           id="g28"><path
             id="path30"
             style="fill:#d57d69;fill-opacity:1;fill-rule:nonzero;stroke:none"
             d="M 0,0 C -0.208,0.81 -1.038,1.299 -1.898,1.098 -2.733,0.897 -3.242,0.071 -3.03,-0.743 c 3.197,-12.342 6.451,-24.672 9.759,-36.99 0.183,-0.683 0.818,-1.134 1.515,-1.134 0.13,0 0.26,0.016 0.395,0.048 0.835,0.213 1.336,1.043 1.12,1.853 C 6.452,-24.656 3.197,-12.334 0,0" /></g><g
           transform="translate(893.9528,1170.2733)"
           id="g32"><path
             id="path34"
             style="fill:#d57d69;fill-opacity:1;fill-rule:nonzero;stroke:none"
             d="m 0,0 c -0.228,0.804 -1.073,1.288 -1.924,1.057 -0.831,-0.224 -1.32,-1.059 -1.09,-1.867 5.676,-19.911 11.408,-39.811 17.206,-59.69 0.195,-0.668 0.821,-1.104 1.505,-1.104 0.139,0 0.285,0.017 0.428,0.057 0.83,0.227 1.311,1.067 1.079,1.872 C 11.404,-39.799 5.675,-19.907 0,0" /></g><g
           transform="translate(759.5633,1648.3962)"
           id="g36"><path
             id="path38"
             style="fill:#d57d69;fill-opacity:1;fill-rule:nonzero;stroke:none"
             d="m 0,0 c 17.998,-73.237 36.609,-148.967 59.082,-222.192 0.202,-0.66 0.826,-1.085 1.499,-1.085 0.147,0 0.298,0.02 0.446,0.064 0.829,0.239 1.3,1.084 1.053,1.886 -22.449,73.146 -41.05,148.835 -59.038,222.03 -21.299,86.674 -43.323,176.298 -71.9,262.381 -0.265,0.798 -1.148,1.236 -1.967,0.979 -0.823,-0.256 -1.275,-1.112 -1.01,-1.908 C -43.295,176.183 -21.285,86.618 0,0" /></g><g
           transform="translate(1363.4343,614.3046)"
           id="g40"><path
             id="path42"
             style="fill:#d57d69;fill-opacity:1;fill-rule:nonzero;stroke:none"
             d="M 0,0 -7.026,6.526 C -7.657,7.111 -8.647,7.087 -9.237,6.483 -9.836,5.878 -9.816,4.914 -9.192,4.338 l 7.025,-6.531 c 83.485,-77.579 169.81,-157.797 244.66,-244.233 0.31,-0.355 0.754,-0.541 1.198,-0.541 0.354,0 0.712,0.118 1.006,0.356 0.66,0.537 0.745,1.497 0.191,2.137 C 169.927,-157.912 83.542,-77.634 0,0" /></g><g
           transform="translate(1142.9629,822.8986)"
           id="g44"><path
             id="path46"
             style="fill:#d57d69;fill-opacity:1;fill-rule:nonzero;stroke:none"
             d="m 0,0 c -0.599,-0.601 -0.583,-1.565 0.037,-2.145 14.385,-13.5 28.721,-27.046 43.017,-40.633 0.305,-0.292 0.701,-0.434 1.096,-0.434 0.407,0 0.81,0.154 1.116,0.454 0.607,0.6 0.594,1.561 -0.021,2.145 C 30.942,-27.018 16.605,-13.472 2.211,0.036 1.588,0.616 0.599,0.604 0,0" /></g><g
           transform="translate(857.2953,1094.257)"
           id="g48"><path
             id="path50"
             style="fill:#d57d69;fill-opacity:1;fill-rule:nonzero;stroke:none"
             d="m 0,0 16.407,-15.866 c 0.306,-0.294 0.705,-0.442 1.104,-0.442 0.401,0 0.803,0.148 1.108,0.446 0.609,0.595 0.607,1.554 -0.004,2.145 L 2.207,2.149 C 1.599,2.74 0.605,2.74 -0.004,2.145 -0.613,1.552 -0.613,0.593 0,0" /></g><g
           transform="translate(769.3278,1181.8861)"
           id="g52"><path
             id="path54"
             style="fill:#d57d69;fill-opacity:1;fill-rule:nonzero;stroke:none"
             d="m 0,0 c -0.613,-0.59 -0.617,-1.551 -0.008,-2.145 12.929,-12.621 25.871,-25.225 38.824,-37.818 0.306,-0.298 0.707,-0.446 1.108,-0.446 0.399,0 0.8,0.148 1.104,0.442 0.613,0.593 0.613,1.553 0.004,2.145 C 28.078,-25.229 15.137,-12.624 2.212,-0.008 1.603,0.587 0.609,0.59 0,0" /></g><g
           transform="translate(554.1469,1386.0831)"
           id="g56"><path
             id="path58"
             style="fill:#d57d69;fill-opacity:1;fill-rule:nonzero;stroke:none"
             d="m 0,0 c 0.413,0 0.827,0.158 1.134,0.474 0.595,0.607 0.568,1.569 -0.059,2.143 -6.877,6.325 -13.701,12.702 -20.48,19.124 -0.617,0.58 -1.605,0.574 -2.214,-0.026 -0.602,-0.601 -0.59,-1.56 0.029,-2.147 C -14.801,13.138 -7.964,6.75 -1.075,0.417 -0.774,0.138 -0.387,0 0,0" /></g><g
           transform="translate(421.5413,1516.4135)"
           id="g60"><path
             id="path62"
             style="fill:#d57d69;fill-opacity:1;fill-rule:nonzero;stroke:none"
             d="m 0,0 c 9.52,-9.747 19.036,-19.491 28.579,-29.209 0.308,-0.313 0.719,-0.47 1.132,-0.47 0.387,0 0.776,0.138 1.08,0.418 0.625,0.577 0.649,1.539 0.052,2.145 -9.538,9.715 -19.054,19.46 -28.572,29.204 -50.936,52.152 -103.606,106.081 -159.55,155.066 -0.644,0.568 -1.632,0.514 -2.21,-0.108 -0.578,-0.623 -0.527,-1.582 0.112,-2.143 C -103.522,105.996 -50.894,52.111 0,0" /></g><g
           transform="translate(1853.6873,783.4711)"
           id="g64"><path
             id="path66"
             style="fill:#d57d69;fill-opacity:1;fill-rule:nonzero;stroke:none"
             d="m 0,0 c -25.37,10.359 -51.693,17.126 -76.358,22.898 -98.486,23.032 -200.531,49.747 -282.521,71.211 -0.815,0.205 -1.694,-0.265 -1.919,-1.071 -0.223,-0.81 0.269,-1.64 1.104,-1.861 82.011,-21.468 184.077,-48.186 282.603,-71.226 24.535,-5.745 50.711,-12.472 75.877,-22.748 0.2,-0.079 0.403,-0.119 0.607,-0.119 0.611,0 1.189,0.348 1.442,0.929 C 1.169,-1.213 0.794,-0.324 0,0" /></g><g
           transform="translate(1380.1167,904.4913)"
           id="g68"><path
             id="path70"
             style="fill:#d57d69;fill-opacity:1;fill-rule:nonzero;stroke:none"
             d="m 0,0 c 0.692,0 1.323,0.446 1.511,1.122 0.224,0.81 -0.273,1.644 -1.104,1.861 -65.08,16.952 -115.013,29.736 -161.904,41.462 -0.855,0.205 -1.69,-0.281 -1.906,-1.09 -0.216,-0.814 0.289,-1.64 1.124,-1.849 C -115.4,29.784 -65.475,16.999 -0.407,0.051 -0.269,0.016 -0.134,0 0,0" /></g><g
           transform="translate(859.8528,1041.6245)"
           id="g72"><path
             id="path74"
             style="fill:#d57d69;fill-opacity:1;fill-rule:nonzero;stroke:none"
             d="m 0,0 c -67.841,17.671 -141.297,37.173 -196.491,52.166 -0.839,0.225 -1.696,-0.247 -1.928,-1.053 -0.232,-0.806 0.253,-1.643 1.086,-1.87 55.203,-14.995 128.669,-34.499 196.523,-52.175 0.136,-0.035 0.272,-0.051 0.405,-0.051 0.69,0 1.323,0.446 1.511,1.124 C 1.33,-1.051 0.835,-0.217 0,0" /></g><g
           transform="translate(578.4678,1112.3823)"
           id="g76"><path
             id="path78"
             style="fill:#d57d69;fill-opacity:1;fill-rule:nonzero;stroke:none"
             d="M 0,0 C 0.693,0 1.326,0.451 1.511,1.132 1.729,1.942 1.23,2.771 0.395,2.985 l -30.982,7.874 c -0.814,0.197 -1.688,-0.273 -1.908,-1.085 -0.218,-0.81 0.281,-1.639 1.118,-1.851 L -0.399,0.05 C -0.266,0.016 -0.132,0 0,0" /></g><g
           transform="translate(16.8526,1257.7583)"
           id="g80"><path
             id="path82"
             style="fill:#d57d69;fill-opacity:1;fill-rule:nonzero;stroke:none"
             d="m 0,0 74.91,-19.652 c 117.518,-30.849 228.519,-59.987 344.094,-89.254 0.133,-0.033 0.265,-0.049 0.398,-0.049 0.694,0 1.328,0.453 1.511,1.134 0.218,0.81 -0.283,1.64 -1.118,1.851 -115.563,29.264 -226.557,58.398 -344.068,89.245 L 0.815,2.927 C -0.02,3.149 -0.878,2.667 -1.102,1.859 -1.328,1.051 -0.835,0.217 0,0" /></g><g
           transform="translate(1529.6636,1174.0992)"
           id="g84"><path
             id="path86"
             style="fill:#d57d69;fill-opacity:1;fill-rule:nonzero;stroke:none"
             d="m 0,0 c 0.183,-0.679 0.818,-1.13 1.511,-1.13 0.13,0 0.265,0.016 0.399,0.05 95.855,24.503 209.063,53.732 321.934,84.743 0.831,0.229 1.312,1.067 1.076,1.872 -0.228,0.802 -1.08,1.285 -1.931,1.048 C 210.143,55.58 96.954,26.353 1.112,1.855 0.277,1.642 -0.22,0.81 0,0" /></g><g
           transform="translate(1258.3018,1106.411)"
           id="g88"><path
             id="path90"
             style="fill:#d57d69;fill-opacity:1;fill-rule:nonzero;stroke:none"
             d="m 0,0 -25.276,-6.519 c -0.835,-0.215 -1.332,-1.047 -1.108,-1.856 0.187,-0.678 0.819,-1.127 1.511,-1.127 0.131,0 0.269,0.017 0.403,0.052 L 0.798,-2.931 C 1.633,-2.718 2.134,-1.886 1.91,-1.076 1.69,-0.271 0.847,0.223 0,0" /></g><g
           transform="translate(812.2372,988.1503)"
           id="g92"><path
             id="path94"
             style="fill:#d57d69;fill-opacity:1;fill-rule:nonzero;stroke:none"
             d="m 0,0 c -0.228,0.808 -1.088,1.282 -1.922,1.059 -14.787,-3.957 -29.567,-7.925 -44.347,-11.907 -0.832,-0.226 -1.32,-1.061 -1.088,-1.869 0.191,-0.67 0.821,-1.11 1.507,-1.11 0.138,0 0.279,0.017 0.42,0.055 14.776,3.982 29.556,7.951 44.339,11.907 C -0.259,-1.644 0.23,-0.808 0,0" /></g><g
           transform="translate(443.8115,892.9083)"
           id="g96"><path
             id="path98"
             style="fill:#d57d69;fill-opacity:1;fill-rule:nonzero;stroke:none"
             d="m 0,0 c -0.206,0.814 -1.059,1.288 -1.892,1.11 -12.909,-3.078 -26.748,-6.531 -43.553,-10.865 -0.835,-0.213 -1.332,-1.046 -1.11,-1.856 0.186,-0.68 0.819,-1.126 1.511,-1.126 0.133,0 0.267,0.016 0.402,0.051 16.786,4.33 30.607,7.775 43.496,10.849 C -0.307,-1.636 0.206,-0.814 0,0" /></g><g
           transform="translate(269.3426,849.7905)"
           id="g100"><path
             id="path102"
             style="fill:#d57d69;fill-opacity:1;fill-rule:nonzero;stroke:none"
             d="m 0,0 c -0.238,0.802 -1.093,1.264 -1.932,1.043 -36.352,-10.046 -73.462,-19.769 -109.35,-29.171 -46.39,-12.153 -94.36,-24.72 -141.242,-38.136 -0.829,-0.237 -1.304,-1.079 -1.06,-1.884 0.202,-0.66 0.825,-1.087 1.501,-1.087 0.147,0 0.296,0.02 0.442,0.063 46.85,13.405 94.802,25.968 141.175,38.116 35.896,9.403 73.016,19.129 109.389,29.183 C -0.246,-1.643 0.236,-0.806 0,0" /></g><g
           transform="translate(1357.6184,1419.4899)"
           id="g104"><path
             id="path106"
             style="fill:#d57d69;fill-opacity:1;fill-rule:nonzero;stroke:none"
             d="m 0,0 c 0.407,0 0.81,0.152 1.116,0.454 78.463,77.625 160.087,159.875 249.527,251.455 0.595,0.609 0.566,1.569 -0.061,2.145 -0.623,0.569 -1.609,0.548 -2.212,-0.059 C 158.943,162.429 77.335,80.191 -1.116,2.58 -1.723,1.981 -1.711,1.021 -1.096,0.435 -0.79,0.144 -0.395,0 0,0" /></g><g
           transform="translate(1168.2062,1236.7803)"
           id="g108"><path
             id="path110"
             style="fill:#d57d69;fill-opacity:1;fill-rule:nonzero;stroke:none"
             d="m 0,0 c 0.31,-0.302 0.713,-0.452 1.116,-0.452 0.395,0 0.795,0.144 1.096,0.436 13.627,13.016 27.227,26.057 40.801,39.128 0.611,0.59 0.616,1.55 0.009,2.145 -0.615,0.592 -1.601,0.6 -2.216,0.008 C 27.239,28.198 13.64,15.157 0.021,2.145 -0.599,1.559 -0.603,0.597 0,0" /></g><g
           transform="translate(1084.0653,1159.2727)"
           id="g112"><path
             id="path114"
             style="fill:#d57d69;fill-opacity:1;fill-rule:nonzero;stroke:none"
             d="m 0,0 c -5.498,-5.157 -11.005,-10.307 -16.511,-15.453 -0.624,-0.581 -0.644,-1.541 -0.045,-2.145 0.309,-0.308 0.717,-0.464 1.128,-0.464 0.391,0 0.782,0.14 1.083,0.424 5.515,5.146 11.022,10.3 16.52,15.457 0.619,0.583 0.635,1.543 0.037,2.145 C 1.613,0.569 0.623,0.581 0,0" /></g><g
           transform="translate(682.6027,780.113)"
           id="g116"><path
             id="path118"
             style="fill:#d57d69;fill-opacity:1;fill-rule:nonzero;stroke:none"
             d="m 0,0 c -40.205,-39.127 -79.82,-78.531 -116.638,-115.284 -0.601,-0.6 -0.587,-1.564 0.032,-2.145 0.304,-0.288 0.697,-0.431 1.09,-0.431 0.407,0 0.814,0.155 1.122,0.459 36.81,36.749 76.417,76.144 116.61,115.26 0.608,0.592 0.608,1.553 -0.005,2.145 C 1.599,0.601 0.609,0.589 0,0" /></g><g
           transform="translate(504.8777,603.8196)"
           id="g120"><path
             id="path122"
             style="fill:#d57d69;fill-opacity:1;fill-rule:nonzero;stroke:none"
             d="m 0,0 c -75.997,-75.821 -157.342,-156.335 -242.734,-233.859 -0.629,-0.573 -0.663,-1.533 -0.073,-2.141 0.307,-0.32 0.725,-0.482 1.143,-0.482 0.382,0 0.767,0.134 1.069,0.411 85.44,77.567 166.813,158.109 242.839,233.953 0.601,0.601 0.587,1.561 -0.032,2.145 C 1.595,0.612 0.605,0.596 0,0" /></g><g
           transform="translate(1077.0232,1523.3563)"
           id="g124"><path
             id="path126"
             style="fill:#d57d69;fill-opacity:1;fill-rule:nonzero;stroke:none"
             d="m 0,0 c 0.13,-0.031 0.261,-0.047 0.387,-0.047 0.701,0 1.336,0.456 1.515,1.141 12.101,46.043 25.741,92.515 38.933,137.459 15.578,53.085 31.69,107.978 45.379,162.542 7.722,30.777 14.076,58.999 19.42,86.282 0.163,0.822 -0.395,1.616 -1.243,1.772 -0.9,0.182 -1.666,-0.385 -1.828,-1.207 C 97.227,360.712 90.886,332.538 83.176,301.814 69.499,247.305 53.399,192.44 37.825,139.383 24.629,94.421 10.985,47.927 -1.128,1.845 -1.34,1.033 -0.835,0.208 0,0" /></g><g
           transform="translate(971.6913,1156.1853)"
           id="g128"><path
             id="path130"
             style="fill:#d57d69;fill-opacity:1;fill-rule:nonzero;stroke:none"
             d="m 0,0 c -0.851,0.229 -1.694,-0.257 -1.922,-1.061 -3.246,-11.455 -6.489,-22.91 -9.718,-34.366 -0.228,-0.81 0.261,-1.644 1.095,-1.865 0.139,-0.036 0.277,-0.054 0.412,-0.054 0.688,0 1.32,0.443 1.507,1.117 3.23,11.456 6.471,22.911 9.717,34.362 C 1.32,-1.059 0.831,-0.223 0,0" /></g><g
           transform="translate(909.1974,926.5836)"
           id="g132"><path
             id="path134"
             style="fill:#d57d69;fill-opacity:1;fill-rule:nonzero;stroke:none"
             d="m 0,0 c -0.857,0.253 -1.696,-0.253 -1.924,-1.059 -11.95,-42.169 -24.523,-87.349 -38.44,-138.115 -0.222,-0.81 0.275,-1.643 1.11,-1.857 0.134,-0.035 0.269,-0.051 0.401,-0.051 0.693,0 1.326,0.446 1.511,1.126 13.915,50.762 26.486,95.93 38.433,138.091 C 1.32,-1.055 0.831,-0.221 0,0" /></g><g
           transform="translate(840.5536,677.3408)"
           id="g136"><path
             id="path138"
             style="fill:#d57d69;fill-opacity:1;fill-rule:nonzero;stroke:none"
             d="M 0,0 C -0.831,0.209 -1.694,-0.245 -1.928,-1.055 -23.154,-74.75 -42.893,-150.152 -61.982,-223.069 l -6.719,-25.648 c -0.214,-0.814 0.294,-1.64 1.131,-1.845 0.128,-0.031 0.258,-0.047 0.387,-0.047 0.696,0 1.334,0.458 1.513,1.142 l 6.718,25.651 c 19.085,72.901 38.82,148.284 60.037,221.948 C 1.318,-1.063 0.831,-0.225 0,0" /></g><g
           transform="translate(746.9395,328.6134)"
           id="g140"><path
             id="path142"
             style="fill:#d57d69;fill-opacity:1;fill-rule:nonzero;stroke:none"
             d="m 0,0 c -0.815,0.209 -1.688,-0.269 -1.91,-1.082 -21.014,-77.714 -39.224,-140.248 -57.307,-196.802 -0.255,-0.802 0.206,-1.651 1.03,-1.9 0.155,-0.048 0.312,-0.068 0.465,-0.068 0.667,0 1.284,0.419 1.494,1.067 C -38.132,-142.188 -19.91,-79.61 1.116,-1.849 1.334,-1.039 0.835,-0.209 0,0" /></g><g
           transform="translate(1264.1669,466.2342)"
           id="g144"><path
             id="path146"
             style="fill:#d57d69;fill-opacity:1;fill-rule:nonzero;stroke:none"
             d="m 0,0 c -0.399,0.743 -1.348,1.031 -2.11,0.64 -0.765,-0.387 -1.063,-1.304 -0.66,-2.046 17.872,-33.103 39.165,-71.298 65.712,-105.68 0.305,-0.4 0.773,-0.609 1.25,-0.609 0.326,0 0.656,0.099 0.937,0.304 0.692,0.502 0.831,1.45 0.313,2.122 C 39.038,-71.065 17.818,-32.996 0,0" /></g><g
           transform="translate(1136.5562,688.9874)"
           id="g148"><path
             id="path150"
             style="fill:#d57d69;fill-opacity:1;fill-rule:nonzero;stroke:none"
             d="M 0,0 C -0.436,0.731 -1.397,0.964 -2.138,0.549 -2.883,0.126 -3.14,-0.802 -2.704,-1.525 26.991,-50.999 51.342,-92.52 73.935,-132.2 c 0.284,-0.498 0.818,-0.783 1.368,-0.783 0.256,0 0.517,0.059 0.758,0.19 0.753,0.403 1.03,1.327 0.611,2.062 C 54.071,-91.035 29.707,-49.494 0,0" /></g><g
           transform="translate(1063.2084,809.9048)"
           id="g152"><path
             id="path154"
             style="fill:#d57d69;fill-opacity:1;fill-rule:nonzero;stroke:none"
             d="M 0,0 -4.305,7.06 C -4.749,7.787 -5.71,8.016 -6.447,7.597 -7.193,7.171 -7.437,6.238 -7.001,5.515 l 4.309,-7.06 c 11.322,-18.564 22.641,-37.128 33.931,-55.708 0.293,-0.478 0.814,-0.746 1.348,-0.746 0.273,0 0.545,0.067 0.794,0.209 0.745,0.426 0.99,1.355 0.554,2.078 C 22.641,-37.128 11.322,-18.564 0,0" /></g><g
           transform="translate(903.2289,1069.9191)"
           id="g156"><path
             id="path158"
             style="fill:#d57d69;fill-opacity:1;fill-rule:nonzero;stroke:none"
             d="m 0,0 c 0.295,-0.468 0.808,-0.725 1.336,-0.725 0.277,0 0.56,0.071 0.814,0.223 0.738,0.439 0.967,1.371 0.517,2.086 -4.838,7.666 -19.769,31.147 -24.644,38.789 -0.45,0.711 -1.413,0.933 -2.153,0.492 -0.735,-0.44 -0.961,-1.374 -0.507,-2.088 C -19.761,31.135 -4.839,7.662 0,0" /></g><g
           transform="translate(681.6599,1441.6667)"
           id="g160"><path
             id="path162"
             style="fill:#d57d69;fill-opacity:1;fill-rule:nonzero;stroke:none"
             d="m 0,0 c 0.279,-0.515 0.822,-0.81 1.385,-0.81 0.244,0 0.494,0.056 0.726,0.176 0.764,0.391 1.058,1.308 0.654,2.049 -3.026,5.566 -5.989,11.164 -8.887,16.795 -0.385,0.748 -1.321,1.054 -2.097,0.68 C -8.991,18.517 -9.307,17.606 -8.92,16.856 -6.014,11.204 -3.039,5.586 0,0" /></g><g
           transform="translate(588.7884,1600.825)"
           id="g164"><path
             id="path166"
             style="fill:#d57d69;fill-opacity:1;fill-rule:nonzero;stroke:none"
             d="m 0,0 c 11.054,-20.083 22.484,-40.848 35.338,-60.631 0.298,-0.458 0.807,-0.709 1.326,-0.709 0.285,0 0.572,0.075 0.831,0.233 0.731,0.447 0.951,1.385 0.491,2.092 -12.795,19.692 -24.197,40.409 -35.227,60.443 -14.507,26.358 -29.511,53.614 -48.283,79.853 -0.491,0.685 -1.462,0.857 -2.177,0.381 C -48.41,81.184 -48.587,80.24 -48.094,79.55 -29.424,53.458 -14.467,26.281 0,0" /></g><g
           transform="translate(1616.9774,640.5645)"
           id="g168"><path
             id="path170"
             style="fill:#d57d69;fill-opacity:1;fill-rule:nonzero;stroke:none"
             d="m 0,0 c -41.775,23.431 -83.624,46.74 -125.472,70.049 -62.287,34.691 -126.695,70.566 -189.791,106.268 -0.737,0.419 -1.702,0.182 -2.138,-0.549 -0.436,-0.723 -0.184,-1.651 0.566,-2.074 63.1,-35.706 127.517,-71.582 189.807,-106.276 41.844,-23.309 83.689,-46.614 125.464,-70.041 0.244,-0.139 0.513,-0.206 0.782,-0.206 0.537,0 1.063,0.273 1.352,0.759 C 1.006,-1.347 0.749,-0.419 0,0" /></g><g
           transform="translate(1194.9771,874.0476)"
           id="g172"><path
             id="path174"
             style="fill:#d57d69;fill-opacity:1;fill-rule:nonzero;stroke:none"
             d="m 0,0 c 0.538,0 1.063,0.273 1.352,0.755 0.436,0.727 0.18,1.655 -0.566,2.074 -13.33,7.502 -26.669,14.992 -40.008,22.475 -0.736,0.415 -1.702,0.178 -2.134,-0.553 -0.435,-0.723 -0.179,-1.652 0.571,-2.07 C -27.447,15.198 -14.116,7.708 -0.786,0.206 -0.538,0.067 -0.269,0 0,0" /></g><g
           transform="translate(1013.1203,979.2477)"
           id="g176"><path
             id="path178"
             style="fill:#d57d69;fill-opacity:1;fill-rule:nonzero;stroke:none"
             d="m 0,0 -17.395,9.809 c -0.75,0.417 -1.707,0.178 -2.138,-0.549 -0.436,-0.723 -0.18,-1.651 0.566,-2.074 l 17.395,-9.809 c 0.249,-0.141 0.517,-0.206 0.786,-0.206 0.537,0 1.063,0.271 1.352,0.755 C 1.002,-1.349 0.745,-0.421 0,0" /></g><g
           transform="translate(826.6573,1080.5461)"
           id="g180"><path
             id="path182"
             style="fill:#d57d69;fill-opacity:1;fill-rule:nonzero;stroke:none"
             d="m 0,0 68.774,-38.537 c 0.247,-0.138 0.515,-0.203 0.78,-0.203 0.542,0 1.067,0.271 1.356,0.758 0.432,0.725 0.178,1.654 -0.572,2.072 L 1.564,2.627 C 0.812,3.048 -0.143,2.795 -0.572,2.072 -1.004,1.347 -0.747,0.419 0,0" /></g><g
           transform="translate(656.0128,1175.8179)"
           id="g184"><path
             id="path186"
             style="fill:#d57d69;fill-opacity:1;fill-rule:nonzero;stroke:none"
             d="m 0,0 c 46.046,-25.618 92.059,-51.299 138.041,-77.022 0.247,-0.138 0.516,-0.203 0.78,-0.203 0.542,0 1.067,0.272 1.357,0.758 0.431,0.727 0.175,1.654 -0.573,2.072 C 93.619,-48.668 47.606,-22.987 1.556,2.631 0.813,3.048 -0.148,2.795 -0.578,2.07 -1.008,1.343 -0.749,0.417 0,0" /></g><g
           transform="translate(576.3298,1220.2866)"
           id="g188"><path
             id="path190"
             style="fill:#d57d69;fill-opacity:1;fill-rule:nonzero;stroke:none"
             d="M 0,0 C 0.544,0 1.071,0.275 1.36,0.764 1.788,1.491 1.527,2.42 0.778,2.834 l -30.212,16.723 c -0.756,0.419 -1.709,0.167 -2.133,-0.567 -0.427,-0.726 -0.167,-1.653 0.585,-2.068 L -0.774,0.199 C -0.529,0.063 -0.263,0 0,0" /></g><g
           transform="translate(253.3527,1400.7321)"
           id="g192"><path
             id="path194"
             style="fill:#d57d69;fill-opacity:1;fill-rule:nonzero;stroke:none"
             d="m 0,0 c 19.466,-11.071 39.33,-22.03 58.537,-32.63 25.985,-14.339 52.854,-29.166 79.563,-44.709 0.253,-0.147 0.53,-0.216 0.802,-0.216 0.532,0 1.051,0.263 1.345,0.737 0.444,0.719 0.203,1.649 -0.538,2.082 -26.74,15.561 -53.625,30.396 -79.626,44.743 C 40.883,-19.397 21.032,-8.444 1.58,2.62 0.831,3.044 -0.122,2.801 -0.56,2.077 -0.996,1.355 -0.745,0.425 0,0" /></g><g
           transform="translate(1721.5436,1022.1653)"
           id="g196"><path
             id="path198"
             style="fill:#d57d69;fill-opacity:1;fill-rule:nonzero;stroke:none"
             d="m 0,0 c -51.135,-0.213 -102.273,-0.35 -153.408,-0.434 -0.863,-0.003 -1.56,-0.682 -1.56,-1.52 0,-0.837 0.701,-1.515 1.564,-1.515 h 0.004 c 51.135,0.085 102.274,0.222 153.416,0.435 0.864,0.004 1.56,0.685 1.556,1.523 C 1.568,-0.675 0.868,0 0.008,0 Z" /></g><g
           transform="translate(996.8413,1021.7327)"
           id="g200"><path
             id="path202"
             style="fill:#d57d69;fill-opacity:1;fill-rule:nonzero;stroke:none"
             d="m 0,0 c -0.863,0 -1.564,-0.677 -1.564,-1.515 0,-0.839 0.701,-1.519 1.564,-1.519 l 23.268,-0.014 c 0.863,0 1.564,0.68 1.564,1.517 0,0.838 -0.701,1.517 -1.564,1.517 z" /></g><g
           transform="translate(819.2284,1018.8331)"
           id="g204"><path
             id="path206"
             style="fill:#d57d69;fill-opacity:1;fill-rule:nonzero;stroke:none"
             d="m 0,0 c 0.863,0 1.564,0.678 1.564,1.515 0,0.838 -0.698,1.519 -1.562,1.519 -82.347,0.071 -164.694,0.172 -247.038,0.298 h -0.003 c -0.863,0 -1.562,-0.677 -1.564,-1.515 -0.002,-0.837 0.699,-1.517 1.562,-1.519 C -164.696,0.172 -82.349,0.071 -0.002,0 Z" /></g><g
           transform="translate(452.676,1020.6583)"
           id="g208"><path
             id="path210"
             style="fill:#d57d69;fill-opacity:1;fill-rule:nonzero;stroke:none"
             d="m 0,0 c -0.006,0.834 -0.705,1.507 -1.564,1.507 h -0.01 c -101.833,-0.593 -200.718,-0.593 -302.303,0 h -0.008 c -0.862,0 -1.56,-0.673 -1.566,-1.507 -0.006,-0.84 0.69,-1.521 1.553,-1.527 50.801,-0.296 100.924,-0.445 151.079,-0.445 50.155,0 100.34,0.149 151.265,0.445 C -0.69,-1.521 0.006,-0.84 0,0" /></g><g
           transform="translate(1458.3318,1317.1763)"
           id="g212"><path
             id="path214"
             style="fill:#d57d69;fill-opacity:1;fill-rule:nonzero;stroke:none"
             d="m 0,0 c -69.133,-40.244 -140.619,-81.86 -211.678,-121.651 -0.75,-0.418 -1.006,-1.347 -0.575,-2.072 0.294,-0.486 0.819,-0.758 1.356,-0.758 0.27,0 0.538,0.065 0.783,0.203 71.079,39.805 142.578,81.425 211.723,121.676 25.227,14.687 50.458,29.373 75.726,44.01 31.158,18.049 56.951,31.418 81.176,42.077 0.786,0.346 1.132,1.244 0.778,2.007 -0.363,0.764 -1.279,1.1 -2.073,0.754 C 132.885,75.542 106.989,62.122 75.73,44.012 50.458,29.375 25.227,14.686 0,0" /></g><g
           transform="translate(1135.3181,1133.2793)"
           id="g216"><path
             id="path218"
             style="fill:#d57d69;fill-opacity:1;fill-rule:nonzero;stroke:none"
             d="m 0,0 -19.782,-11.084 c -0.749,-0.418 -1.006,-1.347 -0.57,-2.072 0.289,-0.488 0.815,-0.758 1.352,-0.758 0.269,0 0.538,0.065 0.782,0.203 L 1.564,-2.627 C 2.313,-2.208 2.57,-1.28 2.138,-0.555 1.702,0.168 0.741,0.415 0,0" /></g><g
           transform="translate(1027.8439,1071.009)"
           id="g220"><path
             id="path222"
             style="fill:#d57d69;fill-opacity:1;fill-rule:nonzero;stroke:none"
             d="m 0,0 c -0.44,0.727 -1.406,0.966 -2.139,0.545 l -25.027,-14.178 c -0.745,-0.423 -0.998,-1.353 -0.558,-2.077 0.289,-0.482 0.81,-0.75 1.348,-0.75 0.269,0 0.542,0.067 0.79,0.207 L -0.567,-2.074 C 0.183,-1.653 0.436,-0.723 0,0" /></g><g
           transform="translate(416.6861,732.4684)"
           id="g224"><path
             id="path226"
             style="fill:#d57d69;fill-opacity:1;fill-rule:nonzero;stroke:none"
             d="m 0,0 c -15.389,-8.735 -30.766,-17.49 -46.131,-26.268 -0.743,-0.427 -0.992,-1.355 -0.554,-2.078 0.291,-0.478 0.815,-0.747 1.351,-0.747 0.268,0 0.541,0.068 0.791,0.21 15.361,8.778 30.738,17.533 46.123,26.268 0.746,0.422 0.996,1.351 0.561,2.074 C 1.703,0.181 0.747,0.434 0,0" /></g><g
           transform="translate(279.6248,651.7762)"
           id="g228"><path
             id="path230"
             style="fill:#d57d69;fill-opacity:1;fill-rule:nonzero;stroke:none"
             d="m 0,0 c 0.723,0.459 0.924,1.398 0.452,2.098 -0.474,0.699 -1.442,0.904 -2.167,0.438 -5.313,-3.374 -10.817,-6.32 -16.14,-9.169 -2.817,-1.509 -5.625,-3.01 -8.411,-4.579 -0.747,-0.418 -1.002,-1.347 -0.57,-2.074 0.291,-0.482 0.816,-0.755 1.356,-0.755 0.265,0 0.536,0.068 0.782,0.206 2.768,1.552 5.557,3.046 8.354,4.543 C -10.97,-6.416 -5.413,-3.437 0,0" /></g><g
           transform="translate(1329.6989,1680.4579)"
           id="g232"><path
             id="path234"
             style="fill:#d57d69;fill-opacity:1;fill-rule:nonzero;stroke:none"
             d="m 0,0 c 0.444,0.717 0.208,1.649 -0.534,2.082 -0.737,0.433 -1.698,0.203 -2.146,-0.517 -34.477,-55.519 -71.034,-115.867 -111.767,-184.492 -0.432,-0.725 -0.171,-1.653 0.574,-2.072 0.249,-0.136 0.517,-0.201 0.782,-0.201 0.542,0 1.067,0.272 1.356,0.76 C -71.014,-115.833 -34.468,-55.503 0,0" /></g><g
           transform="translate(992.1414,1108.7358)"
           id="g236"><path
             id="path238"
             style="fill:#d57d69;fill-opacity:1;fill-rule:nonzero;stroke:none"
             d="m 0,0 c 22.73,38.201 47.497,81.759 71.446,123.88 23.199,40.801 47.188,82.992 69.189,120.059 0.432,0.725 0.171,1.653 -0.574,2.072 -0.757,0.413 -1.707,0.166 -2.139,-0.559 C 115.909,208.361 91.912,166.159 68.709,125.346 44.765,83.236 20.006,39.692 -2.713,1.517 c -0.432,-0.725 -0.175,-1.653 0.574,-2.072 0.249,-0.138 0.518,-0.203 0.782,-0.203 0.538,0 1.063,0.272 1.357,0.758" /></g><g
           transform="translate(825.5981,836.2913)"
           id="g240"><path
             id="path242"
             style="fill:#d57d69;fill-opacity:1;fill-rule:nonzero;stroke:none"
             d="m 0,0 c 0.534,0 1.053,0.265 1.346,0.739 5.032,8.197 9.767,15.743 14.473,23.071 0.457,0.712 0.232,1.648 -0.501,2.09 -0.737,0.439 -1.694,0.226 -2.154,-0.486 C 8.447,18.07 3.702,10.509 -1.342,2.296 -1.784,1.572 -1.539,0.644 -0.798,0.213 -0.548,0.067 -0.271,0 0,0" /></g><g
           transform="translate(796.3634,791.653)"
           id="g244"><path
             id="path246"
             style="fill:#d57d69;fill-opacity:1;fill-rule:nonzero;stroke:none"
             d="m 0,0 c -6.512,-11.232 -12.966,-22.499 -19.419,-33.766 -14.092,-24.609 -28.665,-50.051 -43.641,-74.707 -0.438,-0.723 -0.189,-1.651 0.554,-2.078 0.251,-0.142 0.523,-0.209 0.792,-0.209 0.536,0 1.059,0.268 1.35,0.746 14.995,24.692 29.577,50.15 43.679,74.774 6.45,11.26 12.901,22.523 19.41,33.754 C 3.148,-0.755 2.882,0.17 2.128,0.581 1.378,0.98 0.423,0.731 0,0" /></g><g
           transform="translate(680.5763,593.0579)"
           id="g248"><path
             id="path250"
             style="fill:#d57d69;fill-opacity:1;fill-rule:nonzero;stroke:none"
             d="m 0,0 c -0.747,0.414 -1.705,0.174 -2.138,-0.549 -10.329,-17.261 -19.617,-32.964 -28.392,-48.008 -0.425,-0.727 -0.161,-1.656 0.591,-2.067 0.242,-0.134 0.507,-0.197 0.767,-0.197 0.546,0 1.075,0.276 1.363,0.77 8.77,15.036 18.053,30.728 28.375,47.977 C 1,-1.347 0.745,-0.419 0,0" /></g><g
           transform="translate(625.2894,498.9456)"
           id="g252"><path
             id="path254"
             style="fill:#d57d69;fill-opacity:1;fill-rule:nonzero;stroke:none"
             d="m 0,0 c -0.755,0.411 -1.702,0.154 -2.132,-0.573 l -11.326,-19.433 c -0.426,-0.731 -0.161,-1.656 0.59,-2.066 0.242,-0.135 0.507,-0.198 0.768,-0.198 0.545,0 1.075,0.277 1.364,0.77 L 0.593,-2.066 C 1.016,-1.335 0.751,-0.411 0,0" /></g><g
           transform="translate(935.1782,1784.9508)"
           id="g256"><path
             id="path258"
             style="fill:#d57d69;fill-opacity:1;fill-rule:nonzero;stroke:none"
             d="m 0,0 h -0.008 c -0.859,0 -1.56,-0.674 -1.564,-1.508 -0.676,-107.743 -1.034,-218.132 -1.059,-328.105 0,-0.837 0.701,-1.517 1.564,-1.517 0.863,0 1.564,0.68 1.564,1.517 0.024,109.965 0.383,220.35 1.059,328.086 C 1.56,-0.689 0.863,-0.006 0,0" /></g><g
           transform="translate(936.1026,1225.5626)"
           id="g260"><path
             id="path262"
             style="fill:#d57d69;fill-opacity:1;fill-rule:nonzero;stroke:none"
             d="m 0,0 c -0.004,0.835 -0.704,1.511 -1.564,1.511 h -0.004 c -0.867,-0.004 -1.564,-0.685 -1.56,-1.523 0.135,-33.729 0.297,-67.459 0.493,-101.188 0.004,-0.835 0.705,-1.509 1.564,-1.509 0.86,0.037 1.568,0.683 1.564,1.525 C 0.297,-67.455 0.135,-33.729 0,0" /></g><g
           transform="translate(934.6976,876.2048)"
           id="g264"><path
             id="path266"
             style="fill:#d57d69;fill-opacity:1;fill-rule:nonzero;stroke:none"
             d="M 0,0 C -0.859,0 -1.56,-0.675 -1.564,-1.509 L -1.67,-26.853 c -0.004,-0.837 0.693,-1.517 1.56,-1.521 h 0.004 c 0.86,0 1.56,0.676 1.564,1.513 L 1.564,-1.525 C 1.568,-0.684 0.754,0.134 0,0" /></g><g
           transform="translate(932.6733,733.9062)"
           id="g268"><path
             id="path270"
             style="fill:#d57d69;fill-opacity:1;fill-rule:nonzero;stroke:none"
             d="m 0,0 c 0,-0.838 0.696,-1.521 1.56,-1.521 h 0.004 c 0.864,0 1.564,0.676 1.564,1.513 0.041,18.77 0.085,37.543 0.143,56.313 0.004,0.837 -0.697,1.517 -1.56,1.521 H 1.707 C 0.843,57.826 0.147,57.15 0.143,56.313 0.085,37.543 0.041,18.77 0,0" /></g><g
           transform="translate(934.2375,487.4094)"
           id="g272"><path
             id="path274"
             style="fill:#d57d69;fill-opacity:1;fill-rule:nonzero;stroke:none"
             d="m 0,0 h 0.004 c 0.863,0 1.56,0.684 1.56,1.521 -0.053,25.359 -0.09,50.718 -0.11,76.078 0,0.837 -0.701,1.517 -1.564,1.517 -0.863,0 -1.564,-0.68 -1.564,-1.517 0.02,-25.36 0.057,-50.727 0.11,-76.086 C -1.564,0.676 -0.863,0 0,0" /></g><g
           transform="translate(934.5672,380.5445)"
           id="g276"><path
             id="path278"
             style="fill:#d57d69;fill-opacity:1;fill-rule:nonzero;stroke:none"
             d="m 0,0 h -0.004 c -0.867,-0.004 -1.564,-0.684 -1.56,-1.521 0.159,-40.391 0.363,-80.783 0.603,-121.17 0.004,-0.838 0.705,-1.509 1.564,-1.509 h 0.008 c 0.863,0.003 1.56,0.687 1.556,1.525 C 1.927,-82.288 1.723,-41.897 1.564,-1.513 1.56,-0.676 0.859,0 0,0" /></g><g
           transform="translate(582.5504,379.2366)"
           id="g280"><path
             id="path282"
             style="fill:#efce76;fill-opacity:1;fill-rule:nonzero;stroke:none"
             d="M 0,0 C -25.656,-14.667 -31.775,40.537 4.936,45.637 18.162,46.623 24.908,39.659 39.156,28.928 26.246,17.218 13.006,7.435 0,0 M 247.219,34.562 C 170.515,13.444 128.146,22.493 100.291,36.441 c -2.832,1.418 -5.727,2.886 -8.649,4.369 35.886,36.497 69.563,79.568 81.394,107.423 36.011,84.792 7.449,143.85 -55.458,139.997 C 90.279,286.557 16.601,241.23 5.942,183.87 -0.36,149.959 55.96,125.501 53.477,133.556 c -13.302,43.159 9.376,97.473 33.441,106.722 22.184,8.525 64.853,6.264 44.687,-63.167 C 118.064,130.493 93.012,87.775 64.008,54.401 51.654,60.085 39.533,64.821 28.743,66.965 c -0.544,0.44 -1.133,0.8 -1.805,0.968 -12.987,3.235 -45.621,2.085 -59.888,-29.684 -13.193,-29.375 -7.034,-66.154 28.733,-65.438 15.041,0.301 40.162,16.928 66.997,40.569 62.727,-36.363 96.462,-39.389 137.984,-32.888 48.564,7.603 58.056,57.264 46.455,54.07" /></g><g
           transform="translate(930.6212,448.2492)"
           id="g284"><path
             id="path286"
             style="fill:#efce76;fill-opacity:1;fill-rule:nonzero;stroke:none"
             d="m 0,0 c -18.972,-27.305 -42.728,-33.422 -53.316,-14.242 -18.406,33.341 -11.988,140.576 26.283,178.107 1.029,-1.102 2.497,-2.057 4.577,-2.788 C 52.074,134.889 33.499,48.21 0,0 m 27.344,203.571 c -7.749,2.89 -24.162,-3.909 -37.252,-12.98 -6.034,14.091 -22.667,30.939 -25.98,28.582 -71.115,-50.588 -82.685,-163.52 -53.732,-230.156 17.377,-39.992 79.501,-77.244 145.35,25.995 51.082,80.087 7.153,175.305 -28.386,188.559" /></g><g
           transform="translate(1127.7688,738.8729)"
           id="g288"><path
             id="path290"
             style="fill:#efce76;fill-opacity:1;fill-rule:nonzero;stroke:none"
             d="m 0,0 c -0.676,6.569 -49.309,-6.081 -56.507,-10.644 -9.042,-5.734 -21.493,-59.459 -43.434,-80.731 -6.726,-6.522 31.202,10.333 36.001,10.992 0,0 -23.354,-155.558 -19.754,-205.422 2.16,-29.926 70.622,-17.652 69.535,-9.618 -2.279,16.84 -11.375,109.562 -5.32,155.114 C -8.535,-57.966 1.468,-14.255 0,0" /></g><g
           transform="translate(1259.204,653.189)"
           id="g292"><path
             id="path294"
             style="fill:#efce76;fill-opacity:1;fill-rule:nonzero;stroke:none"
             d="M 0,0 C -9.007,-7.072 -24.401,-8.633 -39.712,9.604 -57.892,31.258 -49.587,89.47 1.397,102.814 1.401,102.813 35.595,99.315 28.608,41.358 27.65,33.417 26.605,25.632 25.405,17.957 18.206,13.62 9.192,7.217 0,0 m 89.491,59.685 c -2.2,101.537 -64.184,108.967 -126.901,80.668 -22.188,-10.011 -22.712,-17.736 -14.569,-23.508 -3.688,-2.853 -7.935,-6.331 -12.939,-10.602 C -102.119,74.493 -102.856,4.313 -85.823,-14.859 -55.922,-48.516 -5.864,-36.301 20.909,-6.417 10.8,-52.99 -8.494,-96.88 -54.725,-147.907 c -19.012,-20.983 -24.546,-24.45 -17.482,-56.319 1.921,-8.669 43.146,6.853 100.17,77.553 28.826,35.74 63.053,116.025 61.528,186.358" /></g><g
           transform="translate(642.0746,1363.1217)"
           id="g296"><path
             id="path298"
             style="fill:#efce76;fill-opacity:1;fill-rule:nonzero;stroke:none"
             d="m 0,0 c 43.022,20.254 90.691,40.165 142.735,58.124 8.212,2.834 1.091,27.427 -22.162,22.372 C 93.034,74.511 49.263,58.504 0.912,38.238 1.904,69.657 3.409,99.58 5.05,130.151 5.666,141.63 -36.449,165.175 -36.9,156.085 -39.365,106.512 -41,60.801 -42.057,19.659 -70.188,7.145 -98.692,-6.188 -125.513,-19.318 c -0.171,42.537 -0.34,79.343 -1.492,110.299 -0.445,11.982 -42.573,32.862 -42.336,23.374 1.403,-56.108 1.575,-108.263 1.033,-155.201 -38.66,-20.025 -70.14,-38.098 -86.074,-50.093 -14.156,-10.656 -25.069,-53.298 -19.256,-65.935 2.786,-6.056 38.947,22.516 104.402,63.763 -2.819,-117.585 -9.074,-158.95 -9.074,-162.311 0,-5.055 20.581,-23.534 38.512,-24.64 12.353,-0.763 20.978,17.356 20.104,35.998 -3.736,79.654 -5.208,117.175 -5.592,177.753 24.6,14.487 52.098,29.802 82.336,45.239 -2.119,-116.714 -5.347,-244.846 -5.347,-248.22 0,-4.845 13.016,-15.322 24.91,-18.601 9.698,-2.673 23.162,22.126 22.627,30.959 C -5.641,-176.391 -0.89,-56.134 0,0" /></g><g
           transform="translate(1183.5315,1187.9005)"
           id="g300"><path
             id="path302"
             style="fill:#efce76;fill-opacity:1;fill-rule:nonzero;stroke:none"
             d="M 0,0 C -23.184,-13.39 -48.934,5.929 -29.217,55.841 -17.344,85.897 1.268,115.71 55.001,141.885 50.704,84.047 46.21,26.688 0,0 m -87.867,212.896 c -5.646,-36.961 -14.28,-56.886 -33.563,-77.713 -14.981,-16.181 -20.79,-6.551 -21.329,7.582 -0.423,11.069 0.837,59.485 58.632,100.921 -0.605,-8.996 -1.984,-19.291 -3.74,-30.79 M -279.096,73.182 c -13.015,-16.182 -18.061,-6.551 -18.529,7.582 -0.346,10.421 13.774,49.916 49.497,86.567 -0.44,-5.225 -1.05,-10.708 -1.81,-16.437 -4.905,-36.96 -12.406,-56.885 -29.158,-77.712 m -155.231,35.697 c -3.453,-22.396 -12.199,-58.664 -20.579,-70.131 -14.406,-19.712 -26.89,8.651 -27.017,26.536 -0.128,17.886 10.341,75.75 45.061,99.9 7.266,5.054 10.536,-17.059 9.256,-28.488 -0.09,-0.807 0.891,-0.492 2.551,0.584 -0.1,-1.293 -0.2,-2.595 -0.302,-3.904 -3.455,-0.62 -7.495,-1.892 -12.24,-3.963 -4.285,-1.871 4.979,-9.445 3.27,-20.534 M 280.935,220.82 c -58.248,12.088 -138.6,-13.798 -186.521,-33.665 12.155,63.455 18.421,113.233 16.307,123.683 -3.493,17.266 -42.325,38.211 -44.408,34.037 -5.13,-10.277 -2.234,-42.39 -2.358,-83.418 -13.071,-43.354 -50.274,-75.533 -53.852,-63.229 -5.775,19.851 9.382,78.463 4.759,103.237 -2.433,13.04 -27.986,33.657 -42.989,21.913 -3.896,-3.05 -1.603,-5.936 -0.768,-29.447 -0.113,-0.058 -0.206,-0.077 -0.322,-0.139 -11.143,-5.994 -21.371,-12.153 -30.754,-18.385 -2.747,9.714 -7.387,18.496 -14.722,27.048 -14.429,16.821 -44.541,15.861 -68.38,5.212 -16.777,-7.494 -26.429,-21.508 -31.391,-31.818 -0.046,0.332 -0.092,0.698 -0.138,1.017 -3.181,22.086 -36.805,-2.502 -35.323,-12.32 1.32,-8.742 2.354,-23.398 3.157,-41.527 -0.301,-0.238 -0.612,-0.506 -0.933,-0.809 -5.86,-5.528 -11.357,-10.819 -16.569,-15.923 -2.013,12.639 -6.332,23.576 -14.224,34.166 -12.535,16.822 -38.694,15.862 -59.404,5.213 -11.15,-5.734 -18.668,-15.288 -23.525,-24.08 -7.347,12.373 -35.72,-10.136 -34.552,-19.041 2.012,-15.333 3.26,-48.839 3.996,-87.432 -9.813,-20.055 -32.093,-63.429 -40.918,-70.202 -17.087,-13.115 21.527,116.685 11.979,140.101 -2.723,6.678 -28.99,9.466 -38.43,5.882 -4.893,1.348 -9.832,1.616 -14.22,-0.068 -37.191,-14.27 -60.873,-44.679 -70.155,-69.942 -16.713,-45.491 -28.519,-109.474 14.897,-124.151 15.76,-5.328 42.199,17.06 58.657,48.784 0.202,-4.168 0.609,-7.387 1.291,-9.296 5.087,-14.216 14.042,-24.051 23.254,-21.481 14.161,3.949 40.682,44.029 54.169,65.274 0.459,-40.661 0.473,-82.579 0.296,-112.487 -0.156,-26.419 -8.947,-45.65 -0.693,-48.264 13.639,-4.321 37.051,5.584 37.691,32.138 2.44,101.281 0.692,174.085 -1.961,220.013 5.606,25.968 17.073,55.475 40.306,56.245 21.41,0.709 28.739,-16.464 28.472,-44.752 -39.828,-41.992 -54.249,-67.238 -57.911,-84.611 -4.686,-22.225 -1.646,-39.375 14.442,-42.173 29.974,-5.212 63.194,63.184 66.592,102.59 0.992,11.502 1.555,21.678 1.363,30.9 5.31,4.014 10.937,7.893 16.9,11.591 1.69,-54.224 1.883,-126.591 1.577,-171.675 -0.18,-26.419 -2.637,-39.974 0.763,-45.174 4.536,-6.934 39.496,3.415 39.35,29.976 -0.427,77.427 -2.226,141.675 -4.565,188.546 3.749,22.429 17.334,81.808 56.232,82.928 20.147,0.58 27.54,-9.389 28.633,-27.892 -47.379,-37.895 -66.148,-75.336 -70.234,-92.171 -5.394,-22.226 0.766,-44.82 19.284,-47.617 34.504,-5.213 72.742,63.183 76.654,102.589 1.504,15.147 2.125,27.97 1.058,39.369 8.623,4.5 18.113,8.818 28.55,12.897 -0.185,-20.281 -1.495,-49.291 -5.466,-91.285 -1.545,-16.343 18.604,-38.588 29.43,-30.584 27.363,20.229 50.307,43.589 67.625,74.769 -0.662,-11.37 -1.702,-23.076 -3.318,-34.924 -0.982,-7.212 -1.764,-14.566 -2.446,-21.987 -3.258,-1.895 -6.384,-3.815 -9.36,-5.754 C 10.082,138.63 -34.206,102.561 -56.103,66.548 -74.712,35.943 -87.685,-18.505 -45.93,-32.646 c 41.755,-14.141 92.017,18.96 109.725,85.294 9.247,34.641 17.446,69.986 24.324,103.029 46.033,16.126 89.648,26.463 158.201,11.959 20.307,-4.297 62.896,47.316 34.615,53.184" /></g><g
           transform="translate(539.1917,1019.5238)"
           id="g304"><path
             id="path306"
             style="fill:#efce76;fill-opacity:1;fill-rule:nonzero;stroke:none"
             d="m 0,0 c 1.473,10.708 -52.651,48.544 -54.769,35.043 -13.493,-86.035 -22.42,-171.059 -19.046,-309.863 -23.91,33.862 -53.661,85.855 -118.78,192.608 -0.569,1.874 -1.96,4.072 -3.907,6.403 v 0 c -2.198,3.599 -6.445,7.315 -10.555,9.894 -11.62,9.027 -25.92,15.686 -26.291,7.668 -4.316,-93.266 -3.913,-178.605 3.827,-353.602 0.937,-21.184 9.646,-44.01 22.96,-34.445 15.732,11.302 39.542,25.475 39.542,31.216 0,5.51 -30.842,62.129 -26.056,300.194 32.112,-65.346 68.864,-141.932 122.375,-227.243 4.272,-21.307 20.184,-49.802 35.455,-48.373 22.995,2.153 38.99,20.093 38.99,25.834 0,5.741 -42.735,81.21 -3.745,364.666" /></g><g
           transform="translate(635.6033,940.1941)"
           id="g308"><path
             id="path310"
             style="fill:#efce76;fill-opacity:1;fill-rule:nonzero;stroke:none"
             d="m 0,0 0.001,-0.002 c 6.771,-13.014 10.107,-33.217 0.525,-57.776 -12.298,-31.523 -35.308,-38.344 -46.177,-43.069 0.137,9.49 0.661,18.806 1.336,27.096 C -40.524,-27.13 -13.474,19.957 0,0 m 235.206,79.285 c -1.852,5.602 -40.512,-9.791 -36.15,-27.825 30.361,-125.515 15.409,-170.555 -6.98,-189.621 -13.506,-11.5 -24.429,67.501 -20.281,121.09 0.74,9.551 -38.949,8.694 -36.742,-2.577 -2.447,-3.027 -30.027,-111.986 -37.928,-105.116 -7.902,6.871 8.296,130.017 4.345,138.953 C 97.52,23.123 62.694,30.746 61.781,19.341 61.155,11.513 60.1,-18.063 60.574,-50.186 45.086,-86.82 10.691,-161.835 -14.289,-169.592 c -24.338,-7.558 -30.901,25.614 -31.368,59.901 5.244,-0.652 13.093,0.019 20.811,2.112 31.606,8.576 49.843,29.821 53.226,62.683 4.356,42.326 -13.08,70.771 -30.895,72.047 -0.735,0.099 -1.496,0.136 -2.292,0.091 0,0 -48.201,4.123 -71.905,-83.131 -23.705,-87.252 18.963,-155.269 60.842,-127.787 28.617,18.778 59.806,68.66 77.453,102.105 1.75,-33.156 5.863,-62.327 14.589,-65.693 24.526,-9.461 49.681,53.169 63.761,92.228 2.68,-20.281 6.734,-43.88 16.674,-67.956 7.8,-18.893 33.042,-44.876 61.413,-11.046 41.484,49.466 45.632,127.272 17.186,213.323" /></g><g
           transform="translate(1432.4658,1243.9131)"
           id="g312"><path
             id="path314"
             style="fill:#efce76;fill-opacity:1;fill-rule:nonzero;stroke:none"
             d="M 0,0 C 13.704,9.65 34.922,4.045 8.903,-73.76 -32.17,-91.299 -12.146,-8.552 0,0 m -146.171,-275.46 c -17.408,-5.179 -19.035,31.338 -17.01,48.414 2.026,17.076 12.974,84.666 48.999,104.557 7.539,4.164 24.879,-6.18 11.397,-41.352 -0.908,-2.369 6.819,2.987 14.069,9.235 -0.875,-6.482 -1.902,-13.283 -3.006,-20.203 -1.475,-0.388 -3.025,-0.835 -4.689,-1.374 -3.465,-1.121 0.212,-5.951 1.216,-19.614 -2.238,-13.212 -4.447,-26.027 -6.083,-36.982 -11.529,-25.472 -35.791,-39.973 -44.893,-42.681 m -89.404,116.774 h 10e-4 c 5.155,-12.557 6.164,-31.411 -5.905,-53.113 -15.492,-27.858 -38.685,-32.071 -49.807,-35.442 1.188,8.704 2.733,17.214 4.311,24.767 8.876,42.484 40.48,83.321 51.4,63.788 m 338.296,-13.072 c -11.852,-43.283 -25.793,-54.881 -42.273,-68.016 -18.964,-15.114 -43.793,-13.032 -25.182,39.157 2.861,8.024 27.395,82.007 28.336,95.089 1.404,19.511 13.201,56.429 -34.241,38.257 21.71,76.21 -3.097,86.171 -28.5,77.36 -27.564,-9.562 -46.691,-32.074 -54.197,-71.578 -1.932,-10.167 -6.521,-45.34 11.451,-57.437 8.428,-5.672 26.509,4.745 42.887,12.937 -22.541,-85.556 -49.389,-136.781 -69.424,-151.315 -16.797,-12.185 22.873,102.402 16.575,125.61 -2.21,8.14 -34.55,20.612 -34.183,12.761 -6.231,9.49 -15.625,18.293 -28.152,18.077 -39.01,-0.671 -56.869,-35.925 -66.643,-67.601 -6.302,-20.425 -14.652,-45.641 -17.936,-68.649 -21.175,-32.796 -50.26,-72.318 -69.582,-76.071 -24.57,-4.772 -27.284,26.28 -23.932,57.814 5.041,-1.066 12.768,-1.15 20.525,0.085 31.77,5.059 51.911,22.946 58.859,52.828 8.948,38.487 -4.893,66.166 -22.12,68.927 -0.706,0.156 -1.445,0.258 -2.226,0.288 0,0 -46.537,8.082 -79.341,-69.944 -32.803,-78.027 1.245,-144.301 45.129,-122.793 23.5,11.517 50.661,40.441 71.384,66.445 0.822,-17.12 6.765,-31.102 21.906,-37.951 15.73,-7.117 44.791,-2.741 74.66,47.135 -0.503,-5.608 -0.574,-9.905 -0.021,-12.369 3.147,-14.025 14.685,-23.845 22.658,-19.709 57.121,29.631 65.041,84.606 100.596,184.18 4.25,1.036 7.814,1.02 10.292,-0.692 22.884,-15.801 -6.597,-98.417 -22.124,-152.177 -6.597,-22.841 -5.222,-37.995 22.914,-34.352 55.707,7.215 86.524,66.986 88.499,97.559 0.217,3.357 -10.31,39.092 -16.594,16.145" /></g><g
           transform="translate(911.7126,705.162)"
           id="g316"><path
             id="path318"
             style="fill:#efce76;fill-opacity:1;fill-rule:nonzero;stroke:none"
             d="M 0,0 C -30.26,0.487 -59.978,30.782 -18.964,75.745 1.168,97.816 70.058,130.484 136.966,143.002 124.459,69.708 87.882,-1.415 0,0 m 488.324,176.224 c -71.708,-38.131 -188.351,-0.753 -316.461,-16.502 -2.985,-0.367 -5.915,-0.774 -8.844,-1.183 16.765,92.435 24.475,219.815 21.55,234.271 -3.799,18.775 -46.592,35.863 -48.858,31.324 -7.026,-14.078 -1.886,-76.386 2.98,-143.239 -15.432,-35.386 -45.625,-84.572 -66.083,-92.82 -26.942,-10.862 0.866,154.582 0,186.529 -0.866,31.947 -53.157,23.052 -53.656,17.519 C 3.544,221.052 38.977,152.924 64.149,166.434 c 31.292,16.793 59.746,53.498 77.001,79.231 0.167,-2.542 0.329,-5.079 0.487,-7.609 1.534,-24.48 1.163,-53.848 -2.895,-83.466 C 32.753,134.707 -32.289,87.633 -53.929,52.043 c -20.235,-33.28 0.228,-65.521 45.632,-80.898 45.405,-15.377 127.338,47.488 153.908,117.841 5.615,14.866 10.669,34.883 15.143,57.578 15.423,1.704 30.414,2.126 44.294,0.804 124.452,-11.851 320.666,-66.47 339.631,32.462 1.733,9.042 -43.595,3.179 -56.355,-3.606" /></g></g></g></g></svg>