<?xml version="1.0" encoding="UTF-8" standalone="no"?>
<svg
   xmlns:dc="http://purl.org/dc/elements/1.1/"
   xmlns:cc="http://creativecommons.org/ns#"
   xmlns:rdf="http://www.w3.org/1999/02/22-rdf-syntax-ns#"
   xmlns:svg="http://www.w3.org/2000/svg"
   xmlns="http://www.w3.org/2000/svg"
   viewBox="0 0 4000 4000"
   height="4000"
   width="4000"
   xml:space="preserve"
   id="svg2"
   version="1.1"><metadata
     id="metadata8"><rdf:RDF><cc:Work
         rdf:about=""><dc:format>image/svg+xml</dc:format><dc:type
           rdf:resource="http://purl.org/dc/dcmitype/StillImage" /></cc:Work></rdf:RDF></metadata><defs
     id="defs6"><clipPath
       id="clipPath18"
       clipPathUnits="userSpaceOnUse"><path
         id="path16"
         d="M 0,3000 H 3000 V 0 H 0 Z" /></clipPath><clipPath
       id="clipPath34"
       clipPathUnits="userSpaceOnUse"><path
         id="path32"
         d="M 558.539,1175.78 H 2255.41 V 761.63 H 558.539 Z" /></clipPath><clipPath
       id="clipPath54"
       clipPathUnits="userSpaceOnUse"><path
         id="path52"
         d="m 1235.92,1867.58 h 580.24 v -153.99 h -580.24 z" /></clipPath><clipPath
       id="clipPath70"
       clipPathUnits="userSpaceOnUse"><path
         id="path68"
         d="m 2146.3,1055.03 h 94.52 V 806.82 h -94.52 z" /></clipPath><clipPath
       id="clipPath90"
       clipPathUnits="userSpaceOnUse"><path
         id="path88"
         d="m 649.61,1465.08 h 82.06 v -102.14 h -82.06 z" /></clipPath><clipPath
       id="clipPath106"
       clipPathUnits="userSpaceOnUse"><path
         id="path104"
         d="m 1707.4,1758.82 h 548.02 V 761.63 H 1707.4 Z" /></clipPath><clipPath
       id="clipPath126"
       clipPathUnits="userSpaceOnUse"><path
         id="path124"
         d="M 789.248,761.63 H 2344.21 V 345.036 H 789.248 Z" /></clipPath><clipPath
       id="clipPath150"
       clipPathUnits="userSpaceOnUse"><path
         id="path148"
         d="M -94.037,1914.85 H 705.114 V 1362.94 H -94.037 Z" /></clipPath><clipPath
       id="clipPath166"
       clipPathUnits="userSpaceOnUse"><path
         id="path164"
         d="M 2130.91,1234.84 H 3151.53 V 823.059 H 2130.91 Z" /></clipPath></defs><g
     transform="matrix(1.3333333,0,0,-1.3333333,0,4000)"
     id="g10"><g
       id="g12"><g
         clip-path="url(#clipPath18)"
         id="g14"><g
           transform="translate(360.9438,739.8638)"
           id="g20"><path
             id="path22"
             style="fill:#ffffff;fill-opacity:1;fill-rule:nonzero;stroke:none"
             d="m 0,0 c 32.122,-204.044 1121.632,-12.726 1606.159,-275.431 296.369,-160.683 299.819,-199.877 374.77,142.777 C 2055.884,209.997 487.198,335.635 267.694,364.192 103.063,385.608 52.868,281.743 38.066,228.467 33.125,210.71 32.122,198.575 32.122,198.575 32.122,198.575 -7.819,49.678 0,0" /></g><g
           transform="translate(561.7705,1104.9669)"
           id="g24"><path
             id="path26"
             style="fill:#e8401c;fill-opacity:1;fill-rule:nonzero;stroke:none"
             d="m 0,0 c 20.078,1.947 41.735,2.358 66.868,-0.911 182.724,-23.774 1299.525,-114.94 1625.75,-342.426 8.885,40.2 -24.942,890.668 -688.825,1044.863 C 325.235,859.124 -16.632,1.342 -2.838,0.239 -1.882,0.171 -0.956,0.074 0,0" /></g><g
           id="g28"><g
             id="g30" /><g
             id="g42"><g
               style="opacity:0.30000299"
               id="g40"
               clip-path="url(#clipPath34)"><g
                 id="g38"
                 transform="translate(584.936,1175.7766)"><path
                   id="path36"
                   style="fill:#c03d1f;fill-opacity:1;fill-rule:nonzero;stroke:none"
                   d="m 0,0 c -19.574,-43.192 -28.436,-70.374 -26.004,-70.571 0.956,-0.067 1.883,-0.164 2.838,-0.239 20.078,1.947 41.736,2.358 66.87,-0.911 182.723,-23.772 1299.524,-114.938 1625.748,-342.426 1.364,6.173 1.692,31.573 -1.08,70.483 C 1339.958,-117.058 226.103,-26.274 43.704,-2.545 28.015,-0.503 13.68,0.083 0,0" /></g></g></g></g><g
           transform="translate(1565.5637,1806.4924)"
           id="g44"><path
             id="path46"
             style="fill:#ffffff;fill-opacity:1;fill-rule:nonzero;stroke:none"
             d="m 0,0 c 86.712,-20.142 162.433,-52.365 228.954,-92.901 52.875,61.294 85.955,141.784 85.955,230.969 0,190.817 -147.412,345.51 -329.261,345.51 -181.851,0 -329.264,-154.693 -329.264,-345.51 0,-48.725 9.83,-94.962 27.178,-137.005 C -220.667,23.74 -115.316,26.781 0,0" /></g><g
           id="g48"><g
             id="g50" /><g
             id="g62"><g
               style="opacity:0.30000299"
               id="g60"
               clip-path="url(#clipPath54)"><g
                 id="g58"
                 transform="translate(1794.5198,1713.594)"><path
                   id="path56"
                   style="fill:#c03d1f;fill-opacity:1;fill-rule:nonzero;stroke:none"
                   d="m 0,0 c 7.692,8.916 14.824,18.353 21.636,28.051 -71.588,47.081 -154.275,84.432 -250.594,106.803 -120.626,28.015 -230.399,23.512 -329.64,-2.13 3.773,-13.229 8.035,-26.233 13.201,-38.763 95.773,22.678 201.125,25.719 316.439,-1.063 C -142.241,72.759 -66.523,40.534 0,0" /></g></g></g></g><g
           id="g64"><g
             id="g66" /><g
             id="g78"><g
               style="opacity:0.30000299"
               id="g76"
               clip-path="url(#clipPath70)"><g
                 id="g74"
                 transform="translate(2175.6326,806.8202)"><path
                   id="path72"
                   style="fill:#c03d1f;fill-opacity:1;fill-rule:nonzero;stroke:none"
                   d="M 0,0 C 20.949,51.388 42.625,95.705 65.19,133.392 59.803,168.432 52.564,207.067 43.004,248.21 -18.449,157.691 -29.096,58.246 -29.335,13.802 -19.17,9.279 -9.518,4.654 0,0" /></g></g></g></g><g
           transform="translate(688.5028,1362.9429)"
           id="g80"><path
             id="path82"
             style="fill:#ecad20;fill-opacity:1;fill-rule:nonzero;stroke:none"
             d="m 0,0 c 13.339,20.491 27.793,41.427 43.167,62.582 -23.988,27.659 -54.076,53.858 -93.072,76.583 0,0 -67.691,30.147 28.241,143.248 95.934,113.117 50.223,142.071 -4.496,143.127 -54.719,1.056 -67.293,-258.279 -145.543,-210.622 -78.253,47.663 -134.624,64.055 -39.938,188.664 94.695,124.602 95.342,270.134 -28.499,193.298 -123.835,-76.851 -87.561,-372.95 -210.746,-233.112 -123.188,139.828 6.334,174.347 43.41,326.834 37.084,152.493 -36.439,277.445 -214.699,66.873 C -800.433,546.9 -893.867,268.681 -554.76,192.599 -306.339,136.862 -115.483,157.669 0,0" /></g><g
           id="g84"><g
             id="g86" /><g
             id="g98"><g
               style="opacity:0.30000299"
               id="g96"
               clip-path="url(#clipPath90)"><g
                 id="g94"
                 transform="translate(688.5049,1362.9429)"><path
                   id="path92"
                   style="fill:#c03d1f;fill-opacity:1;fill-rule:nonzero;stroke:none"
                   d="M 0,0 C 13.335,20.491 27.791,41.427 43.165,62.584 31.348,76.208 18.016,89.465 2.904,102.139 -11.96,82.412 -25.786,62.853 -38.895,43.525 -25.181,30.644 -12.083,16.498 0,0" /></g></g></g></g><g
           id="g100"><g
             id="g102" /><g
             id="g114"><g
               style="opacity:0.30000299"
               id="g112"
               clip-path="url(#clipPath106)"><g
                 id="g110"
                 transform="translate(1707.4012,1758.8226)"><path
                   id="path108"
                   style="fill:#c03d1f;fill-opacity:1;fill-rule:nonzero;stroke:none"
                   d="m 0,0 c 130.032,-117.48 367.74,-400.714 426.175,-932.752 46.982,-20.173 88.038,-41.585 120.812,-64.441 C 555.189,-960.083 526.571,-232.972 0,0" /></g></g></g></g><g
           transform="translate(2119.689,830.2896)"
           id="g116"><path
             id="path118"
             style="fill:#ecad20;fill-opacity:1;fill-rule:nonzero;stroke:none"
             d="m 0,0 c -4.016,12.85 -16.061,313.74 277.062,407.97 0,0 84.324,17.132 0,171.324 -84.323,154.195 -25.429,175.611 37.475,162.761 62.91,-12.85 18.741,-313.095 119.127,-278.619 100.384,34.479 168.645,38.763 88.339,205.806 -80.309,167.042 -48.186,333.886 76.292,214.06 124.477,-119.831 16.061,-449.634 188.722,-321.14 172.664,128.494 32.125,201.309 24.094,385.484 -8.03,184.175 104.4,308.387 261.001,21.416 156.6,-286.972 200.769,-629.623 -204.787,-629.623 -405.555,0 -656.422,137.594 -846.2,-346.67 z" /></g><g
           id="g120"><g
             id="g122" /><g
             id="g134"><g
               style="opacity:0.30000299"
               id="g132"
               clip-path="url(#clipPath126)"><g
                 id="g130"
                 transform="translate(2344.1846,630.7152)"><path
                   id="path128"
                   style="fill:#c03d1f;fill-opacity:1;fill-rule:nonzero;stroke:none"
                   d="m 0,0 c -0.004,4.966 -0.368,9.929 -1.043,14.887 -0.26,1.817 -0.461,3.644 -0.816,5.449 -0.677,3.643 -1.789,7.251 -2.824,10.872 -9.891,32.432 -34.815,62.724 -72.114,90.935 -4.307,2.938 -8.344,5.988 -12.999,8.772 89.648,-139.763 14.877,-347.624 -86.214,-296.541 -545.527,275.684 -1093.898,223.633 -1378.926,165.843 99.358,-3.994 209.612,-6.435 323.248,-10.888 7.346,-0.287 14.693,-0.596 22.066,-0.902 15.507,-0.643 30.989,-1.318 46.591,-2.056 9.915,-0.469 19.851,-1.013 29.794,-1.527 14.069,-0.729 28.108,-1.43 42.207,-2.261 22.579,-1.328 45.176,-2.79 67.743,-4.426 10.012,-0.724 19.968,-1.608 29.963,-2.4 14.536,-1.158 29.06,-2.319 43.533,-3.63 10.71,-0.973 21.332,-2.06 31.993,-3.125 13.927,-1.389 27.802,-2.84 41.621,-4.399 10.495,-1.187 20.932,-2.423 31.351,-3.711 14.327,-1.771 28.52,-3.698 42.68,-5.683 9.568,-1.342 19.153,-2.644 28.633,-4.088 17.243,-2.628 34.239,-5.518 51.149,-8.507 6.085,-1.077 12.294,-2.017 18.333,-3.145 22.425,-4.181 44.454,-8.756 66.123,-13.663 6.738,-1.527 13.241,-3.26 19.895,-4.859 15.228,-3.662 30.308,-7.452 45.073,-11.524 7.827,-2.157 15.479,-4.458 23.167,-6.739 13.443,-3.982 26.653,-8.148 39.637,-12.516 7.496,-2.52 14.953,-5.067 22.286,-7.72 13.379,-4.842 26.363,-9.997 39.165,-15.298 6.125,-2.536 12.396,-4.952 18.382,-7.596 18.379,-8.124 36.255,-16.636 53.221,-25.834 296.37,-160.685 299.819,-199.877 374.77,142.775 1.39,6.352 2.064,12.755 2.316,19.169 C 0.065,-2.883 -0.002,-1.446 0,0" /></g></g></g></g><g
           transform="translate(672.5706,1209.2966)"
           id="g136"><path
             id="path138"
             style="fill:#ffffff;fill-opacity:1;fill-rule:nonzero;stroke:none"
             d="m 0,0 c 67.181,134.233 162.7,255.348 270.463,354.173 22.689,20.807 -10.23,55.595 -32.755,34.939 C 127.407,287.961 28.791,162.388 -39.999,24.938 -54.061,-3.156 -14.073,-28.117 0,0" /></g><g
           transform="translate(989.3686,1602.4624)"
           id="g140"><path
             id="path142"
             style="fill:#ffffff;fill-opacity:1;fill-rule:nonzero;stroke:none"
             d="m 0,0 c 61.085,43.706 126.094,88.404 195.461,115.274 27.846,10.788 15.831,58.55 -12.316,47.647 C 109.732,134.484 41.268,88.921 -23.381,42.666 -48.046,25.017 -24.887,-17.807 0,0" /></g><g
           id="g144"><g
             id="g146" /><g
             id="g158"><g
               style="opacity:0.30000299"
               id="g156"
               clip-path="url(#clipPath150)"><g
                 id="g154"
                 transform="translate(688.5049,1362.9429)"><path
                   id="path152"
                   style="fill:#c03d1f;fill-opacity:1;fill-rule:nonzero;stroke:none"
                   d="m 0,0 c 5.131,7.885 11.157,16.076 16.609,24.078 -152.116,172.654 -432.938,177.215 -630.73,265.6 -94.915,42.411 -129.473,150.634 -138.238,262.228 C -816.923,394.93 -789.606,245.288 -554.762,192.599 -306.341,136.862 -115.485,157.669 0,0" /></g></g></g></g><g
           id="g160"><g
             id="g162" /><g
             id="g174"><g
               style="opacity:0.30000299"
               id="g172"
               clip-path="url(#clipPath166)"><g
                 id="g170"
                 transform="translate(2140.8135,823.059)"><path
                   id="path168"
                   style="fill:#c03d1f;fill-opacity:1;fill-rule:nonzero;stroke:none"
                   d="m 0,0 c 189.778,484.264 440.647,346.669 846.203,346.669 66.508,0 120.707,9.367 164.515,26.042 -55.011,-3.673 -120.409,0.595 -198.955,15.437 C 189.275,505.786 29.563,153.802 -9.905,3.391 Z" /></g></g></g></g><g
           transform="translate(2568.678,1393.3066)"
           id="g176"><path
             id="path178"
             style="fill:#303031;fill-opacity:1;fill-rule:nonzero;stroke:none"
             d="m 0,0 c -3.536,20.167 -6.468,44.665 -8.572,62.253 -0.882,7.375 -1.781,14.901 -2.752,22.519 2.881,-6.578 5.901,-13.159 9.059,-19.724 C 11.235,36.963 17.73,18.651 20.85,7.479 14.708,5.054 7.343,2.473 0,0 m -2295.381,431.293 c -2.727,5.549 -3.069,8.153 -3.076,8.207 0.394,5.633 8.856,20.688 17.178,34.583 -5.215,-14.773 -9.824,-29.193 -14.102,-42.79 m 1277.914,555.712 c -228.205,0 -413.863,-195.478 -413.863,-435.751 0,-24.87 2.121,-49.853 6.332,-74.69 -181.392,-66.774 -322.603,-195.752 -422.479,-316.165 -3.287,2.42 -6.62,4.805 -9.99,7.149 4.355,6.475 10.29,14.443 18.363,23.957 28.592,33.718 104.54,123.266 68.037,213.182 -11.939,29.41 -45.193,79.006 -133.737,80.716 -0.512,0.009 -1.354,0.018 -1.866,0.018 -14.948,0.003 -28.15,-2.824 -39.882,-7.873 10.698,44.61 11.036,89.37 -6.248,128.058 -20.284,45.41 -61.199,72.529 -109.442,72.538 h -0.034 c -31.211,0.002 -64.107,-10.996 -100.574,-33.624 -22.142,-13.741 -40.542,-30.991 -56.051,-50.273 4.932,13.532 9.403,27.959 13.14,43.336 22.717,93.417 13.164,178.136 -26.215,232.429 -27.563,38.007 -67.629,58.938 -112.812,58.943 -67.741,0.007 -139.819,-46.233 -220.35,-141.364 -67.821,-80.114 -119.655,-163.995 -149.902,-242.572 -1.108,-2.881 -2.176,-5.706 -3.212,-8.526 -1.538,-4.183 -3.086,-8.471 -4.541,-12.751 -0.899,-2.646 -1.733,-5.259 -2.56,-7.873 l -0.518,-1.638 c -2.165,-6.771 -4.209,-13.638 -6.08,-20.483 -0.905,-3.3 -1.811,-6.664 -2.648,-10.019 -1.016,-4.054 -1.993,-8.117 -2.889,-12.169 -0.853,-3.821 -1.612,-7.672 -2.361,-11.523 -1.165,-5.977 -2.195,-11.935 -3.086,-17.868 -0.628,-4.165 -1.228,-8.361 -1.723,-12.53 -0.457,-3.901 -0.84,-7.691 -1.174,-11.474 -0.381,-4.343 -0.662,-8.681 -0.893,-13.013 -0.226,-4.311 -0.412,-8.167 -0.488,-11.988 -0.121,-6.412 -0.066,-12.736 0.159,-19.012 0.118,-3.273 0.317,-6.495 0.53,-9.714 0.368,-5.437 0.815,-10.274 1.362,-15.082 l 0.134,-1.234 c 0.298,-2.766 0.617,-5.529 1.015,-8.266 1.023,-7.133 2.354,-14.452 3.93,-21.617 0.554,-2.522 1.18,-5.031 1.827,-7.533 l 0.287,-1.112 c 1.312,-5.216 2.786,-10.464 4.415,-15.666 1.085,-3.474 1.897,-6.03 2.783,-8.566 2.688,-7.727 5.473,-14.811 8.509,-21.635 0.913,-2.06 1.92,-4.147 2.956,-6.218 2.61,-5.496 5.476,-11.059 8.555,-16.546 1.375,-2.452 2.792,-4.925 4.271,-7.377 4.128,-6.86 8.24,-13.121 12.535,-19.077 l 2.411,-3.289 c 4.412,-5.931 9.169,-11.785 14.579,-17.949 1.759,-1.999 3.528,-3.934 5.315,-5.861 4.862,-5.234 9.89,-10.276 14.98,-15.03 0.812,-0.819 2.16,-2.109 3.575,-3.388 5.981,-5.406 12.423,-10.748 19.709,-16.338 1.597,-1.228 3.27,-2.457 4.949,-3.678 l 0.963,-0.701 c 5.64,-4.131 11.486,-8.14 17.571,-12.045 2.231,-1.469 3.726,-2.439 5.273,-3.395 7.472,-4.612 15.365,-9.103 23.476,-13.356 1.561,-0.817 3.115,-1.591 4.672,-2.355 l 1,-0.494 c 6.648,-3.355 13.562,-6.611 20.721,-9.758 l 1.383,-0.611 5.345,-2.322 c 9.318,-3.916 18.174,-7.345 27.122,-10.501 l 4.065,-1.363 c 8.367,-2.861 16.764,-5.5 25.414,-8.02 l 8.052,-2.297 c 11.44,-3.16 21.287,-5.647 31.022,-7.83 68.004,-15.26 132.331,-25.078 189.087,-33.744 97.818,-14.932 182.299,-27.83 243.579,-61.833 10.746,-5.962 20.913,-12.816 30.76,-20.757 -35.091,-59.88 -65.645,-120.454 -84.728,-167.379 -86.44,-27.244 -150.881,-95.091 -177.131,-189.544 -4.327,-15.555 -6.662,-28.534 -7.895,-37.216 -16.918,-64.071 -41.731,-173.138 -32.486,-231.846 26.769,-170.073 266.787,-177.362 664.434,-189.438 l 16.404,-0.501 c 49.229,-1.516 99.695,-3.1 151.032,-5.112 l 18.233,-0.743 3.657,-0.151 c 15.353,-0.636 30.68,-1.306 46.13,-2.035 l 20.655,-1.051 8.792,-0.46 6.948,-0.359 c 11.556,-0.593 23.102,-1.187 34.69,-1.87 22.18,-1.306 44.37,-2.746 66.533,-4.347 6.468,-0.472 12.407,-0.966 18.343,-1.456 l 11.225,-0.913 c 14.223,-1.133 28.461,-2.27 42.644,-3.554 8.511,-0.773 16.979,-1.624 25.458,-2.474 l 5.81,-0.582 c 13.591,-1.356 27.127,-2.771 40.608,-4.291 10.201,-1.153 20.361,-2.358 30.509,-3.612 13.897,-1.717 27.66,-3.587 41.394,-5.514 l 6.223,-0.869 c 7.182,-0.999 14.358,-1.996 21.471,-3.081 16.611,-2.532 32.99,-5.32 49.284,-8.201 l 8.565,-1.455 c 3.018,-0.501 6.039,-0.997 9.01,-1.552 20.759,-3.869 41.993,-8.257 63.139,-13.047 3.492,-0.792 6.916,-1.656 10.342,-2.513 l 8.521,-2.105 c 16.641,-4 30.143,-7.452 42.495,-10.858 6.298,-1.735 12.449,-3.569 18.603,-5.399 l 3.063,-0.911 c 12.567,-3.72 24.957,-7.632 36.881,-11.641 6.91,-2.324 13.785,-4.668 20.541,-7.113 10.829,-3.919 22.184,-8.357 35.737,-13.968 l 7.015,-2.86 c 3.238,-1.309 6.481,-2.604 9.621,-3.989 18.121,-8.011 33.529,-15.478 47.074,-22.815 0.255,-0.14 0.526,-0.284 0.801,-0.429 25.704,-13.94 49.176,-26.955 70.664,-38.869 24.995,-13.856 47.38,-26.26 67.519,-36.964 6.618,-3.518 12.995,-6.854 19.151,-10.008 50.415,-25.818 92.626,-43.009 134.795,-43.009 125.121,0 158.497,140.904 182.87,243.79 6.703,28.293 13.803,60.421 19.862,88.116 5.165,23.638 6.009,48.031 2.511,72.517 -0.531,3.948 -1.02,7.159 -1.65,10.353 -6.643,33.852 -21.994,66.199 -45.627,96.136 -0.535,0.706 -1.074,1.399 -1.632,2.094 -3.49,4.322 -7.035,8.383 -10.675,12.412 -1.685,1.882 -3.623,4.009 -5.638,6.132 -3.158,3.31 -6.316,6.504 -9.604,9.679 -2.667,2.583 -5.538,5.227 -8.444,7.859 l -1.038,0.939 c -1.009,0.916 -2.022,1.832 -3.041,2.743 -0.07,1.667 -0.142,3.366 -0.222,5.092 l -0.398,7.937 -0.533,8.983 -0.205,3.159 -0.123,1.958 -0.273,4.18 c -0.232,3.202 -0.503,6.464 -0.778,9.742 l -0.292,3.501 -0.524,6.209 c -0.618,7.075 -1.335,14.497 -2.141,22.262 l -0.433,4.086 c -0.946,8.832 -1.978,17.667 -3.135,26.903 l -0.207,1.624 c -2.671,21.092 -5.886,42.792 -9.594,64.775 76.011,96.858 161.457,118.204 271.464,119.513 3.519,0.043 7.055,0.063 10.6,0.063 48.679,0 102.539,-3.829 159.563,-7.88 67.189,-4.774 143.344,-10.186 224.819,-10.186 15.404,0 31.395,0.575 48.893,1.757 3.244,0.223 6.309,0.497 9.373,0.779 l 2.748,0.248 c 12.529,1.08 24.921,2.531 36.722,4.3 l 2.234,0.329 c 2.313,0.336 4.625,0.679 6.875,1.06 161.235,26.921 232.567,116.533 263.989,186.964 36.625,82.092 73.259,265.283 -92.93,569.825 -78.906,144.596 -158.567,214.886 -243.537,214.886 -41.342,0 -80.545,-18.364 -110.386,-51.71 -45.396,-50.729 -68.98,-136.085 -64.701,-234.184 3.39,-77.7 25.094,-137.195 42.536,-185 10.048,-27.54 20.437,-56.015 18.726,-68.746 -0.966,-7.199 -9.729,-20.552 -30.553,-38.589 -0.88,7.569 -1.683,14.969 -2.394,21.507 -9.278,85.512 -21.992,202.626 -99.944,277.671 -44.698,43.029 -87.015,63.949 -129.365,63.953 -44.297,0.005 -83.287,-23.701 -106.968,-65.043 -23.531,-41.075 -30.282,-99.082 -21.15,-163.794 -15.329,22.493 -36.665,39.07 -67.045,45.274 -15.425,3.152 -30.266,4.749 -44.106,4.749 -52.71,0.004 -96.048,-24.329 -118.896,-66.76 -40.864,-75.886 1.285,-170.377 36.545,-234.85 12.009,-21.958 18.461,-37.919 21.93,-48.798 -36.424,-13.793 -70.032,-31.015 -100.714,-51.586 -60.505,162.623 -161.653,343.261 -330.222,474.25 32.876,63.279 50.403,134.102 50.403,206.581 0,240.273 -185.658,435.751 -413.864,435.751 m -882.276,-1281.016 c -0.622,0.07 -1.229,0.137 -1.842,0.207 0.613,-0.07 1.22,-0.14 1.842,-0.207 m -14.162,1.604 c -0.905,0.103 -1.823,0.209 -2.707,0.311 0.884,-0.102 1.802,-0.208 2.707,-0.311 m -13.46,1.581 c 0.377,-0.043 0.755,-0.088 1.123,-0.133 -0.368,0.045 -0.746,0.09 -1.123,0.133 -0.749,0.09 -1.497,0.178 -2.202,0.264 0.701,-0.086 1.453,-0.174 2.202,-0.264 m -12.857,1.6 c 0.062,-0.007 0.121,-0.016 0.184,-0.023 -0.063,0.007 -0.122,0.016 -0.184,0.023 -6.22,0.805 -12.225,1.385 -18.043,1.771 -1.318,0.088 -2.531,0.07 -3.83,0.137 7.134,-0.467 14.259,-0.925 21.873,-1.908 m 1114.699,638.14 c -0.116,0.059 -0.222,0.124 -0.336,0.183 0.114,-0.059 0.22,-0.124 0.336,-0.183 m -54.67,25.051 c 0.939,-0.431 1.861,-0.876 2.828,-1.277 -0.965,0.404 -1.889,0.848 -2.828,1.277 -0.472,0.214 -0.943,0.424 -1.43,0.623 0.487,-0.199 0.958,-0.411 1.43,-0.623 m -56.312,20.577 c 1.426,-0.532 2.847,-1.069 4.319,-1.554 -1.472,0.487 -2.893,1.022 -4.319,1.554 -1.425,0.532 -2.853,1.063 -4.338,1.532 1.485,-0.472 2.913,-1 4.338,-1.532 m -110.218,27.329 c 1.556,-0.257 3.113,-0.521 4.678,-0.798 -1.565,0.28 -3.122,0.541 -4.678,0.798 -1.557,0.258 -3.109,0.51 -4.666,0.765 1.557,-0.257 3.109,-0.507 4.666,-0.765 m -37.844,5.514 c -1.049,0.124 -2.127,0.336 -3.17,0.454 -0.493,0.056 -0.969,0.07 -1.462,0.124 1.538,-0.174 3.09,-0.393 4.632,-0.578 m 67.1,469.379 c 181.849,0 329.264,-154.693 329.264,-345.51 0,-89.149 -33.061,-169.605 -85.896,-230.89 -0.021,-0.025 -0.038,-0.052 -0.059,-0.077 h -0.002 v -0.002 c -0.017,0.009 -0.034,0.02 -0.053,0.029 236.716,-144.222 354.117,-396.096 410.756,-604.893 41.509,53.01 102.328,100.858 191.532,129.532 0,0 84.322,17.132 0,171.324 -71.377,130.516 -40.147,165.904 9.276,165.901 8.965,-0.002 18.538,-1.166 28.195,-3.14 59.503,-12.153 23.208,-281.373 104.03,-281.373 4.632,0 9.659,0.886 15.099,2.754 100.384,34.479 168.647,38.763 88.336,205.806 -61.269,127.445 -57.102,254.772 3.6,254.765 18.86,-0.002 43.184,-12.297 72.692,-40.705 104.756,-100.844 44.557,-350.358 125.76,-350.358 15.289,0 35.608,8.86 62.963,29.218 172.664,128.494 32.129,201.309 24.096,385.484 -4.606,105.589 30.376,191.46 90.579,191.46 44.812,0 103.598,-47.594 170.422,-170.044 143.292,-262.585 192.199,-571.605 -111.177,-622.262 -2.5,-0.422 -5.102,-0.769 -7.65,-1.155 -10.232,-1.534 -20.858,-2.775 -31.877,-3.727 -3.507,-0.307 -6.954,-0.656 -10.541,-0.902 -13.961,-0.943 -28.326,-1.577 -43.533,-1.577 h -0.004 -0.002 -0.005 c -146.955,0 -273.59,18.066 -384.382,18.066 -3.862,0 -7.718,-0.023 -11.542,-0.068 -143.98,-1.712 -260.871,-36.99 -360.813,-187.042 2.204,-11.323 4.218,-22.321 6.075,-33.1 0.038,-0.219 0.076,-0.438 0.116,-0.652 4.012,-23.355 7.254,-45.265 9.824,-65.56 0.074,-0.58 0.152,-1.164 0.224,-1.742 1.081,-8.641 2.048,-16.904 2.902,-24.893 0.146,-1.374 0.292,-2.727 0.434,-4.083 0.748,-7.211 1.417,-14.107 1.992,-20.724 0.171,-1.938 0.326,-3.793 0.48,-5.679 0.336,-4.092 0.711,-8.306 0.981,-12.137 0,0 0.002,-0.002 0.007,-0.002 0.141,-2.017 0.241,-3.84 0.37,-5.785 0.063,-0.931 0.12,-1.825 0.175,-2.738 0.176,-2.82 0.347,-5.589 0.491,-8.242 0.135,-2.456 0.254,-4.794 0.358,-7.102 0.215,-4.724 0.391,-9.213 0.503,-13.299 0.038,-1.462 0.063,-2.791 0.091,-4.164 0.025,-1.205 0.036,-2.293 0.051,-3.427 0.031,-2.369 0.046,-4.549 0.042,-6.624 -0.006,-1.155 0.004,-2.36 -0.011,-3.422 -0.006,-0.528 -0.01,-1.045 -0.021,-1.548 -0.048,-2.764 -0.139,-5.096 -0.254,-7.147 -0.021,-0.363 -0.036,-0.794 -0.057,-1.137 -0.025,-0.411 -0.061,-0.668 -0.093,-1.045 -0.142,-1.814 -0.304,-3.309 -0.497,-4.32 4.408,-3.064 8.796,-6.132 12.917,-9.245 0.004,-0.002 0.008,-0.007 0.008,-0.007 0,0 0.011,-0.007 0.013,-0.009 1.656,-1.252 3.155,-2.533 4.765,-3.797 3.413,-2.678 6.791,-5.36 9.976,-8.074 2.295,-1.949 4.442,-3.923 6.618,-5.893 2.187,-1.978 4.35,-3.964 6.415,-5.963 2.413,-2.33 4.733,-4.676 6.981,-7.036 1.415,-1.487 2.769,-2.983 4.11,-4.481 2.535,-2.806 5.019,-5.622 7.317,-8.466 0.242,-0.303 0.455,-0.612 0.696,-0.916 14.562,-18.281 24.156,-37.326 28.049,-57.17 l 0.002,-0.005 c 0.356,-1.798 0.552,-3.616 0.815,-5.425 1.787,-12.506 1.605,-25.281 -1.265,-38.416 -7.028,-32.123 -13.426,-60.89 -19.498,-86.516 -29.733,-125.516 -51.576,-175.656 -100.847,-175.656 -24.498,0 -55.785,12.408 -98.172,34.113 -5.801,2.971 -11.81,6.116 -18.038,9.428 -37.376,19.871 -82.648,45.727 -138.217,75.854 -0.066,0.036 -0.133,0.068 -0.199,0.104 -16.907,9.157 -34.713,17.64 -53.02,25.732 -5.988,2.644 -12.259,5.06 -18.384,7.596 -12.802,5.302 -25.786,10.457 -39.165,15.298 -7.331,2.653 -14.791,5.2 -22.286,7.72 -12.986,4.368 -26.194,8.535 -39.637,12.517 -7.686,2.281 -15.338,4.582 -23.168,6.739 -14.764,4.072 -29.844,7.862 -45.072,11.523 -6.656,1.6 -13.155,3.332 -19.894,4.86 -21.67,4.907 -43.7,9.482 -66.125,13.662 -6.038,1.128 -12.248,2.069 -18.333,3.145 -16.909,2.989 -33.907,5.879 -51.149,8.508 -9.479,1.443 -19.062,2.745 -28.63,4.087 -14.162,1.986 -28.356,3.912 -42.683,5.683 -10.42,1.289 -20.856,2.525 -31.35,3.712 -13.82,1.558 -27.694,3.009 -41.621,4.399 -10.662,1.065 -21.283,2.152 -31.994,3.124 -14.472,1.311 -28.998,2.473 -43.533,3.63 -9.857,0.781 -19.677,1.65 -29.55,2.369 -0.193,0.014 -0.379,0.029 -0.565,0.043 -22.518,1.627 -45.062,3.089 -67.591,4.415 -14.098,0.83 -28.137,1.532 -42.206,2.261 -9.945,0.514 -19.879,1.058 -29.794,1.527 -15.602,0.738 -31.084,1.412 -46.589,2.055 -7.375,0.307 -14.723,0.616 -22.07,0.903 -51.566,2.021 -102.254,3.611 -151.725,5.137 -321.809,9.804 -584.302,16.074 -599.824,114.682 -7.823,49.678 32.122,198.575 32.122,198.575 0,0 1.001,12.135 5.941,29.892 12.458,44.828 50.265,125.187 159.919,136.88 -0.273,0.025 -0.353,0.505 -0.345,1.193 0,0.154 0.017,0.336 0.038,0.522 1.204,14.379 44.743,125.335 129.848,256.058 -6.186,8.444 -12.696,16.139 -19.312,23.598 -6.334,6.991 -12.846,13.588 -19.515,19.853 -19.06,17.913 -39.489,33.01 -61.603,45.28 -114.043,63.28 -267.978,62.025 -454.294,103.827 -9.439,2.118 -18.421,4.449 -27.196,6.872 -2.361,0.654 -4.685,1.324 -6.997,1.999 -7.411,2.159 -14.604,4.415 -21.532,6.793 -1.215,0.415 -2.49,0.798 -3.687,1.218 -7.865,2.775 -15.365,5.712 -22.618,8.76 -1.886,0.794 -3.707,1.618 -5.556,2.43 -5.795,2.549 -11.393,5.18 -16.786,7.903 -1.5,0.755 -3.054,1.488 -4.522,2.258 -6.419,3.364 -12.557,6.854 -18.403,10.463 -1.389,0.858 -2.69,1.751 -4.048,2.622 -4.606,2.955 -9.033,5.989 -13.276,9.098 -1.478,1.081 -2.98,2.152 -4.414,3.253 -5.05,3.879 -9.894,7.84 -14.424,11.933 -0.888,0.803 -1.685,1.64 -2.553,2.452 -3.705,3.458 -7.216,6.993 -10.562,10.594 -1.252,1.349 -2.493,2.703 -3.697,4.072 -3.536,4.027 -6.907,8.122 -10.027,12.314 -0.558,0.751 -1.11,1.5 -1.654,2.256 -3.035,4.207 -5.812,8.505 -8.437,12.866 -0.979,1.626 -1.914,3.269 -2.838,4.918 -2.041,3.634 -3.938,7.321 -5.706,11.052 -0.641,1.349 -1.354,2.673 -1.957,4.034 -2.102,4.726 -3.955,9.536 -5.649,14.402 -0.66,1.891 -1.239,3.804 -1.838,5.715 -1.091,3.479 -2.076,6.991 -2.967,10.535 -0.489,1.934 -1.015,3.851 -1.442,5.803 -1.075,4.882 -1.974,9.823 -2.691,14.815 -0.315,2.173 -0.522,4.375 -0.769,6.567 -0.383,3.357 -0.694,6.732 -0.925,10.132 -0.16,2.41 -0.325,4.817 -0.412,7.244 -0.163,4.524 -0.203,9.083 -0.114,13.674 0.057,2.908 0.215,5.841 0.372,8.774 0.169,3.215 0.37,6.436 0.658,9.68 0.249,2.847 0.535,5.699 0.873,8.569 0.377,3.178 0.844,6.38 1.326,9.581 0.69,4.589 1.487,9.196 2.388,13.829 0.586,3.012 1.172,6.026 1.846,9.056 0.715,3.222 1.496,6.452 2.306,9.69 0.666,2.664 1.389,5.335 2.121,8.009 1.521,5.558 3.181,11.135 4.975,16.737 0.824,2.594 1.626,5.182 2.508,7.783 1.205,3.547 2.494,7.102 3.803,10.66 0.865,2.362 1.764,4.726 2.673,7.091 28.146,73.119 76.787,148.274 134.433,216.37 67.76,80.046 120.383,111.608 157.552,111.603 60.616,-0.004 80.133,-83.949 57.145,-178.476 -37.078,-152.487 -166.6,-187.006 -43.41,-326.834 22.985,-26.091 40.406,-37.001 54.363,-37.001 60.849,0 55.654,207.601 156.385,270.113 23.931,14.847 43.201,21.392 58.054,21.387 62.007,-0.013 46.839,-114.161 -29.557,-214.685 -94.686,-124.609 -38.313,-141.001 39.938,-188.664 6.586,-4.011 12.706,-5.848 18.425,-5.848 62.103,0 76.937,216.481 126.783,216.474 0.112,0 0.222,-0.002 0.335,-0.004 54.716,-1.056 100.43,-30.01 4.496,-143.127 -95.934,-113.101 -28.241,-143.248 -28.241,-143.248 19.789,-11.53 37.242,-23.97 52.809,-37.028 v 0.002 c 0.196,-0.164 0.361,-0.338 0.556,-0.503 8.631,-7.271 16.552,-14.761 24.056,-22.375 5.397,-5.464 10.68,-10.96 15.545,-16.561 115.489,158.873 288.377,328.154 517.388,382.366 -3.257,7.946 -6.076,16.119 -8.72,24.378 -1.519,4.607 -2.97,9.227 -4.309,13.918 0,0 0,0.009 0,0.013 v 0 c -8.891,31.163 -13.975,64.037 -13.975,98.243 0,190.817 147.412,345.51 329.263,345.51" /></g></g></g></g></svg>